<?plantuml 1.2026.1?><svg xmlns="http://www.w3.org/2000/svg" xmlns:xlink="http://www.w3.org/1999/xlink" contentStyleType="text/css" data-diagram-type="CLASS" height="949px" preserveAspectRatio="none" style="width:795px;height:949px;background:#FFFFFF;" version="1.1" viewBox="0 0 795 949" width="795px" zoomAndPan="magnify"><title>Devil - &#1057;&#1086;&#1086;&#1073;&#1097;&#1077;&#1085;&#1080;&#1103; &#1080; &#1095;&#1090;&#1077;&#1085;&#1080;&#1077;</title><defs/><g><g class="title" data-source-line="1"><text fill="#000000" font-family="Arial" font-size="14" font-weight="bold" lengthAdjust="spacing" textLength="297.1787" x="241.9106" y="22.9951">Devil - &#1057;&#1086;&#1086;&#1073;&#1097;&#1077;&#1085;&#1080;&#1103; &#1080; &#1095;&#1090;&#1077;&#1085;&#1080;&#1077;</text></g><!--cluster ???????? ?????????--><g class="cluster" data-qualified-name="........ ........." data-source-line="25" id="ent0002"><rect fill="#F7F9FC" height="279" rx="5" ry="5" style="stroke:#C8D0DB;stroke-width:1.5;" width="185.1" x="589.41" y="664.2969"/><text fill="#1F2937" font-family="Arial" font-size="14" font-weight="bold" lengthAdjust="spacing" textLength="170.707" x="596.6065" y="679.292">&#1050;&#1086;&#1085;&#1090;&#1077;&#1082;&#1089;&#1090; &#1089;&#1086;&#1086;&#1073;&#1097;&#1077;&#1085;&#1080;&#1081;</text></g><!--cluster ?????????--><g class="cluster" data-qualified-name="........." data-source-line="37" id="ent0005"><rect fill="#F7F9FC" height="596" rx="5" ry="5" style="stroke:#C8D0DB;stroke-width:1.5;" width="705.06" x="83.94" y="44.2969"/><text fill="#1F2937" font-family="Arial" font-size="14" font-weight="bold" lengthAdjust="spacing" textLength="92.7295" x="390.1053" y="59.292">&#1057;&#1086;&#1086;&#1073;&#1097;&#1077;&#1085;&#1080;&#1103;</text></g><!--class User--><g class="entity" data-qualified-name="........ ..........User" data-source-line="26" id="ent0003"><rect fill="#FFFFFF" height="91.1875" rx="5" ry="5" style="stroke:#9FB0C7;stroke-width:0.5;" width="135.0996" x="614.41" y="699.7069"/><ellipse cx="629.41" cy="721.0038" fill="#ADD1B2" rx="11" ry="11" style="stroke:#181818;stroke-width:1;"/><path d="M632.3788,726.6444 Q631.8006,726.9413 631.16,727.0819 Q630.5194,727.2381 629.8163,727.2381 Q627.3163,727.2381 625.9881,725.5975 Q624.6756,723.9413 624.6756,720.8163 Q624.6756,717.6913 625.9881,716.035 Q627.3163,714.3788 629.8163,714.3788 Q630.5194,714.3788 631.16,714.535 Q631.8163,714.6913 632.3788,714.9881 L632.3788,717.7069 Q631.7538,717.1288 631.16,716.8631 Q630.5663,716.5819 629.9413,716.5819 Q628.5975,716.5819 627.91,717.66 Q627.2225,718.7225 627.2225,720.8163 Q627.2225,722.91 627.91,723.9881 Q628.5975,725.0506 629.9413,725.0506 Q630.5663,725.0506 631.16,724.785 Q631.7538,724.5038 632.3788,723.9256 L632.3788,726.6444 Z " fill="#000000"/><text fill="#1F2937" font-family="Arial" font-size="14" lengthAdjust="spacing" textLength="103.0996" x="643.41" y="717.702">&#1055;&#1086;&#1083;&#1100;&#1079;&#1086;&#1074;&#1072;&#1090;&#1077;&#1083;&#1100;</text><text fill="#1F2937" font-family="Arial" font-size="14" lengthAdjust="spacing" textLength="31.9102" x="679.0047" y="733.9989">User</text><line style="stroke:#9FB0C7;stroke-width:0.5;" x1="615.41" x2="748.5096" y1="742.3006" y2="742.3006"/><text fill="#000000" font-family="Arial" font-size="14" lengthAdjust="spacing" textLength="24.5068" x="620.41" y="759.2957">+id</text><text fill="#000000" font-family="Arial" font-size="14" lengthAdjust="spacing" textLength="81.9697" x="620.41" y="775.5926">+username</text><line style="stroke:#9FB0C7;stroke-width:0.5;" x1="615.41" x2="748.5096" y1="782.8944" y2="782.8944"/></g><!--class Room--><g class="entity" data-qualified-name="........ ..........Room" data-source-line="31" id="ent0004"><rect fill="#FFFFFF" height="91.1875" rx="5" ry="5" style="stroke:#9FB0C7;stroke-width:0.5;" width="95.5332" x="634.19" y="835.7069"/><ellipse cx="649.19" cy="857.0038" fill="#ADD1B2" rx="11" ry="11" style="stroke:#181818;stroke-width:1;"/><path d="M652.1588,862.6444 Q651.5806,862.9413 650.94,863.0819 Q650.2994,863.2381 649.5963,863.2381 Q647.0963,863.2381 645.7681,861.5975 Q644.4556,859.9413 644.4556,856.8163 Q644.4556,853.6913 645.7681,852.035 Q647.0963,850.3788 649.5963,850.3788 Q650.2994,850.3788 650.94,850.535 Q651.5963,850.6913 652.1588,850.9881 L652.1588,853.7069 Q651.5338,853.1288 650.94,852.8631 Q650.3463,852.5819 649.7213,852.5819 Q648.3775,852.5819 647.69,853.66 Q647.0025,854.7225 647.0025,856.8163 Q647.0025,858.91 647.69,859.9881 Q648.3775,861.0506 649.7213,861.0506 Q650.3463,861.0506 650.94,860.785 Q651.5338,860.5038 652.1588,859.9256 L652.1588,862.6444 Z " fill="#000000"/><text fill="#1F2937" font-family="Arial" font-size="14" lengthAdjust="spacing" textLength="63.5332" x="663.19" y="853.702">&#1050;&#1086;&#1084;&#1085;&#1072;&#1090;&#1072;</text><text fill="#1F2937" font-family="Arial" font-size="14" lengthAdjust="spacing" textLength="40.4961" x="674.7086" y="869.9989">Room</text><line style="stroke:#9FB0C7;stroke-width:0.5;" x1="635.19" x2="728.7232" y1="878.3006" y2="878.3006"/><text fill="#000000" font-family="Arial" font-size="14" lengthAdjust="spacing" textLength="24.5068" x="640.19" y="895.2957">+id</text><text fill="#000000" font-family="Arial" font-size="14" lengthAdjust="spacing" textLength="41.4873" x="640.19" y="911.5926">+kind</text><line style="stroke:#9FB0C7;stroke-width:0.5;" x1="635.19" x2="728.7232" y1="918.8944" y2="918.8944"/></g><!--class Message--><g class="entity" data-qualified-name="..........Message" data-source-line="38" id="ent0006"><rect fill="#FFFFFF" height="123.7813" rx="5" ry="5" style="stroke:#9FB0C7;stroke-width:0.5;" width="147.249" x="99.94" y="500.4069"/><ellipse cx="128.9098" cy="521.7038" fill="#ADD1B2" rx="11" ry="11" style="stroke:#181818;stroke-width:1;"/><path d="M131.8785,527.3444 Q131.3004,527.6413 130.6598,527.7819 Q130.0192,527.9381 129.316,527.9381 Q126.816,527.9381 125.4879,526.2975 Q124.1754,524.6413 124.1754,521.5163 Q124.1754,518.3913 125.4879,516.735 Q126.816,515.0788 129.316,515.0788 Q130.0192,515.0788 130.6598,515.235 Q131.316,515.3913 131.8785,515.6881 L131.8785,518.4069 Q131.2535,517.8288 130.6598,517.5631 Q130.066,517.2819 129.441,517.2819 Q128.0973,517.2819 127.4098,518.36 Q126.7223,519.4225 126.7223,521.5163 Q126.7223,523.61 127.4098,524.6881 Q128.0973,525.7506 129.441,525.7506 Q130.066,525.7506 130.6598,525.485 Q131.2535,525.2038 131.8785,524.6256 L131.8785,527.3444 Z " fill="#000000"/><text fill="#1F2937" font-family="Arial" font-size="14" lengthAdjust="spacing" textLength="84.2051" x="146.0142" y="518.402">&#1057;&#1086;&#1086;&#1073;&#1097;&#1077;&#1085;&#1080;&#1077;</text><text fill="#1F2937" font-family="Arial" font-size="14" lengthAdjust="spacing" textLength="61.3594" x="157.437" y="534.6989">Message</text><line style="stroke:#9FB0C7;stroke-width:0.5;" x1="100.94" x2="246.189" y1="543.0006" y2="543.0006"/><text fill="#000000" font-family="Arial" font-size="14" lengthAdjust="spacing" textLength="24.5068" x="105.94" y="559.9957">+id</text><text fill="#000000" font-family="Arial" font-size="14" lengthAdjust="spacing" textLength="135.249" x="105.94" y="576.2926">+message_content</text><text fill="#000000" font-family="Arial" font-size="14" lengthAdjust="spacing" textLength="77.1777" x="105.94" y="592.5895">+edited_at</text><text fill="#000000" font-family="Arial" font-size="14" lengthAdjust="spacing" textLength="82.9063" x="105.94" y="608.8864">+is_deleted</text><line style="stroke:#9FB0C7;stroke-width:0.5;" x1="100.94" x2="246.189" y1="616.1881" y2="616.1881"/></g><!--class Reaction--><g class="entity" data-qualified-name="..........Reaction" data-source-line="45" id="ent0007"><rect fill="#FFFFFF" height="74.8906" rx="5" ry="5" style="stroke:#9FB0C7;stroke-width:0.5;" width="93.4346" x="367.83" y="549.8469"/><ellipse cx="382.83" cy="571.1438" fill="#ADD1B2" rx="11" ry="11" style="stroke:#181818;stroke-width:1;"/><path d="M385.7988,576.7844 Q385.2206,577.0813 384.58,577.2219 Q383.9394,577.3781 383.2363,577.3781 Q380.7363,577.3781 379.4081,575.7375 Q378.0956,574.0813 378.0956,570.9563 Q378.0956,567.8313 379.4081,566.175 Q380.7363,564.5188 383.2363,564.5188 Q383.9394,564.5188 384.58,564.675 Q385.2363,564.8313 385.7988,565.1281 L385.7988,567.8469 Q385.1738,567.2688 384.58,567.0031 Q383.9863,566.7219 383.3613,566.7219 Q382.0175,566.7219 381.33,567.8 Q380.6425,568.8625 380.6425,570.9563 Q380.6425,573.05 381.33,574.1281 Q382.0175,575.1906 383.3613,575.1906 Q383.9863,575.1906 384.58,574.925 Q385.1738,574.6438 385.7988,574.0656 L385.7988,576.7844 Z " fill="#000000"/><text fill="#1F2937" font-family="Arial" font-size="14" lengthAdjust="spacing" textLength="61.1406" x="396.977" y="567.842">&#1056;&#1077;&#1072;&#1082;&#1094;&#1080;&#1103;</text><text fill="#1F2937" font-family="Arial" font-size="14" lengthAdjust="spacing" textLength="61.4346" x="396.83" y="584.1389">Reaction</text><line style="stroke:#9FB0C7;stroke-width:0.5;" x1="368.83" x2="460.2646" y1="592.4406" y2="592.4406"/><text fill="#000000" font-family="Arial" font-size="14" lengthAdjust="spacing" textLength="50.3262" x="373.83" y="609.4357">+emoji</text><line style="stroke:#9FB0C7;stroke-width:0.5;" x1="368.83" x2="460.2646" y1="616.7375" y2="616.7375"/></g><!--class Attachment--><g class="entity" data-qualified-name="..........Attachment" data-source-line="49" id="ent0008"><rect fill="#FFFFFF" height="107.4844" rx="5" ry="5" style="stroke:#9FB0C7;stroke-width:0.5;" width="175.6777" x="326.71" y="397.5569"/><ellipse cx="341.71" cy="418.8538" fill="#ADD1B2" rx="11" ry="11" style="stroke:#181818;stroke-width:1;"/><path d="M344.6788,424.4944 Q344.1006,424.7913 343.46,424.9319 Q342.8194,425.0881 342.1163,425.0881 Q339.6163,425.0881 338.2881,423.4475 Q336.9756,421.7913 336.9756,418.6663 Q336.9756,415.5413 338.2881,413.885 Q339.6163,412.2288 342.1163,412.2288 Q342.8194,412.2288 343.46,412.385 Q344.1163,412.5413 344.6788,412.8381 L344.6788,415.5569 Q344.0538,414.9788 343.46,414.7131 Q342.8663,414.4319 342.2413,414.4319 Q340.8975,414.4319 340.21,415.51 Q339.5225,416.5725 339.5225,418.6663 Q339.5225,420.76 340.21,421.8381 Q340.8975,422.9006 342.2413,422.9006 Q342.8663,422.9006 343.46,422.635 Q344.0538,422.3538 344.6788,421.7756 L344.6788,424.4944 Z " fill="#000000"/><text fill="#1F2937" font-family="Arial" font-size="14" lengthAdjust="spacing" textLength="75.209" x="389.9444" y="415.552">&#1042;&#1083;&#1086;&#1078;&#1077;&#1085;&#1080;&#1077;</text><text fill="#1F2937" font-family="Arial" font-size="14" lengthAdjust="spacing" textLength="143.6777" x="355.71" y="431.8489">MessageAttachment</text><line style="stroke:#9FB0C7;stroke-width:0.5;" x1="327.71" x2="501.3877" y1="440.1506" y2="440.1506"/><text fill="#000000" font-family="Arial" font-size="14" lengthAdjust="spacing" textLength="132.084" x="332.71" y="457.1457">+original_filename</text><text fill="#000000" font-family="Arial" font-size="14" lengthAdjust="spacing" textLength="103.6055" x="332.71" y="473.4426">+content_type</text><text fill="#000000" font-family="Arial" font-size="14" lengthAdjust="spacing" textLength="67.1973" x="332.71" y="489.7395">+file_size</text><line style="stroke:#9FB0C7;stroke-width:0.5;" x1="327.71" x2="501.3877" y1="497.0413" y2="497.0413"/></g><!--class Upload--><g class="entity" data-qualified-name="..........Upload" data-source-line="55" id="ent0009"><rect fill="#FFFFFF" height="107.4844" rx="5" ry="5" style="stroke:#9FB0C7;stroke-width:0.5;" width="224.7324" x="302.18" y="245.5569"/><ellipse cx="317.18" cy="266.8538" fill="#ADD1B2" rx="11" ry="11" style="stroke:#181818;stroke-width:1;"/><path d="M320.1488,272.4944 Q319.5706,272.7913 318.93,272.9319 Q318.2894,273.0881 317.5863,273.0881 Q315.0863,273.0881 313.7581,271.4475 Q312.4456,269.7913 312.4456,266.6663 Q312.4456,263.5413 313.7581,261.885 Q315.0863,260.2288 317.5863,260.2288 Q318.2894,260.2288 318.93,260.385 Q319.5863,260.5413 320.1488,260.8381 L320.1488,263.5569 Q319.5238,262.9788 318.93,262.7131 Q318.3363,262.4319 317.7113,262.4319 Q316.3675,262.4319 315.68,263.51 Q314.9925,264.5725 314.9925,266.6663 Q314.9925,268.76 315.68,269.8381 Q316.3675,270.9006 317.7113,270.9006 Q318.3363,270.9006 318.93,270.635 Q319.5238,270.3538 320.1488,269.7756 L320.1488,272.4944 Z " fill="#000000"/><text fill="#1F2937" font-family="Arial" font-size="14" lengthAdjust="spacing" textLength="139.5488" x="357.7718" y="263.552">&#1063;&#1077;&#1088;&#1085;&#1086;&#1074;&#1072;&#1103; &#1079;&#1072;&#1075;&#1088;&#1091;&#1079;&#1082;&#1072;</text><text fill="#1F2937" font-family="Arial" font-size="14" lengthAdjust="spacing" textLength="192.7324" x="331.18" y="279.8489">MessageAttachmentUpload</text><line style="stroke:#9FB0C7;stroke-width:0.5;" x1="303.18" x2="525.9124" y1="288.1506" y2="288.1506"/><text fill="#000000" font-family="Arial" font-size="14" lengthAdjust="spacing" textLength="24.5068" x="308.18" y="305.1457">+id</text><text fill="#000000" font-family="Arial" font-size="14" lengthAdjust="spacing" textLength="54.749" x="308.18" y="321.4426">+status</text><text fill="#000000" font-family="Arial" font-size="14" lengthAdjust="spacing" textLength="117.6533" x="308.18" y="337.7395">+received_bytes</text><line style="stroke:#9FB0C7;stroke-width:0.5;" x1="303.18" x2="525.9124" y1="345.0413" y2="345.0413"/></g><!--class ReadState--><g class="entity" data-qualified-name="..........ReadState" data-source-line="61" id="ent0010"><rect fill="#FFFFFF" height="74.8906" rx="5" ry="5" style="stroke:#9FB0C7;stroke-width:0.5;" width="195.3721" x="316.86" y="125.8469"/><ellipse cx="331.86" cy="147.1437" fill="#ADD1B2" rx="11" ry="11" style="stroke:#181818;stroke-width:1;"/><path d="M334.8288,152.7844 Q334.2506,153.0812 333.61,153.2219 Q332.9694,153.3781 332.2663,153.3781 Q329.7663,153.3781 328.4381,151.7375 Q327.1256,150.0812 327.1256,146.9562 Q327.1256,143.8312 328.4381,142.175 Q329.7663,140.5187 332.2663,140.5187 Q332.9694,140.5187 333.61,140.675 Q334.2663,140.8312 334.8288,141.1281 L334.8288,143.8469 Q334.2038,143.2687 333.61,143.0031 Q333.0163,142.7219 332.3913,142.7219 Q331.0475,142.7219 330.36,143.8 Q329.6725,144.8625 329.6725,146.9562 Q329.6725,149.05 330.36,150.1281 Q331.0475,151.1906 332.3913,151.1906 Q333.0163,151.1906 333.61,150.925 Q334.2038,150.6437 334.8288,150.0656 L334.8288,152.7844 Z " fill="#000000"/><text fill="#1F2937" font-family="Arial" font-size="14" lengthAdjust="spacing" textLength="163.3721" x="345.86" y="143.842">&#1055;&#1086;&#1089;&#1083;&#1077;&#1076;&#1085;&#1077;&#1077; &#1087;&#1088;&#1086;&#1095;&#1090;&#1077;&#1085;&#1080;&#1077;</text><text fill="#1F2937" font-family="Arial" font-size="14" lengthAdjust="spacing" textLength="134.2236" x="360.4342" y="160.1389">MessageReadState</text><line style="stroke:#9FB0C7;stroke-width:0.5;" x1="317.86" x2="511.2321" y1="168.4406" y2="168.4406"/><text fill="#000000" font-family="Arial" font-size="14" lengthAdjust="spacing" textLength="96.8857" x="322.86" y="185.4357">+last_read_at</text><line style="stroke:#9FB0C7;stroke-width:0.5;" x1="317.86" x2="511.2321" y1="192.7375" y2="192.7375"/></g><!--class Receipt--><g class="entity" data-qualified-name="..........Receipt" data-source-line="65" id="ent0011"><rect fill="#FFFFFF" height="74.8906" rx="5" ry="5" style="stroke:#9FB0C7;stroke-width:0.5;" width="182.083" x="590.92" y="125.8469"/><ellipse cx="605.92" cy="147.1437" fill="#ADD1B2" rx="11" ry="11" style="stroke:#181818;stroke-width:1;"/><path d="M608.8888,152.7844 Q608.3106,153.0812 607.67,153.2219 Q607.0294,153.3781 606.3263,153.3781 Q603.8263,153.3781 602.4981,151.7375 Q601.1856,150.0812 601.1856,146.9562 Q601.1856,143.8312 602.4981,142.175 Q603.8263,140.5187 606.3263,140.5187 Q607.0294,140.5187 607.67,140.675 Q608.3263,140.8312 608.8888,141.1281 L608.8888,143.8469 Q608.2638,143.2687 607.67,143.0031 Q607.0763,142.7219 606.4513,142.7219 Q605.1075,142.7219 604.42,143.8 Q603.7325,144.8625 603.7325,146.9562 Q603.7325,149.05 604.42,150.1281 Q605.1075,151.1906 606.4513,151.1906 Q607.0763,151.1906 607.67,150.925 Q608.2638,150.6437 608.8888,150.0656 L608.8888,152.7844 Z " fill="#000000"/><text fill="#1F2937" font-family="Arial" font-size="14" lengthAdjust="spacing" textLength="134.6816" x="627.6207" y="143.842">&#1058;&#1086;&#1095;&#1085;&#1086;&#1077; &#1087;&#1088;&#1086;&#1095;&#1090;&#1077;&#1085;&#1080;&#1077;</text><text fill="#1F2937" font-family="Arial" font-size="14" lengthAdjust="spacing" textLength="150.083" x="619.92" y="160.1389">MessageReadReceipt</text><line style="stroke:#9FB0C7;stroke-width:0.5;" x1="591.92" x2="772.003" y1="168.4406" y2="168.4406"/><text fill="#000000" font-family="Arial" font-size="14" lengthAdjust="spacing" textLength="64.6338" x="596.92" y="185.4357">+read_at</text><line style="stroke:#9FB0C7;stroke-width:0.5;" x1="591.92" x2="772.003" y1="192.7375" y2="192.7375"/></g><!--link Room to Message--><!--link Message to Room--><g class="link" data-entity-1="ent0006" data-entity-2="ent0004" data-link-type="dependency" data-source-line="77" id="lnk18"><path codeLine="77" d="M137,624.6169 C137,724.3369 137,908.6569 137,908.6569 C137,908.6569 495.09,908.6569 628.07,908.6569" fill="none" id="Message-to-Room" style="stroke:#687385;stroke-width:1;"/><polygon fill="#687385" points="634.07,908.6569,625.07,904.6569,629.07,908.6569,625.07,912.6569,634.07,908.6569" style="stroke:#687385;stroke-width:1;"/><text fill="#000000" font-family="Arial" font-size="13" lengthAdjust="spacing" textLength="145.666" x="97.52" y="921.7238">&#1085;&#1072;&#1093;&#1086;&#1076;&#1080;&#1090;&#1089;&#1103; &#1074; &#1082;&#1086;&#1084;&#1085;&#1072;&#1090;&#1077;</text><text fill="#000000" font-family="Arial" font-size="13" lengthAdjust="spacing" textLength="6.5" x="126.7" y="644.3275">*</text><text fill="#000000" font-family="Arial" font-size="13" lengthAdjust="spacing" textLength="8.271" x="617.8222" y="926.2896">1</text></g><!--link Message to Reaction--><!--link Reaction to Message--><g class="link" data-entity-1="ent0007" data-entity-2="ent0006" data-link-type="dependency" data-source-line="81" id="lnk21"><path codeLine="81" d="M367.51,587.0169 C333.41,587.0169 292.6,587.0169 253.51,587.0169" fill="none" id="Reaction-to-Message" style="stroke:#687385;stroke-width:1;"/><polygon fill="#687385" points="247.51,587.0169,256.51,591.0169,252.51,587.0169,256.51,583.0169,247.51,587.0169" style="stroke:#687385;stroke-width:1;"/><text fill="#000000" font-family="Arial" font-size="13" lengthAdjust="spacing" textLength="57.186" x="308.51" y="583.0838">&#1088;&#1077;&#1072;&#1082;&#1094;&#1080;&#1103;</text><text fill="#000000" font-family="Arial" font-size="13" lengthAdjust="spacing" textLength="6.5" x="353.264" y="600.2914">*</text><text fill="#000000" font-family="Arial" font-size="13" lengthAdjust="spacing" textLength="8.271" x="255.1961" y="602.2619">1</text></g><!--link Reaction to Attachment--><!--link Attachment to Upload--><!--link Upload to ReadState--><!--link ReadState to Receipt--><!--link Message to User--><g class="link" data-entity-1="ent0006" data-entity-2="ent0003" data-link-type="dependency" data-source-line="78" id="lnk19"><path codeLine="78" d="M211,624.5569 C211,686.5869 211,772.6569 211,772.6569 C211,772.6569 477.56,772.6569 607.98,772.6569" fill="none" id="Message-to-User" style="stroke:#687385;stroke-width:1;"/><polygon fill="#687385" points="613.98,772.6569,604.98,768.6569,608.98,772.6569,604.98,776.6569,613.98,772.6569" style="stroke:#687385;stroke-width:1;"/><text fill="#000000" font-family="Arial" font-size="13" lengthAdjust="spacing" textLength="39.4063" x="298.44" y="785.7238">&#1072;&#1074;&#1090;&#1086;&#1088;</text><text fill="#000000" font-family="Arial" font-size="13" lengthAdjust="spacing" textLength="6.5" x="208.7937" y="644.261">*</text><text fill="#000000" font-family="Arial" font-size="13" lengthAdjust="spacing" textLength="24.8066" x="581.7737" y="788.3252">0..1</text></g><!--link Message to Message--><g class="link" data-entity-1="ent0006" data-entity-2="ent0006" data-link-type="dependency" data-source-line="79" id="lnk20"><path codeLine="79" d="M99.65,562.2969 C89.24,562.2969 82,562.2969 82,562.2969 C82,562.2969 82,662.2269 82,662.2269 C82,662.2269 275,662.2269 275,662.2269 C275,662.2269 275,568.4369 275,568.4369 C275,568.4369 269.15,568.4369 253.55,568.4369" fill="none" id="Message-to-Message" style="stroke:#687385;stroke-width:1;"/><polygon fill="#687385" points="247.55,568.4369,256.55,572.4369,252.55,568.4369,256.55,564.4369,247.55,568.4369" style="stroke:#687385;stroke-width:1;"/><text fill="#000000" font-family="Arial" font-size="13" lengthAdjust="spacing" textLength="59.3569" x="115.33" y="680.2938">&#1086;&#1090;&#1074;&#1077;&#1090; &#1085;&#1072;</text><text fill="#000000" font-family="Arial" font-size="13" lengthAdjust="spacing" textLength="23.0356" x="68.7775" y="575.0612">0..*</text><text fill="#000000" font-family="Arial" font-size="13" lengthAdjust="spacing" textLength="24.8066" x="255.244" y="581.7244">0..1</text></g><!--link Reaction to User--><g class="link" data-entity-1="ent0007" data-entity-2="ent0003" data-link-type="dependency" data-source-line="82" id="lnk22"><path codeLine="82" d="M415,625.2169 C415,674.5269 415,754.4169 415,754.4169 C415,754.4169 529.16,754.4169 608.25,754.4169" fill="none" id="Reaction-to-User" style="stroke:#687385;stroke-width:1;"/><polygon fill="#687385" points="614.25,754.4169,605.25,750.4169,609.25,754.4169,605.25,758.4169,614.25,754.4169" style="stroke:#687385;stroke-width:1;"/><text fill="#000000" font-family="Arial" font-size="13" lengthAdjust="spacing" textLength="63.5591" x="386.03" y="767.4838">&#1087;&#1086;&#1089;&#1090;&#1072;&#1074;&#1080;&#1083;</text><text fill="#000000" font-family="Arial" font-size="13" lengthAdjust="spacing" textLength="6.5" x="408.6195" y="644.8182">*</text><text fill="#000000" font-family="Arial" font-size="13" lengthAdjust="spacing" textLength="8.271" x="597.9742" y="768.4127">1</text></g><!--link Attachment to Message--><g class="link" data-entity-1="ent0008" data-entity-2="ent0006" data-link-type="dependency" data-source-line="84" id="lnk23"><path codeLine="84" d="M348,505.4069 C348,513.9269 348,519.9769 348,519.9769 C348,519.9769 301.08,519.9769 253.54,519.9769" fill="none" id="Attachment-to-Message" style="stroke:#687385;stroke-width:1;"/><polygon fill="#687385" points="247.54,519.9769,256.54,523.9769,252.54,519.9769,256.54,515.9769,247.54,519.9769" style="stroke:#687385;stroke-width:1;"/><text fill="#000000" font-family="Arial" font-size="13" lengthAdjust="spacing" textLength="126.3184" x="306.05" y="533.0438">&#1092;&#1072;&#1081;&#1083;&#1099; &#1089;&#1086;&#1086;&#1073;&#1097;&#1077;&#1085;&#1080;&#1103;</text><text fill="#000000" font-family="Arial" font-size="13" lengthAdjust="spacing" textLength="6.5" x="333.5542" y="524.9903">*</text><text fill="#000000" font-family="Arial" font-size="13" lengthAdjust="spacing" textLength="8.271" x="255.2291" y="528.6227">1</text></g><!--link Upload to Room--><g class="link" data-entity-1="ent0009" data-entity-2="ent0004" data-link-type="dependency" data-source-line="85" id="lnk24"><path codeLine="85" d="M511,353.4469 C511,496.2569 511,872.1769 511,872.1769 C511,872.1769 577.32,872.1769 627.88,872.1769" fill="none" id="Upload-to-Room" style="stroke:#687385;stroke-width:1;"/><polygon fill="#687385" points="633.88,872.1769,624.88,868.1769,628.88,872.1769,624.88,876.1769,633.88,872.1769" style="stroke:#687385;stroke-width:1;"/><text fill="#000000" font-family="Arial" font-size="13" lengthAdjust="spacing" textLength="161.1416" x="349" y="687.3238">&#1079;&#1072;&#1075;&#1088;&#1091;&#1078;&#1072;&#1077;&#1090;&#1089;&#1103; &#1074; &#1082;&#1086;&#1084;&#1085;&#1072;&#1090;&#1091;</text><text fill="#000000" font-family="Arial" font-size="13" lengthAdjust="spacing" textLength="6.5" x="516.4201" y="373.0352">*</text><text fill="#000000" font-family="Arial" font-size="13" lengthAdjust="spacing" textLength="8.271" x="617.9265" y="884.0053">1</text></g><!--link Upload to User--><g class="link" data-entity-1="ent0009" data-entity-2="ent0003" data-link-type="dependency" data-source-line="86" id="lnk25"><path codeLine="86" d="M519,353.3069 C519,470.1969 519,736.1769 519,736.1769 C519,736.1769 563.49,736.1769 608.27,736.1769" fill="none" id="Upload-to-User" style="stroke:#687385;stroke-width:1;"/><polygon fill="#687385" points="614.27,736.1769,605.27,732.1769,609.27,736.1769,605.27,740.1769,614.27,736.1769" style="stroke:#687385;stroke-width:1;"/><text fill="#000000" font-family="Arial" font-size="13" lengthAdjust="spacing" textLength="72.9028" x="520" y="605.4438">&#1079;&#1072;&#1075;&#1088;&#1091;&#1078;&#1072;&#1077;&#1090;</text><text fill="#000000" font-family="Arial" font-size="13" lengthAdjust="spacing" textLength="6.5" x="526.0308" y="373.263">*</text><text fill="#000000" font-family="Arial" font-size="13" lengthAdjust="spacing" textLength="8.271" x="597.9965" y="748.0637">1</text></g><!--link ReadState to Room--><g class="link" data-entity-1="ent0010" data-entity-2="ent0004" data-link-type="dependency" data-source-line="88" id="lnk26"><path codeLine="88" d="M512.62,182.0169 C533.29,182.0169 549,182.0169 549,182.0169 C549,182.0169 549,853.9369 549,853.9369 C549,853.9369 589.87,853.9369 627.96,853.9369" fill="none" id="ReadState-to-Room" style="stroke:#687385;stroke-width:1;"/><polygon fill="#687385" points="633.96,853.9369,624.96,849.9369,628.96,853.9369,624.96,857.9369,633.96,853.9369" style="stroke:#687385;stroke-width:1;"/><text fill="#000000" font-family="Arial" font-size="13" lengthAdjust="spacing" textLength="57.6177" x="491" y="555.3338">&#1082;&#1086;&#1084;&#1085;&#1072;&#1090;&#1072;</text><text fill="#000000" font-family="Arial" font-size="13" lengthAdjust="spacing" textLength="6.5" x="520.3776" y="196.0967">*</text><text fill="#000000" font-family="Arial" font-size="13" lengthAdjust="spacing" textLength="8.271" x="618.0188" y="862.9723">1</text></g><!--link ReadState to User--><g class="link" data-entity-1="ent0010" data-entity-2="ent0003" data-link-type="dependency" data-source-line="89" id="lnk27"><path codeLine="89" d="M512.56,163.2969 C543.6,163.2969 570,163.2969 570,163.2969 C570,163.2969 570,717.9369 570,717.9369 C570,717.9369 584.48,717.9369 607.93,717.9369" fill="none" id="ReadState-to-User" style="stroke:#687385;stroke-width:1;"/><polygon fill="#687385" points="613.93,717.9369,604.93,713.9369,608.93,717.9369,604.93,721.9369,613.93,717.9369" style="stroke:#687385;stroke-width:1;"/><text fill="#000000" font-family="Arial" font-size="13" lengthAdjust="spacing" textLength="94.4595" x="571" y="446.9238">&#1087;&#1086;&#1083;&#1100;&#1079;&#1086;&#1074;&#1072;&#1090;&#1077;&#1083;&#1100;</text><text fill="#000000" font-family="Arial" font-size="13" lengthAdjust="spacing" textLength="6.5" x="520.313" y="175.9434">*</text><text fill="#000000" font-family="Arial" font-size="13" lengthAdjust="spacing" textLength="8.271" x="598.0666" y="727.8384">1</text></g><!--link ReadState to Message--><g class="link" data-entity-1="ent0010" data-entity-2="ent0006" data-link-type="dependency" data-source-line="90" id="lnk28"><path codeLine="90" d="M316.71,163.2969 C250.11,163.2969 174,163.2969 174,163.2969 C174,163.2969 174,381.7369 174,493.9569" fill="none" id="ReadState-to-Message" style="stroke:#687385;stroke-width:1;"/><polygon fill="#687385" points="174,499.9569,178,490.9569,174,494.9569,170,490.9569,174,499.9569" style="stroke:#687385;stroke-width:1;"/><text fill="#000000" font-family="Arial" font-size="13" lengthAdjust="spacing" textLength="166.3276" x="7" y="273.3338">&#1087;&#1086;&#1089;&#1083;&#1077;&#1076;&#1085;&#1103;&#1103; &#1087;&#1088;&#1086;&#1095;&#1080;&#1090;&#1072;&#1085;&#1085;&#1072;&#1103;</text><text fill="#000000" font-family="Arial" font-size="13" lengthAdjust="spacing" textLength="6.5" x="302.3802" y="175.9908">*</text><text fill="#000000" font-family="Arial" font-size="13" lengthAdjust="spacing" textLength="24.8066" x="148.7792" y="489.3922">0..1</text></g><!--link Receipt to Message--><g class="link" data-entity-1="ent0011" data-entity-2="ent0006" data-link-type="dependency" data-source-line="92" id="lnk29"><path codeLine="92" d="M603,200.9769 C603,295.4469 603,534.9169 603,534.9169 C603,534.9169 376.17,534.9169 253.38,534.9169" fill="none" id="Receipt-to-Message" style="stroke:#687385;stroke-width:1;"/><polygon fill="#687385" points="247.38,534.9169,256.38,538.9169,252.38,534.9169,256.38,530.9169,247.38,534.9169" style="stroke:#687385;stroke-width:1;"/><text fill="#000000" font-family="Arial" font-size="13" lengthAdjust="spacing" textLength="145.0757" x="593.16" y="547.9838">&#1087;&#1088;&#1086;&#1095;&#1080;&#1090;&#1072;&#1083; &#1089;&#1086;&#1086;&#1073;&#1097;&#1077;&#1085;&#1080;&#1077;</text><text fill="#000000" font-family="Arial" font-size="13" lengthAdjust="spacing" textLength="6.5" x="582.9558" y="220.8213">*</text><text fill="#000000" font-family="Arial" font-size="13" lengthAdjust="spacing" textLength="8.271" x="255.4187" y="544.9404">1</text></g><!--link Receipt to User--><g class="link" data-entity-1="ent0011" data-entity-2="ent0003" data-link-type="dependency" data-source-line="93" id="lnk30"><path codeLine="93" d="M682,201.0369 C682,303.6769 682,581.6969 682,693.3669" fill="none" id="Receipt-to-User" style="stroke:#687385;stroke-width:1;"/><polygon fill="#687385" points="682,699.3669,686,690.3669,682,694.3669,678,690.3669,682,699.3669" style="stroke:#687385;stroke-width:1;"/><text fill="#000000" font-family="Arial" font-size="13" lengthAdjust="spacing" textLength="92.1934" x="683" y="463.2638">&#1082;&#1090;&#1086; &#1087;&#1088;&#1086;&#1095;&#1080;&#1090;&#1072;&#1083;</text><text fill="#000000" font-family="Arial" font-size="13" lengthAdjust="spacing" textLength="6.5" x="675.534" y="220.8916">*</text><text fill="#000000" font-family="Arial" font-size="13" lengthAdjust="spacing" textLength="8.271" x="673.4383" y="688.5954">1</text></g><?plantuml-src XLLDRnit4Btlho2KMmi7TbFNTWu5d1O5SaWETdEg0u5QpagCLwH0KadTee3ZD0cA5Z3GOoxvkEIgEjd4iMBxBt3_KOVSNIsrkqPaG2A7m_TctipGXfiKo8_maAUQx80sN0p92h6lxGN-_PV_PJDxRa_pOs9FIVuyFohsDejII0mnaYW-71d2k8BOS2aYlS_5X2ew9df4cNpa01EQQWXE1ZJU7oev5Um7cKf5hYN-4tYaN80vc02HoenaS12dLEjjOnGVJ0tSZgNOvRy1MGrS62HqcfgVuLUpdVAX68Cm9COlK86Na0mqJCYtwu5HKR7lZEjBHXTeB9K0HTP2ecsbvACoW-ysDsvihhUZ-4aASvUE0PqvJOFp2Mf0Xx1h3h00JZmgXYaqCoM_HuJSaeg1Aecsai5glE6iLuX8YECiRMl9DritDg8_siHjv7YJhR919_96ifN4Lo175M3Fli2UEVSzSfO_pez8_dYvZUoddgSjKklPbtWup_-n7_7tnCxyJTplYNiQL8zGJTp2No7aQywAtodQ14gAEsIlqHpxPwHnEBCziIFbs6EuHHC3rM3-_bByhQvV3hTnRBCzSGUqnhkUfrmtgSQ5kO-jQh092oCmRe3rQRdbkiyW1JGratg5N3EKyvaB1vC2wiUiIApSL8mmbWzu4-1VEyUWFxH2nXcYySZDXiUgjnMQnCdcWgRzXATGwetcCes-cyx2uixx6gUmIVtMPlaXqXR5nIVa8wRoBZ_Cd-3gpDMe5SkzIIefAqhlbqqrjQ5cgeirJWtmXoZZuC20Rh9ZSs7_pJ7nznX3PZDYBp6SY_0LMqI0Kh9TX8PAs69NiIEawIkq5XLRuddZ87sMNsJOSG5FJCdXrnL328xmlcTNVXbnna3Szs_iolTLXqLLfoqSy9qLU5urHBJeZ1P4BNKKbBpbLeWVbJLe7Iy4Ycgfsi7u1AD5jBslUcG53tfhlM8cRn8_hKzHklVOtaVuPc2Jd13iZNgIi_RzrUlN4S8_3GWnioVeTf4VrexeiEnRdQ3x1JgVO6CUUVAebYeCh_R7UWO3sErTHNBfEiuzFaXmQkTHgF0Lw7-YyoTyy_vklPL8LghVfLizIHzmbNLhbp_fWgYYRK54GJ6xECEgpAxm3QJeUjcxRhKgT1aERdxiyYh7oZK9ndhkWpXsyHOpr2rkuzQy_UyewqIeSZXpRTL2-Hy0?></g></svg>