<?plantuml 1.2026.1?><svg xmlns="http://www.w3.org/2000/svg" xmlns:xlink="http://www.w3.org/1999/xlink" contentStyleType="text/css" data-diagram-type="DESCRIPTION" height="908px" preserveAspectRatio="none" style="width:1752px;height:908px;background:#FFFFFF;" version="1.1" viewBox="0 0 1752 908" width="1752px" zoomAndPan="magnify"><title>Devils Resting - Backend Architecture</title><defs/><g><g class="title" data-source-line="1"><text fill="#000000" font-family="sans-serif" font-size="14" font-weight="bold" lengthAdjust="spacing" textLength="299.127" x="719.5665" y="22.9951">Devils Resting - Backend Architecture</text></g><!--cluster Edge--><g class="cluster" data-qualified-name="Edge" data-source-line="51" id="ent0004"><rect fill="#F7F9FC" height="113.59" rx="5" ry="5" style="stroke:#C8D0DB;stroke-width:1;" width="216" x="60.26" y="139.0969"/><text fill="#1F2937" font-family="sans-serif" font-size="14" font-weight="bold" lengthAdjust="spacing" textLength="39.1016" x="148.7092" y="154.092">Edge</text></g><!--cluster Delivery Layer--><g class="cluster" data-qualified-name="Delivery Layer" data-source-line="55" id="ent0006"><rect fill="#F7F9FC" height="342.88" rx="5" ry="5" style="stroke:#C8D0DB;stroke-width:1;" width="196" x="80.26" y="280.7969"/><text fill="#1F2937" font-family="sans-serif" font-size="14" font-weight="bold" lengthAdjust="spacing" textLength="114.1328" x="121.1936" y="295.792">Delivery Layer</text></g><!--cluster Application Layer--><g class="cluster" data-qualified-name="Application Layer" data-source-line="61" id="ent0010"><rect fill="#F7F9FC" height="249.6" rx="5" ry="5" style="stroke:#C8D0DB;stroke-width:1;" width="610" x="8.26" y="647.6769"/><text fill="#1F2937" font-family="sans-serif" font-size="14" font-weight="bold" lengthAdjust="spacing" textLength="138.0654" x="244.2273" y="662.672">Application Layer</text></g><!--cluster Infrastructure--><g class="cluster" data-qualified-name="Infrastructure" data-source-line="68" id="ent0015"><rect fill="#F7F9FC" height="129.89" rx="5" ry="5" style="stroke:#C8D0DB;stroke-width:1;" width="853" x="893.26" y="772.3869"/><text fill="#1F2937" font-family="sans-serif" font-size="14" font-weight="bold" lengthAdjust="spacing" textLength="110.8721" x="1264.324" y="787.382">Infrastructure</text></g><!--entity Nginx--><g class="entity" data-qualified-name="Edge.Nginx" data-source-line="52" id="ent0005"><polygon fill="#F1F1F1" points="76.75,184.0969,86.75,174.0969,259.7783,174.0969,259.7783,226.6906,249.7783,236.6906,76.75,236.6906,76.75,184.0969" style="stroke:#181818;stroke-width:0.5;"/><line style="stroke:#181818;stroke-width:0.5;" x1="249.7783" x2="259.7783" y1="184.0969" y2="174.0969"/><line style="stroke:#181818;stroke-width:0.5;" x1="76.75" x2="249.7783" y1="184.0969" y2="184.0969"/><line style="stroke:#181818;stroke-width:0.5;" x1="249.7783" x2="249.7783" y1="184.0969" y2="236.6906"/><text fill="#000000" font-family="sans-serif" font-size="14" lengthAdjust="spacing" textLength="40.4072" x="143.0605" y="207.092">Nginx</text><text fill="#000000" font-family="sans-serif" font-size="14" lengthAdjust="spacing" textLength="25.2383" x="91.75" y="223.3889">TLS</text><text fill="#000000" font-family="sans-serif" font-size="14" lengthAdjust="spacing" textLength="4.4502" x="116.9883" y="223.3889">&#160;</text><text fill="#000000" font-family="sans-serif" font-size="14" lengthAdjust="spacing" textLength="11.7305" x="121.4385" y="223.3889">+</text><text fill="#000000" font-family="sans-serif" font-size="14" lengthAdjust="spacing" textLength="4.4502" x="133.1689" y="223.3889">&#160;</text><text fill="#000000" font-family="sans-serif" font-size="14" lengthAdjust="spacing" textLength="52.9307" x="137.6191" y="223.3889">reverse</text><text fill="#000000" font-family="sans-serif" font-size="14" lengthAdjust="spacing" textLength="4.4502" x="190.5498" y="223.3889">&#160;</text><text fill="#000000" font-family="sans-serif" font-size="14" lengthAdjust="spacing" textLength="39.7783" x="195" y="223.3889">proxy</text></g><!--entity Rest--><g class="entity" data-qualified-name="Delivery Layer.Rest" data-source-line="56" id="ent0007"><rect fill="#FFFFFF" height="52.5938" rx="5" ry="5" style="stroke:#9FB0C7;stroke-width:0.5;" width="82.6104" x="177.95" y="315.7969"/><text fill="#1F2937" font-family="sans-serif" font-size="14" lengthAdjust="spacing" textLength="36.0117" x="187.95" y="338.792">REST</text><text fill="#1F2937" font-family="sans-serif" font-size="14" lengthAdjust="spacing" textLength="4.4502" x="223.9617" y="338.792">&#160;</text><text fill="#1F2937" font-family="sans-serif" font-size="14" lengthAdjust="spacing" textLength="22.1484" x="228.4119" y="338.792">API</text><text fill="#1F2937" font-family="sans-serif" font-size="14" lengthAdjust="spacing" textLength="37.7891" x="200.3606" y="355.0889">/api/*</text></g><!--entity Ws--><g class="entity" data-qualified-name="Delivery Layer.Ws" data-source-line="57" id="ent0008"><rect fill="#FFFFFF" height="52.5938" rx="5" ry="5" style="stroke:#9FB0C7;stroke-width:0.5;" width="164.9971" x="95.76" y="447.4869"/><text fill="#1F2937" font-family="sans-serif" font-size="14" lengthAdjust="spacing" textLength="78.7021" x="105.76" y="470.482">WebSocket</text><text fill="#1F2937" font-family="sans-serif" font-size="14" lengthAdjust="spacing" textLength="4.4502" x="184.4621" y="470.482">&#160;</text><text fill="#1F2937" font-family="sans-serif" font-size="14" lengthAdjust="spacing" textLength="61.8447" x="188.9123" y="470.482">Gateway</text><text fill="#1F2937" font-family="sans-serif" font-size="14" lengthAdjust="spacing" textLength="35.1777" x="160.6697" y="486.7789">/ws/*</text></g><!--entity Asgi--><g class="entity" data-qualified-name="Delivery Layer.Asgi" data-source-line="58" id="ent0009"><rect fill="#FFFFFF" height="52.5938" rx="5" ry="5" style="stroke:#9FB0C7;stroke-width:0.5;" width="158.332" x="99.09" y="555.0769"/><text fill="#1F2937" font-family="sans-serif" font-size="14" lengthAdjust="spacing" textLength="33.4414" x="135.798" y="578.072">ASGI</text><text fill="#1F2937" font-family="sans-serif" font-size="14" lengthAdjust="spacing" textLength="4.4502" x="169.2394" y="578.072">&#160;</text><text fill="#1F2937" font-family="sans-serif" font-size="14" lengthAdjust="spacing" textLength="47.0244" x="173.6896" y="578.072">Router</text><text fill="#1F2937" font-family="sans-serif" font-size="14" lengthAdjust="spacing" textLength="138.332" x="109.09" y="594.3689">ProtocolTypeRouter</text></g><!--entity Identity--><g class="entity" data-qualified-name="Application Layer.Identity" data-source-line="62" id="ent0011"><rect fill="#FFFFFF" height="68.8906" rx="5" ry="5" style="stroke:#9FB0C7;stroke-width:0.5;" width="146.8887" x="455.82" y="682.6769"/><text fill="#1F2937" font-family="sans-serif" font-size="14" lengthAdjust="spacing" textLength="53.6553" x="465.82" y="705.672">Identity</text><text fill="#1F2937" font-family="sans-serif" font-size="14" lengthAdjust="spacing" textLength="4.4502" x="519.4753" y="705.672">&#160;</text><text fill="#1F2937" font-family="sans-serif" font-size="14" lengthAdjust="spacing" textLength="10.917" x="523.9255" y="705.672">&amp;</text><text fill="#1F2937" font-family="sans-serif" font-size="14" lengthAdjust="spacing" textLength="4.4502" x="534.8425" y="705.672">&#160;</text><text fill="#1F2937" font-family="sans-serif" font-size="14" lengthAdjust="spacing" textLength="53.416" x="539.2927" y="705.672">Session</text><text fill="#1F2937" font-family="sans-serif" font-size="14" lengthAdjust="spacing" textLength="42.2803" x="481.4094" y="721.9689">users,</text><text fill="#1F2937" font-family="sans-serif" font-size="14" lengthAdjust="spacing" textLength="4.4502" x="523.6896" y="721.9689">&#160;</text><text fill="#1F2937" font-family="sans-serif" font-size="14" lengthAdjust="spacing" textLength="48.9795" x="528.1398" y="721.9689">profile,</text><text fill="#1F2937" font-family="sans-serif" font-size="14" lengthAdjust="spacing" textLength="43.6064" x="481.6486" y="738.2657">media</text><text fill="#1F2937" font-family="sans-serif" font-size="14" lengthAdjust="spacing" textLength="4.4502" x="525.2551" y="738.2657">&#160;</text><text fill="#1F2937" font-family="sans-serif" font-size="14" lengthAdjust="spacing" textLength="47.1748" x="529.7053" y="738.2657">access</text></g><!--entity Collaboration--><g class="entity" data-qualified-name="Application Layer.Collaboration" data-source-line="63" id="ent0012"><rect fill="#FFFFFF" height="68.8906" rx="5" ry="5" style="stroke:#9FB0C7;stroke-width:0.5;" width="165.8379" x="245.34" y="682.6769"/><text fill="#1F2937" font-family="sans-serif" font-size="14" lengthAdjust="spacing" textLength="32.7168" x="255.34" y="705.672">Chat</text><text fill="#1F2937" font-family="sans-serif" font-size="14" lengthAdjust="spacing" textLength="4.4502" x="288.0568" y="705.672">&#160;</text><text fill="#1F2937" font-family="sans-serif" font-size="14" lengthAdjust="spacing" textLength="10.917" x="292.507" y="705.672">&amp;</text><text fill="#1F2937" font-family="sans-serif" font-size="14" lengthAdjust="spacing" textLength="4.4502" x="303.424" y="705.672">&#160;</text><text fill="#1F2937" font-family="sans-serif" font-size="14" lengthAdjust="spacing" textLength="93.3037" x="307.8742" y="705.672">Collaboration</text><text fill="#1F2937" font-family="sans-serif" font-size="14" lengthAdjust="spacing" textLength="35.0889" x="271.1584" y="721.9689">chat,</text><text fill="#1F2937" font-family="sans-serif" font-size="14" lengthAdjust="spacing" textLength="4.4502" x="306.2472" y="721.9689">&#160;</text><text fill="#1F2937" font-family="sans-serif" font-size="14" lengthAdjust="spacing" textLength="74.6621" x="310.6974" y="721.9689">messages,</text><text fill="#1F2937" font-family="sans-serif" font-size="14" lengthAdjust="spacing" textLength="52.6914" x="275.5573" y="738.2657">friends,</text><text fill="#1F2937" font-family="sans-serif" font-size="14" lengthAdjust="spacing" textLength="4.4502" x="328.2487" y="738.2657">&#160;</text><text fill="#1F2937" font-family="sans-serif" font-size="14" lengthAdjust="spacing" textLength="48.2617" x="332.6989" y="738.2657">groups</text></g><!--entity Realtime--><g class="entity" data-qualified-name="Application Layer.Realtime" data-source-line="64" id="ent0013"><rect fill="#FFFFFF" height="68.8906" rx="5" ry="5" style="stroke:#9FB0C7;stroke-width:0.5;" width="176.5293" x="24" y="682.6769"/><text fill="#1F2937" font-family="sans-serif" font-size="14" lengthAdjust="spacing" textLength="62.4395" x="49.3022" y="705.672">Realtime</text><text fill="#1F2937" font-family="sans-serif" font-size="14" lengthAdjust="spacing" textLength="4.4502" x="111.7417" y="705.672">&#160;</text><text fill="#1F2937" font-family="sans-serif" font-size="14" lengthAdjust="spacing" textLength="59.0352" x="116.1919" y="705.672">Services</text><text fill="#1F2937" font-family="sans-serif" font-size="14" lengthAdjust="spacing" textLength="30.6387" x="57.8403" y="721.9689">chat</text><text fill="#1F2937" font-family="sans-serif" font-size="14" lengthAdjust="spacing" textLength="4.4502" x="88.479" y="721.9689">&#160;</text><text fill="#1F2937" font-family="sans-serif" font-size="14" lengthAdjust="spacing" textLength="73.7598" x="92.9292" y="721.9689">consumer,</text><text fill="#1F2937" font-family="sans-serif" font-size="14" lengthAdjust="spacing" textLength="68.7969" x="34" y="738.2657">presence,</text><text fill="#1F2937" font-family="sans-serif" font-size="14" lengthAdjust="spacing" textLength="4.4502" x="102.7969" y="738.2657">&#160;</text><text fill="#1F2937" font-family="sans-serif" font-size="14" lengthAdjust="spacing" textLength="40.332" x="107.2471" y="738.2657">direct</text><text fill="#1F2937" font-family="sans-serif" font-size="14" lengthAdjust="spacing" textLength="4.4502" x="147.5791" y="738.2657">&#160;</text><text fill="#1F2937" font-family="sans-serif" font-size="14" lengthAdjust="spacing" textLength="38.5" x="152.0293" y="738.2657">inbox</text></g><!--entity Control--><g class="entity" data-qualified-name="Application Layer.Control" data-source-line="65" id="ent0014"><rect fill="#FFFFFF" height="68.8906" rx="5" ry="5" style="stroke:#9FB0C7;stroke-width:0.5;" width="180.0703" x="131.22" y="812.3869"/><text fill="#1F2937" font-family="sans-serif" font-size="14" lengthAdjust="spacing" textLength="48.1729" x="141.22" y="835.382">Access</text><text fill="#1F2937" font-family="sans-serif" font-size="14" lengthAdjust="spacing" textLength="4.4502" x="189.3929" y="835.382">&#160;</text><text fill="#1F2937" font-family="sans-serif" font-size="14" lengthAdjust="spacing" textLength="50.9141" x="193.843" y="835.382">Control</text><text fill="#1F2937" font-family="sans-serif" font-size="14" lengthAdjust="spacing" textLength="4.4502" x="244.7571" y="835.382">&#160;</text><text fill="#1F2937" font-family="sans-serif" font-size="14" lengthAdjust="spacing" textLength="10.917" x="249.2073" y="835.382">&amp;</text><text fill="#1F2937" font-family="sans-serif" font-size="14" lengthAdjust="spacing" textLength="4.4502" x="260.1243" y="835.382">&#160;</text><text fill="#1F2937" font-family="sans-serif" font-size="14" lengthAdjust="spacing" textLength="36.7158" x="264.5745" y="835.382">Audit</text><text fill="#1F2937" font-family="sans-serif" font-size="14" lengthAdjust="spacing" textLength="38.5684" x="155.5242" y="851.6789">roles,</text><text fill="#1F2937" font-family="sans-serif" font-size="14" lengthAdjust="spacing" textLength="4.4502" x="194.0926" y="851.6789">&#160;</text><text fill="#1F2937" font-family="sans-serif" font-size="14" lengthAdjust="spacing" textLength="88.4434" x="198.5428" y="851.6789">permissions,</text><text fill="#1F2937" font-family="sans-serif" font-size="14" lengthAdjust="spacing" textLength="57.0596" x="192.7254" y="867.9757">auditlog</text></g><!--entity Db--><g class="entity" data-qualified-name="Infrastructure.Db" data-source-line="69" id="ent0016"><path d="M1153.88,834.1869 C1153.88,824.1869 1204.2565,824.1869 1204.2565,824.1869 C1204.2565,824.1869 1254.6329,824.1869 1254.6329,834.1869 L1254.6329,859.4838 C1254.6329,869.4838 1204.2565,869.4838 1204.2565,869.4838 C1204.2565,869.4838 1153.88,869.4838 1153.88,859.4838 L1153.88,834.1869" fill="#FFFFFF" style="stroke:#9FB0C7;stroke-width:0.5;"/><path d="M1153.88,834.1869 C1153.88,844.1869 1204.2565,844.1869 1204.2565,844.1869 C1204.2565,844.1869 1254.6329,844.1869 1254.6329,834.1869" fill="none" style="stroke:#9FB0C7;stroke-width:0.5;"/><text fill="#000000" font-family="sans-serif" font-size="14" lengthAdjust="spacing" textLength="80.7529" x="1163.88" y="861.182">PostgreSQL</text></g><!--entity Redis--><g class="entity" data-qualified-name="Infrastructure.Redis" data-source-line="70" id="ent0017"><path d="M914.29,825.5369 L1104.2392,825.5369 C1109.2392,825.5369 1109.2392,846.8338 1109.2392,846.8338 C1109.2392,846.8338 1109.2392,868.1306 1104.2392,868.1306 L914.29,868.1306 C909.29,868.1306 909.29,846.8338 909.29,846.8338 C909.29,846.8338 909.29,825.5369 914.29,825.5369" fill="#FFFFFF" style="stroke:#9FB0C7;stroke-width:0.5;"/><path d="M1104.2392,825.5369 C1099.2392,825.5369 1099.2392,846.8338 1099.2392,846.8338 C1099.2392,868.1306 1104.2392,868.1306 1104.2392,868.1306" fill="none" style="stroke:#9FB0C7;stroke-width:0.5;"/><text fill="#000000" font-family="sans-serif" font-size="14" lengthAdjust="spacing" textLength="38.4111" x="985.059" y="843.532">Redis</text><text fill="#000000" font-family="sans-serif" font-size="14" lengthAdjust="spacing" textLength="55.3984" x="914.29" y="859.8289">channel</text><text fill="#000000" font-family="sans-serif" font-size="14" lengthAdjust="spacing" textLength="4.4502" x="969.6884" y="859.8289">&#160;</text><text fill="#000000" font-family="sans-serif" font-size="14" lengthAdjust="spacing" textLength="35.123" x="974.1386" y="859.8289">layer</text><text fill="#000000" font-family="sans-serif" font-size="14" lengthAdjust="spacing" textLength="4.4502" x="1009.2617" y="859.8289">&#160;</text><text fill="#000000" font-family="sans-serif" font-size="14" lengthAdjust="spacing" textLength="11.7305" x="1013.7119" y="859.8289">+</text><text fill="#000000" font-family="sans-serif" font-size="14" lengthAdjust="spacing" textLength="4.4502" x="1025.4423" y="859.8289">&#160;</text><text fill="#000000" font-family="sans-serif" font-size="14" lengthAdjust="spacing" textLength="64.3467" x="1029.8925" y="859.8289">presence</text></g><!--entity Media--><g class="entity" data-qualified-name="Infrastructure.Media" data-source-line="71" id="ent0018"><path d="M1304.36,811.5369 L1340.36,811.5369 A7.5,7.5 0 0 1 1345.36,816.5369 L1352.36,832.5369 L1486.1666,832.5369 A5,5 0 0 1 1491.1666,837.5369 L1491.1666,877.1306 A5,5 0 0 1 1486.1666,882.1306 L1304.36,882.1306 A5,5 0 0 1 1299.36,877.1306 L1299.36,816.5369 A5,5 0 0 1 1304.36,811.5369" fill="#FFFFFF" style="stroke:#9FB0C7;stroke-width:0.5;"/><line style="stroke:#9FB0C7;stroke-width:0.5;" x1="1299.36" x2="1352.36" y1="832.5369" y2="832.5369"/><text fill="#000000" font-family="sans-serif" font-size="14" lengthAdjust="spacing" textLength="42.0479" x="1339.6261" y="852.532">Media</text><text fill="#000000" font-family="sans-serif" font-size="14" lengthAdjust="spacing" textLength="4.4502" x="1381.674" y="852.532">&#160;</text><text fill="#000000" font-family="sans-serif" font-size="14" lengthAdjust="spacing" textLength="54.7764" x="1386.1242" y="852.532">Storage</text><text fill="#000000" font-family="sans-serif" font-size="14" lengthAdjust="spacing" textLength="52.5615" x="1309.36" y="868.8289">avatars</text><text fill="#000000" font-family="sans-serif" font-size="14" lengthAdjust="spacing" textLength="4.4502" x="1361.9215" y="868.8289">&#160;</text><text fill="#000000" font-family="sans-serif" font-size="14" lengthAdjust="spacing" textLength="11.7305" x="1366.3717" y="868.8289">+</text><text fill="#000000" font-family="sans-serif" font-size="14" lengthAdjust="spacing" textLength="4.4502" x="1378.1022" y="868.8289">&#160;</text><text fill="#000000" font-family="sans-serif" font-size="14" lengthAdjust="spacing" textLength="88.6143" x="1382.5524" y="868.8289">attachments</text></g><!--entity Observability--><g class="entity" data-qualified-name="Infrastructure.Observability" data-source-line="72" id="ent0019"><polygon fill="#F1F1F1" points="1536.43,817.3869,1546.43,807.3869,1730.0814,807.3869,1730.0814,876.2775,1720.0814,886.2775,1536.43,886.2775,1536.43,817.3869" style="stroke:#181818;stroke-width:0.5;"/><line style="stroke:#181818;stroke-width:0.5;" x1="1720.0814" x2="1730.0814" y1="817.3869" y2="807.3869"/><line style="stroke:#181818;stroke-width:0.5;" x1="1536.43" x2="1720.0814" y1="817.3869" y2="817.3869"/><line style="stroke:#181818;stroke-width:0.5;" x1="1720.0814" x2="1720.0814" y1="817.3869" y2="886.2775"/><text fill="#000000" font-family="sans-serif" font-size="14" lengthAdjust="spacing" textLength="92.7637" x="1581.8738" y="840.382">Observability</text><text fill="#000000" font-family="sans-serif" font-size="14" lengthAdjust="spacing" textLength="88.6074" x="1551.43" y="856.6789">Prometheus,</text><text fill="#000000" font-family="sans-serif" font-size="14" lengthAdjust="spacing" textLength="4.4502" x="1640.0374" y="856.6789">&#160;</text><text fill="#000000" font-family="sans-serif" font-size="14" lengthAdjust="spacing" textLength="60.5938" x="1644.4876" y="856.6789">Grafana,</text><text fill="#000000" font-family="sans-serif" font-size="14" lengthAdjust="spacing" textLength="32.8125" x="1561.4993" y="872.9757">Loki,</text><text fill="#000000" font-family="sans-serif" font-size="14" lengthAdjust="spacing" textLength="4.4502" x="1594.3118" y="872.9757">&#160;</text><text fill="#000000" font-family="sans-serif" font-size="14" lengthAdjust="spacing" textLength="96.25" x="1598.762" y="872.9757">Alertmanager</text></g><!--entity Browser--><g class="entity" data-qualified-name="Browser" data-source-line="48" id="ent0002"><ellipse cx="168.2595" cy="51.2969" fill="#F1F1F1" rx="8" ry="8" style="stroke:#181818;stroke-width:0.5;"/><path d="M168.2595,59.2969 L168.2595,86.2969 M155.2595,67.2969 L181.2595,67.2969 M168.2595,86.2969 L155.2595,101.2969 M168.2595,86.2969 L181.2595,101.2969" fill="none" style="stroke:#181818;stroke-width:0.5;"/><text fill="#000000" font-family="sans-serif" font-size="14" lengthAdjust="spacing" textLength="57.0391" x="139.74" y="115.792">Browser</text></g><!--entity Google--><g class="entity" data-qualified-name="Google" data-source-line="49" id="ent0003"><path d="M495.8237,567.0726 C499.4748,562.2077 503.8501,561.3437 507.4535,567.1247 C510.3735,561.6238 515.8814,560.1493 519.7044,566.1642 C522.8133,560.589 526.179,560.7766 529.8835,565.5801 C533.9143,558.7309 537.9658,560.3438 542.2589,565.3052 C544.8194,559.7942 548.3432,559.3116 551.9633,564.3285 C556.5458,558.4793 560.581,558.1851 564.5148,564.9729 C567.2344,559.807 572.3126,560.3423 574.7094,565.298 C578.4695,559.7549 583.4934,560.1032 586.544,566.03 C590.2889,561.3392 594.8096,561.3207 597.8616,566.801 C600.5717,561.3594 605.841,561.3218 608.7297,566.6202 C616.3153,569.764 618.5323,577.4248 611.9428,583.2993 C617.0659,588.5956 615.732,594.7161 608.3376,596.6262 C605.3337,601.9831 599.9121,603.1774 596.1398,597.4737 C593.0007,603.4117 588.7596,602.5445 584.9221,598.2384 C581.1712,602.7968 577.6188,604.2323 573.7001,598.4199 C570.5427,604.1553 566.2166,604.3267 562.5593,598.9198 C559.6744,603.3004 555.793,602.5699 553.0838,598.7176 C549.6314,603.5178 544.7535,603.9029 541.5903,598.395 C538.452,603.5718 533.3338,603.8153 529.9606,598.6594 C527.3105,603.7777 522.2134,605.0671 518.9328,599.2981 C514.5891,604.2722 510.1601,605.0642 506.6751,598.3943 C503.2916,602.649 499.8883,602.1299 497.1419,597.6953 C488.6678,595.0213 487.7716,587.4826 493.6732,581.6925 C487.0792,575.8898 487.7656,570.7201 495.8237,567.0726" fill="#F1F1F1" style="stroke:#181818;stroke-width:0.5;"/><text fill="#000000" font-family="sans-serif" font-size="14" lengthAdjust="spacing" textLength="49.3691" x="502.43" y="586.222">Google</text><text fill="#000000" font-family="sans-serif" font-size="14" lengthAdjust="spacing" textLength="4.4502" x="551.7991" y="586.222">&#160;</text><text fill="#000000" font-family="sans-serif" font-size="14" lengthAdjust="spacing" textLength="43.832" x="556.2493" y="586.222">OAuth</text></g><g class="entity" data-qualified-name="GMN49" data-source-line="112" id="ent0050"><path d="M305.42,296.6869 L305.42,330.2769 L260.96,334.2769 L305.42,338.2769 L305.42,387.4838 A5,5 0 0 0 310.42,392.4838 L508.1046,392.4838 A5,5 0 0 0 513.1046,387.4838 L513.1046,301.6869 L503.1046,291.6869 L310.42,291.6869 A5,5 0 0 0 305.42,296.6869" fill="#FBFCFE" style="stroke:#D7DEE8;stroke-width:0.5;"/><path d="M503.1046,291.6869 L503.1046,299.1869 A2.5,2.5 0 0 0 505.6046,301.6869 L513.1046,301.6869 L503.1046,291.6869" fill="#FBFCFE" style="stroke:#D7DEE8;stroke-width:0.5;"/><text fill="#445066" font-family="sans-serif" font-size="13" lengthAdjust="spacing" textLength="63.813" x="327.524" y="308.7538">Canonical</text><text fill="#445066" font-family="sans-serif" font-size="13" lengthAdjust="spacing" textLength="4.1323" x="391.337" y="308.7538">&#160;</text><text fill="#445066" font-family="sans-serif" font-size="13" lengthAdjust="spacing" textLength="53.9487" x="395.4693" y="308.7538">external</text><text fill="#445066" font-family="sans-serif" font-size="13" lengthAdjust="spacing" textLength="4.1323" x="449.418" y="308.7538">&#160;</text><text fill="#445066" font-family="sans-serif" font-size="13" lengthAdjust="spacing" textLength="28.4502" x="453.5504" y="308.7538">chat</text><text fill="#445066" font-family="sans-serif" font-size="13" lengthAdjust="spacing" textLength="71.9063" x="368.8092" y="323.8866">entrypoint:</text><text fill="#445066" font-family="sans-serif" font-size="13" lengthAdjust="spacing" textLength="34.2646" x="328.9776" y="339.0194">POST</text><text fill="#445066" font-family="sans-serif" font-size="13" lengthAdjust="spacing" textLength="4.1323" x="363.2423" y="339.0194">&#160;</text><text fill="#445066" font-family="sans-serif" font-size="13" lengthAdjust="spacing" textLength="113.1724" x="367.3746" y="339.0194">/api/chat/resolve/</text><text fill="#445066" font-family="sans-serif" font-size="13" lengthAdjust="spacing" textLength="4.1323" x="402.6961" y="354.1522">&#160;</text><text fill="#445066" font-family="sans-serif" font-size="13" lengthAdjust="spacing" textLength="88.6704" x="311.42" y="369.285">Room-scoped</text><text fill="#445066" font-family="sans-serif" font-size="13" lengthAdjust="spacing" textLength="4.1323" x="400.0904" y="369.285">&#160;</text><text fill="#445066" font-family="sans-serif" font-size="13" lengthAdjust="spacing" textLength="33.4966" x="404.2227" y="369.285">HTTP</text><text fill="#445066" font-family="sans-serif" font-size="13" lengthAdjust="spacing" textLength="4.1323" x="437.7193" y="369.285">&#160;</text><text fill="#445066" font-family="sans-serif" font-size="13" lengthAdjust="spacing" textLength="29.1104" x="441.8516" y="369.285">calls</text><text fill="#445066" font-family="sans-serif" font-size="13" lengthAdjust="spacing" textLength="4.1323" x="470.962" y="369.285">&#160;</text><text fill="#445066" font-family="sans-serif" font-size="13" lengthAdjust="spacing" textLength="23.0103" x="475.0943" y="369.285">use</text><text fill="#445066" font-family="sans-serif" font-size="13" lengthAdjust="spacing" textLength="50.1338" x="379.6954" y="384.4178">roomId.</text></g><g class="entity" data-qualified-name="GMN52" data-source-line="119" id="ent0053"><path d="M647.63,686.8569 L647.63,747.3881 A5,5 0 0 0 652.63,752.3881 L809.8927,752.3881 A5,5 0 0 0 814.8927,747.3881 L814.8927,691.8569 L804.8927,681.8569 L652.63,681.8569 A5,5 0 0 0 647.63,686.8569" fill="#FBFCFE" style="stroke:#D7DEE8;stroke-width:0.5;"/><path d="M804.8927,681.8569 L804.8927,689.3569 A2.5,2.5 0 0 0 807.3927,691.8569 L814.8927,691.8569 L804.8927,681.8569" fill="#FBFCFE" style="stroke:#D7DEE8;stroke-width:1;"/><text fill="#445066" font-family="sans-serif" font-size="13" lengthAdjust="spacing" textLength="73.0806" x="653.757" y="698.9238">WebSocket</text><text fill="#445066" font-family="sans-serif" font-size="13" lengthAdjust="spacing" textLength="4.1323" x="726.8375" y="698.9238">&#160;</text><text fill="#445066" font-family="sans-serif" font-size="13" lengthAdjust="spacing" textLength="68.7959" x="730.9698" y="698.9238">endpoints:</text><text fill="#445066" font-family="sans-serif" font-size="13" lengthAdjust="spacing" textLength="4.6909" x="653.63" y="714.0566">-</text><text fill="#445066" font-family="sans-serif" font-size="13" lengthAdjust="spacing" textLength="4.1323" x="658.3209" y="714.0566">&#160;</text><text fill="#445066" font-family="sans-serif" font-size="13" lengthAdjust="spacing" textLength="137.4395" x="662.4532" y="714.0566">/ws/chat/&lt;room_id&gt;/</text><text fill="#445066" font-family="sans-serif" font-size="13" lengthAdjust="spacing" textLength="4.6909" x="677.202" y="729.1894">-</text><text fill="#445066" font-family="sans-serif" font-size="13" lengthAdjust="spacing" textLength="4.1323" x="681.8929" y="729.1894">&#160;</text><text fill="#445066" font-family="sans-serif" font-size="13" lengthAdjust="spacing" textLength="90.2954" x="686.0253" y="729.1894">/ws/presence/</text><text fill="#445066" font-family="sans-serif" font-size="13" lengthAdjust="spacing" textLength="4.6909" x="689.2023" y="744.3222">-</text><text fill="#445066" font-family="sans-serif" font-size="13" lengthAdjust="spacing" textLength="4.1323" x="693.8932" y="744.3222">&#160;</text><text fill="#445066" font-family="sans-serif" font-size="13" lengthAdjust="spacing" textLength="66.2949" x="698.0255" y="744.3222">/ws/inbox/</text></g><g class="entity" data-qualified-name="GMN55" data-source-line="126" id="ent0056"><path d="M633.77,816.5669 L633.77,877.0981 A5,5 0 0 0 638.77,882.0981 L859.7568,882.0981 A5,5 0 0 0 864.7568,877.0981 L864.7568,821.5669 L854.7568,811.5669 L638.77,811.5669 A5,5 0 0 0 633.77,816.5669" fill="#FBFCFE" style="stroke:#D7DEE8;stroke-width:0.5;"/><path d="M854.7568,811.5669 L854.7568,819.0669 A2.5,2.5 0 0 0 857.2568,821.5669 L864.7568,821.5669 L854.7568,811.5669" fill="#FBFCFE" style="stroke:#D7DEE8;stroke-width:1;"/><text fill="#445066" font-family="sans-serif" font-size="13" lengthAdjust="spacing" textLength="39.8633" x="640.957" y="828.6338">Group</text><text fill="#445066" font-family="sans-serif" font-size="13" lengthAdjust="spacing" textLength="4.1323" x="680.8203" y="828.6338">&#160;</text><text fill="#445066" font-family="sans-serif" font-size="13" lengthAdjust="spacing" textLength="33.5474" x="684.9526" y="828.6338">flows</text><text fill="#445066" font-family="sans-serif" font-size="13" lengthAdjust="spacing" textLength="4.1323" x="718.5" y="828.6338">&#160;</text><text fill="#445066" font-family="sans-serif" font-size="13" lengthAdjust="spacing" textLength="47.0996" x="722.6323" y="828.6338">include</text><text fill="#445066" font-family="sans-serif" font-size="13" lengthAdjust="spacing" textLength="4.1323" x="769.7319" y="828.6338">&#160;</text><text fill="#445066" font-family="sans-serif" font-size="13" lengthAdjust="spacing" textLength="47.1567" x="773.8642" y="828.6338">invites,</text><text fill="#445066" font-family="sans-serif" font-size="13" lengthAdjust="spacing" textLength="4.1323" x="821.021" y="828.6338">&#160;</text><text fill="#445066" font-family="sans-serif" font-size="13" lengthAdjust="spacing" textLength="23.4165" x="825.1533" y="828.6338">join</text><text fill="#445066" font-family="sans-serif" font-size="13" lengthAdjust="spacing" textLength="60.6074" x="714.4597" y="843.7666">requests,</text><text fill="#445066" font-family="sans-serif" font-size="13" lengthAdjust="spacing" textLength="31.0083" x="639.77" y="858.8994">pins,</text><text fill="#445066" font-family="sans-serif" font-size="13" lengthAdjust="spacing" textLength="4.1323" x="670.7783" y="858.8994">&#160;</text><text fill="#445066" font-family="sans-serif" font-size="13" lengthAdjust="spacing" textLength="75.0801" x="674.9106" y="858.8994">moderation</text><text fill="#445066" font-family="sans-serif" font-size="13" lengthAdjust="spacing" textLength="4.1323" x="749.9907" y="858.8994">&#160;</text><text fill="#445066" font-family="sans-serif" font-size="13" lengthAdjust="spacing" textLength="24.4575" x="754.123" y="858.8994">and</text><text fill="#445066" font-family="sans-serif" font-size="13" lengthAdjust="spacing" textLength="4.1323" x="778.5805" y="858.8994">&#160;</text><text fill="#445066" font-family="sans-serif" font-size="13" lengthAdjust="spacing" textLength="67.0439" x="782.7129" y="858.8994">ownership</text><text fill="#445066" font-family="sans-serif" font-size="13" lengthAdjust="spacing" textLength="55.4722" x="717.0273" y="874.0322">transfer.</text></g><!--link Rest to Ws--><!--link Ws to Asgi--><!--link Ws to Asgi--><g class="link" data-entity-1="ent0008" data-entity-2="ent0009" data-link-type="dependency" data-source-line="87" id="lnk31"><path d="M204.65,500.3769 C204.65,516.9369 204.65,532.1469 204.65,548.7169" fill="none" id="Ws-to-Asgi-1" style="stroke:#687385;stroke-width:1.1;"/><polygon fill="#687385" points="204.65,554.7169,208.65,545.7169,204.65,549.7169,200.65,545.7169,204.65,554.7169" style="stroke:#687385;stroke-width:1.1;"/></g><!--link Identity to Collaboration--><!--link Collaboration to Realtime--><!--link Realtime to Control--><!--link Realtime to Control--><g class="link" data-entity-1="ent0013" data-entity-2="ent0014" data-link-type="dependency" data-source-line="98" id="lnk39"><path d="M154.32,751.8769 C154.32,770.4869 154.32,787.3469 154.32,805.9769" fill="none" id="Realtime-to-Control-1" style="stroke:#687385;stroke-width:1.1;stroke-dasharray:7,7;"/><polygon fill="#687385" points="154.32,811.9769,158.32,802.9769,154.32,806.9769,150.32,802.9769,154.32,811.9769" style="stroke:#687385;stroke-width:1.1;"/><text fill="#000000" font-family="sans-serif" font-size="13" lengthAdjust="spacing" textLength="122.916" x="31.32" y="794.9938">audit + block rules</text></g><!--link Db to Redis--><!--link Redis to Media--><!--link Media to Observability--><!--link Browser to Nginx--><g class="link" data-entity-1="ent0002" data-entity-2="ent0005" data-link-type="dependency" data-source-line="84" id="lnk28"><path d="M168.26,119.2969 C168.26,136.7269 168.26,151.0969 168.26,167.6469" fill="none" id="Browser-to-Nginx" style="stroke:#687385;stroke-width:1.1;"/><polygon fill="#687385" points="168.26,173.6469,172.26,164.6469,168.26,168.6469,164.26,164.6469,168.26,173.6469" style="stroke:#687385;stroke-width:1.1;"/></g><!--link Nginx to Rest--><g class="link" data-entity-1="ent0005" data-entity-2="ent0007" data-link-type="dependency" data-source-line="85" id="lnk29"><path d="M218.86,237.0969 C218.86,260.9169 218.86,287.1669 218.86,309.6069" fill="none" id="Nginx-to-Rest" style="stroke:#687385;stroke-width:1.1;"/><polygon fill="#687385" points="218.86,315.6069,222.86,306.6069,218.86,310.6069,214.86,306.6069,218.86,315.6069" style="stroke:#687385;stroke-width:1.1;"/></g><!--link Nginx to Ws--><g class="link" data-entity-1="ent0005" data-entity-2="ent0008" data-link-type="dependency" data-source-line="86" id="lnk30"><path d="M136.86,236.9669 C136.86,290.3169 136.86,391.3369 136.86,441.1469" fill="none" id="Nginx-to-Ws" style="stroke:#687385;stroke-width:1.1;"/><polygon fill="#687385" points="136.86,447.1469,140.86,438.1469,136.86,442.1469,132.86,438.1469,136.86,447.1469" style="stroke:#687385;stroke-width:1.1;"/></g><!--link Rest to Identity--><g class="link" data-entity-1="ent0007" data-entity-2="ent0011" data-link-type="dependency" data-source-line="89" id="lnk32"><path d="M219.26,368.7269 C219.26,394.3669 219.26,429.2769 219.26,429.2769 C219.26,429.2769 476.89,429.2769 476.89,429.2769 C476.89,429.2769 476.89,599.8469 476.89,676.3969" fill="none" id="Rest-to-Identity" style="stroke:#687385;stroke-width:1.1;"/><polygon fill="#687385" points="476.89,682.3969,480.89,673.3969,476.89,677.3969,472.89,673.3969,476.89,682.3969" style="stroke:#687385;stroke-width:1.1;"/></g><!--link Rest to Collaboration--><g class="link" data-entity-1="ent0007" data-entity-2="ent0012" data-link-type="dependency" data-source-line="90" id="lnk33"><path d="M260.76,351.2769 C272.96,351.2769 283.09,351.2769 283.09,351.2769 C283.09,351.2769 283.09,585.0569 283.09,676.3769" fill="none" id="Rest-to-Collaboration" style="stroke:#687385;stroke-width:1.1;"/><polygon fill="#687385" points="283.09,682.3769,287.09,673.3769,283.09,677.3769,279.09,673.3769,283.09,682.3769" style="stroke:#687385;stroke-width:1.1;"/></g><!--link Rest to Control--><g class="link" data-entity-1="ent0007" data-entity-2="ent0014" data-link-type="dependency" data-source-line="91" id="lnk34"><path d="M177.63,342.2769 C115.57,342.2769 6,342.2769 6,342.2769 C6,342.2769 6,847.2769 6,847.2769 C6,847.2769 65.99,847.2769 124.9,847.2769" fill="none" id="Rest-to-Control" style="stroke:#687385;stroke-width:1.1;"/><polygon fill="#687385" points="130.9,847.2769,121.9,843.2769,125.9,847.2769,121.9,851.2769,130.9,847.2769" style="stroke:#687385;stroke-width:1.1;"/></g><!--link Asgi to Identity--><g class="link" data-entity-1="ent0009" data-entity-2="ent0011" data-link-type="dependency" data-source-line="93" id="lnk35"><path d="M257.75,582.2769 C343.02,582.2769 466.36,582.2769 466.36,582.2769 C466.36,582.2769 466.36,636.4369 466.36,676.3969" fill="none" id="Asgi-to-Identity" style="stroke:#687385;stroke-width:1.1;"/><polygon fill="#687385" points="466.36,682.3969,470.36,673.3969,466.36,677.3969,462.36,673.3969,466.36,682.3969" style="stroke:#687385;stroke-width:1.1;"/><text fill="#000000" font-family="sans-serif" font-size="13" lengthAdjust="spacing" textLength="51.0796" x="360.11" y="578.3438">ws auth</text></g><!--link Asgi to Realtime--><g class="link" data-entity-1="ent0009" data-entity-2="ent0013" data-link-type="dependency" data-source-line="94" id="lnk36"><path d="M149.81,607.8769 C149.81,629.0869 149.81,653.0369 149.81,676.2069" fill="none" id="Asgi-to-Realtime" style="stroke:#687385;stroke-width:1.1;"/><polygon fill="#687385" points="149.81,682.2069,153.81,673.2069,149.81,677.2069,145.81,673.2069,149.81,682.2069" style="stroke:#687385;stroke-width:1.1;"/></g><!--link Collaboration to Control--><g class="link" data-entity-1="ent0012" data-entity-2="ent0014" data-link-type="dependency" data-source-line="96" id="lnk37"><path d="M267.33,751.8769 C267.33,770.4869 267.33,787.3469 267.33,805.9769" fill="none" id="Collaboration-to-Control" style="stroke:#687385;stroke-width:1.1;stroke-dasharray:7,7;"/><polygon fill="#687385" points="267.33,811.9769,271.33,802.9769,267.33,806.9769,263.33,802.9769,267.33,811.9769" style="stroke:#687385;stroke-width:1.1;"/><text fill="#000000" font-family="sans-serif" font-size="13" lengthAdjust="spacing" textLength="120.1865" x="146.33" y="777.9938">permission checks</text></g><!--link Identity to Control--><g class="link" data-entity-1="ent0011" data-entity-2="ent0014" data-link-type="dependency" data-source-line="97" id="lnk38"><path d="M492.54,751.8969 C492.54,793.9769 492.54,859.2769 492.54,859.2769 C492.54,859.2769 396.51,859.2769 317.59,859.2769" fill="none" id="Identity-to-Control" style="stroke:#687385;stroke-width:1.1;stroke-dasharray:7,7;"/><polygon fill="#687385" points="311.59,859.2769,320.59,863.2769,316.59,859.2769,320.59,855.2769,311.59,859.2769" style="stroke:#687385;stroke-width:1.1;"/><text fill="#000000" font-family="sans-serif" font-size="13" lengthAdjust="spacing" textLength="99.8359" x="355.76" y="855.3438">security events</text></g><!--link Identity to Db--><g class="link" data-entity-1="ent0011" data-entity-2="ent0016" data-link-type="dependency" data-source-line="100" id="lnk40"><path d="M529.26,752.0269 C529.26,762.5069 529.26,771.2769 529.26,771.2769 C529.26,771.2769 1234.49,771.2769 1234.49,771.2769 C1234.49,771.2769 1234.49,795.5369 1234.49,817.7569" fill="none" id="Identity-to-Db" style="stroke:#687385;stroke-width:1.1;"/><polygon fill="#687385" points="1234.49,823.7569,1238.49,814.7569,1234.49,818.7569,1230.49,814.7569,1234.49,823.7569" style="stroke:#687385;stroke-width:1.1;"/></g><!--link Identity to Media--><g class="link" data-entity-1="ent0011" data-entity-2="ent0018" data-link-type="dependency" data-source-line="101" id="lnk41"><path d="M565.98,751.9369 C565.98,756.3069 565.98,759.2769 565.98,759.2769 C565.98,759.2769 1427.23,759.2769 1427.23,759.2769 C1427.23,759.2769 1427.23,801.9769 1427.23,826.2169" fill="none" id="Identity-to-Media" style="stroke:#687385;stroke-width:1.1;"/><polygon fill="#687385" points="1427.23,832.2169,1431.23,823.2169,1427.23,827.2169,1423.23,823.2169,1427.23,832.2169" style="stroke:#687385;stroke-width:1.1;"/></g><!--link Collaboration to Db--><g class="link" data-entity-1="ent0012" data-entity-2="ent0016" data-link-type="dependency" data-source-line="102" id="lnk42"><path d="M361.24,751.7669 C361.24,765.1369 361.24,777.2769 361.24,777.2769 C361.24,777.2769 1214.34,777.2769 1214.34,777.2769 C1214.34,777.2769 1214.34,797.7669 1214.34,818.0569" fill="none" id="Collaboration-to-Db" style="stroke:#687385;stroke-width:1.1;"/><polygon fill="#687385" points="1214.34,824.0569,1218.34,815.0569,1214.34,819.0569,1210.34,815.0569,1214.34,824.0569" style="stroke:#687385;stroke-width:1.1;"/></g><!--link Collaboration to Media--><g class="link" data-entity-1="ent0012" data-entity-2="ent0018" data-link-type="dependency" data-source-line="103" id="lnk43"><path d="M386.21,751.8669 C386.21,759.4569 386.21,765.2769 386.21,765.2769 C386.21,765.2769 1363.29,765.2769 1363.29,765.2769 C1363.29,765.2769 1363.29,804.3169 1363.29,826.2969" fill="none" id="Collaboration-to-Media" style="stroke:#687385;stroke-width:1.1;"/><polygon fill="#687385" points="1363.29,832.2969,1367.29,823.2969,1363.29,827.2969,1359.29,823.2969,1363.29,832.2969" style="stroke:#687385;stroke-width:1.1;"/></g><!--link Realtime to Redis--><g class="link" data-entity-1="ent0013" data-entity-2="ent0017" data-link-type="dependency" data-source-line="104" id="lnk44"><path d="M165.87,751.8369 C165.87,775.0169 165.87,801.2769 165.87,801.2769 C165.87,801.2769 975.94,801.2769 975.94,801.2769 C975.94,801.2769 975.94,807.3869 975.94,819.1169" fill="none" id="Realtime-to-Redis" style="stroke:#687385;stroke-width:1.1;"/><polygon fill="#687385" points="975.94,825.1169,979.94,816.1169,975.94,820.1169,971.94,816.1169,975.94,825.1169" style="stroke:#687385;stroke-width:1.1;"/></g><!--link Realtime to Db--><g class="link" data-entity-1="ent0013" data-entity-2="ent0016" data-link-type="dependency" data-source-line="105" id="lnk45"><path d="M177.42,751.9269 C177.42,770.3869 177.42,789.2769 177.42,789.2769 C177.42,789.2769 1194.18,789.2769 1194.18,789.2769 C1194.18,789.2769 1194.18,801.7369 1194.18,817.7569" fill="none" id="Realtime-to-Db" style="stroke:#687385;stroke-width:1.1;"/><polygon fill="#687385" points="1194.18,823.7569,1198.18,814.7569,1194.18,818.7569,1190.18,814.7569,1194.18,823.7569" style="stroke:#687385;stroke-width:1.1;"/></g><!--link Control to Db--><g class="link" data-entity-1="ent0014" data-entity-2="ent0016" data-link-type="dependency" data-source-line="106" id="lnk46"><path d="M289.31,812.1569 C289.31,802.8369 289.31,795.2769 289.31,795.2769 C289.31,795.2769 1174.03,795.2769 1174.03,795.2769 C1174.03,795.2769 1174.03,804.0369 1174.03,817.7669" fill="none" id="Control-to-Db" style="stroke:#687385;stroke-width:1.1;"/><polygon fill="#687385" points="1174.03,823.7669,1178.03,814.7669,1174.03,818.7669,1170.03,814.7669,1174.03,823.7669" style="stroke:#687385;stroke-width:1.1;"/></g><!--link Google to Identity--><g class="link" data-entity-1="ent0003" data-entity-2="ent0011" data-link-type="dependency" data-source-line="108" id="lnk47"><path d="M545.07,605.0269 C545.07,626.3669 545.07,652.0469 545.07,676.2869" fill="none" id="Google-to-Identity" style="stroke:#687385;stroke-width:1.1;"/><polygon fill="#687385" points="545.07,682.2869,549.07,673.2869,545.07,677.2869,541.07,673.2869,545.07,682.2869" style="stroke:#687385;stroke-width:1.1;"/><text fill="#000000" font-family="sans-serif" font-size="13" lengthAdjust="spacing" textLength="104.9521" x="440.07" y="639.7238">token validation</text></g><!--link Observability to Rest--><g class="link" data-entity-1="ent0019" data-entity-2="ent0007" data-link-type="dependency" data-source-line="109" id="lnk48"><path d="M1633.26,807.0269 C1633.26,699.5069 1633.26,411.2769 1633.26,411.2769 C1633.26,411.2769 239.91,411.2769 239.91,411.2769 C239.91,411.2769 239.91,394.1569 239.91,374.6369" fill="none" id="Observability-to-Rest" style="stroke:#687385;stroke-width:1.1;stroke-dasharray:7,7;"/><polygon fill="#687385" points="239.91,368.6369,235.91,377.6369,239.91,373.6369,243.91,377.6369,239.91,368.6369" style="stroke:#687385;stroke-width:1.1;"/><text fill="#000000" font-family="sans-serif" font-size="13" lengthAdjust="spacing" textLength="150.0459" x="962.14" y="407.3438">scrape health / metrics</text></g><!--link Realtime to GMN52--><g class="link" data-entity-1="ent0013" data-entity-2="ent0053" data-link-type="association" data-source-line="119" id="lnk54"><path d="M188.97,751.7469 C188.97,767.7569 188.97,783.2769 188.97,783.2769 C188.97,783.2769 731.26,783.2769 731.26,783.2769 C731.26,783.2769 731.26,768.2569 731.26,752.5269" fill="none" id="Realtime-GMN52" style="stroke:#687385;stroke-width:1.1;stroke-dasharray:7,7;"/></g><!--link Collaboration to GMN55--><g class="link" data-entity-1="ent0012" data-entity-2="ent0056" data-link-type="association" data-source-line="126" id="lnk57"><path d="M336.27,751.9069 C336.27,787.0769 336.27,836.2769 336.27,836.2769 C336.27,836.2769 511.23,836.2769 633.39,836.2769" fill="none" id="Collaboration-GMN55" style="stroke:#687385;stroke-width:1.1;stroke-dasharray:7,7;"/></g><?plantuml-src jLPDR-Cs4BthLmnSe8SsYPDilb4iu2JRD43QfB617EgYe2ZAOasHMfAoOnJzxtsa55koioZGHVVWZOR3DpDlXe_qqYj1js8XbQDduRpKCzgdQyRdGcSqihoGNd1VMv5uKv4tb1hlJKcPjB1BenCtbxfYbfNa2fQPPO38cNAYiv82S6PDhRCReuobR_Buh-EXf1P-LGaorXUciv29dDNAJyIh7oavqwNGdZX-XEruBIshNcJc2pe-FkpOjSc44nMTd7QCbkbvC9xsZ24xRgmMbeww42DhpR9D--pY_CF5wVRYf91yheLpT7Hmr5ciK3MRYR5VWUH05zCprQM5cx8o6hLysMLjexyIecjZCs7RPFX5TfYbmRh3xdb-cNEi_6YqRsr7-V7bX_Faxzty_WVaTM6xs9TvUiZFtyLkPkBVi3FcMSgS-0_GNPZFjQY_5YCt2Zk_4aGR_quUsNacnCMx46dESz6dwUJazF3i3B09unw6Qqobmm7XojGP3UwC2HFqEAfzCI3cg34aoMQw1f-ocHZ4FCAPeS4lCwbVfthoCARlCOKBOK5vPSthAYB4vH2m0t4hb8JVYXxOIjW6R3C9W-TFumcDdkwdUiWgEVmkuWJHwRkzY7Hie3-UxfWNIxQ2_zArxY-kxpmQtztJiwcX1bFzP8qttAW9TAInnJqZDvDRcOwgIadEWdvz8Tdx3Fz9lw9lQOoJ3SUfha6fsmiav5A9lIcqA9EC6EVmYA7UTlMnRWhcWODUAPOQ6yDEDOTrZqfinHbqGCkjXEWYG6XtrG3szcpHAPZoiXJ8pouaKcWWuQ9TNGeBnCf2_3GNUwrSazIfUMrvRtPlqHbBGLJjhL78ULHdqayrFaIeNDXIHZ92lYoiAJDh4urRjdY-Hr7CULl7AwGXUNr-1q_6-PaLuryV8iHjK9pcMAAuJ3O5QIqKgT0ZpE5RGMq9yC6MzXGEVexT66F-GIZIMo2GTTZ5l6Uy21T7GsfqN0_wOugsBbWg5HeNXwWKlX0rwhspB6UQeTO7CvTxD5B2-XAMMJjQlRsXzZ3EjFzR8JDCmk-u3VN-np2qBsx76iToFMRhLIjdXSTol_EzhrtdTJVNG_4ENjEWs_IzxO79-BkxsB3LaBkps2SWQNM7zh7KA4JyZT_nf6y-MrBUY6YPm-Vw3AqjVIewvgQY903qjj8LBHqngDrcRKtH5fS71siaRDjCEF52yBdRTAZlw0IlRJ136J5N6-BxRl6CO0HJ1KaZM-CO9Psc8ozCVU-xeNkhtutVhh5ntZIzqykEAMvjCce_a_P6s2BD6ppxQC6Kp1gkU-sDfKNsKJx7WqjG4S8KD8ICUIivQektMPmECddJynkcZORQAi8RJbYDFw9G8QnTLKPgVvKyFU9kYDT2M1hYc1kr44ECXJ7blkEc4XdzD9ay4N3mLeKKuyLcolli80alrH1sDtZRySsD0jSOq5qb-nHkbHZjXu3qXym-3blhcyoyVKVP76u7Qb_2YDGVqBiWtvGh70K8BbSrL4Rg1HxIa9G_4HxNAMJEURUNL19IIYM4gEqgGmpe0owQGkAzZQUgouNT5FaF?></g></svg>