<?plantuml 1.2026.1?><svg xmlns="http://www.w3.org/2000/svg" xmlns:xlink="http://www.w3.org/1999/xlink" contentStyleType="text/css" data-diagram-type="CLASS" height="760px" preserveAspectRatio="none" style="width:719px;height:760px;background:#FFFFFF;" version="1.1" viewBox="0 0 719 760" width="719px" zoomAndPan="magnify"><title>Devil - &#1043;&#1088;&#1091;&#1087;&#1087;&#1099; &#1080; &#1072;&#1091;&#1076;&#1080;&#1090;</title><defs/><g><g class="title" data-source-line="1"><text fill="#000000" font-family="Arial" font-size="14" font-weight="bold" lengthAdjust="spacing" textLength="256.1289" x="224.6405" y="22.9951">Devil - &#1043;&#1088;&#1091;&#1087;&#1087;&#1099; &#1080; &#1072;&#1091;&#1076;&#1080;&#1090;</text></g><!--cluster ??????? ????????--><g class="cluster" data-qualified-name="....... ........" data-source-line="25" id="ent0002"><rect fill="#F7F9FC" height="415" rx="5" ry="5" style="stroke:#C8D0DB;stroke-width:1.5;" width="179.25" x="534.16" y="202.2969"/><text fill="#1F2937" font-family="Arial" font-size="14" font-weight="bold" lengthAdjust="spacing" textLength="152.1748" x="547.6976" y="217.292">&#1041;&#1072;&#1079;&#1086;&#1074;&#1099;&#1077; &#1089;&#1091;&#1097;&#1085;&#1086;&#1089;&#1090;&#1080;</text></g><!--cluster ????????? ???????--><g class="cluster" data-qualified-name="......... ......." data-source-line="42" id="ent0006"><rect fill="#F7F9FC" height="262" rx="5" ry="5" style="stroke:#C8D0DB;stroke-width:1.5;" width="503.16" x="7" y="44.2969"/><text fill="#1F2937" font-family="Arial" font-size="14" font-weight="bold" lengthAdjust="spacing" textLength="162.6064" x="177.2768" y="59.292">&#1043;&#1088;&#1091;&#1087;&#1087;&#1086;&#1074;&#1099;&#1077; &#1086;&#1073;&#1098;&#1077;&#1082;&#1090;&#1099;</text></g><!--cluster ?????--><g class="cluster" data-qualified-name="....." data-source-line="60" id="ent0010"><rect fill="#F7F9FC" height="175" rx="5" ry="5" style="stroke:#C8D0DB;stroke-width:1.5;" width="184.73" x="289.65" y="579.2969"/><text fill="#1F2937" font-family="Arial" font-size="14" font-weight="bold" lengthAdjust="spacing" textLength="49.1914" x="357.4193" y="594.292">&#1040;&#1091;&#1076;&#1080;&#1090;</text></g><!--class User--><g class="entity" data-qualified-name="....... .........User" data-source-line="26" id="ent0003"><rect fill="#FFFFFF" height="91.1875" rx="5" ry="5" style="stroke:#9FB0C7;stroke-width:0.5;" width="135.0996" x="556.23" y="237.7069"/><ellipse cx="571.23" cy="259.0037" fill="#ADD1B2" rx="11" ry="11" style="stroke:#181818;stroke-width:1;"/><path d="M574.1988,264.6444 Q573.6206,264.9412 572.98,265.0819 Q572.3394,265.2381 571.6363,265.2381 Q569.1363,265.2381 567.8081,263.5975 Q566.4956,261.9412 566.4956,258.8162 Q566.4956,255.6912 567.8081,254.035 Q569.1363,252.3787 571.6363,252.3787 Q572.3394,252.3787 572.98,252.535 Q573.6363,252.6912 574.1988,252.9881 L574.1988,255.7069 Q573.5738,255.1287 572.98,254.8631 Q572.3863,254.5819 571.7613,254.5819 Q570.4175,254.5819 569.73,255.66 Q569.0425,256.7225 569.0425,258.8162 Q569.0425,260.91 569.73,261.9881 Q570.4175,263.0506 571.7613,263.0506 Q572.3863,263.0506 572.98,262.785 Q573.5738,262.5037 574.1988,261.9256 L574.1988,264.6444 Z " fill="#000000"/><text fill="#1F2937" font-family="Arial" font-size="14" lengthAdjust="spacing" textLength="103.0996" x="585.23" y="255.702">&#1055;&#1086;&#1083;&#1100;&#1079;&#1086;&#1074;&#1072;&#1090;&#1077;&#1083;&#1100;</text><text fill="#1F2937" font-family="Arial" font-size="14" lengthAdjust="spacing" textLength="31.9102" x="620.8247" y="271.9989">User</text><line style="stroke:#9FB0C7;stroke-width:0.5;" x1="557.23" x2="690.3296" y1="280.3006" y2="280.3006"/><text fill="#000000" font-family="Arial" font-size="14" lengthAdjust="spacing" textLength="24.5068" x="562.23" y="297.2957">+id</text><text fill="#000000" font-family="Arial" font-size="14" lengthAdjust="spacing" textLength="81.9697" x="562.23" y="313.5926">+username</text><line style="stroke:#9FB0C7;stroke-width:0.5;" x1="557.23" x2="690.3296" y1="320.8944" y2="320.8944"/></g><!--class Room--><g class="entity" data-qualified-name="....... .........Room" data-source-line="31" id="ent0004"><rect fill="#FFFFFF" height="91.1875" rx="5" ry="5" style="stroke:#9FB0C7;stroke-width:0.5;" width="106.1855" x="570.69" y="373.7069"/><ellipse cx="590.4836" cy="395.0038" fill="#ADD1B2" rx="11" ry="11" style="stroke:#181818;stroke-width:1;"/><path d="M593.4523,400.6444 Q592.8742,400.9413 592.2336,401.0819 Q591.5929,401.2381 590.8898,401.2381 Q588.3898,401.2381 587.0617,399.5975 Q585.7492,397.9413 585.7492,394.8163 Q585.7492,391.6913 587.0617,390.035 Q588.3898,388.3788 590.8898,388.3788 Q591.5929,388.3788 592.2336,388.535 Q592.8898,388.6913 593.4523,388.9881 L593.4523,391.7069 Q592.8273,391.1288 592.2336,390.8631 Q591.6398,390.5819 591.0148,390.5819 Q589.6711,390.5819 588.9836,391.66 Q588.2961,392.7225 588.2961,394.8163 Q588.2961,396.91 588.9836,397.9881 Q589.6711,399.0506 591.0148,399.0506 Q591.6398,399.0506 592.2336,398.785 Q592.8273,398.5038 593.4523,397.9256 L593.4523,400.6444 Z " fill="#000000"/><text fill="#1F2937" font-family="Arial" font-size="14" lengthAdjust="spacing" textLength="63.5332" x="605.5488" y="391.702">&#1050;&#1086;&#1084;&#1085;&#1072;&#1090;&#1072;</text><text fill="#1F2937" font-family="Arial" font-size="14" lengthAdjust="spacing" textLength="40.4961" x="617.0673" y="407.9989">Room</text><line style="stroke:#9FB0C7;stroke-width:0.5;" x1="571.69" x2="675.8755" y1="416.3006" y2="416.3006"/><text fill="#000000" font-family="Arial" font-size="14" lengthAdjust="spacing" textLength="24.5068" x="576.69" y="433.2957">+id</text><text fill="#000000" font-family="Arial" font-size="14" lengthAdjust="spacing" textLength="94.1855" x="576.69" y="449.5926">+kind=group</text><line style="stroke:#9FB0C7;stroke-width:0.5;" x1="571.69" x2="675.8755" y1="456.8944" y2="456.8944"/></g><!--class Message--><g class="entity" data-qualified-name="....... .........Message" data-source-line="36" id="ent0005"><rect fill="#FFFFFF" height="91.1875" rx="5" ry="5" style="stroke:#9FB0C7;stroke-width:0.5;" width="147.249" x="550.16" y="509.7069"/><ellipse cx="579.1298" cy="531.0038" fill="#ADD1B2" rx="11" ry="11" style="stroke:#181818;stroke-width:1;"/><path d="M582.0985,536.6444 Q581.5204,536.9413 580.8798,537.0819 Q580.2392,537.2381 579.536,537.2381 Q577.036,537.2381 575.7079,535.5975 Q574.3954,533.9413 574.3954,530.8163 Q574.3954,527.6913 575.7079,526.035 Q577.036,524.3788 579.536,524.3788 Q580.2392,524.3788 580.8798,524.535 Q581.536,524.6913 582.0985,524.9881 L582.0985,527.7069 Q581.4735,527.1288 580.8798,526.8631 Q580.286,526.5819 579.661,526.5819 Q578.3173,526.5819 577.6298,527.66 Q576.9423,528.7225 576.9423,530.8163 Q576.9423,532.91 577.6298,533.9881 Q578.3173,535.0506 579.661,535.0506 Q580.286,535.0506 580.8798,534.785 Q581.4735,534.5038 582.0985,533.9256 L582.0985,536.6444 Z " fill="#000000"/><text fill="#1F2937" font-family="Arial" font-size="14" lengthAdjust="spacing" textLength="84.2051" x="596.2342" y="527.702">&#1057;&#1086;&#1086;&#1073;&#1097;&#1077;&#1085;&#1080;&#1077;</text><text fill="#1F2937" font-family="Arial" font-size="14" lengthAdjust="spacing" textLength="61.3594" x="607.657" y="543.9989">Message</text><line style="stroke:#9FB0C7;stroke-width:0.5;" x1="551.16" x2="696.409" y1="552.3006" y2="552.3006"/><text fill="#000000" font-family="Arial" font-size="14" lengthAdjust="spacing" textLength="24.5068" x="556.16" y="569.2957">+id</text><text fill="#000000" font-family="Arial" font-size="14" lengthAdjust="spacing" textLength="135.249" x="556.16" y="585.5926">+message_content</text><line style="stroke:#9FB0C7;stroke-width:0.5;" x1="551.16" x2="696.409" y1="592.8944" y2="592.8944"/></g><!--class Invite--><g class="entity" data-qualified-name="......... ........Invite" data-source-line="43" id="ent0007"><rect fill="#FFFFFF" height="123.7813" rx="5" ry="5" style="stroke:#9FB0C7;stroke-width:0.5;" width="191.8721" x="23" y="166.4069"/><ellipse cx="38" cy="187.7038" fill="#ADD1B2" rx="11" ry="11" style="stroke:#181818;stroke-width:1;"/><path d="M40.9688,193.3444 Q40.3906,193.6413 39.75,193.7819 Q39.1094,193.9381 38.4063,193.9381 Q35.9063,193.9381 34.5781,192.2975 Q33.2656,190.6413 33.2656,187.5163 Q33.2656,184.3913 34.5781,182.735 Q35.9063,181.0788 38.4063,181.0788 Q39.1094,181.0788 39.75,181.235 Q40.4063,181.3913 40.9688,181.6881 L40.9688,184.4069 Q40.3438,183.8288 39.75,183.5631 Q39.1563,183.2819 38.5313,183.2819 Q37.1875,183.2819 36.5,184.36 Q35.8125,185.4225 35.8125,187.5163 Q35.8125,189.61 36.5,190.6881 Q37.1875,191.7506 38.5313,191.7506 Q39.1563,191.7506 39.75,191.485 Q40.3438,191.2038 40.9688,190.6256 L40.9688,193.3444 Z " fill="#000000"/><text fill="#1F2937" font-family="Arial" font-size="14" lengthAdjust="spacing" textLength="159.8721" x="52" y="184.402">&#1057;&#1089;&#1099;&#1083;&#1082;&#1072;-&#1087;&#1088;&#1080;&#1075;&#1083;&#1072;&#1096;&#1077;&#1085;&#1080;&#1077;</text><text fill="#1F2937" font-family="Arial" font-size="14" lengthAdjust="spacing" textLength="67.9492" x="97.9614" y="200.6989">InviteLink</text><line style="stroke:#9FB0C7;stroke-width:0.5;" x1="24" x2="213.8721" y1="209.0006" y2="209.0006"/><text fill="#000000" font-family="Arial" font-size="14" lengthAdjust="spacing" textLength="45.4932" x="29" y="225.9957">+code</text><text fill="#000000" font-family="Arial" font-size="14" lengthAdjust="spacing" textLength="84.1367" x="29" y="242.2926">+expires_at</text><text fill="#000000" font-family="Arial" font-size="14" lengthAdjust="spacing" textLength="81.3066" x="29" y="258.5895">+max_uses</text><text fill="#000000" font-family="Arial" font-size="14" lengthAdjust="spacing" textLength="86.7412" x="29" y="274.8864">+is_revoked</text><line style="stroke:#9FB0C7;stroke-width:0.5;" x1="24" x2="213.8721" y1="282.1881" y2="282.1881"/></g><!--class JoinRequest--><g class="entity" data-qualified-name="......... ........JoinRequest" data-source-line="50" id="ent0008"><rect fill="#FFFFFF" height="91.1875" rx="5" ry="5" style="stroke:#9FB0C7;stroke-width:0.5;" width="195.8643" x="284.08" y="79.7069"/><ellipse cx="299.08" cy="101.0037" fill="#ADD1B2" rx="11" ry="11" style="stroke:#181818;stroke-width:1;"/><path d="M302.0488,106.6444 Q301.4706,106.9412 300.83,107.0819 Q300.1894,107.2381 299.4863,107.2381 Q296.9863,107.2381 295.6581,105.5975 Q294.3456,103.9412 294.3456,100.8162 Q294.3456,97.6912 295.6581,96.035 Q296.9863,94.3787 299.4863,94.3787 Q300.1894,94.3787 300.83,94.535 Q301.4863,94.6912 302.0488,94.9881 L302.0488,97.7069 Q301.4238,97.1287 300.83,96.8631 Q300.2363,96.5819 299.6113,96.5819 Q298.2675,96.5819 297.58,97.66 Q296.8925,98.7225 296.8925,100.8162 Q296.8925,102.91 297.58,103.9881 Q298.2675,105.0506 299.6113,105.0506 Q300.2363,105.0506 300.83,104.785 Q301.4238,104.5037 302.0488,103.9256 L302.0488,106.6444 Z " fill="#000000"/><text fill="#1F2937" font-family="Arial" font-size="14" lengthAdjust="spacing" textLength="163.8643" x="313.08" y="97.702">&#1047;&#1072;&#1103;&#1074;&#1082;&#1072; &#1085;&#1072; &#1074;&#1089;&#1090;&#1091;&#1087;&#1083;&#1077;&#1085;&#1080;&#1077;</text><text fill="#1F2937" font-family="Arial" font-size="14" lengthAdjust="spacing" textLength="82.9541" x="353.5351" y="113.9989">JoinRequest</text><line style="stroke:#9FB0C7;stroke-width:0.5;" x1="285.08" x2="478.9443" y1="122.3006" y2="122.3006"/><text fill="#000000" font-family="Arial" font-size="14" lengthAdjust="spacing" textLength="54.749" x="290.08" y="139.2957">+status</text><text fill="#000000" font-family="Arial" font-size="14" lengthAdjust="spacing" textLength="74.6484" x="290.08" y="155.5926">+message</text><line style="stroke:#9FB0C7;stroke-width:0.5;" x1="285.08" x2="478.9443" y1="162.8944" y2="162.8944"/></g><!--class Pinned--><g class="entity" data-qualified-name="......... ........Pinned" data-source-line="55" id="ent0009"><rect fill="#FFFFFF" height="74.8906" rx="5" ry="5" style="stroke:#9FB0C7;stroke-width:0.5;" width="224.2881" x="269.87" y="215.8469"/><ellipse cx="284.87" cy="237.1437" fill="#ADD1B2" rx="11" ry="11" style="stroke:#181818;stroke-width:1;"/><path d="M287.8388,242.7844 Q287.2606,243.0812 286.62,243.2219 Q285.9794,243.3781 285.2763,243.3781 Q282.7763,243.3781 281.4481,241.7375 Q280.1356,240.0812 280.1356,236.9562 Q280.1356,233.8312 281.4481,232.175 Q282.7763,230.5187 285.2763,230.5187 Q285.9794,230.5187 286.62,230.675 Q287.2763,230.8312 287.8388,231.1281 L287.8388,233.8469 Q287.2138,233.2687 286.62,233.0031 Q286.0263,232.7219 285.4013,232.7219 Q284.0575,232.7219 283.37,233.8 Q282.6825,234.8625 282.6825,236.9562 Q282.6825,239.05 283.37,240.1281 Q284.0575,241.1906 285.4013,241.1906 Q286.0263,241.1906 286.62,240.925 Q287.2138,240.6437 287.8388,240.0656 L287.8388,242.7844 Z " fill="#000000"/><text fill="#1F2937" font-family="Arial" font-size="14" lengthAdjust="spacing" textLength="192.2881" x="298.87" y="233.842">&#1047;&#1072;&#1082;&#1088;&#1077;&#1087;&#1083;&#1077;&#1085;&#1085;&#1086;&#1077; &#1089;&#1086;&#1086;&#1073;&#1097;&#1077;&#1085;&#1080;&#1077;</text><text fill="#1F2937" font-family="Arial" font-size="14" lengthAdjust="spacing" textLength="108.9375" x="340.5453" y="250.1389">PinnedMessage</text><line style="stroke:#9FB0C7;stroke-width:0.5;" x1="270.87" x2="493.1581" y1="258.4406" y2="258.4406"/><text fill="#000000" font-family="Arial" font-size="14" lengthAdjust="spacing" textLength="80.8213" x="275.87" y="275.4357">+pinned_at</text><line style="stroke:#9FB0C7;stroke-width:0.5;" x1="270.87" x2="493.1581" y1="282.7375" y2="282.7375"/></g><!--class Audit--><g class="entity" data-qualified-name="......Audit" data-source-line="61" id="ent0011"><rect fill="#FFFFFF" height="123.7813" rx="5" ry="5" style="stroke:#9FB0C7;stroke-width:0.5;" width="152.7227" x="305.65" y="614.4069"/><ellipse cx="320.65" cy="635.7038" fill="#ADD1B2" rx="11" ry="11" style="stroke:#181818;stroke-width:1;"/><path d="M323.6188,641.3444 Q323.0406,641.6413 322.4,641.7819 Q321.7594,641.9381 321.0563,641.9381 Q318.5563,641.9381 317.2281,640.2975 Q315.9156,638.6413 315.9156,635.5163 Q315.9156,632.3913 317.2281,630.735 Q318.5563,629.0788 321.0563,629.0788 Q321.7594,629.0788 322.4,629.235 Q323.0563,629.3913 323.6188,629.6881 L323.6188,632.4069 Q322.9938,631.8288 322.4,631.5631 Q321.8063,631.2819 321.1813,631.2819 Q319.8375,631.2819 319.15,632.36 Q318.4625,633.4225 318.4625,635.5163 Q318.4625,637.61 319.15,638.6881 Q319.8375,639.7506 321.1813,639.7506 Q321.8063,639.7506 322.4,639.485 Q322.9938,639.2038 323.6188,638.6256 L323.6188,641.3444 Z " fill="#000000"/><text fill="#1F2937" font-family="Arial" font-size="14" lengthAdjust="spacing" textLength="120.7227" x="334.65" y="632.402">&#1057;&#1086;&#1073;&#1099;&#1090;&#1080;&#1077; &#1072;&#1091;&#1076;&#1080;&#1090;&#1072;</text><text fill="#1F2937" font-family="Arial" font-size="14" lengthAdjust="spacing" textLength="76.8223" x="356.6002" y="648.6989">AuditEvent</text><line style="stroke:#9FB0C7;stroke-width:0.5;" x1="306.65" x2="457.3727" y1="657.0006" y2="657.0006"/><text fill="#000000" font-family="Arial" font-size="14" lengthAdjust="spacing" textLength="54.8242" x="311.65" y="673.9957">+action</text><text fill="#000000" font-family="Arial" font-size="14" lengthAdjust="spacing" textLength="69.1455" x="311.65" y="690.2926">+protocol</text><text fill="#000000" font-family="Arial" font-size="14" lengthAdjust="spacing" textLength="95.5117" x="311.65" y="706.5895">+status_code</text><text fill="#000000" font-family="Arial" font-size="14" lengthAdjust="spacing" textLength="66.4932" x="311.65" y="722.8864">+success</text><line style="stroke:#9FB0C7;stroke-width:0.5;" x1="306.65" x2="457.3727" y1="730.1881" y2="730.1881"/></g><!--link Room to Invite--><!--link Invite to Room--><g class="link" data-entity-1="ent0007" data-entity-2="ent0004" data-link-type="dependency" data-source-line="74" id="lnk16"><path codeLine="74" d="M87.41,290.4469 C87.41,351.1569 87.41,434.4969 87.41,434.4969 C87.41,434.4969 428.72,434.4969 564.39,434.4969" fill="none" id="Invite-to-Room" style="stroke:#687385;stroke-width:1;"/><polygon fill="#687385" points="570.39,434.4969,561.39,430.4969,565.39,434.4969,561.39,438.4969,570.39,434.4969" style="stroke:#687385;stroke-width:1;"/><text fill="#000000" font-family="Arial" font-size="13" lengthAdjust="spacing" textLength="156.5396" x="99.88" y="447.5638">&#1087;&#1088;&#1080;&#1075;&#1083;&#1072;&#1096;&#1077;&#1085;&#1080;&#1077; &#1074; &#1075;&#1088;&#1091;&#1087;&#1087;&#1091;</text><text fill="#000000" font-family="Arial" font-size="13" lengthAdjust="spacing" textLength="6.5" x="77.6611" y="310.1389">*</text><text fill="#000000" font-family="Arial" font-size="13" lengthAdjust="spacing" textLength="8.271" x="554.3382" y="449.7648">1</text></g><!--link Invite to JoinRequest--><!--link JoinRequest to Invite--><g class="link" data-entity-1="ent0008" data-entity-2="ent0007" data-link-type="dependency" data-source-line="79" id="lnk20"><path codeLine="79" d="M333.41,171.1769 C333.41,177.6369 333.41,182.1269 333.41,182.1269 C333.41,182.1269 278.21,182.1269 221.19,182.1269" fill="none" id="JoinRequest-to-Invite" style="stroke:#687385;stroke-width:1;"/><polygon fill="#687385" points="215.19,182.1269,224.19,186.1269,220.19,182.1269,224.19,178.1269,215.19,182.1269" style="stroke:#687385;stroke-width:1;"/><text fill="#000000" font-family="Arial" font-size="13" lengthAdjust="spacing" textLength="126.8071" x="280.78" y="186.6938">&#1087;&#1088;&#1080;&#1096;&#1083;&#1072; &#1087;&#1086; &#1089;&#1089;&#1099;&#1083;&#1082;&#1077;</text><text fill="#000000" font-family="Arial" font-size="13" lengthAdjust="spacing" textLength="6.5" x="319.8677" y="191.0932">*</text><text fill="#000000" font-family="Arial" font-size="13" lengthAdjust="spacing" textLength="24.8066" x="222.83" y="191.4794">0..1</text></g><!--link JoinRequest to Pinned--><!--link Pinned to Audit--><!--link Invite to User--><g class="link" data-entity-1="ent0007" data-entity-2="ent0003" data-link-type="dependency" data-source-line="75" id="lnk17"><path codeLine="75" d="M215.2,204.6069 C353.09,204.6069 590.41,204.6069 590.41,204.6069 C590.41,204.6069 590.41,214.2169 590.41,231.5269" fill="none" id="Invite-to-User" style="stroke:#687385;stroke-width:1;"/><polygon fill="#687385" points="590.41,237.5269,594.41,228.5269,590.41,232.5269,586.41,228.5269,590.41,237.5269" style="stroke:#687385;stroke-width:1;"/><text fill="#000000" font-family="Arial" font-size="13" lengthAdjust="spacing" textLength="47.2773" x="371.26" y="200.6738">&#1089;&#1086;&#1079;&#1076;&#1072;&#1083;</text><text fill="#000000" font-family="Arial" font-size="13" lengthAdjust="spacing" textLength="6.5" x="222.819" y="215.4393">*</text><text fill="#000000" font-family="Arial" font-size="13" lengthAdjust="spacing" textLength="24.8066" x="559.8055" y="226.7789">0..1</text></g><!--link JoinRequest to Room--><g class="link" data-entity-1="ent0008" data-entity-2="ent0004" data-link-type="dependency" data-source-line="77" id="lnk18"><path codeLine="77" d="M480.29,148.0969 C503.88,148.0969 522.41,148.0969 522.41,148.0969 C522.41,148.0969 522.41,388.8969 522.41,388.8969 C522.41,388.8969 540,388.8969 564.43,388.8969" fill="none" id="JoinRequest-to-Room" style="stroke:#687385;stroke-width:1;"/><polygon fill="#687385" points="570.43,388.8969,561.43,384.8969,565.43,388.8969,561.43,392.8969,570.43,388.8969" style="stroke:#687385;stroke-width:1;"/><text fill="#000000" font-family="Arial" font-size="13" lengthAdjust="spacing" textLength="109.5732" x="523.41" y="284.5138">&#1079;&#1072;&#1103;&#1074;&#1082;&#1072; &#1074; &#1075;&#1088;&#1091;&#1087;&#1087;&#1091;</text><text fill="#000000" font-family="Arial" font-size="13" lengthAdjust="spacing" textLength="6.5" x="488.0632" y="162.4884">*</text><text fill="#000000" font-family="Arial" font-size="13" lengthAdjust="spacing" textLength="8.271" x="554.3838" y="397.7523">1</text></g><!--link JoinRequest to User--><g class="link" data-entity-1="ent0008" data-entity-2="ent0003" data-link-type="dependency" data-source-line="78" id="lnk19"><path codeLine="78" d="M480.26,125.2969 C547.45,125.2969 624.41,125.2969 624.41,125.2969 C624.41,125.2969 624.41,184.9369 624.41,231.5969" fill="none" id="JoinRequest-to-User" style="stroke:#687385;stroke-width:1;"/><polygon fill="#687385" points="624.41,237.5969,628.41,228.5969,624.41,232.5969,620.41,228.5969,624.41,237.5969" style="stroke:#687385;stroke-width:1;"/><text fill="#000000" font-family="Arial" font-size="13" lengthAdjust="spacing" textLength="90.2002" x="517.48" y="138.3638">&#1072;&#1074;&#1090;&#1086;&#1088; &#1079;&#1072;&#1103;&#1074;&#1082;&#1080;</text><text fill="#000000" font-family="Arial" font-size="13" lengthAdjust="spacing" textLength="6.5" x="488.0309" y="137.9428">*</text><text fill="#000000" font-family="Arial" font-size="13" lengthAdjust="spacing" textLength="8.271" x="615.9147" y="226.5271">1</text></g><!--link JoinRequest to User--><g class="link" data-entity-1="ent0008" data-entity-2="ent0003" data-link-type="dependency" data-source-line="80" id="lnk21"><path codeLine="80" d="M480.24,102.4969 C559.68,102.4969 658.41,102.4969 658.41,102.4969 C658.41,102.4969 658.41,177.6369 658.41,231.2069" fill="none" id="JoinRequest-to-User-1" style="stroke:#687385;stroke-width:1;"/><polygon fill="#687385" points="658.41,237.2069,662.41,228.2069,658.41,232.2069,654.41,228.2069,658.41,237.2069" style="stroke:#687385;stroke-width:1;"/><text fill="#000000" font-family="Arial" font-size="13" lengthAdjust="spacing" textLength="65.3745" x="570.68" y="115.5638">&#1087;&#1088;&#1086;&#1074;&#1077;&#1088;&#1080;&#1083;</text><text fill="#000000" font-family="Arial" font-size="13" lengthAdjust="spacing" textLength="6.5" x="488.0094" y="113.3972">*</text><text fill="#000000" font-family="Arial" font-size="13" lengthAdjust="spacing" textLength="24.8066" x="637.6491" y="226.7465">0..1</text></g><!--link Pinned to Room--><g class="link" data-entity-1="ent0009" data-entity-2="ent0004" data-link-type="dependency" data-source-line="82" id="lnk22"><path codeLine="82" d="M482.41,290.9569 C482.41,335.6269 482.41,404.0969 482.41,404.0969 C482.41,404.0969 524.3,404.0969 564.34,404.0969" fill="none" id="Pinned-to-Room" style="stroke:#687385;stroke-width:1;"/><polygon fill="#687385" points="570.34,404.0969,561.34,400.0969,565.34,404.0969,561.34,408.0969,570.34,404.0969" style="stroke:#687385;stroke-width:1;"/><text fill="#000000" font-family="Arial" font-size="13" lengthAdjust="spacing" textLength="143.9395" x="338.41" y="404.5638">&#1079;&#1072;&#1082;&#1088;&#1077;&#1087;&#1083;&#1077;&#1085;&#1086; &#1074; &#1075;&#1088;&#1091;&#1087;&#1087;&#1077;</text><text fill="#000000" font-family="Arial" font-size="13" lengthAdjust="spacing" textLength="6.5" x="493.1929" y="310.7979">*</text><text fill="#000000" font-family="Arial" font-size="13" lengthAdjust="spacing" textLength="8.271" x="554.2812" y="415.0898">1</text></g><!--link Pinned to Message--><g class="link" data-entity-1="ent0009" data-entity-2="ent0005" data-link-type="dependency" data-source-line="83" id="lnk23"><path codeLine="83" d="M470.41,291.0869 C470.41,368.9669 470.41,540.0969 470.41,540.0969 C470.41,540.0969 504.57,540.0969 543.79,540.0969" fill="none" id="Pinned-to-Message" style="stroke:#687385;stroke-width:1;"/><polygon fill="#687385" points="549.79,540.0969,540.79,536.0969,544.79,540.0969,540.79,544.0969,549.79,540.0969" style="stroke:#687385;stroke-width:1;"/><text fill="#000000" font-family="Arial" font-size="13" lengthAdjust="spacing" textLength="120.0151" x="349.41" y="468.3538">&#1082;&#1072;&#1082;&#1086;&#1077; &#1089;&#1086;&#1086;&#1073;&#1097;&#1077;&#1085;&#1080;&#1077;</text><text fill="#000000" font-family="Arial" font-size="13" lengthAdjust="spacing" textLength="6.5" x="478.5951" y="310.6667">*</text><text fill="#000000" font-family="Arial" font-size="13" lengthAdjust="spacing" textLength="8.271" x="533.7608" y="551.3762">1</text></g><!--link Pinned to User--><g class="link" data-entity-1="ent0009" data-entity-2="ent0003" data-link-type="dependency" data-source-line="84" id="lnk24"><path codeLine="84" d="M494.41,264.2269 C515.37,264.2269 530.68,264.2269 549.79,264.2269" fill="none" id="Pinned-to-User" style="stroke:#687385;stroke-width:1;"/><polygon fill="#687385" points="555.79,264.2269,546.79,260.2269,550.79,264.2269,546.79,268.2269,555.79,264.2269" style="stroke:#687385;stroke-width:1;"/><text fill="#000000" font-family="Arial" font-size="13" lengthAdjust="spacing" textLength="64.2383" x="460.1" y="260.2938">&#1079;&#1072;&#1082;&#1088;&#1077;&#1087;&#1080;&#1083;</text><text fill="#000000" font-family="Arial" font-size="13" lengthAdjust="spacing" textLength="6.5" x="502.18" y="277.5368">*</text><text fill="#000000" font-family="Arial" font-size="13" lengthAdjust="spacing" textLength="24.8066" x="523.5826" y="258.5602">0..1</text></g><!--link Audit to User--><g class="link" data-entity-1="ent0011" data-entity-2="ent0003" data-link-type="dependency" data-source-line="86" id="lnk25"><path codeLine="86" d="M367.41,614.1269 C367.41,509.5669 367.41,309.8169 367.41,309.8169 C367.41,309.8169 473.8,309.8169 549.75,309.8169" fill="none" id="Audit-to-User" style="stroke:#687385;stroke-width:1;"/><polygon fill="#687385" points="555.75,309.8169,546.75,305.8169,550.75,309.8169,546.75,313.8169,555.75,309.8169" style="stroke:#687385;stroke-width:1;"/><text fill="#000000" font-family="Arial" font-size="13" lengthAdjust="spacing" textLength="74.439" x="292.41" y="380.8638">&#1080;&#1085;&#1080;&#1094;&#1080;&#1072;&#1090;&#1086;&#1088;</text><text fill="#000000" font-family="Arial" font-size="13" lengthAdjust="spacing" textLength="6.5" x="359.4038" y="603.1458">*</text><text fill="#000000" font-family="Arial" font-size="13" lengthAdjust="spacing" textLength="24.8066" x="523.5385" y="325.3985">0..1</text></g><!--link Audit to Room--><g class="link" data-entity-1="ent0011" data-entity-2="ent0004" data-link-type="dependency" data-source-line="87" id="lnk26"><path codeLine="87" d="M397.41,614.0769 C397.41,546.9969 397.41,449.6969 397.41,449.6969 C397.41,449.6969 497.5,449.6969 564.42,449.6969" fill="none" id="Audit-to-Room" style="stroke:#687385;stroke-width:1;stroke-dasharray:7,7;"/><polygon fill="#687385" points="570.42,449.6969,561.42,445.6969,565.42,449.6969,561.42,453.6969,570.42,449.6969" style="stroke:#687385;stroke-width:1;"/><text fill="#000000" font-family="Arial" font-size="13" lengthAdjust="spacing" textLength="131.2124" x="269.72" y="445.7638">room_id &#1074; metadata</text></g><!--link Audit to Message--><g class="link" data-entity-1="ent0011" data-entity-2="ent0005" data-link-type="dependency" data-source-line="88" id="lnk27"><path codeLine="88" d="M428.41,614.1369 C428.41,591.1069 428.41,570.4969 428.41,570.4969 C428.41,570.4969 488.59,570.4969 543.92,570.4969" fill="none" id="Audit-to-Message" style="stroke:#687385;stroke-width:1;stroke-dasharray:7,7;"/><polygon fill="#687385" points="549.92,570.4969,540.92,566.4969,544.92,570.4969,540.92,574.4969,549.92,570.4969" style="stroke:#687385;stroke-width:1;"/><text fill="#000000" font-family="Arial" font-size="13" lengthAdjust="spacing" textLength="155.7207" x="311.34" y="566.5638">message_id &#1074; metadata</text></g><?plantuml-src VLNBRXCn5DtFLrXX1qhLKaeV4fNAIoe2X5fOKHIvOoUrCh63xVG1GWgfX80W0MA1n0Rr3q9BrAY1z1SyVyIrPoPn9WbTTFmyvznphsyqqn55T-a-YnJQeaepNa55PBx5pVZON9hBk8rC3vaEp7wRNjmA8bhMI0iaMMLF8y8a3JKJF51LnkjOuXfIUvY80mjKnf6Ytiuk3giLAHgSt16HaEXAsVrv9oB6gJwgKoIatXFUHXXXfJQqbcoteUbcAFWsUqNHl7U4q39kHFefFTGR4Qlm6kKQXV2FIkyK5uGgMaStbhn5YNdLBYwDBLgXeP2SIhJW4sr8AGxI26wkB2-kB4sgk2-uVenh50up77dxTV00L-YsFWBZhNcOLoAQZnIz3X2wBIIXCYLQBU_EXyjsTOQ925dET6sXV7rrSJbuCqayYHoka7coEnLvkRnQ3cSW1nbWmNmr7NDk1kOqRfikYj_6n_47yzSCODGolOAZJC8gc9zmhXz_Iiv3NRLCryvt-3D5PG5XXUp0NK7e6YF9jm5h7Eo46J2Fq7u0oX-WiZYT7RubHCrXs44U0vmWjsnyzJpA2Q0Cp2yGtGMidkdky4TKAGZEWQNZF5ujMIv1BMgeCWSwPilm4GsjSImVWUKYRiNjSMDEmAsswPiBqod2ksk2ZZEOTkBt8rMRV9zf-f3ngXEMJ3DT8LHsCgA7TNYNgeHrgXGVbi11bUfN9KdtHPMIl0_VWUqpP0Ka86ig0jcGGXT4VwJYWM1yYxviGBjmChnvfaLfh1jgpASfP6134s0pSAWOLpwJsNZ2EAV4pqcoaj7LtIo9DvU4BrddohdjADgsFcrUXltDLj56Wp1zRnzowgZSD6F2IRTBMANG8XIH7t9fb0NL24DGd4bo9LbyliS8eVo5Qv_5zJI5GPh9uJOqK0wxdhE1x_84J697aBeoiUr223AMmjK2Ai9gOQ6GF9GrDBtW8F_8d0r_2eud0ERdvW33FTYr977dO6F7z8CnkTC8p_rQoz7CkfiI0S4fP6eGDtsOtlHhYSHKU1OeXDYtlF0oRRlA7bxtVn0PkGMmhQlh78D8KzDd19chyS5ui40vvNhMS03XmYBCU1SJLyU5-kHEQ5B8CqxtB6Ry3hwTnDlq-DpSUXQEX4-94Hj1ZMfCiCRUeP7eh36E7_q7?></g></svg>