<?plantuml 1.2026.1?><svg xmlns="http://www.w3.org/2000/svg" xmlns:xlink="http://www.w3.org/1999/xlink" contentStyleType="text/css" data-diagram-type="DESCRIPTION" height="907px" preserveAspectRatio="none" style="width:1257px;height:907px;background:#FBFCFE;" version="1.1" viewBox="0 0 1257 907" width="1257px" zoomAndPan="magnify"><title>Devil - &#1040;&#1088;&#1093;&#1080;&#1090;&#1077;&#1082;&#1090;&#1091;&#1088;&#1072; &#1073;&#1101;&#1082;&#1077;&#1085;&#1076;&#1072;</title><defs/><g><rect fill="#FBFCFE" height="907" style="stroke:none;stroke-width:1;" width="1257" x="0" y="0"/><g class="title" data-source-line="2"><text fill="#000000" font-family="Arial" font-size="14" font-weight="bold" lengthAdjust="spacing" textLength="193.7783" x="524.6108" y="23.1318">Devil - &#1040;&#1088;&#1093;&#1080;&#1090;&#1077;&#1082;&#1090;&#1091;&#1088;&#1072; &#1073;&#1101;&#1082;&#1077;&#1085;&#1076;&#1072;</text></g><!--cluster Edge--><g class="cluster" data-qualified-name="Edge" data-source-line="8" id="ent0004"><rect fill="#F5F8FC" height="129" rx="6" ry="6" style="stroke:#C7D2E3;stroke-width:1;" width="142" x="122" y="147.5986"/><text fill="#111827" font-family="Arial" font-size="14" font-weight="bold" lengthAdjust="spacing" textLength="114.7891" x="135.6055" y="162.7305">&#1042;&#1085;&#1077;&#1096;&#1085;&#1080;&#1081; &#1082;&#1086;&#1085;&#1090;&#1091;&#1088;</text></g><!--cluster Delivery--><g class="cluster" data-qualified-name="Delivery" data-source-line="12" id="ent0006"><rect fill="#F5F8FC" height="219" rx="6" ry="6" style="stroke:#C7D2E3;stroke-width:1;" width="322" x="16" y="300.5986"/><text fill="#111827" font-family="Arial" font-size="14" font-weight="bold" lengthAdjust="spacing" textLength="64.3535" x="144.8232" y="315.7305">&#1044;&#1086;&#1089;&#1090;&#1072;&#1074;&#1082;&#1072;</text></g><!--cluster Domain--><g class="cluster" data-qualified-name="Domain" data-source-line="18" id="ent0010"><rect fill="#F5F8FC" height="260" rx="6" ry="6" style="stroke:#C7D2E3;stroke-width:1;" width="512" x="7" y="543.5986"/><text fill="#111827" font-family="Arial" font-size="14" font-weight="bold" lengthAdjust="spacing" textLength="147.875" x="189.0625" y="558.7305">&#1055;&#1088;&#1080;&#1082;&#1083;&#1072;&#1076;&#1085;&#1099;&#1077; &#1076;&#1086;&#1084;&#1077;&#1085;&#1099;</text></g><!--cluster Infra--><g class="cluster" data-qualified-name="Infra" data-source-line="25" id="ent0015"><rect fill="#F5F8FC" height="137" rx="6" ry="6" style="stroke:#C7D2E3;stroke-width:1;" width="708" x="543" y="675.5986"/><text fill="#111827" font-family="Arial" font-size="14" font-weight="bold" lengthAdjust="spacing" textLength="116.0742" x="838.9629" y="690.7305">&#1048;&#1085;&#1092;&#1088;&#1072;&#1089;&#1090;&#1088;&#1091;&#1082;&#1090;&#1091;&#1088;&#1072;</text></g><!--entity Nginx--><g class="entity" data-qualified-name="Edge.Nginx" data-source-line="9" id="ent0005"><polygon fill="#FFFFFF" points="138,192.5986,148,182.5986,248.0205,182.5986,248.0205,250.8945,238.0205,260.8945,138,260.8945,138,192.5986" style="stroke:#8EA3BD;stroke-width:0.5;"/><line style="stroke:#8EA3BD;stroke-width:0.5;" x1="238.0205" x2="248.0205" y1="192.5986" y2="182.5986"/><line style="stroke:#8EA3BD;stroke-width:0.5;" x1="138" x2="238.0205" y1="192.5986" y2="192.5986"/><line style="stroke:#8EA3BD;stroke-width:0.5;" x1="238.0205" x2="238.0205" y1="192.5986" y2="260.8945"/><text fill="#1F2937" font-family="Arial" font-size="14" lengthAdjust="spacing" textLength="35.793" x="170.1138" y="215.7305">Nginx</text><text fill="#1F2937" font-family="Arial" font-size="14" lengthAdjust="spacing" textLength="29.5654" x="153" y="231.8291">TLS,</text><text fill="#1F2937" font-family="Arial" font-size="14" lengthAdjust="spacing" textLength="3.8896" x="182.5654" y="231.8291">&#160;</text><text fill="#1F2937" font-family="Arial" font-size="14" lengthAdjust="spacing" textLength="36.5654" x="186.4551" y="231.8291">static,</text><text fill="#1F2937" font-family="Arial" font-size="14" lengthAdjust="spacing" textLength="34.2344" x="170.8931" y="247.9277">proxy</text></g><!--entity Rest--><g class="entity" data-qualified-name="Delivery.Rest" data-source-line="13" id="ent0007"><rect fill="#FFFFFF" height="52.1973" rx="6" ry="6" style="stroke:#8EA3BD;stroke-width:0.5;" width="83.0068" x="238.5" y="335.5986"/><text fill="#1F2937" font-family="Arial" font-size="14" lengthAdjust="spacing" textLength="36.5518" x="248.5" y="358.7305">HTTP</text><text fill="#1F2937" font-family="Arial" font-size="14" lengthAdjust="spacing" textLength="3.8896" x="285.0518" y="358.7305">&#160;</text><text fill="#1F2937" font-family="Arial" font-size="14" lengthAdjust="spacing" textLength="22.5654" x="288.9414" y="358.7305">API</text><text fill="#1F2937" font-family="Arial" font-size="14" lengthAdjust="spacing" textLength="31.9102" x="264.0483" y="374.8291">/api/*</text></g><!--entity Ws--><g class="entity" data-qualified-name="Delivery.Ws" data-source-line="14" id="ent0008"><rect fill="#FFFFFF" height="52.1973" rx="6" ry="6" style="stroke:#8EA3BD;stroke-width:0.5;" width="147.6201" x="32" y="335.5986"/><text fill="#1F2937" font-family="Arial" font-size="14" lengthAdjust="spacing" textLength="71.5859" x="42" y="358.7305">WebSocket</text><text fill="#1F2937" font-family="Arial" font-size="14" lengthAdjust="spacing" textLength="3.8896" x="113.5859" y="358.7305">&#160;</text><text fill="#1F2937" font-family="Arial" font-size="14" lengthAdjust="spacing" textLength="52.1445" x="117.4756" y="358.7305">gateway</text><text fill="#1F2937" font-family="Arial" font-size="14" lengthAdjust="spacing" textLength="30.3379" x="90.6411" y="374.8291">/ws/*</text></g><!--entity Asgi--><g class="entity" data-qualified-name="Delivery.Asgi" data-source-line="15" id="ent0009"><rect fill="#FFFFFF" height="52.1973" rx="6" ry="6" style="stroke:#8EA3BD;stroke-width:0.5;" width="144.5029" x="33.5" y="451.5986"/><text fill="#1F2937" font-family="Arial" font-size="14" lengthAdjust="spacing" textLength="33.4551" x="65.6758" y="474.7305">ASGI</text><text fill="#1F2937" font-family="Arial" font-size="14" lengthAdjust="spacing" textLength="3.8896" x="99.1309" y="474.7305">&#160;</text><text fill="#1F2937" font-family="Arial" font-size="14" lengthAdjust="spacing" textLength="42.8066" x="103.0205" y="474.7305">routing</text><text fill="#1F2937" font-family="Arial" font-size="14" lengthAdjust="spacing" textLength="124.5029" x="43.5" y="490.8291">ProtocolTypeRouter</text></g><!--entity Identity--><g class="entity" data-qualified-name="Domain.Identity" data-source-line="19" id="ent0011"><rect fill="#FFFFFF" height="68.2959" rx="6" ry="6" style="stroke:#8EA3BD;stroke-width:0.5;" width="104.0342" x="399" y="578.5986"/><text fill="#1F2937" font-family="Arial" font-size="14" lengthAdjust="spacing" textLength="45.1377" x="428.4482" y="601.7305">Identity</text><text fill="#1F2937" font-family="Arial" font-size="14" lengthAdjust="spacing" textLength="38.124" x="409" y="617.8291">users,</text><text fill="#1F2937" font-family="Arial" font-size="14" lengthAdjust="spacing" textLength="3.8896" x="447.124" y="617.8291">&#160;</text><text fill="#1F2937" font-family="Arial" font-size="14" lengthAdjust="spacing" textLength="42.0205" x="451.0137" y="617.8291">profile,</text><text fill="#1F2937" font-family="Arial" font-size="14" lengthAdjust="spacing" textLength="38.1309" x="416.3828" y="633.9277">media</text><text fill="#1F2937" font-family="Arial" font-size="14" lengthAdjust="spacing" textLength="3.8896" x="454.5137" y="633.9277">&#160;</text><text fill="#1F2937" font-family="Arial" font-size="14" lengthAdjust="spacing" textLength="27.248" x="458.4033" y="633.9277">auth</text></g><!--entity Collaboration--><g class="entity" data-qualified-name="Domain.Collaboration" data-source-line="20" id="ent0012"><rect fill="#FFFFFF" height="68.2959" rx="6" ry="6" style="stroke:#8EA3BD;stroke-width:0.5;" width="134.3721" x="207" y="578.5986"/><text fill="#1F2937" font-family="Arial" font-size="14" lengthAdjust="spacing" textLength="82.4961" x="232.938" y="601.7305">Collaboration</text><text fill="#1F2937" font-family="Arial" font-size="14" lengthAdjust="spacing" textLength="42.7861" x="217" y="617.8291">rooms,</text><text fill="#1F2937" font-family="Arial" font-size="14" lengthAdjust="spacing" textLength="3.8896" x="259.7861" y="617.8291">&#160;</text><text fill="#1F2937" font-family="Arial" font-size="14" lengthAdjust="spacing" textLength="67.6963" x="263.6758" y="617.8291">messages,</text><text fill="#1F2937" font-family="Arial" font-size="14" lengthAdjust="spacing" textLength="45.9102" x="227.8828" y="633.9277">friends,</text><text fill="#1F2937" font-family="Arial" font-size="14" lengthAdjust="spacing" textLength="3.8896" x="273.793" y="633.9277">&#160;</text><text fill="#1F2937" font-family="Arial" font-size="14" lengthAdjust="spacing" textLength="42.8066" x="277.6826" y="633.9277">groups</text></g><!--entity Realtime--><g class="entity" data-qualified-name="Domain.Realtime" data-source-line="21" id="ent0013"><rect fill="#FFFFFF" height="68.2959" rx="6" ry="6" style="stroke:#8EA3BD;stroke-width:0.5;" width="125.8271" x="23" y="578.5986"/><text fill="#1F2937" font-family="Arial" font-size="14" lengthAdjust="spacing" textLength="55.2412" x="58.293" y="601.7305">Realtime</text><text fill="#1F2937" font-family="Arial" font-size="14" lengthAdjust="spacing" textLength="30.3516" x="38.0518" y="617.8291">chat,</text><text fill="#1F2937" font-family="Arial" font-size="14" lengthAdjust="spacing" textLength="3.8896" x="68.4033" y="617.8291">&#160;</text><text fill="#1F2937" font-family="Arial" font-size="14" lengthAdjust="spacing" textLength="61.4824" x="72.293" y="617.8291">presence,</text><text fill="#1F2937" font-family="Arial" font-size="14" lengthAdjust="spacing" textLength="33.4688" x="33" y="633.9277">inbox</text><text fill="#1F2937" font-family="Arial" font-size="14" lengthAdjust="spacing" textLength="3.8896" x="66.4688" y="633.9277">&#160;</text><text fill="#1F2937" font-family="Arial" font-size="14" lengthAdjust="spacing" textLength="68.4688" x="70.3584" y="633.9277">consumers</text></g><!--entity Control--><g class="entity" data-qualified-name="Domain.Control" data-source-line="22" id="ent0014"><rect fill="#FFFFFF" height="68.2959" rx="6" ry="6" style="stroke:#8EA3BD;stroke-width:0.5;" width="136.7031" x="114.5" y="719.5986"/><text fill="#1F2937" font-family="Arial" font-size="14" lengthAdjust="spacing" textLength="45.124" x="137.3345" y="742.7305">Access</text><text fill="#1F2937" font-family="Arial" font-size="14" lengthAdjust="spacing" textLength="3.8896" x="182.4585" y="742.7305">&#160;</text><text fill="#1F2937" font-family="Arial" font-size="14" lengthAdjust="spacing" textLength="42.0205" x="186.3481" y="742.7305">control</text><text fill="#1F2937" font-family="Arial" font-size="14" lengthAdjust="spacing" textLength="34.2344" x="124.5" y="758.8291">roles,</text><text fill="#1F2937" font-family="Arial" font-size="14" lengthAdjust="spacing" textLength="3.8896" x="158.7344" y="758.8291">&#160;</text><text fill="#1F2937" font-family="Arial" font-size="14" lengthAdjust="spacing" textLength="78.5791" x="162.624" y="758.8291">permissions,</text><text fill="#1F2937" font-family="Arial" font-size="14" lengthAdjust="spacing" textLength="30.3584" x="167.6724" y="774.9277">audit</text></g><!--entity Db--><g class="entity" data-qualified-name="Infra.Db" data-source-line="26" id="ent0016"><path d="M725,741.0986 C725,731.0986 773.1309,731.0986 773.1309,731.0986 C773.1309,731.0986 821.2617,731.0986 821.2617,741.0986 L821.2617,766.1973 C821.2617,776.1973 773.1309,776.1973 773.1309,776.1973 C773.1309,776.1973 725,776.1973 725,766.1973 L725,741.0986" fill="#FFFFFF" style="stroke:#8EA3BD;stroke-width:0.5;"/><path d="M725,741.0986 C725,751.0986 773.1309,751.0986 773.1309,751.0986 C773.1309,751.0986 821.2617,751.0986 821.2617,741.0986" fill="none" style="stroke:#8EA3BD;stroke-width:0.5;"/><text fill="#1F2937" font-family="Arial" font-size="14" lengthAdjust="spacing" textLength="76.2617" x="735" y="768.2305">PostgreSQL</text></g><!--entity Redis--><g class="entity" data-qualified-name="Infra.Redis" data-source-line="27" id="ent0017"><path d="M564.5,724.5986 L661.665,724.5986 C666.665,724.5986 666.665,753.7466 666.665,753.7466 C666.665,753.7466 666.665,782.8945 661.665,782.8945 L564.5,782.8945 C559.5,782.8945 559.5,753.7466 559.5,753.7466 C559.5,753.7466 559.5,724.5986 564.5,724.5986" fill="#FFFFFF" style="stroke:#8EA3BD;stroke-width:0.5;"/><path d="M661.665,724.5986 C656.665,724.5986 656.665,753.7466 656.665,753.7466 C656.665,782.8945 661.665,782.8945 661.665,782.8945" fill="none" style="stroke:#8EA3BD;stroke-width:0.5;"/><text fill="#1F2937" font-family="Arial" font-size="14" lengthAdjust="spacing" textLength="35.793" x="590.186" y="742.7305">Redis</text><text fill="#1F2937" font-family="Arial" font-size="14" lengthAdjust="spacing" textLength="49.041" x="564.5" y="758.8291">channel</text><text fill="#1F2937" font-family="Arial" font-size="14" lengthAdjust="spacing" textLength="3.8896" x="613.541" y="758.8291">&#160;</text><text fill="#1F2937" font-family="Arial" font-size="14" lengthAdjust="spacing" textLength="34.2344" x="617.4307" y="758.8291">layer,</text><text fill="#1F2937" font-family="Arial" font-size="14" lengthAdjust="spacing" textLength="57.5928" x="579.2861" y="774.9277">presence</text></g><!--entity Media--><g class="entity" data-qualified-name="Infra.Media" data-source-line="28" id="ent0018"><path d="M885.5,710.5986 L919.5,710.5986 A9,9 0 0 1 925.5,716.5986 L932.5,731.5986 L992.2168,731.5986 A6,6 0 0 1 998.2168,737.5986 L998.2168,790.8945 A6,6 0 0 1 992.2168,796.8945 L885.5,796.8945 A6,6 0 0 1 879.5,790.8945 L879.5,716.5986 A6,6 0 0 1 885.5,710.5986" fill="#FFFFFF" style="stroke:#8EA3BD;stroke-width:0.5;"/><line style="stroke:#8EA3BD;stroke-width:0.5;" x1="879.5" x2="932.5" y1="731.5986" y2="731.5986"/><text fill="#1F2937" font-family="Arial" font-size="14" lengthAdjust="spacing" textLength="38.1309" x="889.5" y="751.7305">Media</text><text fill="#1F2937" font-family="Arial" font-size="14" lengthAdjust="spacing" textLength="3.8896" x="927.6309" y="751.7305">&#160;</text><text fill="#1F2937" font-family="Arial" font-size="14" lengthAdjust="spacing" textLength="46.6963" x="931.5205" y="751.7305">storage</text><text fill="#1F2937" font-family="Arial" font-size="14" lengthAdjust="spacing" textLength="49.7998" x="908.9585" y="767.8291">avatars,</text><text fill="#1F2937" font-family="Arial" font-size="14" lengthAdjust="spacing" textLength="76.2617" x="895.7275" y="783.9277">attachments</text></g><!--entity Observability--><g class="entity" data-qualified-name="Infra.Observability" data-source-line="29" id="ent0019"><polygon fill="#FFFFFF" points="1057,724.5986,1067,714.5986,1234.7373,714.5986,1234.7373,782.8945,1224.7373,792.8945,1057,792.8945,1057,724.5986" style="stroke:#8EA3BD;stroke-width:0.5;"/><line style="stroke:#8EA3BD;stroke-width:0.5;" x1="1224.7373" x2="1234.7373" y1="724.5986" y2="714.5986"/><line style="stroke:#8EA3BD;stroke-width:0.5;" x1="1057" x2="1224.7373" y1="724.5986" y2="724.5986"/><line style="stroke:#8EA3BD;stroke-width:0.5;" x1="1224.7373" x2="1224.7373" y1="724.5986" y2="792.8945"/><text fill="#1F2937" font-family="Arial" font-size="14" lengthAdjust="spacing" textLength="80.917" x="1100.4102" y="747.7305">Observability</text><text fill="#1F2937" font-family="Arial" font-size="14" lengthAdjust="spacing" textLength="79.3721" x="1072" y="763.8291">Prometheus,</text><text fill="#1F2937" font-family="Arial" font-size="14" lengthAdjust="spacing" textLength="3.8896" x="1151.3721" y="763.8291">&#160;</text><text fill="#1F2937" font-family="Arial" font-size="14" lengthAdjust="spacing" textLength="54.4756" x="1155.2617" y="763.8291">Grafana,</text><text fill="#1F2937" font-family="Arial" font-size="14" lengthAdjust="spacing" textLength="29.5723" x="1082.1172" y="779.9277">Loki,</text><text fill="#1F2937" font-family="Arial" font-size="14" lengthAdjust="spacing" textLength="3.8896" x="1111.6895" y="779.9277">&#160;</text><text fill="#1F2937" font-family="Arial" font-size="14" lengthAdjust="spacing" textLength="84.041" x="1115.5791" y="779.9277">Alertmanager</text></g><!--entity Browser--><g class="entity" data-qualified-name="Browser" data-source-line="5" id="ent0002"><ellipse cx="193.0371" cy="51.0986" fill="#FFFFFF" rx="8" ry="8" style="stroke:#64748B;stroke-width:0.5;"/><path d="M193.0371,59.0986 L193.0371,86.0986 M180.0371,67.0986 L206.0371,67.0986 M193.0371,86.0986 L180.0371,101.0986 M193.0371,86.0986 L206.0371,101.0986" fill="none" style="stroke:#64748B;stroke-width:0.5;"/><text fill="#111827" font-family="Arial" font-size="14" lengthAdjust="spacing" textLength="46.0742" x="170" y="115.7305">&#1050;&#1083;&#1080;&#1077;&#1085;&#1090;</text></g><!--entity Google--><g class="entity" data-qualified-name="Google" data-source-line="6" id="ent0003"><path d="M488.6727,463.7014 C492.0549,456.9542 497.5219,456.9107 502.1822,462.276 C505.9829,456.0305 511.822,455.8966 514.9737,462.9025 C518.2452,455.3738 522.2607,455.1176 527.9037,460.5339 C532.82,454.6605 537.0074,453.8771 541.8194,460.6488 C546.3341,455.0883 550.5969,456.7815 553.4721,462.3635 C556.8859,456.8878 562.4,457.0175 565.6889,462.5027 C569.9209,455.9798 574.0494,456.5755 578.4927,462.2813 C582.7783,456.7689 589.2539,456.8681 592.8388,463.1346 C601.332,466.8968 602.6304,474.0692 594.2299,479.2863 C600.8179,484.5171 599.5782,490.4675 591.9901,493.4578 C588.9635,499.9686 584.4563,499.4384 580.2456,494.6932 C576.719,502.2474 572.1444,503.4099 566.4471,496.8092 C563.3455,503.062 559.2199,503.7906 554.6915,498.229 C552.2872,504.9198 545.8929,506.8223 541.4277,500.2973 C537.0846,505.7846 531.8139,506.6305 528.0373,499.687 C522.9727,504.7704 517.2597,502.7578 515.0365,496.4454 C510.3315,501.2758 505.9839,501.2524 502.3571,495.1903 C498.8167,501.1217 493.0525,501.1652 489.9789,494.7233 C479.6127,493.5415 475.7492,487.9868 481.0917,478.303 C476.2997,469.4906 479.1452,465.0794 488.6727,463.7014" fill="#FFFFFF" style="stroke:#8EA3BD;stroke-width:0.5;"/><text fill="#1F2937" font-family="Arial" font-size="14" lengthAdjust="spacing" textLength="45.1445" x="495.5" y="482.7305">Google</text><text fill="#1F2937" font-family="Arial" font-size="14" lengthAdjust="spacing" textLength="3.8896" x="540.6445" y="482.7305">&#160;</text><text fill="#1F2937" font-family="Arial" font-size="14" lengthAdjust="spacing" textLength="39.6895" x="544.5342" y="482.7305">OAuth</text></g><!--link Browser to Nginx--><g class="link" data-entity-1="ent0002" data-entity-2="ent0005" data-link-type="dependency" data-source-line="32" id="lnk20"><path d="M193,118.7586 C193,138.4886 193,156.5486 193,176.4286" fill="none" id="Browser-to-Nginx" style="stroke:#5F6F86;stroke-width:1.15;"/><polygon fill="#5F6F86" points="193,182.4286,197,173.4286,193,177.4286,189,173.4286,193,182.4286" style="stroke:#5F6F86;stroke-width:1.15;"/><text fill="#4B5563" font-family="Arial" font-size="12" lengthAdjust="spacing" textLength="76.6699" x="116" y="147.8445">HTTPS / WSS</text></g><!--link Nginx to Rest--><g class="link" data-entity-1="ent0005" data-entity-2="ent0007" data-link-type="dependency" data-source-line="33" id="lnk21"><path d="M243.25,260.9686 C243.25,284.7486 243.25,308.3986 243.25,329.3386" fill="none" id="Nginx-to-Rest" style="stroke:#5F6F86;stroke-width:1.15;"/><polygon fill="#5F6F86" points="243.25,335.3386,247.25,326.3386,243.25,330.3386,239.25,326.3386,243.25,335.3386" style="stroke:#5F6F86;stroke-width:1.15;"/><text fill="#4B5563" font-family="Arial" font-size="12" lengthAdjust="spacing" textLength="27.3516" x="215.25" y="295.4045">/api/*</text></g><!--link Nginx to Ws--><g class="link" data-entity-1="ent0005" data-entity-2="ent0008" data-link-type="dependency" data-source-line="34" id="lnk22"><path d="M159,260.9686 C159,284.7486 159,308.3986 159,329.3386" fill="none" id="Nginx-to-Ws" style="stroke:#5F6F86;stroke-width:1.15;"/><polygon fill="#5F6F86" points="159,335.3386,163,326.3386,159,330.3386,155,326.3386,159,335.3386" style="stroke:#5F6F86;stroke-width:1.15;"/><text fill="#4B5563" font-family="Arial" font-size="12" lengthAdjust="spacing" textLength="26.0039" x="132" y="295.4045">/ws/*</text></g><!--link Ws to Asgi--><g class="link" data-entity-1="ent0008" data-entity-2="ent0009" data-link-type="dependency" data-source-line="35" id="lnk23"><path d="M106,387.6286 C106,406.5986 106,426.2086 106,445.2486" fill="none" id="Ws-to-Asgi" style="stroke:#5F6F86;stroke-width:1.15;"/><polygon fill="#5F6F86" points="106,451.2486,110,442.2486,106,446.2486,102,442.2486,106,451.2486" style="stroke:#5F6F86;stroke-width:1.15;"/><text fill="#4B5563" font-family="Arial" font-size="12" lengthAdjust="spacing" textLength="44.6953" x="61" y="416.6945">dispatch</text></g><!--link Rest to Identity--><g class="link" data-entity-1="ent0007" data-entity-2="ent0011" data-link-type="dependency" data-source-line="37" id="lnk24"><path d="M321.52,370.5986 C372.8,370.5986 453.33,370.5986 453.33,370.5986 C453.33,370.5986 453.33,505.7286 453.33,572.4386" fill="none" id="Rest-to-Identity" style="stroke:#5F6F86;stroke-width:1.15;"/><polygon fill="#5F6F86" points="453.33,578.4386,457.33,569.4386,453.33,573.4386,449.33,569.4386,453.33,578.4386" style="stroke:#5F6F86;stroke-width:1.15;"/></g><!--link Rest to Collaboration--><g class="link" data-entity-1="ent0007" data-entity-2="ent0012" data-link-type="dependency" data-source-line="38" id="lnk25"><path d="M280,387.9886 C280,433.6786 280,521.4786 280,572.2086" fill="none" id="Rest-to-Collaboration" style="stroke:#5F6F86;stroke-width:1.15;"/><polygon fill="#5F6F86" points="280,578.2086,284,569.2086,280,573.2086,276,569.2086,280,578.2086" style="stroke:#5F6F86;stroke-width:1.15;"/></g><!--link Rest to Control--><g class="link" data-entity-1="ent0007" data-entity-2="ent0014" data-link-type="dependency" data-source-line="39" id="lnk26"><path d="M238.27,361.5986 C216.15,361.5986 193.5,361.5986 193.5,361.5986 C193.5,361.5986 193.5,618.1286 193.5,713.4986" fill="none" id="Rest-to-Control" style="stroke:#5F6F86;stroke-width:1.15;"/><polygon fill="#5F6F86" points="193.5,719.4986,197.5,710.4986,193.5,714.4986,189.5,710.4986,193.5,719.4986" style="stroke:#5F6F86;stroke-width:1.15;"/></g><!--link Asgi to Identity--><g class="link" data-entity-1="ent0009" data-entity-2="ent0011" data-link-type="dependency" data-source-line="40" id="lnk27"><path d="M178.65,477.5986 C273.11,477.5986 426.17,477.5986 426.17,477.5986 C426.17,477.5986 426.17,532.5386 426.17,572.5286" fill="none" id="Asgi-to-Identity" style="stroke:#5F6F86;stroke-width:1.15;"/><polygon fill="#5F6F86" points="426.17,578.5286,430.17,569.5286,426.17,573.5286,422.17,569.5286,426.17,578.5286" style="stroke:#5F6F86;stroke-width:1.15;"/><text fill="#4B5563" font-family="Arial" font-size="12" lengthAdjust="spacing" textLength="80.0449" x="271.88" y="474.8545">token / session</text></g><!--link Asgi to Realtime--><g class="link" data-entity-1="ent0009" data-entity-2="ent0013" data-link-type="dependency" data-source-line="41" id="lnk28"><path d="M91.25,503.6286 C91.25,524.9286 91.25,549.2286 91.25,572.4686" fill="none" id="Asgi-to-Realtime" style="stroke:#5F6F86;stroke-width:1.15;"/><polygon fill="#5F6F86" points="91.25,578.4686,95.25,569.4686,91.25,573.4686,87.25,569.4686,91.25,578.4686" style="stroke:#5F6F86;stroke-width:1.15;"/></g><!--link Identity to Db--><g class="link" data-entity-1="ent0011" data-entity-2="ent0016" data-link-type="dependency" data-source-line="43" id="lnk29"><path d="M503.14,612.5986 C600.86,612.5986 801.8,612.5986 801.8,612.5986 C801.8,612.5986 801.8,685.0886 801.8,724.9486" fill="none" id="Identity-to-Db" style="stroke:#5F6F86;stroke-width:1.15;"/><polygon fill="#5F6F86" points="801.8,730.9486,805.8,721.9486,801.8,725.9486,797.8,721.9486,801.8,730.9486" style="stroke:#5F6F86;stroke-width:1.15;"/></g><!--link Identity to Media--><g class="link" data-entity-1="ent0011" data-entity-2="ent0018" data-link-type="dependency" data-source-line="44" id="lnk30"><path d="M451,646.7286 C451,675.6986 451,712.5986 451,712.5986 C451,712.5986 742.85,712.5986 873.16,712.5986" fill="none" id="Identity-to-Media" style="stroke:#5F6F86;stroke-width:1.15;"/><polygon fill="#5F6F86" points="879.16,712.5986,870.16,708.5986,874.16,712.5986,870.16,716.5986,879.16,712.5986" style="stroke:#5F6F86;stroke-width:1.15;"/></g><!--link Collaboration to Db--><g class="link" data-entity-1="ent0012" data-entity-2="ent0016" data-link-type="dependency" data-source-line="45" id="lnk31"><path d="M311.17,646.7886 C311.17,658.4486 311.17,668.5986 311.17,668.5986 C311.17,668.5986 782.6,668.5986 782.6,668.5986 C782.6,668.5986 782.6,699.6386 782.6,724.8186" fill="none" id="Collaboration-to-Db" style="stroke:#5F6F86;stroke-width:1.15;"/><polygon fill="#5F6F86" points="782.6,730.8186,786.6,721.8186,782.6,725.8186,778.6,721.8186,782.6,730.8186" style="stroke:#5F6F86;stroke-width:1.15;"/></g><!--link Collaboration to Media--><g class="link" data-entity-1="ent0012" data-entity-2="ent0018" data-link-type="dependency" data-source-line="46" id="lnk32"><path d="M281.33,646.8486 C281.33,676.4786 281.33,714.5986 281.33,714.5986 C281.33,714.5986 711.59,714.5986 873.48,714.5986" fill="none" id="Collaboration-to-Media" style="stroke:#5F6F86;stroke-width:1.15;"/><polygon fill="#5F6F86" points="879.48,714.5986,870.48,710.5986,874.48,714.5986,870.48,718.5986,879.48,714.5986" style="stroke:#5F6F86;stroke-width:1.15;"/></g><!--link Realtime to Redis--><g class="link" data-entity-1="ent0013" data-entity-2="ent0017" data-link-type="dependency" data-source-line="47" id="lnk33"><path d="M140.38,646.7186 C140.38,677.7086 140.38,718.5986 140.38,718.5986 C140.38,718.5986 579.5,718.5986 579.5,718.5986 C579.5,718.5986 579.5,714.9286 579.5,718.3786" fill="none" id="Realtime-to-Redis" style="stroke:#5F6F86;stroke-width:1.15;"/><polygon fill="#5F6F86" points="579.5,724.3786,583.5,715.3786,579.5,719.3786,575.5,715.3786,579.5,724.3786" style="stroke:#5F6F86;stroke-width:1.15;"/></g><!--link Realtime to Db--><g class="link" data-entity-1="ent0013" data-entity-2="ent0016" data-link-type="dependency" data-source-line="48" id="lnk34"><path d="M123.12,647.0486 C123.12,667.5486 123.12,689.5986 123.12,689.5986 C123.12,689.5986 763.4,689.5986 763.4,689.5986 C763.4,689.5986 763.4,706.4586 763.4,724.8586" fill="none" id="Realtime-to-Db" style="stroke:#5F6F86;stroke-width:1.15;"/><polygon fill="#5F6F86" points="763.4,730.8586,767.4,721.8586,763.4,725.8586,759.4,721.8586,763.4,730.8586" style="stroke:#5F6F86;stroke-width:1.15;"/></g><!--link Control to Db--><g class="link" data-entity-1="ent0014" data-entity-2="ent0016" data-link-type="dependency" data-source-line="49" id="lnk35"><path d="M221.83,719.4986 C221.83,717.6886 221.83,716.5986 221.83,716.5986 C221.83,716.5986 744.2,716.5986 744.2,716.5986 C744.2,716.5986 744.2,717.1886 744.2,724.7986" fill="none" id="Control-to-Db" style="stroke:#5F6F86;stroke-width:1.15;"/><polygon fill="#5F6F86" points="744.2,730.7986,748.2,721.7986,744.2,725.7986,740.2,721.7986,744.2,730.7986" style="stroke:#5F6F86;stroke-width:1.15;"/></g><!--link Collaboration to Control--><g class="link" data-entity-1="ent0012" data-entity-2="ent0014" data-link-type="dependency" data-source-line="51" id="lnk36"><path d="M236.67,646.7286 C236.67,668.7386 236.67,691.2486 236.67,713.2886" fill="none" id="Collaboration-to-Control" style="stroke:#5F6F86;stroke-width:1.15;stroke-dasharray:7,7;"/><polygon fill="#5F6F86" points="236.67,719.2886,240.67,710.2886,236.67,714.2886,232.67,710.2886,236.67,719.2886" style="stroke:#5F6F86;stroke-width:1.15;"/><text fill="#4B5563" font-family="Arial" font-size="12" lengthAdjust="spacing" textLength="92.7012" x="143.67" y="680.2645">permission check</text></g><!--link Realtime to Control--><g class="link" data-entity-1="ent0013" data-entity-2="ent0014" data-link-type="dependency" data-source-line="52" id="lnk37"><path d="M131.75,646.7286 C131.75,668.7386 131.75,691.2486 131.75,713.2886" fill="none" id="Realtime-to-Control" style="stroke:#5F6F86;stroke-width:1.15;stroke-dasharray:7,7;"/><polygon fill="#5F6F86" points="131.75,719.2886,135.75,710.2886,131.75,714.2886,127.75,710.2886,131.75,719.2886" style="stroke:#5F6F86;stroke-width:1.15;"/><text fill="#4B5563" font-family="Arial" font-size="12" lengthAdjust="spacing" textLength="96.0586" x="34.75" y="680.2645">moderation / audit</text></g><!--link Google to Identity--><g class="link" data-entity-1="ent0003" data-entity-2="ent0011" data-link-type="dependency" data-source-line="53" id="lnk38"><path d="M491.75,500.8086 C491.75,522.2186 491.75,548.2686 491.75,572.5686" fill="none" id="Google-to-Identity" style="stroke:#5F6F86;stroke-width:1.15;"/><polygon fill="#5F6F86" points="491.75,578.5686,495.75,569.5686,491.75,573.5686,487.75,569.5686,491.75,578.5686" style="stroke:#5F6F86;stroke-width:1.15;"/><text fill="#4B5563" font-family="Arial" font-size="12" lengthAdjust="spacing" textLength="66.709" x="424.75" y="536.9445">OAuth token</text></g><!--link Observability to Rest--><g class="link" data-entity-1="ent0019" data-entity-2="ent0007" data-link-type="dependency" data-source-line="54" id="lnk39"><path d="M1146,714.5186 C1146,613.8686 1146,353.5986 1146,353.5986 C1146,353.5986 500.76,353.5986 327.77,353.5986" fill="none" id="Observability-to-Rest" style="stroke:#5F6F86;stroke-width:1.15;stroke-dasharray:7,7;"/><polygon fill="#5F6F86" points="321.77,353.5986,330.77,357.5986,326.77,353.5986,330.77,349.5986,321.77,353.5986" style="stroke:#5F6F86;stroke-width:1.15;"/><text fill="#4B5563" font-family="Arial" font-size="12" lengthAdjust="spacing" textLength="81.3633" x="832.34" y="350.8545">health / metrics</text></g><g class="legend" data-source-line="56"><rect fill="#FFFFFF" height="58.2959" rx="6" ry="6" style="stroke:#D6DEEA;stroke-width:1;" width="385.0674" x="845.9326" y="829.5986"/><text fill="#465569" font-family="Arial" font-size="14" lengthAdjust="spacing" textLength="254.0234" x="911.4546" y="847.7305">&#1054;&#1089;&#1085;&#1086;&#1074;&#1085;&#1072;&#1103; &#1083;&#1080;&#1085;&#1080;&#1103; &#1095;&#1080;&#1090;&#1072;&#1077;&#1090;&#1089;&#1103; &#1089;&#1074;&#1077;&#1088;&#1093;&#1091; &#1074;&#1085;&#1080;&#1079;:</text><text fill="#465569" font-family="Arial" font-size="14" lengthAdjust="spacing" textLength="366.8984" x="855.0171" y="863.8291">&#1082;&#1083;&#1080;&#1077;&#1085;&#1090; -&gt; edge -&gt; delivery -&gt; &#1076;&#1086;&#1084;&#1077;&#1085;&#1099; -&gt; &#1080;&#1085;&#1092;&#1088;&#1072;&#1089;&#1090;&#1088;&#1091;&#1082;&#1090;&#1091;&#1088;&#1072;.</text><text fill="#465569" font-family="Arial" font-size="14" lengthAdjust="spacing" textLength="375.0674" x="850.9326" y="879.9277">&#1044;&#1086;&#1084;&#1077;&#1085;&#1085;&#1099;&#1077; &#1076;&#1077;&#1090;&#1072;&#1083;&#1080; &#1074;&#1099;&#1085;&#1077;&#1089;&#1077;&#1085;&#1099; &#1074; &#1086;&#1090;&#1076;&#1077;&#1083;&#1100;&#1085;&#1099;&#1077; class diagrams.</text></g><?plantuml-src TLNTRYCr5BxtKvXSeZQztmkamA9IgR2bgTIRICYPEPrOzTZ1zhID4D8s1O6q813Q2yG5l49ORKHesJw3vutux9aadI1k4i_nTxxpV_oUr9cgSk9V-0cLr9zMfM9UUaNyELr9nVTv-Bb-MNyRLlKyBCDzFQ_lwfTXmSEVzO_X7g9tuMrOC6-ct1i-DjwRakVIKkQbqOo9p1lBU-6ty11M4LxFUrmu_g4rruuiovIfSjuxDAQ0qHU3oa_IVIDWB1897UzwuHSOMzRVutSL_kQm_XZfeaD9vUEy8FuLurmRHDJxh93wPgJFZeTxt7dXPROtqbDhRcO9dQxPrrqBhyDZVOj85-4Dw1S9-9oKl28xIzIPAQT6a_QyzydPsGaVd1oDz86OoeFt4_YKdE_2pcayDDabULu8JzTY1lorQ-7dhWiU30-Fk3MLbxeOwHDhlCcCEfjDwHH2iabfu0gvw_WVACeABZ_0zRV8ogkmv3WyXdzIpbyraPXIIBqRnr6EF-dXLuM2k3sE75r8HSXMIRaKNAnhiaPszJyoIecniI8MVAIjCIL8Id9E5EJ0Sc4bwHoo0f5DNQBgA7NvJaaeBqiQwMmYV7I77Eai-YFrsDm0grrLmjKsumry9v5P1WSYr5kZebUAOcXaI-aSR4R7H9LBtxgJSBjP_HMf-oQsUsmAZC7TTW2QX20saVAP2o_6ma7fn3XVM1f-VjpaV8pRBokgA4QMIvV2qfeKLs96DlLa4s0R3Z1GkJ0g9mpEfwa43aE4RCBbAnYooNdlHJOf4MsJXmJSDF-BCMfv9SPIfSgYaqh2Y5V8mQ4L5q8BK1oRIxd71ugiBo4fslxgwCQKjBFAz_S_QCQ6F-En-uVyW9yFXwoHnTlO_hXi1kA9_Dn5QMnxXcEKn2Q63C5EXSycZ2NLUBFfiesasonFn4tH4jLJJV1wSqaQxZbArTvYDkt2DkWeHfawtqqsEuRNkFyA6_2QkJKJozWH9TNayVfpXwhVtyI42BQjohC9PPTRiYwkHBrRWWEUEfgrotGd9MctDebXdH8dmhPoasXa0YQqYvMPOqnHWUdbLXQJkDd2x_Kj5l0Z5kGxpCLFFErrR6GSw-_ICx70afvZOY2u1MmPtu_wZYUDLVZhMMIvtpu776vINDtupzUx5kUdwojzh_v_6lkHy_KQlzr_o-GEJC4wPF7vk6qPmnkEPJ-FeF1G_z3gP4fWRQ2SXHMbwpE4tYJWNm00?></g></svg>