<?plantuml 1.2026.1?><svg xmlns="http://www.w3.org/2000/svg" xmlns:xlink="http://www.w3.org/1999/xlink" contentStyleType="text/css" data-diagram-type="CLASS" height="1055px" preserveAspectRatio="none" style="width:870px;height:1055px;background:#FFFFFF;" version="1.1" viewBox="0 0 870 1055" width="870px" zoomAndPan="magnify"><title>Devil - &#1055;&#1086;&#1083;&#1100;&#1079;&#1086;&#1074;&#1072;&#1090;&#1077;&#1083;&#1080; &#1080; &#1076;&#1086;&#1089;&#1090;&#1091;&#1087;</title><defs/><g><g class="title" data-source-line="1"><text fill="#000000" font-family="Arial" font-size="14" font-weight="bold" lengthAdjust="spacing" textLength="318.5615" x="268.9892" y="22.9951">Devil - &#1055;&#1086;&#1083;&#1100;&#1079;&#1086;&#1074;&#1072;&#1090;&#1077;&#1083;&#1080; &#1080; &#1076;&#1086;&#1089;&#1090;&#1091;&#1087;</text></g><!--cluster ????????????--><g class="cluster" data-qualified-name="............" data-source-line="25" id="ent0002"><rect fill="#F7F9FC" height="639" rx="5" ry="5" style="stroke:#C8D0DB;stroke-width:1.5;" width="660.6" x="203.94" y="410.2969"/><text fill="#1F2937" font-family="Arial" font-size="14" font-weight="bold" lengthAdjust="spacing" textLength="113.2168" x="477.6316" y="425.292">&#1055;&#1086;&#1083;&#1100;&#1079;&#1086;&#1074;&#1072;&#1090;&#1077;&#1083;&#1100;</text></g><!--cluster ??????? ? ?????--><g class="cluster" data-qualified-name="....... . ....." data-source-line="63" id="ent0011"><rect fill="#F7F9FC" height="342" rx="5" ry="5" style="stroke:#C8D0DB;stroke-width:1.5;" width="570.94" x="40.77" y="44.2969"/><text fill="#1F2937" font-family="Arial" font-size="14" font-weight="bold" lengthAdjust="spacing" textLength="139.4053" x="256.5374" y="59.292">&#1050;&#1086;&#1084;&#1085;&#1072;&#1090;&#1099; &#1080; &#1087;&#1088;&#1072;&#1074;&#1072;</text></g><!--class User--><g class="entity" data-qualified-name=".............User" data-source-line="26" id="ent0003"><rect fill="#FFFFFF" height="91.1875" rx="5" ry="5" style="stroke:#9FB0C7;stroke-width:0.5;" width="135.0996" x="480.39" y="693.7069"/><ellipse cx="495.39" cy="715.0038" fill="#ADD1B2" rx="11" ry="11" style="stroke:#181818;stroke-width:1;"/><path d="M498.3588,720.6444 Q497.7806,720.9413 497.14,721.0819 Q496.4994,721.2381 495.7963,721.2381 Q493.2963,721.2381 491.9681,719.5975 Q490.6556,717.9413 490.6556,714.8163 Q490.6556,711.6913 491.9681,710.035 Q493.2963,708.3788 495.7963,708.3788 Q496.4994,708.3788 497.14,708.535 Q497.7963,708.6913 498.3588,708.9881 L498.3588,711.7069 Q497.7338,711.1288 497.14,710.8631 Q496.5463,710.5819 495.9213,710.5819 Q494.5775,710.5819 493.89,711.66 Q493.2025,712.7225 493.2025,714.8163 Q493.2025,716.91 493.89,717.9881 Q494.5775,719.0506 495.9213,719.0506 Q496.5463,719.0506 497.14,718.785 Q497.7338,718.5038 498.3588,717.9256 L498.3588,720.6444 Z " fill="#000000"/><text fill="#1F2937" font-family="Arial" font-size="14" lengthAdjust="spacing" textLength="103.0996" x="509.39" y="711.702">&#1055;&#1086;&#1083;&#1100;&#1079;&#1086;&#1074;&#1072;&#1090;&#1077;&#1083;&#1100;</text><text fill="#1F2937" font-family="Arial" font-size="14" lengthAdjust="spacing" textLength="31.9102" x="544.9847" y="727.9989">User</text><line style="stroke:#9FB0C7;stroke-width:0.5;" x1="481.39" x2="614.4896" y1="736.3006" y2="736.3006"/><text fill="#000000" font-family="Arial" font-size="14" lengthAdjust="spacing" textLength="24.5068" x="486.39" y="753.2957">+id</text><text fill="#000000" font-family="Arial" font-size="14" lengthAdjust="spacing" textLength="81.9697" x="486.39" y="769.5926">+username</text><line style="stroke:#9FB0C7;stroke-width:0.5;" x1="481.39" x2="614.4896" y1="776.8944" y2="776.8944"/></g><!--class Profile--><g class="entity" data-qualified-name=".............Profile" data-source-line="31" id="ent0004"><rect fill="#FFFFFF" height="91.1875" rx="5" ry="5" style="stroke:#9FB0C7;stroke-width:0.5;" width="98.2471" x="710.39" y="941.7069"/><ellipse cx="725.39" cy="963.0038" fill="#ADD1B2" rx="11" ry="11" style="stroke:#181818;stroke-width:1;"/><path d="M728.3588,968.6444 Q727.7806,968.9413 727.14,969.0819 Q726.4994,969.2381 725.7963,969.2381 Q723.2963,969.2381 721.9681,967.5975 Q720.6556,965.9413 720.6556,962.8163 Q720.6556,959.6913 721.9681,958.035 Q723.2963,956.3788 725.7963,956.3788 Q726.4994,956.3788 727.14,956.535 Q727.7963,956.6913 728.3588,956.9881 L728.3588,959.7069 Q727.7338,959.1288 727.14,958.8631 Q726.5463,958.5819 725.9213,958.5819 Q724.5775,958.5819 723.89,959.66 Q723.2025,960.7225 723.2025,962.8163 Q723.2025,964.91 723.89,965.9881 Q724.5775,967.0506 725.9213,967.0506 Q726.5463,967.0506 727.14,966.785 Q727.7338,966.5038 728.3588,965.9256 L728.3588,968.6444 Z " fill="#000000"/><text fill="#1F2937" font-family="Arial" font-size="14" lengthAdjust="spacing" textLength="66.2471" x="739.39" y="959.702">&#1055;&#1088;&#1086;&#1092;&#1080;&#1083;&#1100;</text><text fill="#1F2937" font-family="Arial" font-size="14" lengthAdjust="spacing" textLength="44.085" x="750.4711" y="975.9989">Profile</text><line style="stroke:#9FB0C7;stroke-width:0.5;" x1="711.39" x2="807.6371" y1="984.3006" y2="984.3006"/><text fill="#000000" font-family="Arial" font-size="14" lengthAdjust="spacing" textLength="51.4336" x="716.39" y="1001.2957">+name</text><text fill="#000000" font-family="Arial" font-size="14" lengthAdjust="spacing" textLength="33.0723" x="716.39" y="1017.5926">+bio</text><line style="stroke:#9FB0C7;stroke-width:0.5;" x1="711.39" x2="807.6371" y1="1024.8944" y2="1024.8944"/></g><!--class IdentityCore--><g class="entity" data-qualified-name=".............IdentityCore" data-source-line="36" id="ent0005"><rect fill="#FFFFFF" height="74.8906" rx="5" ry="5" style="stroke:#9FB0C7;stroke-width:0.5;" width="178.0498" x="670.49" y="821.8469"/><ellipse cx="685.49" cy="843.1438" fill="#ADD1B2" rx="11" ry="11" style="stroke:#181818;stroke-width:1;"/><path d="M688.4588,848.7844 Q687.8806,849.0813 687.24,849.2219 Q686.5994,849.3781 685.8963,849.3781 Q683.3963,849.3781 682.0681,847.7375 Q680.7556,846.0813 680.7556,842.9563 Q680.7556,839.8313 682.0681,838.175 Q683.3963,836.5188 685.8963,836.5188 Q686.5994,836.5188 687.24,836.675 Q687.8963,836.8313 688.4588,837.1281 L688.4588,839.8469 Q687.8338,839.2688 687.24,839.0031 Q686.6463,838.7219 686.0213,838.7219 Q684.6775,838.7219 683.99,839.8 Q683.3025,840.8625 683.3025,842.9563 Q683.3025,845.05 683.99,846.1281 Q684.6775,847.1906 686.0213,847.1906 Q686.6463,847.1906 687.24,846.925 Q687.8338,846.6438 688.4588,846.0656 L688.4588,848.7844 Z " fill="#000000"/><text fill="#1F2937" font-family="Arial" font-size="14" lengthAdjust="spacing" textLength="146.0498" x="699.49" y="839.842">&#1071;&#1076;&#1088;&#1086; &#1080;&#1076;&#1077;&#1085;&#1090;&#1080;&#1095;&#1085;&#1086;&#1089;&#1090;&#1080;</text><text fill="#1F2937" font-family="Arial" font-size="14" lengthAdjust="spacing" textLength="118.2754" x="713.3772" y="856.1389">UserIdentityCore</text><line style="stroke:#9FB0C7;stroke-width:0.5;" x1="671.49" x2="847.5398" y1="864.4406" y2="864.4406"/><text fill="#000000" font-family="Arial" font-size="14" lengthAdjust="spacing" textLength="73.6299" x="676.49" y="881.4357">+public_id</text><line style="stroke:#9FB0C7;stroke-width:0.5;" x1="671.49" x2="847.5398" y1="888.7375" y2="888.7375"/></g><!--class LoginIdentity--><g class="entity" data-qualified-name=".............LoginIdentity" data-source-line="40" id="ent0006"><rect fill="#FFFFFF" height="74.8906" rx="5" ry="5" style="stroke:#9FB0C7;stroke-width:0.5;" width="142.874" x="688.08" y="701.8469"/><ellipse cx="711.7218" cy="723.1438" fill="#ADD1B2" rx="11" ry="11" style="stroke:#181818;stroke-width:1;"/><path d="M714.6906,728.7844 Q714.1125,729.0813 713.4718,729.2219 Q712.8312,729.3781 712.1281,729.3781 Q709.6281,729.3781 708.3,727.7375 Q706.9875,726.0813 706.9875,722.9563 Q706.9875,719.8313 708.3,718.175 Q709.6281,716.5188 712.1281,716.5188 Q712.8312,716.5188 713.4718,716.675 Q714.1281,716.8313 714.6906,717.1281 L714.6906,719.8469 Q714.0656,719.2688 713.4718,719.0031 Q712.8781,718.7219 712.2531,718.7219 Q710.9093,718.7219 710.2218,719.8 Q709.5343,720.8625 709.5343,722.9563 Q709.5343,725.05 710.2218,726.1281 Q710.9093,727.1906 712.2531,727.1906 Q712.8781,727.1906 713.4718,726.925 Q714.0656,726.6438 714.6906,726.0656 L714.6906,728.7844 Z " fill="#000000"/><text fill="#1F2937" font-family="Arial" font-size="14" lengthAdjust="spacing" textLength="44.7002" x="751.1271" y="719.842">&#1051;&#1086;&#1075;&#1080;&#1085;</text><text fill="#1F2937" font-family="Arial" font-size="14" lengthAdjust="spacing" textLength="91.6699" x="727.6423" y="736.1389">LoginIdentity</text><line style="stroke:#9FB0C7;stroke-width:0.5;" x1="689.08" x2="829.954" y1="744.4406" y2="744.4406"/><text fill="#000000" font-family="Arial" font-size="14" lengthAdjust="spacing" textLength="130.874" x="694.08" y="761.4357">+login_normalized</text><line style="stroke:#9FB0C7;stroke-width:0.5;" x1="689.08" x2="829.954" y1="768.7375" y2="768.7375"/></g><!--class EmailIdentity--><g class="entity" data-qualified-name=".............EmailIdentity" data-source-line="44" id="ent0007"><rect fill="#FFFFFF" height="74.8906" rx="5" ry="5" style="stroke:#9FB0C7;stroke-width:0.5;" width="147.3789" x="685.82" y="581.8469"/><ellipse cx="711.1168" cy="603.1438" fill="#ADD1B2" rx="11" ry="11" style="stroke:#181818;stroke-width:1;"/><path d="M714.0856,608.7844 Q713.5075,609.0813 712.8668,609.2219 Q712.2262,609.3781 711.5231,609.3781 Q709.0231,609.3781 707.695,607.7375 Q706.3825,606.0813 706.3825,602.9563 Q706.3825,599.8313 707.695,598.175 Q709.0231,596.5188 711.5231,596.5188 Q712.2262,596.5188 712.8668,596.675 Q713.5231,596.8313 714.0856,597.1281 L714.0856,599.8469 Q713.4606,599.2688 712.8668,599.0031 Q712.2731,598.7219 711.6481,598.7219 Q710.3043,598.7219 709.6168,599.8 Q708.9293,600.8625 708.9293,602.9563 Q708.9293,605.05 709.6168,606.1281 Q710.3043,607.1906 711.6481,607.1906 Q712.2731,607.1906 712.8668,606.925 Q713.4606,606.6438 714.0856,606.0656 L714.0856,608.7844 Z " fill="#000000"/><text fill="#1F2937" font-family="Arial" font-size="14" lengthAdjust="spacing" textLength="38.8418" x="754.2326" y="599.842">Email</text><text fill="#1F2937" font-family="Arial" font-size="14" lengthAdjust="spacing" textLength="92.4971" x="727.405" y="616.1389">EmailIdentity</text><line style="stroke:#9FB0C7;stroke-width:0.5;" x1="686.82" x2="832.1989" y1="624.4406" y2="624.4406"/><text fill="#000000" font-family="Arial" font-size="14" lengthAdjust="spacing" textLength="135.3789" x="691.82" y="641.4357">+email_normalized</text><line style="stroke:#9FB0C7;stroke-width:0.5;" x1="686.82" x2="832.1989" y1="648.7375" y2="648.7375"/></g><!--class OAuthIdentity--><g class="entity" data-qualified-name=".............OAuthIdentity" data-source-line="48" id="ent0008"><rect fill="#FFFFFF" height="91.1875" rx="5" ry="5" style="stroke:#9FB0C7;stroke-width:0.5;" width="139.6816" x="689.67" y="445.7069"/><ellipse cx="709.2575" cy="467.0037" fill="#ADD1B2" rx="11" ry="11" style="stroke:#181818;stroke-width:1;"/><path d="M712.2262,472.6444 Q711.6481,472.9412 711.0075,473.0819 Q710.3668,473.2381 709.6637,473.2381 Q707.1637,473.2381 705.8356,471.5975 Q704.5231,469.9412 704.5231,466.8162 Q704.5231,463.6912 705.8356,462.035 Q707.1637,460.3787 709.6637,460.3787 Q710.3668,460.3787 711.0075,460.535 Q711.6637,460.6912 712.2262,460.9881 L712.2262,463.7069 Q711.6012,463.1287 711.0075,462.8631 Q710.4137,462.5819 709.7887,462.5819 Q708.445,462.5819 707.7575,463.66 Q707.07,464.7225 707.07,466.8162 Q707.07,468.91 707.7575,469.9881 Q708.445,471.0506 709.7887,471.0506 Q710.4137,471.0506 711.0075,470.785 Q711.6012,470.5037 712.2262,469.9256 L712.2262,472.6444 Z " fill="#000000"/><text fill="#1F2937" font-family="Arial" font-size="14" lengthAdjust="spacing" textLength="43.832" x="751.1045" y="463.702">OAuth</text><text fill="#1F2937" font-family="Arial" font-size="14" lengthAdjust="spacing" textLength="97.4873" x="724.2769" y="479.9989">OAuthIdentity</text><line style="stroke:#9FB0C7;stroke-width:0.5;" x1="690.67" x2="828.3516" y1="488.3006" y2="488.3006"/><text fill="#000000" font-family="Arial" font-size="14" lengthAdjust="spacing" textLength="70.3691" x="695.67" y="505.2957">+provider</text><text fill="#000000" font-family="Arial" font-size="14" lengthAdjust="spacing" textLength="127.6816" x="695.67" y="521.5926">+provider_user_id</text><line style="stroke:#9FB0C7;stroke-width:0.5;" x1="690.67" x2="828.3516" y1="528.8944" y2="528.8944"/></g><!--class PublicHandle--><g class="entity" data-qualified-name=".............PublicHandle" data-source-line="53" id="ent0009"><rect fill="#FFFFFF" height="74.8906" rx="5" ry="5" style="stroke:#9FB0C7;stroke-width:0.5;" width="162.9766" x="240.95" y="444.8469"/><ellipse cx="255.95" cy="466.1437" fill="#ADD1B2" rx="11" ry="11" style="stroke:#181818;stroke-width:1;"/><path d="M258.9188,471.7844 Q258.3406,472.0812 257.7,472.2219 Q257.0594,472.3781 256.3563,472.3781 Q253.8563,472.3781 252.5281,470.7375 Q251.2156,469.0812 251.2156,465.9562 Q251.2156,462.8312 252.5281,461.175 Q253.8563,459.5187 256.3563,459.5187 Q257.0594,459.5187 257.7,459.675 Q258.3563,459.8312 258.9188,460.1281 L258.9188,462.8469 Q258.2938,462.2687 257.7,462.0031 Q257.1063,461.7219 256.4813,461.7219 Q255.1375,461.7219 254.45,462.8 Q253.7625,463.8625 253.7625,465.9562 Q253.7625,468.05 254.45,469.1281 Q255.1375,470.1906 256.4813,470.1906 Q257.1063,470.1906 257.7,469.925 Q258.2938,469.6437 258.9188,469.0656 L258.9188,471.7844 Z " fill="#000000"/><text fill="#1F2937" font-family="Arial" font-size="14" lengthAdjust="spacing" textLength="130.9766" x="269.95" y="462.842">&#1055;&#1091;&#1073;&#1083;&#1080;&#1095;&#1085;&#1099;&#1081; &#1072;&#1076;&#1088;&#1077;&#1089;</text><text fill="#1F2937" font-family="Arial" font-size="14" lengthAdjust="spacing" textLength="91.0479" x="289.9144" y="479.1389">PublicHandle</text><line style="stroke:#9FB0C7;stroke-width:0.5;" x1="241.95" x2="402.9266" y1="487.4406" y2="487.4406"/><text fill="#000000" font-family="Arial" font-size="14" lengthAdjust="spacing" textLength="59.4453" x="246.95" y="504.4357">+handle</text><line style="stroke:#9FB0C7;stroke-width:0.5;" x1="241.95" x2="402.9266" y1="511.7375" y2="511.7375"/></g><!--class RateBucket--><g class="entity" data-qualified-name=".............RateBucket" data-source-line="57" id="ent0010"><rect fill="#FFFFFF" height="91.1875" rx="5" ry="5" style="stroke:#9FB0C7;stroke-width:0.5;" width="204.9902" x="219.94" y="564.7069"/><ellipse cx="234.94" cy="586.0038" fill="#ADD1B2" rx="11" ry="11" style="stroke:#181818;stroke-width:1;"/><path d="M237.9088,591.6444 Q237.3306,591.9413 236.69,592.0819 Q236.0494,592.2381 235.3463,592.2381 Q232.8463,592.2381 231.5181,590.5975 Q230.2056,588.9413 230.2056,585.8163 Q230.2056,582.6913 231.5181,581.035 Q232.8463,579.3788 235.3463,579.3788 Q236.0494,579.3788 236.69,579.535 Q237.3463,579.6913 237.9088,579.9881 L237.9088,582.7069 Q237.2838,582.1288 236.69,581.8631 Q236.0963,581.5819 235.4713,581.5819 Q234.1275,581.5819 233.44,582.66 Q232.7525,583.7225 232.7525,585.8163 Q232.7525,587.91 233.44,588.9881 Q234.1275,590.0506 235.4713,590.0506 Q236.0963,590.0506 236.69,589.785 Q237.2838,589.5038 237.9088,588.9256 L237.9088,591.6444 Z " fill="#000000"/><text fill="#1F2937" font-family="Arial" font-size="14" lengthAdjust="spacing" textLength="110.5371" x="280.1666" y="582.702">&#1041;&#1072;&#1082;&#1077;&#1090; &#1083;&#1080;&#1084;&#1080;&#1090;&#1086;&#1074;</text><text fill="#1F2937" font-family="Arial" font-size="14" lengthAdjust="spacing" textLength="172.9902" x="248.94" y="598.9989">SecurityRateLimitBucket</text><line style="stroke:#9FB0C7;stroke-width:0.5;" x1="220.94" x2="423.9302" y1="607.3006" y2="607.3006"/><text fill="#000000" font-family="Arial" font-size="14" lengthAdjust="spacing" textLength="84.793" x="225.94" y="624.2957">+scope_key</text><text fill="#000000" font-family="Arial" font-size="14" lengthAdjust="spacing" textLength="68.5645" x="225.94" y="640.5926">+reset_at</text><line style="stroke:#9FB0C7;stroke-width:0.5;" x1="220.94" x2="423.9302" y1="647.8944" y2="647.8944"/></g><!--class Room--><g class="entity" data-qualified-name="....... . ......Room" data-source-line="64" id="ent0012"><rect fill="#FFFFFF" height="107.4844" rx="5" ry="5" style="stroke:#9FB0C7;stroke-width:0.5;" width="95.5332" x="500.17" y="190.5569"/><ellipse cx="515.17" cy="211.8538" fill="#ADD1B2" rx="11" ry="11" style="stroke:#181818;stroke-width:1;"/><path d="M518.1388,217.4944 Q517.5606,217.7913 516.92,217.9319 Q516.2794,218.0881 515.5763,218.0881 Q513.0763,218.0881 511.7481,216.4475 Q510.4356,214.7913 510.4356,211.6663 Q510.4356,208.5413 511.7481,206.885 Q513.0763,205.2288 515.5763,205.2288 Q516.2794,205.2288 516.92,205.385 Q517.5763,205.5413 518.1388,205.8381 L518.1388,208.5569 Q517.5138,207.9788 516.92,207.7131 Q516.3263,207.4319 515.7013,207.4319 Q514.3575,207.4319 513.67,208.51 Q512.9825,209.5725 512.9825,211.6663 Q512.9825,213.76 513.67,214.8381 Q514.3575,215.9006 515.7013,215.9006 Q516.3263,215.9006 516.92,215.635 Q517.5138,215.3538 518.1388,214.7756 L518.1388,217.4944 Z " fill="#000000"/><text fill="#1F2937" font-family="Arial" font-size="14" lengthAdjust="spacing" textLength="63.5332" x="529.17" y="208.552">&#1050;&#1086;&#1084;&#1085;&#1072;&#1090;&#1072;</text><text fill="#1F2937" font-family="Arial" font-size="14" lengthAdjust="spacing" textLength="40.4961" x="540.6886" y="224.8489">Room</text><line style="stroke:#9FB0C7;stroke-width:0.5;" x1="501.17" x2="594.7032" y1="233.1506" y2="233.1506"/><text fill="#000000" font-family="Arial" font-size="14" lengthAdjust="spacing" textLength="24.5068" x="506.17" y="250.1457">+id</text><text fill="#000000" font-family="Arial" font-size="14" lengthAdjust="spacing" textLength="41.4873" x="506.17" y="266.4426">+kind</text><text fill="#000000" font-family="Arial" font-size="14" lengthAdjust="spacing" textLength="72.0371" x="506.17" y="282.7395">+is_public</text><line style="stroke:#9FB0C7;stroke-width:0.5;" x1="501.17" x2="594.7032" y1="290.0413" y2="290.0413"/></g><!--class Role--><g class="entity" data-qualified-name="....... . ......Role" data-source-line="70" id="ent0013"><rect fill="#FFFFFF" height="107.4844" rx="5" ry="5" style="stroke:#9FB0C7;stroke-width:0.5;" width="107.7236" x="56.77" y="118.5569"/><ellipse cx="90.4525" cy="139.8538" fill="#ADD1B2" rx="11" ry="11" style="stroke:#181818;stroke-width:1;"/><path d="M93.4212,145.4944 Q92.8431,145.7913 92.2025,145.9319 Q91.5618,146.0881 90.8587,146.0881 Q88.3587,146.0881 87.0306,144.4475 Q85.7181,142.7913 85.7181,139.6663 Q85.7181,136.5413 87.0306,134.885 Q88.3587,133.2288 90.8587,133.2288 Q91.5618,133.2288 92.2025,133.385 Q92.8587,133.5413 93.4212,133.8381 L93.4212,136.5569 Q92.7962,135.9788 92.2025,135.7131 Q91.6087,135.4319 90.9837,135.4319 Q89.64,135.4319 88.9525,136.51 Q88.265,137.5725 88.265,139.6663 Q88.265,141.76 88.9525,142.8381 Q89.64,143.9006 90.9837,143.9006 Q91.6087,143.9006 92.2025,143.635 Q92.7962,143.3538 93.4212,142.7756 L93.4212,145.4944 Z " fill="#000000"/><text fill="#1F2937" font-family="Arial" font-size="14" lengthAdjust="spacing" textLength="34.207" x="108.6041" y="136.552">&#1056;&#1086;&#1083;&#1100;</text><text fill="#1F2937" font-family="Arial" font-size="14" lengthAdjust="spacing" textLength="30.7959" x="110.3097" y="152.8489">Role</text><line style="stroke:#9FB0C7;stroke-width:0.5;" x1="57.77" x2="163.4936" y1="161.1506" y2="161.1506"/><text fill="#000000" font-family="Arial" font-size="14" lengthAdjust="spacing" textLength="51.4336" x="62.77" y="178.1457">+name</text><text fill="#000000" font-family="Arial" font-size="14" lengthAdjust="spacing" textLength="67.1836" x="62.77" y="194.4426">+position</text><text fill="#000000" font-family="Arial" font-size="14" lengthAdjust="spacing" textLength="95.7236" x="62.77" y="210.7395">+permissions</text><line style="stroke:#9FB0C7;stroke-width:0.5;" x1="57.77" x2="163.4936" y1="218.0413" y2="218.0413"/></g><!--class Membership--><g class="entity" data-qualified-name="....... . ......Membership" data-source-line="76" id="ent0014"><rect fill="#FFFFFF" height="107.4844" rx="5" ry="5" style="stroke:#9FB0C7;stroke-width:0.5;" width="118.5293" x="263.17" y="262.5569"/><ellipse cx="278.17" cy="283.8538" fill="#ADD1B2" rx="11" ry="11" style="stroke:#181818;stroke-width:1;"/><path d="M281.1388,289.4944 Q280.5606,289.7913 279.92,289.9319 Q279.2794,290.0881 278.5763,290.0881 Q276.0763,290.0881 274.7481,288.4475 Q273.4356,286.7913 273.4356,283.6663 Q273.4356,280.5413 274.7481,278.885 Q276.0763,277.2288 278.5763,277.2288 Q279.2794,277.2288 279.92,277.385 Q280.5763,277.5413 281.1388,277.8381 L281.1388,280.5569 Q280.5138,279.9788 279.92,279.7131 Q279.3263,279.4319 278.7013,279.4319 Q277.3575,279.4319 276.67,280.51 Q275.9825,281.5725 275.9825,283.6663 Q275.9825,285.76 276.67,286.8381 Q277.3575,287.9006 278.7013,287.9006 Q279.3263,287.9006 279.92,287.635 Q280.5138,287.3538 281.1388,286.7756 L281.1388,289.4944 Z " fill="#000000"/><text fill="#1F2937" font-family="Arial" font-size="14" lengthAdjust="spacing" textLength="58.9463" x="305.9615" y="280.552">&#1059;&#1095;&#1072;&#1089;&#1090;&#1080;&#1077;</text><text fill="#1F2937" font-family="Arial" font-size="14" lengthAdjust="spacing" textLength="86.5293" x="292.17" y="296.8489">Membership</text><line style="stroke:#9FB0C7;stroke-width:0.5;" x1="264.17" x2="380.6993" y1="305.1506" y2="305.1506"/><text fill="#000000" font-family="Arial" font-size="14" lengthAdjust="spacing" textLength="80.001" x="269.17" y="322.1457">+nickname</text><text fill="#000000" font-family="Arial" font-size="14" lengthAdjust="spacing" textLength="82.626" x="269.17" y="338.4426">+is_banned</text><text fill="#000000" font-family="Arial" font-size="14" lengthAdjust="spacing" textLength="95.2451" x="269.17" y="354.7395">+muted_until</text><line style="stroke:#9FB0C7;stroke-width:0.5;" x1="264.17" x2="380.6993" y1="362.0413" y2="362.0413"/></g><!--class Override--><g class="entity" data-qualified-name="....... . ......Override" data-source-line="82" id="ent0015"><rect fill="#FFFFFF" height="91.1875" rx="5" ry="5" style="stroke:#9FB0C7;stroke-width:0.5;" width="205.8994" x="219.49" y="126.7069"/><ellipse cx="234.49" cy="148.0037" fill="#ADD1B2" rx="11" ry="11" style="stroke:#181818;stroke-width:1;"/><path d="M237.4588,153.6444 Q236.8806,153.9412 236.24,154.0819 Q235.5994,154.2381 234.8963,154.2381 Q232.3963,154.2381 231.0681,152.5975 Q229.7556,150.9412 229.7556,147.8162 Q229.7556,144.6912 231.0681,143.035 Q232.3963,141.3787 234.8963,141.3787 Q235.5994,141.3787 236.24,141.535 Q236.8963,141.6912 237.4588,141.9881 L237.4588,144.7069 Q236.8338,144.1287 236.24,143.8631 Q235.6463,143.5819 235.0213,143.5819 Q233.6775,143.5819 232.99,144.66 Q232.3025,145.7225 232.3025,147.8162 Q232.3025,149.91 232.99,150.9881 Q233.6775,152.0506 235.0213,152.0506 Q235.6463,152.0506 236.24,151.785 Q236.8338,151.5037 237.4588,150.9256 L237.4588,153.6444 Z " fill="#000000"/><text fill="#1F2937" font-family="Arial" font-size="14" lengthAdjust="spacing" textLength="173.8994" x="248.49" y="144.702">&#1055;&#1077;&#1088;&#1077;&#1086;&#1087;&#1088;&#1077;&#1076;&#1077;&#1083;&#1077;&#1085;&#1080;&#1077; &#1087;&#1088;&#1072;&#1074;</text><text fill="#1F2937" font-family="Arial" font-size="14" lengthAdjust="spacing" textLength="137.0742" x="266.9026" y="160.9989">PermissionOverride</text><line style="stroke:#9FB0C7;stroke-width:0.5;" x1="220.49" x2="424.3894" y1="169.3006" y2="169.3006"/><text fill="#000000" font-family="Arial" font-size="14" lengthAdjust="spacing" textLength="48.1045" x="225.49" y="186.2957">+allow</text><text fill="#000000" font-family="Arial" font-size="14" lengthAdjust="spacing" textLength="46.3887" x="225.49" y="202.5926">+deny</text><line style="stroke:#9FB0C7;stroke-width:0.5;" x1="220.49" x2="424.3894" y1="209.8944" y2="209.8944"/></g><!--class Friendship--><g class="entity" data-qualified-name="....... . ......Friendship" data-source-line="87" id="ent0016"><rect fill="#FFFFFF" height="74.8906" rx="5" ry="5" style="stroke:#9FB0C7;stroke-width:0.5;" width="105.0146" x="58.12" y="295.8469"/><ellipse cx="73.12" cy="317.1437" fill="#ADD1B2" rx="11" ry="11" style="stroke:#181818;stroke-width:1;"/><path d="M76.0888,322.7844 Q75.5106,323.0812 74.87,323.2219 Q74.2294,323.3781 73.5263,323.3781 Q71.0263,323.3781 69.6981,321.7375 Q68.3856,320.0812 68.3856,316.9562 Q68.3856,313.8312 69.6981,312.175 Q71.0263,310.5187 73.5263,310.5187 Q74.2294,310.5187 74.87,310.675 Q75.5263,310.8312 76.0888,311.1281 L76.0888,313.8469 Q75.4638,313.2687 74.87,313.0031 Q74.2763,312.7219 73.6513,312.7219 Q72.3075,312.7219 71.62,313.8 Q70.9325,314.8625 70.9325,316.9562 Q70.9325,319.05 71.62,320.1281 Q72.3075,321.1906 73.6513,321.1906 Q74.2763,321.1906 74.87,320.925 Q75.4638,320.6437 76.0888,320.0656 L76.0888,322.7844 Z " fill="#000000"/><text fill="#1F2937" font-family="Arial" font-size="14" lengthAdjust="spacing" textLength="57.9346" x="94.66" y="313.842">&#1044;&#1088;&#1091;&#1078;&#1073;&#1072;</text><text fill="#1F2937" font-family="Arial" font-size="14" lengthAdjust="spacing" textLength="73.0146" x="87.12" y="330.1389">Friendship</text><line style="stroke:#9FB0C7;stroke-width:0.5;" x1="59.12" x2="162.1346" y1="338.4406" y2="338.4406"/><text fill="#000000" font-family="Arial" font-size="14" lengthAdjust="spacing" textLength="54.749" x="64.12" y="355.4357">+status</text><line style="stroke:#9FB0C7;stroke-width:0.5;" x1="59.12" x2="162.1346" y1="362.7375" y2="362.7375"/></g><!--link User to Room--><!--link Room to Role--><!--link Role to Room--><g class="link" data-entity-1="ent0013" data-entity-2="ent0012" data-link-type="dependency" data-source-line="106" id="lnk29"><path codeLine="106" d="M164.69,221.1469 C250.73,221.1469 411.47,221.1469 493.7,221.1469" fill="none" id="Role-to-Room" style="stroke:#687385;stroke-width:1;"/><polygon fill="#687385" points="499.7,221.1469,490.7,217.1469,494.7,221.1469,490.7,225.1469,499.7,221.1469" style="stroke:#687385;stroke-width:1;"/><text fill="#000000" font-family="Arial" font-size="13" lengthAdjust="spacing" textLength="97.0112" x="333.19" y="234.2138">&#1088;&#1086;&#1083;&#1080; &#1082;&#1086;&#1084;&#1085;&#1072;&#1090;&#1099;</text><text fill="#000000" font-family="Arial" font-size="13" lengthAdjust="spacing" textLength="6.5" x="172.3908" y="223.7788">*</text><text fill="#000000" font-family="Arial" font-size="13" lengthAdjust="spacing" textLength="8.271" x="484.0477" y="230.9246">1</text></g><!--link Role to Membership--><!--link Membership to Role--><g class="link" data-entity-1="ent0014" data-entity-2="ent0013" data-link-type="association" data-source-line="109" id="lnk32"><path codeLine="109" d="M322.54,262.1669 C322.54,241.4869 322.54,222.7769 322.54,222.7769 C322.54,222.7769 227.71,222.7769 164.92,222.7769" fill="none" id="Membership-Role" style="stroke:#687385;stroke-width:1;"/><text fill="#000000" font-family="Arial" font-size="13" lengthAdjust="spacing" textLength="127.8799" x="135.43" y="235.8438">&#1085;&#1072;&#1079;&#1085;&#1072;&#1095;&#1077;&#1085;&#1085;&#1099;&#1077; &#1088;&#1086;&#1083;&#1080;</text><text fill="#000000" font-family="Arial" font-size="13" lengthAdjust="spacing" textLength="6.5" x="316.2012" y="251.3457">*</text><text fill="#000000" font-family="Arial" font-size="13" lengthAdjust="spacing" textLength="6.5" x="172.6517" y="242.6435">*</text></g><!--link Membership to Override--><!--link User to Profile--><g class="link" data-entity-1="ent0003" data-entity-2="ent0004" data-link-type="association" data-source-line="97" id="lnk21"><path codeLine="97" d="M548.54,785.3669 C548.54,857.0869 548.54,987.2969 548.54,987.2969 C548.54,987.2969 647.69,987.2969 710.05,987.2969" fill="none" id="User-Profile" style="stroke:#687385;stroke-width:1;"/><text fill="#000000" font-family="Arial" font-size="13" lengthAdjust="spacing" textLength="60.2393" x="487.54" y="980.1538">&#1087;&#1088;&#1086;&#1092;&#1080;&#1083;&#1100;</text><text fill="#000000" font-family="Arial" font-size="13" lengthAdjust="spacing" textLength="8.271" x="540.081" y="804.9759">1</text><text fill="#000000" font-family="Arial" font-size="13" lengthAdjust="spacing" textLength="8.271" x="694.2174" y="1000.4745">1</text></g><!--link User to IdentityCore--><g class="link" data-entity-1="ent0003" data-entity-2="ent0005" data-link-type="association" data-source-line="98" id="lnk22"><path codeLine="98" d="M615.92,780.8169 C647.65,780.8169 678.54,780.8169 678.54,780.8169 C678.54,780.8169 678.54,801.3669 678.54,821.4369" fill="none" id="User-IdentityCore" style="stroke:#687385;stroke-width:1;"/><text fill="#000000" font-family="Arial" font-size="13" lengthAdjust="spacing" textLength="91.8569" x="668.54" y="793.8838">&#1087;&#1091;&#1073;&#1083;&#1080;&#1095;&#1085;&#1099;&#1081; id</text><text fill="#000000" font-family="Arial" font-size="13" lengthAdjust="spacing" textLength="8.271" x="623.3569" y="797.9454">1</text><text fill="#000000" font-family="Arial" font-size="13" lengthAdjust="spacing" textLength="24.8066" x="638.6293" y="810.7197">0..1</text></g><!--link User to LoginIdentity--><g class="link" data-entity-1="ent0003" data-entity-2="ent0006" data-link-type="association" data-source-line="99" id="lnk23"><path codeLine="99" d="M615.76,739.2969 C638.72,739.2969 664.44,739.2969 687.7,739.2969" fill="none" id="User-LoginIdentity" style="stroke:#687385;stroke-width:1;"/><text fill="#000000" font-family="Arial" font-size="13" lengthAdjust="spacing" textLength="104.749" x="546.73" y="735.3638">&#1074;&#1093;&#1086;&#1076; &#1087;&#1086; &#1083;&#1086;&#1075;&#1080;&#1085;&#1091;</text><text fill="#000000" font-family="Arial" font-size="13" lengthAdjust="spacing" textLength="8.271" x="623.6302" y="752.1909">1</text><text fill="#000000" font-family="Arial" font-size="13" lengthAdjust="spacing" textLength="24.8066" x="655.098" y="752.1445">0..1</text></g><!--link User to EmailIdentity--><g class="link" data-entity-1="ent0003" data-entity-2="ent0007" data-link-type="association" data-source-line="100" id="lnk24"><path codeLine="100" d="M609.54,693.2369 C609.54,654.8869 609.54,606.5269 609.54,606.5269 C609.54,606.5269 647.62,606.5269 685.4,606.5269" fill="none" id="User-EmailIdentity" style="stroke:#687385;stroke-width:1;"/><text fill="#000000" font-family="Arial" font-size="13" lengthAdjust="spacing" textLength="35.8516" x="573.54" y="625.0138">email</text><text fill="#000000" font-family="Arial" font-size="13" lengthAdjust="spacing" textLength="8.271" x="609.6591" y="682.7807">1</text><text fill="#000000" font-family="Arial" font-size="13" lengthAdjust="spacing" textLength="24.8066" x="652.9633" y="618.082">0..1</text></g><!--link User to OAuthIdentity--><g class="link" data-entity-1="ent0003" data-entity-2="ent0008" data-link-type="association" data-source-line="101" id="lnk25"><path codeLine="101" d="M602.54,693.2569 C602.54,631.1769 602.54,528.3169 602.54,528.3169 C602.54,528.3169 647.49,528.3169 689.29,528.3169" fill="none" id="User-OAuthIdentity" style="stroke:#687385;stroke-width:1;"/><text fill="#000000" font-family="Arial" font-size="13" lengthAdjust="spacing" textLength="149.4175" x="452.54" y="580.4738">&#1074;&#1085;&#1077;&#1096;&#1085;&#1080;&#1077; &#1087;&#1088;&#1086;&#1074;&#1072;&#1081;&#1076;&#1077;&#1088;&#1099;</text><text fill="#000000" font-family="Arial" font-size="13" lengthAdjust="spacing" textLength="8.271" x="601.6747" y="682.8035">1</text><text fill="#000000" font-family="Arial" font-size="13" lengthAdjust="spacing" textLength="23.0356" x="658.758" y="544.4937">0..*</text></g><!--link PublicHandle to User--><g class="link" data-entity-1="ent0009" data-entity-2="ent0003" data-link-type="dependency" data-source-line="102" id="lnk26"><path codeLine="102" d="M404.03,482.7269 C446.03,482.7269 488.54,482.7269 488.54,482.7269 C488.54,482.7269 488.54,613.6269 488.54,687.4269" fill="none" id="PublicHandle-to-User" style="stroke:#687385;stroke-width:1;"/><polygon fill="#687385" points="488.54,693.4269,492.54,684.4269,488.54,688.4269,484.54,684.4269,488.54,693.4269" style="stroke:#687385;stroke-width:1;"/><text fill="#000000" font-family="Arial" font-size="13" lengthAdjust="spacing" textLength="139.1025" x="348.54" y="558.8838">&#1072;&#1076;&#1088;&#1077;&#1089; &#1087;&#1086;&#1083;&#1100;&#1079;&#1086;&#1074;&#1072;&#1090;&#1077;&#1083;&#1103;</text><text fill="#000000" font-family="Arial" font-size="13" lengthAdjust="spacing" textLength="24.8066" x="411.814" y="495.4564">0..1</text><text fill="#000000" font-family="Arial" font-size="13" lengthAdjust="spacing" textLength="24.8066" x="454.1124" y="682.6643">0..1</text></g><!--link PublicHandle to Room--><g class="link" data-entity-1="ent0009" data-entity-2="ent0012" data-link-type="dependency" data-source-line="103" id="lnk27"><path codeLine="103" d="M393.54,444.4869 C393.54,387.5069 393.54,286.2069 393.54,286.2069 C393.54,286.2069 448.61,286.2069 493.93,286.2069" fill="none" id="PublicHandle-to-Room" style="stroke:#687385;stroke-width:1;"/><polygon fill="#687385" points="499.93,286.2069,490.93,282.2069,494.93,286.2069,490.93,290.2069,499.93,286.2069" style="stroke:#687385;stroke-width:1;"/><text fill="#000000" font-family="Arial" font-size="13" lengthAdjust="spacing" textLength="94.5229" x="394.54" y="325.2238">&#1072;&#1076;&#1088;&#1077;&#1089; &#1075;&#1088;&#1091;&#1087;&#1087;&#1099;</text><text fill="#000000" font-family="Arial" font-size="13" lengthAdjust="spacing" textLength="24.8066" x="379.7674" y="433.7783">0..1</text><text fill="#000000" font-family="Arial" font-size="13" lengthAdjust="spacing" textLength="24.8066" x="467.5483" y="305.2311">0..1</text></g><!--link RateBucket to User--><g class="link" data-entity-1="ent0010" data-entity-2="ent0003" data-link-type="dependency" data-source-line="104" id="lnk28"><path codeLine="104" d="M425.1,631.2069 C457.27,631.2069 484.54,631.2069 484.54,631.2069 C484.54,631.2069 484.54,657.9969 484.54,687.4569" fill="none" id="RateBucket-to-User" style="stroke:#687385;stroke-width:1;stroke-dasharray:7,7;"/><polygon fill="#687385" points="484.54,693.4569,488.54,684.4569,484.54,688.4569,480.54,684.4569,484.54,693.4569" style="stroke:#687385;stroke-width:1;"/><text fill="#000000" font-family="Arial" font-size="13" lengthAdjust="spacing" textLength="151.0996" x="485.54" y="645.6838">&#1083;&#1080;&#1084;&#1080;&#1090;&#1099; &#1073;&#1077;&#1079;&#1086;&#1087;&#1072;&#1089;&#1085;&#1086;&#1089;&#1090;&#1080;</text></g><!--link Membership to Room--><g class="link" data-entity-1="ent0014" data-entity-2="ent0012" data-link-type="dependency" data-source-line="107" id="lnk30"><path codeLine="107" d="M381.98,274.3869 C418.78,274.3869 459.39,274.3869 493.83,274.3869" fill="none" id="Membership-to-Room" style="stroke:#687385;stroke-width:1;"/><polygon fill="#687385" points="499.83,274.3869,490.83,270.3869,494.83,274.3869,490.83,278.3869,499.83,274.3869" style="stroke:#687385;stroke-width:1;"/><text fill="#000000" font-family="Arial" font-size="13" lengthAdjust="spacing" textLength="62.8228" x="377.91" y="270.4538">&#1095;&#1083;&#1077;&#1085;&#1089;&#1090;&#1074;&#1086;</text><text fill="#000000" font-family="Arial" font-size="13" lengthAdjust="spacing" textLength="6.5" x="389.6332" y="282.2679">*</text><text fill="#000000" font-family="Arial" font-size="13" lengthAdjust="spacing" textLength="8.271" x="483.8719" y="292.2196">1</text></g><!--link Membership to User--><g class="link" data-entity-1="ent0014" data-entity-2="ent0003" data-link-type="dependency" data-source-line="108" id="lnk31"><path codeLine="108" d="M381.93,334.0369 C430.98,334.0369 492.54,334.0369 492.54,334.0369 C492.54,334.0369 492.54,580.9869 492.54,687.2069" fill="none" id="Membership-to-User" style="stroke:#687385;stroke-width:1;"/><polygon fill="#687385" points="492.54,693.2069,496.54,684.2069,492.54,688.2069,488.54,684.2069,492.54,693.2069" style="stroke:#687385;stroke-width:1;"/><text fill="#000000" font-family="Arial" font-size="13" lengthAdjust="spacing" textLength="62.8608" x="429.54" y="471.3838">&#1091;&#1095;&#1072;&#1089;&#1090;&#1085;&#1080;&#1082;</text><text fill="#000000" font-family="Arial" font-size="13" lengthAdjust="spacing" textLength="6.5" x="389.5771" y="349.1877">*</text><text fill="#000000" font-family="Arial" font-size="13" lengthAdjust="spacing" textLength="8.271" x="476.206" y="682.7465">1</text></g><!--link Override to Room--><g class="link" data-entity-1="ent0015" data-entity-2="ent0012" data-link-type="dependency" data-source-line="110" id="lnk33"><path codeLine="110" d="M425.62,199.6669 C451.48,199.6669 472.02,199.6669 493.74,199.6669" fill="none" id="Override-to-Room" style="stroke:#687385;stroke-width:1;"/><polygon fill="#687385" points="499.74,199.6669,490.74,195.6669,494.74,199.6669,490.74,203.6669,499.74,199.6669" style="stroke:#687385;stroke-width:1;"/><text fill="#000000" font-family="Arial" font-size="13" lengthAdjust="spacing" textLength="144.6567" x="463.68" y="195.7338">&#1076;&#1077;&#1081;&#1089;&#1090;&#1074;&#1091;&#1077;&#1090; &#1074; &#1082;&#1086;&#1084;&#1085;&#1072;&#1090;&#1077;</text><text fill="#000000" font-family="Arial" font-size="13" lengthAdjust="spacing" textLength="6.5" x="433.436" y="198.1976">*</text><text fill="#000000" font-family="Arial" font-size="13" lengthAdjust="spacing" textLength="8.271" x="483.7681" y="206.0581">1</text></g><!--link Override to Role--><g class="link" data-entity-1="ent0015" data-entity-2="ent0013" data-link-type="dependency" data-source-line="111" id="lnk34"><path codeLine="111" d="M219.02,172.2969 C200.32,172.2969 187.53,172.2969 170.96,172.2969" fill="none" id="Override-to-Role" style="stroke:#687385;stroke-width:1;"/><polygon fill="#687385" points="164.96,172.2969,173.96,176.2969,169.96,172.2969,173.96,168.2969,164.96,172.2969" style="stroke:#687385;stroke-width:1;"/><text fill="#000000" font-family="Arial" font-size="13" lengthAdjust="spacing" textLength="92.9106" x="98.99" y="168.3638">&#1094;&#1077;&#1083;&#1077;&#1074;&#1072;&#1103; &#1088;&#1086;&#1083;&#1100;</text><text fill="#000000" font-family="Arial" font-size="13" lengthAdjust="spacing" textLength="6.5" x="204.8914" y="184.9428">*</text><text fill="#000000" font-family="Arial" font-size="13" lengthAdjust="spacing" textLength="24.8066" x="172.6758" y="185.2384">0..1</text></g><!--link Override to User--><g class="link" data-entity-1="ent0015" data-entity-2="ent0003" data-link-type="dependency" data-source-line="112" id="lnk35"><path codeLine="112" d="M425.73,208.7769 C463.21,208.7769 496.54,208.7769 496.54,208.7769 C496.54,208.7769 496.54,558.9169 496.54,687.6069" fill="none" id="Override-to-User" style="stroke:#687385;stroke-width:1;"/><polygon fill="#687385" points="496.54,693.6069,500.54,684.6069,496.54,688.6069,492.54,684.6069,496.54,693.6069" style="stroke:#687385;stroke-width:1;"/><text fill="#000000" font-family="Arial" font-size="13" lengthAdjust="spacing" textLength="155.8096" x="340.54" y="411.8538">&#1094;&#1077;&#1083;&#1077;&#1074;&#1086;&#1081; &#1087;&#1086;&#1083;&#1100;&#1079;&#1086;&#1074;&#1072;&#1090;&#1077;&#1083;&#1100;</text><text fill="#000000" font-family="Arial" font-size="13" lengthAdjust="spacing" textLength="6.5" x="433.5541" y="216.0274">*</text><text fill="#000000" font-family="Arial" font-size="13" lengthAdjust="spacing" textLength="24.8066" x="490.5687" y="682.5386">0..1</text></g><!--link Friendship to User--><g class="link" data-entity-1="ent0016" data-entity-2="ent0003" data-link-type="dependency" data-source-line="114" id="lnk36"><path codeLine="114" d="M93.54,371.0469 C93.54,474.4269 93.54,754.4969 93.54,754.4969 C93.54,754.4969 347.15,754.4969 473.91,754.4969" fill="none" id="Friendship-to-User" style="stroke:#687385;stroke-width:1;"/><polygon fill="#687385" points="479.91,754.4969,470.91,750.4969,474.91,754.4969,470.91,758.4969,479.91,754.4969" style="stroke:#687385;stroke-width:1;"/><text fill="#000000" font-family="Arial" font-size="13" lengthAdjust="spacing" textLength="87.896" x="7" y="767.5638">&#1086;&#1090;&#1087;&#1088;&#1072;&#1074;&#1080;&#1090;&#1077;&#1083;&#1100;</text><text fill="#000000" font-family="Arial" font-size="13" lengthAdjust="spacing" textLength="6.5" x="84.1305" y="390.9033">*</text><text fill="#000000" font-family="Arial" font-size="13" lengthAdjust="spacing" textLength="8.271" x="464.0466" y="769.0534">1</text></g><!--link Friendship to User--><g class="link" data-entity-1="ent0016" data-entity-2="ent0003" data-link-type="dependency" data-source-line="115" id="lnk37"><path codeLine="115" d="M128.54,371.1269 C128.54,469.1969 128.54,724.0969 128.54,724.0969 C128.54,724.0969 355.39,724.0969 474.09,724.0969" fill="none" id="Friendship-to-User-1" style="stroke:#687385;stroke-width:1;"/><polygon fill="#687385" points="480.09,724.0969,471.09,720.0969,475.09,724.0969,471.09,728.0969,480.09,724.0969" style="stroke:#687385;stroke-width:1;"/><text fill="#000000" font-family="Arial" font-size="13" lengthAdjust="spacing" textLength="79.644" x="48.54" y="736.4538">&#1087;&#1086;&#1083;&#1091;&#1095;&#1072;&#1090;&#1077;&#1083;&#1100;</text><text fill="#000000" font-family="Arial" font-size="13" lengthAdjust="spacing" textLength="6.5" x="125.0513" y="390.7133">*</text><text fill="#000000" font-family="Arial" font-size="13" lengthAdjust="spacing" textLength="8.271" x="464.2462" y="735.3284">1</text></g><?plantuml-src XLRTRjis5BxNKn3UNGS7oReiFnS5qcx52dJha6nNys3G4cqJbaY3efEvmu3MsPO12L0CsDLsqG5xWBbfl3b94xy2zKOxF9HaILRG80Z9GvxlEppdur4qro4Zdx937iPadyMQYnvf4lFQt9hhvCpy1-EvcIOJCpFNPaxixuMvJLuca-JOBBoGTJNHaYZUwsiISCLypQNmuW4NGwfeHE8-3UIHXUtIC6Q5dGxr1pqbHo9u94Efo0TT_2cS2BbWUZnaH2hTbuKDFwHnlAUrufsHPazyAGxuSqRM2qS2rgMZK7_DljTx8U-9Y0bDVFZ3LE6Ka06BsP1yl5amAYe6rhXPCjf0VQa4KsIZIBIdb3nAR_39zjRzxStLA1vBeR-a4OF3d8Q5_I7aWFROWHv36MpogEY5RFK0-S4ZvA5K0LCfbRyTh0STQrr9urPtf-l3ZcLDRHlTZtRkRta_LdEuYhlJxQpxMxMuhZprk5uMQADUEybP0xaSwvs7MkARcAa6eJ6n4tGXv4CUk744DW5vX1LG5j2I5o3AdypSONobP9U7367IUOQKUiEimsKLvXzpOO50vI3ocRc1gER9YRbnWZTp5zsJ05J4zVYHL8wYQCXuXgDEoFqs1bxY-1Ck_1O8RbhYgUnnaJaZKicIGONMs1PIHJG4bLSHFuie3ri2Xn9OoPA1CMky6-pPtaZtMmA74bZ9abzIoKCEqYclshPADJT_3HtZZUqYDgN9gRaaPee9doKleMQOiC-f2BB25GmPOHzNLU3V0ESAK2R4efjtm32nicg90-QF50IyJpLxoYEk7uxy0TE8RsrkcQ77lXooze2DtL91Pz1jgf6kfF0_0FqTo09acvnYJrp0DQPMo6ML5mwQQKliInavRfXKjGqFCvtnkEtaKxteN-xHMA0qINQoAksXZ3csORTYAk9n3Eku2lWtb6Bgj6rcBV45YpfCnNq-HF3bCgVW_c190t5sg10i3Jk2LXoqHw2GSANqK1seCuI_mF42FoVmmYnldZqGGHxgiqEc5AZ9YIzTP67GC9H7RWgA75VPVazUWDJ-1R51pXyhpaIGtscvpAkkgHx5MP6nwpI_xVC0aB-3BvTeFi1oULYpV0S_UBW5UiGgh6mjq-SLChboBBjSojtOQ91c4uUiTUsw3EKDhdnmVMqDPgKUX0xLnmOwg_4hTnnmF4z-XZ9T089jXDTPjqgEwxpBBMQNO7TPENYlKMaVbWPgFqj-BIe0FmJcqee32dZgbHf0IjY4XALJPDajz10CkUQZykfzI5ZPCj9RbD02uZhr2erYRUr1pfkt6ji2tW2JPLtOvxJyO7XE6erxAT-I3E-B_r5T5Pj9KIbrNYVksI3wkRczwtWQOtASls-RvwlLupXWZ70ZY04kOICvmRTfTJFB8_NoLrWJ6BxeInSM90vxyNdfRcPM0v3b7_cJNzAkO4ltAkK5jT_bbbrowNPhlodr8ZZplCBJhyaLb6oIj_5vxlKU9qVcqfow_0y0?></g></svg>