<?plantuml 1.2026.1?><svg xmlns="http://www.w3.org/2000/svg" xmlns:xlink="http://www.w3.org/1999/xlink" contentStyleType="text/css" data-diagram-type="CLASS" height="808px" preserveAspectRatio="none" style="width:633px;height:808px;background:#FBFCFE;" version="1.1" viewBox="0 0 633 808" width="633px" zoomAndPan="magnify"><title>Devil - &#1050;&#1083;&#1102;&#1095;&#1077;&#1074;&#1072;&#1103; &#1076;&#1086;&#1084;&#1077;&#1085;&#1085;&#1072;&#1103; &#1084;&#1086;&#1076;&#1077;&#1083;&#1100;</title><defs/><g><rect fill="#FBFCFE" height="808" style="stroke:none;stroke-width:1;" width="633" x="0" y="0"/><g class="title" data-source-line="2"><text fill="#000000" font-family="Arial" font-size="14" font-weight="bold" lengthAdjust="spacing" textLength="245.082" x="187.3657" y="23.1318">Devil - &#1050;&#1083;&#1102;&#1095;&#1077;&#1074;&#1072;&#1103; &#1076;&#1086;&#1084;&#1077;&#1085;&#1085;&#1072;&#1103; &#1084;&#1086;&#1076;&#1077;&#1083;&#1100;</text></g><!--class User--><g class="entity" data-qualified-name="User" data-source-line="6" id="ent0002"><rect fill="#FFFFFF" height="90.3945" rx="6" ry="6" style="stroke:#8EA3BD;stroke-width:0.5;" width="122.4014" x="169" y="325.0986"/><ellipse cx="183" cy="346.1973" fill="#ADD1B2" rx="10" ry="10" style="stroke:#181818;stroke-width:1;"/><path d="M184.4063,342.2598 Q184.5313,342.0879 184.6875,342.0098 Q184.8438,341.916 185.0156,341.916 Q185.3281,341.916 185.5156,342.1348 Q185.7188,342.3379 185.7188,342.8379 L185.7188,344.0254 Q185.7188,344.541 185.5156,344.7598 Q185.3281,344.9629 185.0156,344.9629 Q184.7344,344.9629 184.5625,344.8066 Q184.3906,344.6504 184.3125,344.2285 Q184.2656,343.9316 184.125,343.7754 Q183.8438,343.4629 183.3281,343.291 Q182.8281,343.1035 182.3281,343.1035 Q181.7031,343.1035 181.1719,343.3848 Q180.6406,343.6504 180.2344,344.2754 Q179.8438,344.8848 179.8438,345.7285 L179.8438,346.6348 Q179.8438,347.6504 180.5781,348.3223 Q181.3125,348.9941 182.6094,348.9941 Q183.3906,348.9941 183.9375,348.791 Q184.25,348.666 184.6094,348.3066 Q184.8281,348.0879 184.9375,348.0254 Q185.0625,347.9473 185.2188,347.9473 Q185.5,347.9473 185.7188,348.166 Q185.9375,348.3848 185.9375,348.666 Q185.9375,348.9473 185.6406,349.2754 Q185.2188,349.7598 184.5625,350.0254 Q183.6875,350.4004 182.625,350.4004 Q181.375,350.4004 180.375,349.8848 Q179.5781,349.4785 179,348.6035 Q178.4375,347.7129 178.4375,346.666 L178.4375,345.7129 Q178.4375,344.6191 178.9375,343.6816 Q179.4531,342.7285 180.3594,342.2129 Q181.2656,341.6973 182.2656,341.6973 Q182.875,341.6973 183.4063,341.8379 Q183.9375,341.9785 184.4063,342.2598 Z " fill="#000000"/><text fill="#1F2937" font-family="Arial" font-size="14" lengthAdjust="spacing" textLength="92.4014" x="196" y="343.2305">&#1055;&#1086;&#1083;&#1100;&#1079;&#1086;&#1074;&#1072;&#1090;&#1077;&#1083;&#1100;</text><text fill="#1F2937" font-family="Arial" font-size="14" lengthAdjust="spacing" textLength="29.5586" x="227.4214" y="359.3291">User</text><line style="stroke:#8EA3BD;stroke-width:0.5;" x1="170" x2="290.4014" y1="367.2959" y2="367.2959"/><text fill="#000000" font-family="Arial" font-size="14" lengthAdjust="spacing" textLength="19.0723" x="175" y="384.4277">+id</text><text fill="#000000" font-family="Arial" font-size="14" lengthAdjust="spacing" textLength="70.4307" x="175" y="400.5264">+username</text><line style="stroke:#8EA3BD;stroke-width:0.5;" x1="170" x2="290.4014" y1="407.4932" y2="407.4932"/></g><!--class Profile--><g class="entity" data-qualified-name="Profile" data-source-line="11" id="ent0003"><rect fill="#FFFFFF" height="90.3945" rx="6" ry="6" style="stroke:#8EA3BD;stroke-width:0.5;" width="90.4365" x="363.5" y="44.0986"/><ellipse cx="377.5" cy="65.1973" fill="#ADD1B2" rx="10" ry="10" style="stroke:#181818;stroke-width:1;"/><path d="M378.9063,61.2598 Q379.0313,61.0879 379.1875,61.0098 Q379.3438,60.916 379.5156,60.916 Q379.8281,60.916 380.0156,61.1348 Q380.2188,61.3379 380.2188,61.8379 L380.2188,63.0254 Q380.2188,63.541 380.0156,63.7598 Q379.8281,63.9629 379.5156,63.9629 Q379.2344,63.9629 379.0625,63.8066 Q378.8906,63.6504 378.8125,63.2285 Q378.7656,62.9316 378.625,62.7754 Q378.3438,62.4629 377.8281,62.291 Q377.3281,62.1035 376.8281,62.1035 Q376.2031,62.1035 375.6719,62.3848 Q375.1406,62.6504 374.7344,63.2754 Q374.3438,63.8848 374.3438,64.7285 L374.3438,65.6348 Q374.3438,66.6504 375.0781,67.3223 Q375.8125,67.9941 377.1094,67.9941 Q377.8906,67.9941 378.4375,67.791 Q378.75,67.666 379.1094,67.3066 Q379.3281,67.0879 379.4375,67.0254 Q379.5625,66.9473 379.7188,66.9473 Q380,66.9473 380.2188,67.166 Q380.4375,67.3848 380.4375,67.666 Q380.4375,67.9473 380.1406,68.2754 Q379.7188,68.7598 379.0625,69.0254 Q378.1875,69.4004 377.125,69.4004 Q375.875,69.4004 374.875,68.8848 Q374.0781,68.4785 373.5,67.6035 Q372.9375,66.7129 372.9375,65.666 L372.9375,64.7129 Q372.9375,63.6191 373.4375,62.6816 Q373.9531,61.7285 374.8594,61.2129 Q375.7656,60.6973 376.7656,60.6973 Q377.375,60.6973 377.9063,60.8379 Q378.4375,60.9785 378.9063,61.2598 Z " fill="#000000"/><text fill="#1F2937" font-family="Arial" font-size="14" lengthAdjust="spacing" textLength="60.4365" x="390.5" y="62.2305">&#1055;&#1088;&#1086;&#1092;&#1080;&#1083;&#1100;</text><text fill="#1F2937" font-family="Arial" font-size="14" lengthAdjust="spacing" textLength="39.6826" x="400.877" y="78.3291">Profile</text><line style="stroke:#8EA3BD;stroke-width:0.5;" x1="364.5" x2="452.9365" y1="86.2959" y2="86.2959"/><text fill="#000000" font-family="Arial" font-size="14" lengthAdjust="spacing" textLength="43.1963" x="369.5" y="103.4277">+name</text><text fill="#000000" font-family="Arial" font-size="14" lengthAdjust="spacing" textLength="47.0859" x="369.5" y="119.5264">+avatar</text><line style="stroke:#8EA3BD;stroke-width:0.5;" x1="364.5" x2="452.9365" y1="126.4932" y2="126.4932"/></g><!--class Room--><g class="entity" data-qualified-name="Room" data-source-line="16" id="ent0004"><rect fill="#FFFFFF" height="90.3945" rx="6" ry="6" style="stroke:#8EA3BD;stroke-width:0.5;" width="85.2822" x="187.5" y="473.0986"/><ellipse cx="201.5" cy="494.1973" fill="#ADD1B2" rx="10" ry="10" style="stroke:#181818;stroke-width:1;"/><path d="M202.9063,490.2598 Q203.0313,490.0879 203.1875,490.0098 Q203.3438,489.916 203.5156,489.916 Q203.8281,489.916 204.0156,490.1348 Q204.2188,490.3379 204.2188,490.8379 L204.2188,492.0254 Q204.2188,492.541 204.0156,492.7598 Q203.8281,492.9629 203.5156,492.9629 Q203.2344,492.9629 203.0625,492.8066 Q202.8906,492.6504 202.8125,492.2285 Q202.7656,491.9316 202.625,491.7754 Q202.3438,491.4629 201.8281,491.291 Q201.3281,491.1035 200.8281,491.1035 Q200.2031,491.1035 199.6719,491.3848 Q199.1406,491.6504 198.7344,492.2754 Q198.3438,492.8848 198.3438,493.7285 L198.3438,494.6348 Q198.3438,495.6504 199.0781,496.3223 Q199.8125,496.9941 201.1094,496.9941 Q201.8906,496.9941 202.4375,496.791 Q202.75,496.666 203.1094,496.3066 Q203.3281,496.0879 203.4375,496.0254 Q203.5625,495.9473 203.7188,495.9473 Q204,495.9473 204.2188,496.166 Q204.4375,496.3848 204.4375,496.666 Q204.4375,496.9473 204.1406,497.2754 Q203.7188,497.7598 203.0625,498.0254 Q202.1875,498.4004 201.125,498.4004 Q199.875,498.4004 198.875,497.8848 Q198.0781,497.4785 197.5,496.6035 Q196.9375,495.7129 196.9375,494.666 L196.9375,493.7129 Q196.9375,492.6191 197.4375,491.6816 Q197.9531,490.7285 198.8594,490.2129 Q199.7656,489.6973 200.7656,489.6973 Q201.375,489.6973 201.9063,489.8379 Q202.4375,489.9785 202.9063,490.2598 Z " fill="#000000"/><text fill="#1F2937" font-family="Arial" font-size="14" lengthAdjust="spacing" textLength="55.2822" x="214.5" y="491.2305">&#1050;&#1086;&#1084;&#1085;&#1072;&#1090;&#1072;</text><text fill="#1F2937" font-family="Arial" font-size="14" lengthAdjust="spacing" textLength="37.3447" x="223.4688" y="507.3291">Room</text><line style="stroke:#8EA3BD;stroke-width:0.5;" x1="188.5" x2="271.7822" y1="515.2959" y2="515.2959"/><text fill="#000000" font-family="Arial" font-size="14" lengthAdjust="spacing" textLength="33.8584" x="193.5" y="532.4277">+kind</text><text fill="#000000" font-family="Arial" font-size="14" lengthAdjust="spacing" textLength="62.6514" x="193.5" y="548.5264">+is_public</text><line style="stroke:#8EA3BD;stroke-width:0.5;" x1="188.5" x2="271.7822" y1="555.4932" y2="555.4932"/></g><!--class Membership--><g class="entity" data-qualified-name="Membership" data-source-line="21" id="ent0005"><rect fill="#FFFFFF" height="106.4932" rx="6" ry="6" style="stroke:#8EA3BD;stroke-width:0.5;" width="107.0273" x="355" y="324.0986"/><ellipse cx="369" cy="345.1973" fill="#ADD1B2" rx="10" ry="10" style="stroke:#181818;stroke-width:1;"/><path d="M370.4063,341.2598 Q370.5313,341.0879 370.6875,341.0098 Q370.8438,340.916 371.0156,340.916 Q371.3281,340.916 371.5156,341.1348 Q371.7188,341.3379 371.7188,341.8379 L371.7188,343.0254 Q371.7188,343.541 371.5156,343.7598 Q371.3281,343.9629 371.0156,343.9629 Q370.7344,343.9629 370.5625,343.8066 Q370.3906,343.6504 370.3125,343.2285 Q370.2656,342.9316 370.125,342.7754 Q369.8438,342.4629 369.3281,342.291 Q368.8281,342.1035 368.3281,342.1035 Q367.7031,342.1035 367.1719,342.3848 Q366.6406,342.6504 366.2344,343.2754 Q365.8438,343.8848 365.8438,344.7285 L365.8438,345.6348 Q365.8438,346.6504 366.5781,347.3223 Q367.3125,347.9941 368.6094,347.9941 Q369.3906,347.9941 369.9375,347.791 Q370.25,347.666 370.6094,347.3066 Q370.8281,347.0879 370.9375,347.0254 Q371.0625,346.9473 371.2188,346.9473 Q371.5,346.9473 371.7188,347.166 Q371.9375,347.3848 371.9375,347.666 Q371.9375,347.9473 371.6406,348.2754 Q371.2188,348.7598 370.5625,349.0254 Q369.6875,349.4004 368.625,349.4004 Q367.375,349.4004 366.375,348.8848 Q365.5781,348.4785 365,347.6035 Q364.4375,346.7129 364.4375,345.666 L364.4375,344.7129 Q364.4375,343.6191 364.9375,342.6816 Q365.4531,341.7285 366.3594,341.2129 Q367.2656,340.6973 368.2656,340.6973 Q368.875,340.6973 369.4063,340.8379 Q369.9375,340.9785 370.4063,341.2598 Z " fill="#000000"/><text fill="#1F2937" font-family="Arial" font-size="14" lengthAdjust="spacing" textLength="52.9922" x="394.0176" y="342.2305">&#1059;&#1095;&#1072;&#1089;&#1090;&#1080;&#1077;</text><text fill="#1F2937" font-family="Arial" font-size="14" lengthAdjust="spacing" textLength="77.0273" x="382" y="358.3291">Membership</text><line style="stroke:#8EA3BD;stroke-width:0.5;" x1="356" x2="461.0273" y1="366.2959" y2="366.2959"/><text fill="#000000" font-family="Arial" font-size="14" lengthAdjust="spacing" textLength="68.0928" x="361" y="383.4277">+nickname</text><text fill="#000000" font-family="Arial" font-size="14" lengthAdjust="spacing" textLength="72.7891" x="361" y="399.5264">+is_banned</text><text fill="#000000" font-family="Arial" font-size="14" lengthAdjust="spacing" textLength="80.5547" x="361" y="415.625">+muted_until</text><line style="stroke:#8EA3BD;stroke-width:0.5;" x1="356" x2="461.0273" y1="422.5918" y2="422.5918"/></g><!--class Role--><g class="entity" data-qualified-name="Role" data-source-line="27" id="ent0006"><rect fill="#FFFFFF" height="90.3945" rx="6" ry="6" style="stroke:#8EA3BD;stroke-width:0.5;" width="94.8652" x="529" y="395.0986"/><ellipse cx="557.5252" cy="416.1973" fill="#ADD1B2" rx="10" ry="10" style="stroke:#181818;stroke-width:1;"/><path d="M558.9315,412.2598 Q559.0565,412.0879 559.2127,412.0098 Q559.369,411.916 559.5409,411.916 Q559.8534,411.916 560.0409,412.1348 Q560.244,412.3379 560.244,412.8379 L560.244,414.0254 Q560.244,414.541 560.0409,414.7598 Q559.8534,414.9629 559.5409,414.9629 Q559.2596,414.9629 559.0877,414.8066 Q558.9159,414.6504 558.8377,414.2285 Q558.7909,413.9316 558.6502,413.7754 Q558.369,413.4629 557.8534,413.291 Q557.3534,413.1035 556.8534,413.1035 Q556.2284,413.1035 555.6971,413.3848 Q555.1659,413.6504 554.7596,414.2754 Q554.369,414.8848 554.369,415.7285 L554.369,416.6348 Q554.369,417.6504 555.1034,418.3223 Q555.8377,418.9941 557.1346,418.9941 Q557.9159,418.9941 558.4627,418.791 Q558.7752,418.666 559.1346,418.3066 Q559.3534,418.0879 559.4627,418.0254 Q559.5877,417.9473 559.744,417.9473 Q560.0252,417.9473 560.244,418.166 Q560.4627,418.3848 560.4627,418.666 Q560.4627,418.9473 560.1659,419.2754 Q559.744,419.7598 559.0877,420.0254 Q558.2127,420.4004 557.1502,420.4004 Q555.9002,420.4004 554.9002,419.8848 Q554.1034,419.4785 553.5252,418.6035 Q552.9627,417.7129 552.9627,416.666 L552.9627,415.7129 Q552.9627,414.6191 553.4627,413.6816 Q553.9784,412.7285 554.8846,412.2129 Q555.7909,411.6973 556.7909,411.6973 Q557.4002,411.6973 557.9315,411.8379 Q558.4627,411.9785 558.9315,412.2598 Z " fill="#000000"/><text fill="#1F2937" font-family="Arial" font-size="14" lengthAdjust="spacing" textLength="32.5869" x="573.7531" y="413.2305">&#1056;&#1086;&#1083;&#1100;</text><text fill="#1F2937" font-family="Arial" font-size="14" lengthAdjust="spacing" textLength="28.793" x="575.65" y="429.3291">Role</text><line style="stroke:#8EA3BD;stroke-width:0.5;" x1="530" x2="622.8652" y1="437.2959" y2="437.2959"/><text fill="#000000" font-family="Arial" font-size="14" lengthAdjust="spacing" textLength="43.1963" x="535" y="454.4277">+name</text><text fill="#000000" font-family="Arial" font-size="14" lengthAdjust="spacing" textLength="82.8652" x="535" y="470.5264">+permissions</text><line style="stroke:#8EA3BD;stroke-width:0.5;" x1="530" x2="622.8652" y1="477.4932" y2="477.4932"/></g><!--class Message--><g class="entity" data-qualified-name="Message" data-source-line="32" id="ent0007"><rect fill="#FFFFFF" height="106.4932" rx="6" ry="6" style="stroke:#8EA3BD;stroke-width:0.5;" width="106.3438" x="355.5" y="606.0986"/><ellipse cx="369.5" cy="627.1973" fill="#ADD1B2" rx="10" ry="10" style="stroke:#181818;stroke-width:1;"/><path d="M370.9063,623.2598 Q371.0313,623.0879 371.1875,623.0098 Q371.3438,622.916 371.5156,622.916 Q371.8281,622.916 372.0156,623.1348 Q372.2188,623.3379 372.2188,623.8379 L372.2188,625.0254 Q372.2188,625.541 372.0156,625.7598 Q371.8281,625.9629 371.5156,625.9629 Q371.2344,625.9629 371.0625,625.8066 Q370.8906,625.6504 370.8125,625.2285 Q370.7656,624.9316 370.625,624.7754 Q370.3438,624.4629 369.8281,624.291 Q369.3281,624.1035 368.8281,624.1035 Q368.2031,624.1035 367.6719,624.3848 Q367.1406,624.6504 366.7344,625.2754 Q366.3438,625.8848 366.3438,626.7285 L366.3438,627.6348 Q366.3438,628.6504 367.0781,629.3223 Q367.8125,629.9941 369.1094,629.9941 Q369.8906,629.9941 370.4375,629.791 Q370.75,629.666 371.1094,629.3066 Q371.3281,629.0879 371.4375,629.0254 Q371.5625,628.9473 371.7188,628.9473 Q372,628.9473 372.2188,629.166 Q372.4375,629.3848 372.4375,629.666 Q372.4375,629.9473 372.1406,630.2754 Q371.7188,630.7598 371.0625,631.0254 Q370.1875,631.4004 369.125,631.4004 Q367.875,631.4004 366.875,630.8848 Q366.0781,630.4785 365.5,629.6035 Q364.9375,628.7129 364.9375,627.666 L364.9375,626.7129 Q364.9375,625.6191 365.4375,624.6816 Q365.9531,623.7285 366.8594,623.2129 Q367.7656,622.6973 368.7656,622.6973 Q369.375,622.6973 369.9063,622.8379 Q370.4375,622.9785 370.9063,623.2598 Z " fill="#000000"/><text fill="#1F2937" font-family="Arial" font-size="14" lengthAdjust="spacing" textLength="76.3438" x="382.5" y="624.2305">&#1057;&#1086;&#1086;&#1073;&#1097;&#1077;&#1085;&#1080;&#1077;</text><text fill="#1F2937" font-family="Arial" font-size="14" lengthAdjust="spacing" textLength="56.8066" x="392.2686" y="640.3291">Message</text><line style="stroke:#8EA3BD;stroke-width:0.5;" x1="356.5" x2="460.8438" y1="648.2959" y2="648.2959"/><text fill="#000000" font-family="Arial" font-size="14" lengthAdjust="spacing" textLength="54.0996" x="361.5" y="665.4277">+content</text><text fill="#000000" font-family="Arial" font-size="14" lengthAdjust="spacing" textLength="65.7822" x="361.5" y="681.5264">+edited_at</text><text fill="#000000" font-family="Arial" font-size="14" lengthAdjust="spacing" textLength="72.0029" x="361.5" y="697.625">+is_deleted</text><line style="stroke:#8EA3BD;stroke-width:0.5;" x1="356.5" x2="460.8438" y1="704.5918" y2="704.5918"/></g><!--class Attachment--><g class="entity" data-qualified-name="Attachment" data-source-line="38" id="ent0008"><rect fill="#FFFFFF" height="106.4932" rx="6" ry="6" style="stroke:#8EA3BD;stroke-width:0.5;" width="100.8135" x="526" y="606.0986"/><ellipse cx="540" cy="627.1973" fill="#ADD1B2" rx="10" ry="10" style="stroke:#181818;stroke-width:1;"/><path d="M541.4063,623.2598 Q541.5313,623.0879 541.6875,623.0098 Q541.8438,622.916 542.0156,622.916 Q542.3281,622.916 542.5156,623.1348 Q542.7188,623.3379 542.7188,623.8379 L542.7188,625.0254 Q542.7188,625.541 542.5156,625.7598 Q542.3281,625.9629 542.0156,625.9629 Q541.7344,625.9629 541.5625,625.8066 Q541.3906,625.6504 541.3125,625.2285 Q541.2656,624.9316 541.125,624.7754 Q540.8438,624.4629 540.3281,624.291 Q539.8281,624.1035 539.3281,624.1035 Q538.7031,624.1035 538.1719,624.3848 Q537.6406,624.6504 537.2344,625.2754 Q536.8438,625.8848 536.8438,626.7285 L536.8438,627.6348 Q536.8438,628.6504 537.5781,629.3223 Q538.3125,629.9941 539.6094,629.9941 Q540.3906,629.9941 540.9375,629.791 Q541.25,629.666 541.6094,629.3066 Q541.8281,629.0879 541.9375,629.0254 Q542.0625,628.9473 542.2188,628.9473 Q542.5,628.9473 542.7188,629.166 Q542.9375,629.3848 542.9375,629.666 Q542.9375,629.9473 542.6406,630.2754 Q542.2188,630.7598 541.5625,631.0254 Q540.6875,631.4004 539.625,631.4004 Q538.375,631.4004 537.375,630.8848 Q536.5781,630.4785 536,629.6035 Q535.4375,628.7129 535.4375,627.666 L535.4375,626.7129 Q535.4375,625.6191 535.9375,624.6816 Q536.4531,623.7285 537.3594,623.2129 Q538.2656,622.6973 539.2656,622.6973 Q539.875,622.6973 540.4063,622.8379 Q540.9375,622.9785 541.4063,623.2598 Z " fill="#000000"/><text fill="#1F2937" font-family="Arial" font-size="14" lengthAdjust="spacing" textLength="65.7822" x="555.5156" y="624.2305">&#1042;&#1083;&#1086;&#1078;&#1077;&#1085;&#1080;&#1077;</text><text fill="#1F2937" font-family="Arial" font-size="14" lengthAdjust="spacing" textLength="70.8135" x="553" y="640.3291">Attachment</text><line style="stroke:#8EA3BD;stroke-width:0.5;" x1="527" x2="625.8135" y1="648.2959" y2="648.2959"/><text fill="#000000" font-family="Arial" font-size="14" lengthAdjust="spacing" textLength="61.0928" x="532" y="665.4277">+filename</text><text fill="#000000" font-family="Arial" font-size="14" lengthAdjust="spacing" textLength="88.3477" x="532" y="681.5264">+content_type</text><text fill="#000000" font-family="Arial" font-size="14" lengthAdjust="spacing" textLength="58.7549" x="532" y="697.625">+file_size</text><line style="stroke:#8EA3BD;stroke-width:0.5;" x1="527" x2="625.8135" y1="704.5918" y2="704.5918"/></g><!--class ReadState--><g class="entity" data-qualified-name="ReadState" data-source-line="44" id="ent0009"><rect fill="#FFFFFF" height="74.2959" rx="6" ry="6" style="stroke:#8EA3BD;stroke-width:0.5;" width="100.4648" x="358.5" y="192.0986"/><ellipse cx="372.5" cy="213.1973" fill="#ADD1B2" rx="10" ry="10" style="stroke:#181818;stroke-width:1;"/><path d="M373.9063,209.2598 Q374.0313,209.0879 374.1875,209.0098 Q374.3438,208.916 374.5156,208.916 Q374.8281,208.916 375.0156,209.1348 Q375.2188,209.3379 375.2188,209.8379 L375.2188,211.0254 Q375.2188,211.541 375.0156,211.7598 Q374.8281,211.9629 374.5156,211.9629 Q374.2344,211.9629 374.0625,211.8066 Q373.8906,211.6504 373.8125,211.2285 Q373.7656,210.9316 373.625,210.7754 Q373.3438,210.4629 372.8281,210.291 Q372.3281,210.1035 371.8281,210.1035 Q371.2031,210.1035 370.6719,210.3848 Q370.1406,210.6504 369.7344,211.2754 Q369.3438,211.8848 369.3438,212.7285 L369.3438,213.6348 Q369.3438,214.6504 370.0781,215.3223 Q370.8125,215.9941 372.1094,215.9941 Q372.8906,215.9941 373.4375,215.791 Q373.75,215.666 374.1094,215.3066 Q374.3281,215.0879 374.4375,215.0254 Q374.5625,214.9473 374.7188,214.9473 Q375,214.9473 375.2188,215.166 Q375.4375,215.3848 375.4375,215.666 Q375.4375,215.9473 375.1406,216.2754 Q374.7188,216.7598 374.0625,217.0254 Q373.1875,217.4004 372.125,217.4004 Q370.875,217.4004 369.875,216.8848 Q369.0781,216.4785 368.5,215.6035 Q367.9375,214.7129 367.9375,213.666 L367.9375,212.7129 Q367.9375,211.6191 368.4375,210.6816 Q368.9531,209.7285 369.8594,209.2129 Q370.7656,208.6973 371.7656,208.6973 Q372.375,208.6973 372.9063,208.8379 Q373.4375,208.9785 373.9063,209.2598 Z " fill="#000000"/><text fill="#1F2937" font-family="Arial" font-size="14" lengthAdjust="spacing" textLength="70.4648" x="385.5" y="210.2305">&#1055;&#1088;&#1086;&#1095;&#1090;&#1077;&#1085;&#1080;&#1077;</text><text fill="#1F2937" font-family="Arial" font-size="14" lengthAdjust="spacing" textLength="66.1582" x="387.6533" y="226.3291">ReadState</text><line style="stroke:#8EA3BD;stroke-width:0.5;" x1="359.5" x2="457.9648" y1="234.2959" y2="234.2959"/><text fill="#000000" font-family="Arial" font-size="14" lengthAdjust="spacing" textLength="85.2305" x="364.5" y="251.4277">+last_read_at</text><line style="stroke:#8EA3BD;stroke-width:0.5;" x1="359.5" x2="457.9648" y1="258.3945" y2="258.3945"/></g><!--class Audit--><g class="entity" data-qualified-name="Audit" data-source-line="48" id="ent0010"><rect fill="#FFFFFF" height="106.4932" rx="6" ry="6" style="stroke:#8EA3BD;stroke-width:0.5;" width="97.71" x="7" y="465.0986"/><ellipse cx="21" cy="486.1973" fill="#ADD1B2" rx="10" ry="10" style="stroke:#181818;stroke-width:1;"/><path d="M22.4063,482.2598 Q22.5313,482.0879 22.6875,482.0098 Q22.8438,481.916 23.0156,481.916 Q23.3281,481.916 23.5156,482.1348 Q23.7188,482.3379 23.7188,482.8379 L23.7188,484.0254 Q23.7188,484.541 23.5156,484.7598 Q23.3281,484.9629 23.0156,484.9629 Q22.7344,484.9629 22.5625,484.8066 Q22.3906,484.6504 22.3125,484.2285 Q22.2656,483.9316 22.125,483.7754 Q21.8438,483.4629 21.3281,483.291 Q20.8281,483.1035 20.3281,483.1035 Q19.7031,483.1035 19.1719,483.3848 Q18.6406,483.6504 18.2344,484.2754 Q17.8438,484.8848 17.8438,485.7285 L17.8438,486.6348 Q17.8438,487.6504 18.5781,488.3223 Q19.3125,488.9941 20.6094,488.9941 Q21.3906,488.9941 21.9375,488.791 Q22.25,488.666 22.6094,488.3066 Q22.8281,488.0879 22.9375,488.0254 Q23.0625,487.9473 23.2188,487.9473 Q23.5,487.9473 23.7188,488.166 Q23.9375,488.3848 23.9375,488.666 Q23.9375,488.9473 23.6406,489.2754 Q23.2188,489.7598 22.5625,490.0254 Q21.6875,490.4004 20.625,490.4004 Q19.375,490.4004 18.375,489.8848 Q17.5781,489.4785 17,488.6035 Q16.4375,487.7129 16.4375,486.666 L16.4375,485.7129 Q16.4375,484.6191 16.9375,483.6816 Q17.4531,482.7285 18.3594,482.2129 Q19.2656,481.6973 20.2656,481.6973 Q20.875,481.6973 21.4063,481.8379 Q21.9375,481.9785 22.4063,482.2598 Z " fill="#000000"/><text fill="#1F2937" font-family="Arial" font-size="14" lengthAdjust="spacing" textLength="38.7393" x="48.4854" y="483.2305">&#1040;&#1091;&#1076;&#1080;&#1090;</text><text fill="#1F2937" font-family="Arial" font-size="14" lengthAdjust="spacing" textLength="67.71" x="34" y="499.3291">AuditEvent</text><line style="stroke:#8EA3BD;stroke-width:0.5;" x1="8" x2="103.71" y1="507.2959" y2="507.2959"/><text fill="#000000" font-family="Arial" font-size="14" lengthAdjust="spacing" textLength="45.5342" x="13" y="524.4277">+action</text><text fill="#000000" font-family="Arial" font-size="14" lengthAdjust="spacing" textLength="58.748" x="13" y="540.5264">+success</text><text fill="#000000" font-family="Arial" font-size="14" lengthAdjust="spacing" textLength="73.5547" x="13" y="556.625">+request_id</text><line style="stroke:#8EA3BD;stroke-width:0.5;" x1="8" x2="103.71" y1="563.5918" y2="563.5918"/></g><!--link User to Profile--><g class="link" data-entity-1="ent0002" data-entity-2="ent0003" data-link-type="association" data-source-line="54" id="lnk11"><path codeLine="54" d="M210,324.9486 C210,245.5186 210,89.0986 210,89.0986 C210,89.0986 304.89,89.0986 363.46,89.0986" fill="none" id="User-Profile" style="stroke:#5F6F86;stroke-width:1.15;"/><text fill="#4B5563" font-family="Arial" font-size="12" lengthAdjust="spacing" textLength="6.6738" x="200.2132" y="314.6834">1</text><text fill="#4B5563" font-family="Arial" font-size="12" lengthAdjust="spacing" textLength="6.6738" x="348.924" y="101.5483">1</text></g><!--link User to Membership--><g class="link" data-entity-1="ent0002" data-entity-2="ent0005" data-link-type="association" data-source-line="55" id="lnk12"><path codeLine="55" d="M291.43,370.0986 C312,370.0986 334.77,370.0986 354.71,370.0986" fill="none" id="User-Membership" style="stroke:#5F6F86;stroke-width:1.15;"/><text fill="#4B5563" font-family="Arial" font-size="12" lengthAdjust="spacing" textLength="6.6738" x="299.299" y="382.1713">1</text><text fill="#4B5563" font-family="Arial" font-size="12" lengthAdjust="spacing" textLength="4.6699" x="342.2164" y="381.3013">*</text></g><!--link Room to Membership--><g class="link" data-entity-1="ent0004" data-entity-2="ent0005" data-link-type="association" data-source-line="56" id="lnk13"><path codeLine="56" d="M230,472.8686 C230,448.1786 230,422.5986 230,422.5986 C230,422.5986 302.37,422.5986 354.94,422.5986" fill="none" id="Room-Membership" style="stroke:#5F6F86;stroke-width:1.15;"/><text fill="#4B5563" font-family="Arial" font-size="12" lengthAdjust="spacing" textLength="6.6738" x="223.5356" y="462.5902">1</text><text fill="#4B5563" font-family="Arial" font-size="12" lengthAdjust="spacing" textLength="4.6699" x="342.4816" y="441.8404">*</text></g><!--link Room to Role--><g class="link" data-entity-1="ent0004" data-entity-2="ent0006" data-link-type="association" data-source-line="57" id="lnk14"><path codeLine="57" d="M272.84,481.0986 C337.84,481.0986 460.98,481.0986 528.77,481.0986" fill="none" id="Room-Role" style="stroke:#5F6F86;stroke-width:1.15;"/><text fill="#4B5563" font-family="Arial" font-size="12" lengthAdjust="spacing" textLength="6.6738" x="280.7524" y="487.147">1</text><text fill="#4B5563" font-family="Arial" font-size="12" lengthAdjust="spacing" textLength="4.6699" x="516.2918" y="500.5533">*</text></g><!--link Membership to Role--><g class="link" data-entity-1="ent0005" data-entity-2="ent0006" data-link-type="association" data-source-line="58" id="lnk15"><path codeLine="58" d="M462.12,412.5986 C483.53,412.5986 507.99,412.5986 528.78,412.5986" fill="none" id="Membership-Role" style="stroke:#5F6F86;stroke-width:1.15;"/><text fill="#4B5563" font-family="Arial" font-size="12" lengthAdjust="spacing" textLength="4.6699" x="469.9867" y="429.7822">*</text><text fill="#4B5563" font-family="Arial" font-size="12" lengthAdjust="spacing" textLength="4.6699" x="516.3035" y="420.2799">*</text></g><!--link Room to Message--><g class="link" data-entity-1="ent0004" data-entity-2="ent0007" data-link-type="association" data-source-line="60" id="lnk16"><path codeLine="60" d="M272.75,524.0986 C330.69,524.0986 427,524.0986 427,524.0986 C427,524.0986 427,568.0086 427,605.7386" fill="none" id="Room-Message" style="stroke:#5F6F86;stroke-width:1.15;"/><text fill="#4B5563" font-family="Arial" font-size="12" lengthAdjust="spacing" textLength="6.6738" x="280.6469" y="537.5377">1</text><text fill="#4B5563" font-family="Arial" font-size="12" lengthAdjust="spacing" textLength="4.6699" x="425.3432" y="595.5982">*</text></g><!--link User to Message--><g class="link" data-entity-1="ent0002" data-entity-2="ent0007" data-link-type="association" data-source-line="61" id="lnk17"><path codeLine="61" d="M282,415.2586 C282,496.5386 282,659.0986 282,659.0986 C282,659.0986 320.65,659.0986 355.22,659.0986" fill="none" id="User-Message" style="stroke:#5F6F86;stroke-width:1.15;"/><text fill="#4B5563" font-family="Arial" font-size="12" lengthAdjust="spacing" textLength="31.8926" x="250" y="586.0445">&#1072;&#1074;&#1090;&#1086;&#1088;</text><text fill="#4B5563" font-family="Arial" font-size="12" lengthAdjust="spacing" textLength="20.0156" x="268.663" y="434.78">0..1</text><text fill="#4B5563" font-family="Arial" font-size="12" lengthAdjust="spacing" textLength="4.6699" x="342.7802" y="671.3732">*</text></g><!--link Message to Attachment--><g class="link" data-entity-1="ent0007" data-entity-2="ent0008" data-link-type="association" data-source-line="62" id="lnk18"><path codeLine="62" d="M461.66,659.0986 C482.23,659.0986 505.67,659.0986 525.98,659.0986" fill="none" id="Message-Attachment" style="stroke:#5F6F86;stroke-width:1.15;"/><text fill="#4B5563" font-family="Arial" font-size="12" lengthAdjust="spacing" textLength="6.6738" x="469.9327" y="671.3316">1</text><text fill="#4B5563" font-family="Arial" font-size="12" lengthAdjust="spacing" textLength="4.6699" x="513.3523" y="671.4564">*</text></g><!--link User to ReadState--><g class="link" data-entity-1="ent0002" data-entity-2="ent0009" data-link-type="association" data-source-line="63" id="lnk19"><path codeLine="63" d="M251,324.9186 C251,279.6886 251,216.7686 251,216.7686 C251,216.7686 312.14,216.7686 358.23,216.7686" fill="none" id="User-ReadState" style="stroke:#5F6F86;stroke-width:1.15;"/><text fill="#4B5563" font-family="Arial" font-size="12" lengthAdjust="spacing" textLength="6.6738" x="248.0038" y="314.6485">1</text><text fill="#4B5563" font-family="Arial" font-size="12" lengthAdjust="spacing" textLength="4.6699" x="345.9158" y="227.1354">*</text></g><!--link Room to ReadState--><g class="link" data-entity-1="ent0004" data-entity-2="ent0009" data-link-type="association" data-source-line="64" id="lnk20"><path codeLine="64" d="M272.69,477.0986 C297.14,477.0986 323,477.0986 323,477.0986 C323,477.0986 323,241.4286 323,241.4286 C323,241.4286 339.66,241.4286 358.27,241.4286" fill="none" id="Room-ReadState" style="stroke:#5F6F86;stroke-width:1.15;"/><text fill="#4B5563" font-family="Arial" font-size="12" lengthAdjust="spacing" textLength="6.6738" x="280.8634" y="466.9296">1</text><text fill="#4B5563" font-family="Arial" font-size="12" lengthAdjust="spacing" textLength="4.6699" x="345.9622" y="255.7256">*</text></g><!--link Audit to User--><g class="link" data-entity-1="ent0010" data-entity-2="ent0002" data-link-type="dependency" data-source-line="66" id="lnk21"><path codeLine="66" d="M105.32,469.0986 C139.54,469.0986 179,469.0986 179,469.0986 C179,469.0986 179,447.3586 179,421.2486" fill="none" id="Audit-to-User" style="stroke:#5F6F86;stroke-width:1.15;stroke-dasharray:7,7;"/><polygon fill="#5F6F86" points="179,415.2486,175,424.2486,179,420.2486,183,424.2486,179,415.2486" style="stroke:#5F6F86;stroke-width:1.15;"/><text fill="#4B5563" font-family="Arial" font-size="12" lengthAdjust="spacing" textLength="26.6777" x="142.08" y="481.3545">actor</text></g><!--link Audit to Room--><g class="link" data-entity-1="ent0010" data-entity-2="ent0004" data-link-type="dependency" data-source-line="67" id="lnk22"><path codeLine="67" d="M105.4,518.0986 C131.22,518.0986 156.51,518.0986 181.28,518.0986" fill="none" id="Audit-to-Room" style="stroke:#5F6F86;stroke-width:1.15;stroke-dasharray:7,7;"/><polygon fill="#5F6F86" points="187.28,518.0986,178.28,514.0986,182.28,518.0986,178.28,522.0986,187.28,518.0986" style="stroke:#5F6F86;stroke-width:1.15;"/><text fill="#4B5563" font-family="Arial" font-size="12" lengthAdjust="spacing" textLength="80.707" x="65.34" y="530.3545">room metadata</text></g><!--link Audit to Message--><g class="link" data-entity-1="ent0010" data-entity-2="ent0007" data-link-type="dependency" data-source-line="68" id="lnk23"><path codeLine="68" d="M105.07,567.0986 C198.12,567.0986 391,567.0986 391,567.0986 C391,567.0986 391,579.4986 391,599.8486" fill="none" id="Audit-to-Message" style="stroke:#5F6F86;stroke-width:1.15;stroke-dasharray:7,7;"/><polygon fill="#5F6F86" points="391,605.8486,395,596.8486,391,600.8486,387,596.8486,391,605.8486" style="stroke:#5F6F86;stroke-width:1.15;"/><text fill="#4B5563" font-family="Arial" font-size="12" lengthAdjust="spacing" textLength="102.0586" x="268.41" y="571.8545">message metadata</text></g><g class="legend" data-source-line="70"><rect fill="#FFFFFF" height="58.2959" rx="6" ry="6" style="stroke:#D6DEEA;stroke-width:1;" width="231.3818" x="376.4316" y="730.5918"/><text fill="#465569" font-family="Arial" font-size="14" lengthAdjust="spacing" textLength="88.1152" x="448.0649" y="748.7236">&#1062;&#1077;&#1083;&#1100; &#1089;&#1083;&#1072;&#1081;&#1076;&#1072;:</text><text fill="#465569" font-family="Arial" font-size="14" lengthAdjust="spacing" textLength="221.3818" x="381.4316" y="764.8223">&#1086;&#1073;&#1098;&#1103;&#1089;&#1085;&#1080;&#1090;&#1100;, &#1082;&#1072;&#1082;&#1080;&#1077; &#1089;&#1091;&#1097;&#1085;&#1086;&#1089;&#1090;&#1080; &#1083;&#1077;&#1078;&#1072;&#1090;</text><text fill="#465569" font-family="Arial" font-size="14" lengthAdjust="spacing" textLength="213.999" x="385.123" y="780.9209">&#1074; &#1086;&#1089;&#1085;&#1086;&#1074;&#1077; &#1095;&#1072;&#1090;&#1072;, &#1076;&#1086;&#1089;&#1090;&#1091;&#1087;&#1072; &#1080; &#1072;&#1091;&#1076;&#1080;&#1090;&#1072;.</text></g><?plantuml-src ZLHDRnCn4BtlhnXoX6PLhZaW8S610n9gnQrIvEnE6wkxtc1x8m52wWTI1QeeujWB82JEIzH2QPhm5-n_nDZU9Ax20KNAZcVydjzys7Uuo8ewH-Zh8PQOZkgoI3JN1S8Z7FC2kc3EpTH-i2VcqanCOy_0N9YvkQ7bZ7xUSKEE2t9CxMbIuAu6NO7aUqCDEPUOQLw9HErpCMAIbP0LJAc7Mai-g3K-oIgnpLyXR2Q9Zq37V2O-uZA_wElEF0hSE-AvGja1fi0Py3e1kCTpzr_JMh0IapSHYpqmS_lMN0NiCrdjyW8zlBK3WyVHbusPPZ9cEFU9pho2PaTiLLNfuSu8M4hAdyzLVrGF2fx5y6zKjCOU4lZANEw8frWEKAeX7tcIrRALmRFzXHIY6p0Xq7ENLAMyNmlDYvZzIoYIazLcvOpRAOrGbbmfgh-AeLy9EZS_x3lVn5QSKcmFMsNU3bJK7er2EnDpxfGmtKhCiK1onCoVp9IOVwvugSyi6vR4uAbNoy3kkh0GsvxKroz7k8Zr5Ot6UbDF_4YqHsmXoxSrqsqH5gjm0C5qNvBFoOvuFjfZ6jahUqGIQyhhyNWfqIq3c8NH9KlLMKPLSQR45pKIAVU9-q7itEz0j-i_xMJTzj_jHDrE_FJyNyXrD8a6nVdYq3-uVElQupVJT2q4FJ2DcL01v_OWMJWZYbMBrf9OrdPTw3AIXFgbwODmINj0LQnavFRO7aZtAL6pdAvT55xfB5jhkOaUbpqKUNXRg1VcUtWOm1xIt3NcDxMqwRc0c-xtzepyCzTaUxe1vffsNBkHeUtsc8P_HYNmjnC8VKbJI_VSWIVW0YvChm_jFWaFm8P_-Ho2PkUFQS01cyKScIPDI5jG-1S0?></g></svg>