<?plantuml 1.2026.1?><svg xmlns="http://www.w3.org/2000/svg" xmlns:xlink="http://www.w3.org/1999/xlink" contentStyleType="text/css" data-diagram-type="SEQUENCE" height="943px" preserveAspectRatio="none" style="width:1306px;height:943px;background:#FBFCFE;" version="1.1" viewBox="0 0 1306 943" width="1306px" zoomAndPan="magnify"><title>Devil - &#1057;&#1094;&#1077;&#1085;&#1072;&#1088;&#1080;&#1081; &#1086;&#1090;&#1087;&#1088;&#1072;&#1074;&#1082;&#1080; &#1089;&#1086;&#1086;&#1073;&#1097;&#1077;&#1085;&#1080;&#1103;</title><defs/><g><rect fill="#FBFCFE" height="943" style="stroke:none;stroke-width:1;" width="1306" x="0" y="0"/><text fill="#000000" font-family="Arial" font-size="14" font-weight="bold" lengthAdjust="spacing" textLength="264.9814" x="516.6072" y="28.1318">Devil - &#1057;&#1094;&#1077;&#1085;&#1072;&#1088;&#1080;&#1081; &#1086;&#1090;&#1087;&#1088;&#1072;&#1074;&#1082;&#1080; &#1089;&#1086;&#1086;&#1073;&#1097;&#1077;&#1085;&#1080;&#1103;</text><rect fill="#F5F8FC" height="73.7949" rx="6" ry="6" style="stroke:#C7D2E3;stroke-width:1.5;" width="209.4375" x="296.6011" y="204.5938"/><rect fill="#F5F8FC" height="301.083" rx="6" ry="6" style="stroke:#C7D2E3;stroke-width:1.5;" width="1182.9712" x="106.2246" y="458.9805"/><path d="M106.2246,658.7695 L1289.1958,658.7695 L1289.1958,754.0635 A6,6 0 0 1 1283.1958,760.0635 L112.2246,760.0635 A6,6 0 0 1 106.2246,754.0635 L106.2246,658.7695" fill="#F5F8FC" style="stroke:none;stroke-width:1;"/><g class="participant-lifeline" data-entity-uid="part1" data-qualified-name="User" id="part1-lifeline"><g><title>............</title><rect fill="#000000" fill-opacity="0.00000" height="658.8662" width="8" x="50.2007" y="118.1973"/><line style="stroke:#181818;stroke-width:0.5;stroke-dasharray:5,5;" x1="54" x2="54" y1="118.1973" y2="777.0635"/></g></g><g class="participant-lifeline" data-entity-uid="part2" data-qualified-name="Composer" id="part2-lifeline"><g><title>MessageInput</title><rect fill="#000000" fill-opacity="0.00000" height="658.8662" width="8" x="163.1968" y="118.1973"/><line style="stroke:#181818;stroke-width:0.5;stroke-dasharray:5,5;" x1="166.2246" x2="166.2246" y1="118.1973" y2="777.0635"/></g></g><g class="participant-lifeline" data-entity-uid="part3" data-qualified-name="Controller" id="part3-lifeline"><g><title>ChatRoomPage</title><rect fill="#000000" fill-opacity="0.00000" height="658.8662" width="8" x="359.4077" y="118.1973"/><line style="stroke:#181818;stroke-width:0.5;stroke-dasharray:5,5;" x1="362.6011" x2="362.6011" y1="118.1973" y2="777.0635"/></g></g><g class="participant-lifeline" data-entity-uid="part4" data-qualified-name="Ws" id="part4-lifeline"><g><title>Chat WebSocket</title><rect fill="#000000" fill-opacity="0.00000" height="658.8662" width="8" x="538.8374" y="118.1973"/><line style="stroke:#181818;stroke-width:0.5;stroke-dasharray:5,5;" x1="542.3135" x2="542.3135" y1="118.1973" y2="777.0635"/></g></g><g class="participant-lifeline" data-entity-uid="part5" data-qualified-name="Consumer" id="part5-lifeline"><g><title>ChatConsumer</title><rect fill="#000000" fill-opacity="0.00000" height="658.8662" width="8" x="686.4858" y="118.1973"/><line style="stroke:#181818;stroke-width:0.5;stroke-dasharray:5,5;" x1="690.4102" x2="690.4102" y1="118.1973" y2="777.0635"/></g></g><g class="participant-lifeline" data-entity-uid="part6" data-qualified-name="Permission" id="part6-lifeline"><g><title>Permission service</title><rect fill="#000000" fill-opacity="0.00000" height="658.8662" width="8" x="835.2417" y="118.1973"/><line style="stroke:#181818;stroke-width:0.5;stroke-dasharray:5,5;" x1="838.5039" x2="838.5039" y1="118.1973" y2="777.0635"/></g></g><g class="participant-lifeline" data-entity-uid="part7" data-qualified-name="Db" id="part7-lifeline"><g><title>PostgreSQL</title><rect fill="#000000" fill-opacity="0.00000" height="658.8662" width="8" x="980.5405" y="118.1973"/><line style="stroke:#181818;stroke-width:0.5;stroke-dasharray:5,5;" x1="984.4097" x2="984.4097" y1="118.1973" y2="777.0635"/></g></g><g class="participant-lifeline" data-entity-uid="part8" data-qualified-name="Redis" id="part8-lifeline"><g><title>Redis</title><rect fill="#000000" fill-opacity="0.00000" height="658.8662" width="8" x="1083.3091" y="118.1973"/><line style="stroke:#181818;stroke-width:0.5;stroke-dasharray:5,5;" x1="1086.6714" x2="1086.6714" y1="118.1973" y2="777.0635"/></g></g><g class="participant-lifeline" data-entity-uid="part9" data-qualified-name="Clients" id="part9-lifeline"><g><title>...... .......</title><rect fill="#000000" fill-opacity="0.00000" height="658.8662" width="8" x="1216.7075" y="118.1973"/><line style="stroke:#181818;stroke-width:0.5;stroke-dasharray:5,5;" x1="1220.2192" x2="1220.2192" y1="118.1973" y2="777.0635"/></g></g><g class="participant participant-head" data-entity-uid="part1" data-qualified-name="User" id="part1-head"><text fill="#111827" font-family="Arial" font-size="14" lengthAdjust="spacing" textLength="92.4014" x="5" y="115.2305">&#1055;&#1086;&#1083;&#1100;&#1079;&#1086;&#1074;&#1072;&#1090;&#1077;&#1083;&#1100;</text><ellipse cx="54.2007" cy="50.5986" fill="#FFFFFF" rx="8" ry="8" style="stroke:#64748B;stroke-width:0.5;"/><path d="M54.2007,58.5986 L54.2007,85.5986 M41.2007,66.5986 L67.2007,66.5986 M54.2007,85.5986 L41.2007,100.5986 M54.2007,85.5986 L67.2007,100.5986" fill="none" style="stroke:#64748B;stroke-width:0.5;"/></g><g class="participant participant-tail" data-entity-uid="part1" data-qualified-name="User" id="part1-tail"><text fill="#111827" font-family="Arial" font-size="14" lengthAdjust="spacing" textLength="92.4014" x="5" y="789.1953">&#1055;&#1086;&#1083;&#1100;&#1079;&#1086;&#1074;&#1072;&#1090;&#1077;&#1083;&#1100;</text><ellipse cx="54.2007" cy="800.6621" fill="#FFFFFF" rx="8" ry="8" style="stroke:#64748B;stroke-width:0.5;"/><path d="M54.2007,808.6621 L54.2007,835.6621 M41.2007,816.6621 L67.2007,816.6621 M54.2007,835.6621 L41.2007,850.6621 M54.2007,835.6621 L67.2007,850.6621" fill="none" style="stroke:#64748B;stroke-width:0.5;"/></g><g class="participant participant-head" data-entity-uid="part2" data-qualified-name="Composer" id="part2-head"><rect fill="#E2E2F0" height="46.1973" rx="6" ry="6" style="stroke:#181818;stroke-width:0.5;" width="101.9443" x="116.2246" y="71"/><text fill="#000000" font-family="Arial" font-size="14" lengthAdjust="spacing" textLength="87.9443" x="123.2246" y="91.1318">MessageInput</text><text fill="#000000" font-family="Arial" font-size="14" lengthAdjust="spacing" textLength="36.5723" x="148.9106" y="107.2305">React</text></g><g class="participant participant-tail" data-entity-uid="part2" data-qualified-name="Composer" id="part2-tail"><rect fill="#E2E2F0" height="46.1973" rx="6" ry="6" style="stroke:#181818;stroke-width:0.5;" width="101.9443" x="116.2246" y="776.0635"/><text fill="#000000" font-family="Arial" font-size="14" lengthAdjust="spacing" textLength="87.9443" x="123.2246" y="796.1953">MessageInput</text><text fill="#000000" font-family="Arial" font-size="14" lengthAdjust="spacing" textLength="36.5723" x="148.9106" y="812.2939">React</text></g><g class="participant participant-head" data-entity-uid="part3" data-qualified-name="Controller" id="part3-head"><rect fill="#E2E2F0" height="46.1973" rx="6" ry="6" style="stroke:#181818;stroke-width:0.5;" width="113.6133" x="306.6011" y="71"/><text fill="#000000" font-family="Arial" font-size="14" lengthAdjust="spacing" textLength="99.6133" x="313.6011" y="91.1318">ChatRoomPage</text><text fill="#000000" font-family="Arial" font-size="14" lengthAdjust="spacing" textLength="57.5791" x="334.6182" y="107.2305">controller</text></g><g class="participant participant-tail" data-entity-uid="part3" data-qualified-name="Controller" id="part3-tail"><rect fill="#E2E2F0" height="46.1973" rx="6" ry="6" style="stroke:#181818;stroke-width:0.5;" width="113.6133" x="306.6011" y="776.0635"/><text fill="#000000" font-family="Arial" font-size="14" lengthAdjust="spacing" textLength="99.6133" x="313.6011" y="796.1953">ChatRoomPage</text><text fill="#000000" font-family="Arial" font-size="14" lengthAdjust="spacing" textLength="57.5791" x="334.6182" y="812.2939">controller</text></g><g class="participant participant-head" data-entity-uid="part4" data-qualified-name="Ws" id="part4-head"><rect fill="#E2E2F0" height="46.1973" rx="6" ry="6" style="stroke:#181818;stroke-width:0.5;" width="119.0479" x="483.3135" y="71"/><text fill="#000000" font-family="Arial" font-size="14" lengthAdjust="spacing" textLength="105.0479" x="490.3135" y="91.1318">Chat WebSocket</text><text fill="#000000" font-family="Arial" font-size="14" lengthAdjust="spacing" textLength="55.2412" x="515.2168" y="107.2305">/ws/chat/</text></g><g class="participant participant-tail" data-entity-uid="part4" data-qualified-name="Ws" id="part4-tail"><rect fill="#E2E2F0" height="46.1973" rx="6" ry="6" style="stroke:#181818;stroke-width:0.5;" width="119.0479" x="483.3135" y="776.0635"/><text fill="#000000" font-family="Arial" font-size="14" lengthAdjust="spacing" textLength="105.0479" x="490.3135" y="796.1953">Chat WebSocket</text><text fill="#000000" font-family="Arial" font-size="14" lengthAdjust="spacing" textLength="55.2412" x="515.2168" y="812.2939">/ws/chat/</text></g><g class="participant participant-head" data-entity-uid="part5" data-qualified-name="Consumer" id="part5-head"><rect fill="#E2E2F0" height="30.0986" rx="6" ry="6" style="stroke:#181818;stroke-width:0.5;" width="108.1514" x="636.4102" y="87.0986"/><text fill="#000000" font-family="Arial" font-size="14" lengthAdjust="spacing" textLength="94.1514" x="643.4102" y="107.2305">ChatConsumer</text></g><g class="participant participant-tail" data-entity-uid="part5" data-qualified-name="Consumer" id="part5-tail"><rect fill="#E2E2F0" height="30.0986" rx="6" ry="6" style="stroke:#181818;stroke-width:0.5;" width="108.1514" x="636.4102" y="776.0635"/><text fill="#000000" font-family="Arial" font-size="14" lengthAdjust="spacing" textLength="94.1514" x="643.4102" y="796.1953">ChatConsumer</text></g><g class="participant participant-head" data-entity-uid="part6" data-qualified-name="Permission" id="part6-head"><rect fill="#E2E2F0" height="30.0986" rx="6" ry="6" style="stroke:#181818;stroke-width:0.5;" width="131.4756" x="773.5039" y="87.0986"/><text fill="#000000" font-family="Arial" font-size="14" lengthAdjust="spacing" textLength="117.4756" x="780.5039" y="107.2305">Permission service</text></g><g class="participant participant-tail" data-entity-uid="part6" data-qualified-name="Permission" id="part6-tail"><rect fill="#E2E2F0" height="30.0986" rx="6" ry="6" style="stroke:#181818;stroke-width:0.5;" width="131.4756" x="773.5039" y="776.0635"/><text fill="#000000" font-family="Arial" font-size="14" lengthAdjust="spacing" textLength="117.4756" x="780.5039" y="796.1953">Permission service</text></g><g class="participant participant-head" data-entity-uid="part7" data-qualified-name="Db" id="part7-head"><text fill="#1F2937" font-family="Arial" font-size="14" lengthAdjust="spacing" textLength="76.2617" x="943.4097" y="115.2305">PostgreSQL</text><path d="M966.5405,66.0986 C966.5405,56.0986 984.5405,56.0986 984.5405,56.0986 C984.5405,56.0986 1002.5405,56.0986 1002.5405,66.0986 L1002.5405,92.0986 C1002.5405,102.0986 984.5405,102.0986 984.5405,102.0986 C984.5405,102.0986 966.5405,102.0986 966.5405,92.0986 L966.5405,66.0986" fill="#FFFFFF" style="stroke:#8EA3BD;stroke-width:0.5;"/><path d="M966.5405,66.0986 C966.5405,76.0986 984.5405,76.0986 984.5405,76.0986 C984.5405,76.0986 1002.5405,76.0986 1002.5405,66.0986" fill="none" style="stroke:#8EA3BD;stroke-width:0.5;"/></g><g class="participant participant-tail" data-entity-uid="part7" data-qualified-name="Db" id="part7-tail"><text fill="#1F2937" font-family="Arial" font-size="14" lengthAdjust="spacing" textLength="76.2617" x="943.4097" y="789.1953">PostgreSQL</text><path d="M966.5405,802.1621 C966.5405,792.1621 984.5405,792.1621 984.5405,792.1621 C984.5405,792.1621 1002.5405,792.1621 1002.5405,802.1621 L1002.5405,828.1621 C1002.5405,838.1621 984.5405,838.1621 984.5405,838.1621 C984.5405,838.1621 966.5405,838.1621 966.5405,828.1621 L966.5405,802.1621" fill="#FFFFFF" style="stroke:#8EA3BD;stroke-width:0.5;"/><path d="M966.5405,802.1621 C966.5405,812.1621 984.5405,812.1621 984.5405,812.1621 C984.5405,812.1621 1002.5405,812.1621 1002.5405,802.1621" fill="none" style="stroke:#8EA3BD;stroke-width:0.5;"/></g><g class="participant participant-head" data-entity-uid="part8" data-qualified-name="Redis" id="part8-head"><path d="M1040.6714,76 L1133.9468,76 C1138.9468,76 1138.9468,97.0986 1138.9468,97.0986 C1138.9468,97.0986 1138.9468,118.1973 1133.9468,118.1973 L1040.6714,118.1973 C1035.6714,118.1973 1035.6714,97.0986 1035.6714,97.0986 C1035.6714,97.0986 1035.6714,76 1040.6714,76" fill="#FFFFFF" style="stroke:#8EA3BD;stroke-width:0.5;"/><path d="M1133.9468,76 C1128.9468,76 1128.9468,97.0986 1128.9468,97.0986 C1128.9468,118.1973 1133.9468,118.1973 1133.9468,118.1973" fill="none" style="stroke:#8EA3BD;stroke-width:0.5;"/><text fill="#1F2937" font-family="Arial" font-size="14" lengthAdjust="spacing" textLength="35.793" x="1064.4126" y="94.1318">Redis</text><text fill="#1F2937" font-family="Arial" font-size="14" lengthAdjust="spacing" textLength="83.2754" x="1040.6714" y="110.2305">channel layer</text></g><g class="participant participant-tail" data-entity-uid="part8" data-qualified-name="Redis" id="part8-tail"><path d="M1040.6714,776.0635 L1133.9468,776.0635 C1138.9468,776.0635 1138.9468,797.1621 1138.9468,797.1621 C1138.9468,797.1621 1138.9468,818.2607 1133.9468,818.2607 L1040.6714,818.2607 C1035.6714,818.2607 1035.6714,797.1621 1035.6714,797.1621 C1035.6714,797.1621 1035.6714,776.0635 1040.6714,776.0635" fill="#FFFFFF" style="stroke:#8EA3BD;stroke-width:0.5;"/><path d="M1133.9468,776.0635 C1128.9468,776.0635 1128.9468,797.1621 1128.9468,797.1621 C1128.9468,818.2607 1133.9468,818.2607 1133.9468,818.2607" fill="none" style="stroke:#8EA3BD;stroke-width:0.5;"/><text fill="#1F2937" font-family="Arial" font-size="14" lengthAdjust="spacing" textLength="35.793" x="1064.4126" y="794.1953">Redis</text><text fill="#1F2937" font-family="Arial" font-size="14" lengthAdjust="spacing" textLength="83.2754" x="1040.6714" y="810.2939">channel layer</text></g><g class="participant participant-head" data-entity-uid="part9" data-qualified-name="Clients" id="part9-head"><rect fill="#E2E2F0" height="30.0986" rx="6" ry="6" style="stroke:#181818;stroke-width:0.5;" width="116.9766" x="1162.2192" y="87.0986"/><text fill="#000000" font-family="Arial" font-size="14" lengthAdjust="spacing" textLength="102.9766" x="1169.2192" y="107.2305">&#1044;&#1088;&#1091;&#1075;&#1080;&#1077; &#1082;&#1083;&#1080;&#1077;&#1085;&#1090;&#1099;</text></g><g class="participant participant-tail" data-entity-uid="part9" data-qualified-name="Clients" id="part9-tail"><rect fill="#E2E2F0" height="30.0986" rx="6" ry="6" style="stroke:#181818;stroke-width:0.5;" width="116.9766" x="1162.2192" y="776.0635"/><text fill="#000000" font-family="Arial" font-size="14" lengthAdjust="spacing" textLength="102.9766" x="1169.2192" y="796.1953">&#1044;&#1088;&#1091;&#1075;&#1080;&#1077; &#1082;&#1083;&#1080;&#1077;&#1085;&#1090;&#1099;</text></g><g class="message" data-entity-1="part1" data-entity-2="part2" id="msg1"><polygon fill="#5F6F86" points="155.1968,157.7949,165.1968,161.7949,155.1968,165.7949,159.1968,161.7949" style="stroke:#5F6F86;stroke-width:1;"/><line style="stroke:#5F6F86;stroke-width:1.15;" x1="54.2007" x2="161.1968" y1="161.7949" y2="161.7949"/><text fill="#4B5563" font-family="Arial" font-size="12" font-weight="bold" lengthAdjust="spacing" textLength="6.6738" x="66.2007" y="150.3525">1</text><text fill="#4B5563" font-family="Arial" font-size="12" lengthAdjust="spacing" textLength="70.875" x="80.5981" y="143.4531">&#1074;&#1074;&#1086;&#1076;&#1080;&#1090; &#1090;&#1077;&#1082;&#1089;&#1090;</text><text fill="#4B5563" font-family="Arial" font-size="12" lengthAdjust="spacing" textLength="78.3223" x="76.8745" y="157.252">&#1080;&#1083;&#1080; &#1074;&#1083;&#1086;&#1078;&#1077;&#1085;&#1080;&#1103;</text></g><g class="message" data-entity-1="part2" data-entity-2="part3" id="msg2"><polygon fill="#5F6F86" points="351.4077,185.5938,361.4077,189.5938,351.4077,193.5938,355.4077,189.5938" style="stroke:#5F6F86;stroke-width:1;"/><line style="stroke:#5F6F86;stroke-width:1.15;" x1="167.1968" x2="357.4077" y1="189.5938" y2="189.5938"/><text fill="#4B5563" font-family="Arial" font-size="12" font-weight="bold" lengthAdjust="spacing" textLength="6.6738" x="193.5845" y="185.0508">2</text><text fill="#4B5563" font-family="Arial" font-size="12" lengthAdjust="spacing" textLength="132.7617" x="204.2583" y="185.0508">onDraftChange / onSend</text></g><path d="M302.6011,204.5938 L357.939,204.5938 L357.939,212.6924 L347.939,222.6924 L296.6011,222.6924 L296.6011,210.5938 A6,6 0 0 1 302.6011,204.5938" fill="#EEEEEE" style="stroke:#000000;stroke-width:1.5;"/><rect fill="none" height="73.7949" rx="6" ry="6" style="stroke:#C7D2E3;stroke-width:1.5;" width="209.4375" x="296.6011" y="204.5938"/><text fill="#000000" font-family="Arial" font-size="14" font-weight="bold" lengthAdjust="spacing" textLength="16.3379" x="311.6011" y="218.7256">alt</text><text fill="#000000" font-family="Arial" font-size="14" font-weight="bold" lengthAdjust="spacing" textLength="113.2441" x="372.939" y="219.7256">[&#1077;&#1089;&#1090;&#1100; &#1074;&#1083;&#1086;&#1078;&#1077;&#1085;&#1080;&#1103;]</text><g class="message" data-entity-1="part3" data-entity-2="part3" id="msg3"><line style="stroke:#5F6F86;stroke-width:1.15;" x1="363.4077" x2="405.4077" y1="257.3887" y2="257.3887"/><line style="stroke:#5F6F86;stroke-width:1.15;" x1="405.4077" x2="405.4077" y1="257.3887" y2="270.3887"/><line style="stroke:#5F6F86;stroke-width:1.15;" x1="364.4077" x2="405.4077" y1="270.3887" y2="270.3887"/><polygon fill="#5F6F86" points="374.4077,266.3887,364.4077,270.3887,374.4077,274.3887,370.4077,270.3887" style="stroke:#5F6F86;stroke-width:1;"/><text fill="#4B5563" font-family="Arial" font-size="12" font-weight="bold" lengthAdjust="spacing" textLength="6.6738" x="370.4077" y="245.9463">3</text><text fill="#4B5563" font-family="Arial" font-size="12" lengthAdjust="spacing" textLength="95.3906" x="389.8647" y="239.0469">&#1079;&#1072;&#1075;&#1088;&#1091;&#1079;&#1080;&#1090;&#1100; &#1092;&#1072;&#1081;&#1083;&#1099;</text><text fill="#4B5563" font-family="Arial" font-size="12" lengthAdjust="spacing" textLength="112.957" x="381.0815" y="252.8457">&#1080; &#1087;&#1086;&#1083;&#1091;&#1095;&#1080;&#1090;&#1100; upload id</text></g><g class="message" data-entity-1="part3" data-entity-2="part4" id="msg4"><polygon fill="#5F6F86" points="530.8374,314.9863,540.8374,318.9863,530.8374,322.9863,534.8374,318.9863" style="stroke:#5F6F86;stroke-width:1;"/><line style="stroke:#5F6F86;stroke-width:1.15;" x1="363.4077" x2="536.8374" y1="318.9863" y2="318.9863"/><text fill="#4B5563" font-family="Arial" font-size="12" font-weight="bold" lengthAdjust="spacing" textLength="6.6738" x="375.4077" y="307.5439">4</text><text fill="#4B5563" font-family="Arial" font-size="12" lengthAdjust="spacing" textLength="78.0469" x="419.436" y="300.6445">chat_message</text><text fill="#4B5563" font-family="Arial" font-size="12" lengthAdjust="spacing" textLength="144.7559" x="386.0815" y="314.4434">roomId, content, upload ids</text></g><g class="message" data-entity-1="part4" data-entity-2="part5" id="msg5"><polygon fill="#5F6F86" points="678.4858,342.7852,688.4858,346.7852,678.4858,350.7852,682.4858,346.7852" style="stroke:#5F6F86;stroke-width:1;"/><line style="stroke:#5F6F86;stroke-width:1.15;" x1="542.8374" x2="684.4858" y1="346.7852" y2="346.7852"/><text fill="#4B5563" font-family="Arial" font-size="12" font-weight="bold" lengthAdjust="spacing" textLength="6.6738" x="554.8374" y="342.2422">5</text><text fill="#4B5563" font-family="Arial" font-size="12" lengthAdjust="spacing" textLength="112.9746" x="565.5112" y="342.2422">&#1089;&#1086;&#1073;&#1099;&#1090;&#1080;&#1077; &#1089;&#1086;&#1086;&#1073;&#1097;&#1077;&#1085;&#1080;&#1103;</text></g><g class="message" data-entity-1="part5" data-entity-2="part6" id="msg6"><polygon fill="#5F6F86" points="827.2417,370.584,837.2417,374.584,827.2417,378.584,831.2417,374.584" style="stroke:#5F6F86;stroke-width:1;"/><line style="stroke:#5F6F86;stroke-width:1.15;" x1="690.4858" x2="833.2417" y1="374.584" y2="374.584"/><text fill="#4B5563" font-family="Arial" font-size="12" font-weight="bold" lengthAdjust="spacing" textLength="6.6738" x="702.4858" y="370.041">6</text><text fill="#4B5563" font-family="Arial" font-size="12" lengthAdjust="spacing" textLength="114.082" x="713.1597" y="370.041">can_send_message?</text></g><g class="message" data-entity-1="part6" data-entity-2="part7" id="msg7"><polygon fill="#5F6F86" points="972.5405,412.1816,982.5405,416.1816,972.5405,420.1816,976.5405,416.1816" style="stroke:#5F6F86;stroke-width:1;"/><line style="stroke:#5F6F86;stroke-width:1.15;" x1="839.2417" x2="978.5405" y1="416.1816" y2="416.1816"/><text fill="#4B5563" font-family="Arial" font-size="12" font-weight="bold" lengthAdjust="spacing" textLength="6.6738" x="853.5269" y="404.7393">7</text><text fill="#4B5563" font-family="Arial" font-size="12" lengthAdjust="spacing" textLength="96.0352" x="869.2104" y="397.8398">membership, role,</text><text fill="#4B5563" font-family="Arial" font-size="12" lengthAdjust="spacing" textLength="106.0547" x="864.2007" y="411.6387">overrides, ban/mute</text></g><g class="message" data-entity-1="part7" data-entity-2="part6" id="msg8"><polygon fill="#5F6F86" points="850.2417,439.9805,840.2417,443.9805,850.2417,447.9805,846.2417,443.9805" style="stroke:#5F6F86;stroke-width:1;"/><line style="stroke:#5F6F86;stroke-width:1.15;stroke-dasharray:2,2;" x1="844.2417" x2="983.5405" y1="443.9805" y2="443.9805"/><text fill="#4B5563" font-family="Arial" font-size="12" font-weight="bold" lengthAdjust="spacing" textLength="6.6738" x="851.2417" y="439.4375">8</text><text fill="#4B5563" font-family="Arial" font-size="12" lengthAdjust="spacing" textLength="110.625" x="861.9155" y="439.4375">&#1088;&#1077;&#1079;&#1091;&#1083;&#1100;&#1090;&#1072;&#1090; &#1087;&#1088;&#1086;&#1074;&#1077;&#1088;&#1082;&#1080;</text></g><path d="M112.2246,458.9805 L167.5625,458.9805 L167.5625,467.0791 L157.5625,477.0791 L106.2246,477.0791 L106.2246,464.9805 A6,6 0 0 1 112.2246,458.9805" fill="#EEEEEE" style="stroke:#000000;stroke-width:1.5;"/><rect fill="none" height="301.083" rx="6" ry="6" style="stroke:#C7D2E3;stroke-width:1.5;" width="1182.9712" x="106.2246" y="458.9805"/><text fill="#000000" font-family="Arial" font-size="14" font-weight="bold" lengthAdjust="spacing" textLength="16.3379" x="121.2246" y="473.1123">alt</text><text fill="#000000" font-family="Arial" font-size="14" font-weight="bold" lengthAdjust="spacing" textLength="129.083" x="182.5625" y="474.1123">[&#1076;&#1086;&#1089;&#1090;&#1091;&#1087; &#1088;&#1072;&#1079;&#1088;&#1077;&#1096;&#1077;&#1085;]</text><g class="message" data-entity-1="part5" data-entity-2="part7" id="msg9"><polygon fill="#5F6F86" points="972.5405,507.7754,982.5405,511.7754,972.5405,515.7754,976.5405,511.7754" style="stroke:#5F6F86;stroke-width:1;"/><line style="stroke:#5F6F86;stroke-width:1.15;" x1="690.4858" x2="978.5405" y1="511.7754" y2="511.7754"/><text fill="#4B5563" font-family="Arial" font-size="12" font-weight="bold" lengthAdjust="spacing" textLength="6.6738" x="764.4712" y="500.333">9</text><text fill="#4B5563" font-family="Arial" font-size="12" lengthAdjust="spacing" textLength="95.625" x="795.0376" y="493.4336">&#1089;&#1086;&#1079;&#1076;&#1072;&#1090;&#1100; Message</text><text fill="#4B5563" font-family="Arial" font-size="12" lengthAdjust="spacing" textLength="135.4102" x="775.145" y="507.2324">&#1080; &#1087;&#1088;&#1080;&#1074;&#1103;&#1079;&#1072;&#1090;&#1100; attachments</text></g><g class="message" data-entity-1="part7" data-entity-2="part5" id="msg10"><polygon fill="#5F6F86" points="701.4858,535.5742,691.4858,539.5742,701.4858,543.5742,697.4858,539.5742" style="stroke:#5F6F86;stroke-width:1;"/><line style="stroke:#5F6F86;stroke-width:1.15;stroke-dasharray:2,2;" x1="695.4858" x2="983.5405" y1="539.5742" y2="539.5742"/><text fill="#4B5563" font-family="Arial" font-size="12" font-weight="bold" lengthAdjust="spacing" textLength="13.3477" x="781.8091" y="535.0313">10</text><text fill="#4B5563" font-family="Arial" font-size="12" lengthAdjust="spacing" textLength="94.0605" x="799.1567" y="535.0313">message payload</text></g><g class="message" data-entity-1="part5" data-entity-2="part8" id="msg11"><polygon fill="#5F6F86" points="1075.3091,563.373,1085.3091,567.373,1075.3091,571.373,1079.3091,567.373" style="stroke:#5F6F86;stroke-width:1;"/><line style="stroke:#5F6F86;stroke-width:1.15;" x1="690.4858" x2="1081.3091" y1="567.373" y2="567.373"/><text fill="#4B5563" font-family="Arial" font-size="12" font-weight="bold" lengthAdjust="spacing" textLength="13.3477" x="822.1924" y="562.8301">11</text><text fill="#4B5563" font-family="Arial" font-size="12" lengthAdjust="spacing" textLength="116.0625" x="839.54" y="562.8301">broadcast room event</text></g><g class="message" data-entity-1="part8" data-entity-2="part9" id="msg12"><polygon fill="#5F6F86" points="1208.7075,591.1719,1218.7075,595.1719,1208.7075,599.1719,1212.7075,595.1719" style="stroke:#5F6F86;stroke-width:1;"/><line style="stroke:#5F6F86;stroke-width:1.15;" x1="1087.3091" x2="1214.7075" y1="595.1719" y2="595.1719"/><text fill="#4B5563" font-family="Arial" font-size="12" font-weight="bold" lengthAdjust="spacing" textLength="13.3477" x="1099.3091" y="590.6289">12</text><text fill="#4B5563" font-family="Arial" font-size="12" lengthAdjust="spacing" textLength="92.0508" x="1116.6567" y="590.6289">message.created</text></g><g class="message" data-entity-1="part8" data-entity-2="part3" id="msg13"><polygon fill="#5F6F86" points="374.4077,618.9707,364.4077,622.9707,374.4077,626.9707,370.4077,622.9707" style="stroke:#5F6F86;stroke-width:1;"/><line style="stroke:#5F6F86;stroke-width:1.15;" x1="368.4077" x2="1086.3091" y1="622.9707" y2="622.9707"/><text fill="#4B5563" font-family="Arial" font-size="12" font-weight="bold" lengthAdjust="spacing" textLength="13.3477" x="670.6592" y="618.4277">13</text><text fill="#4B5563" font-family="Arial" font-size="12" lengthAdjust="spacing" textLength="92.0508" x="688.0068" y="618.4277">message.created</text></g><g class="message" data-entity-1="part3" data-entity-2="part2" id="msg14"><polygon fill="#5F6F86" points="178.1968,646.7695,168.1968,650.7695,178.1968,654.7695,174.1968,650.7695" style="stroke:#5F6F86;stroke-width:1;"/><line style="stroke:#5F6F86;stroke-width:1.15;" x1="172.1968" x2="362.4077" y1="650.7695" y2="650.7695"/><text fill="#4B5563" font-family="Arial" font-size="12" font-weight="bold" lengthAdjust="spacing" textLength="13.3477" x="218.1675" y="646.2266">14</text><text fill="#4B5563" font-family="Arial" font-size="12" lengthAdjust="spacing" textLength="76.9219" x="235.5151" y="646.2266">&#1086;&#1095;&#1080;&#1089;&#1090;&#1080;&#1090;&#1100; draft</text></g><line style="stroke:#C7D2E3;stroke-width:1;stroke-dasharray:2,2;" x1="106.2246" x2="1289.1958" y1="659.7695" y2="659.7695"/><text fill="#000000" font-family="Arial" font-size="14" font-weight="bold" lengthAdjust="spacing" textLength="221.3682" x="111.2246" y="672.9014">[&#1076;&#1086;&#1089;&#1090;&#1091;&#1087; &#1079;&#1072;&#1087;&#1088;&#1077;&#1097;&#1077;&#1085; &#1080;&#1083;&#1080; rate limit]</text><g class="message" data-entity-1="part5" data-entity-2="part3" id="msg15"><polygon fill="#5F6F86" points="374.4077,706.4658,364.4077,710.4658,374.4077,714.4658,370.4077,710.4658" style="stroke:#5F6F86;stroke-width:1;"/><line style="stroke:#5F6F86;stroke-width:1.15;stroke-dasharray:2,2;" x1="368.4077" x2="689.4858" y1="710.4658" y2="710.4658"/><text fill="#4B5563" font-family="Arial" font-size="12" font-weight="bold" lengthAdjust="spacing" textLength="13.3477" x="463.2563" y="699.0234">15</text><text fill="#4B5563" font-family="Arial" font-size="12" lengthAdjust="spacing" textLength="25.3359" x="522.9526" y="692.124">error</text><text fill="#4B5563" font-family="Arial" font-size="12" lengthAdjust="spacing" textLength="110.0332" x="480.604" y="705.9229">permission/rate_limit</text></g><g class="message" data-entity-1="part3" data-entity-2="part2" id="msg16"><polygon fill="#5F6F86" points="178.1968,748.0635,168.1968,752.0635,178.1968,756.0635,174.1968,752.0635" style="stroke:#5F6F86;stroke-width:1;"/><line style="stroke:#5F6F86;stroke-width:1.15;" x1="172.1968" x2="362.4077" y1="752.0635" y2="752.0635"/><text fill="#4B5563" font-family="Arial" font-size="12" font-weight="bold" lengthAdjust="spacing" textLength="13.3477" x="179.1968" y="740.6211">16</text><text fill="#4B5563" font-family="Arial" font-size="12" lengthAdjust="spacing" textLength="154.8633" x="196.5444" y="733.7217">&#1087;&#1086;&#1082;&#1072;&#1079;&#1072;&#1090;&#1100; &#1089;&#1086;&#1089;&#1090;&#1086;&#1103;&#1085;&#1080;&#1077; &#1086;&#1096;&#1080;&#1073;&#1082;&#1080;</text><text fill="#4B5563" font-family="Arial" font-size="12" lengthAdjust="spacing" textLength="94.4824" x="226.7349" y="747.5205">&#1080; &#1089;&#1086;&#1093;&#1088;&#1072;&#1085;&#1080;&#1090;&#1100; draft</text></g><rect fill="#FFFFFF" height="58.2959" rx="6" ry="6" style="stroke:#D6DEEA;stroke-width:1;" width="289.7197" x="996.4761" y="865.1621"/><text fill="#465569" font-family="Arial" font-size="14" lengthAdjust="spacing" textLength="88.1152" x="1097.2783" y="883.2939">&#1062;&#1077;&#1083;&#1100; &#1089;&#1083;&#1072;&#1081;&#1076;&#1072;:</text><text fill="#465569" font-family="Arial" font-size="14" lengthAdjust="spacing" textLength="229.8311" x="1026.4204" y="899.3926">&#1087;&#1086;&#1082;&#1072;&#1079;&#1072;&#1090;&#1100; &#1086;&#1089;&#1085;&#1086;&#1074;&#1085;&#1086;&#1081; end-to-end &#1087;&#1091;&#1090;&#1100;:</text><text fill="#465569" font-family="Arial" font-size="14" lengthAdjust="spacing" textLength="279.7197" x="1001.4761" y="915.4912">UI -&gt; WS -&gt; &#1087;&#1088;&#1086;&#1074;&#1077;&#1088;&#1082;&#1072; &#1087;&#1088;&#1072;&#1074; -&gt; &#1041;&#1044; -&gt; fan-out.</text><?plantuml-src TLLDRzj64BtpLqnzbgnx3kqXlXXeWDH6u8i0OqLk9ABaBijTkiWjbli91mWAv5xqqhFiH9K_OFalxFwZlXdgMoq4Y2BdpPlPUM-ehtAJ5ascwToFTAaFgwOi4f_xGjEHliWBwbBuA_uIfk4fJEBxS1VkASpZE3pZPX9kmqEuetWPvlZSnDy5TnS_9ghnrZJbGDT9eb9lQpe8VmBp63-46QwtO1i3ZVi3KexUE20hLViypIjbF1syqiwfeJusLUFxvaI3HP0lRLdPFVJBaV8drfQlaT8tgJM-jaMXwqNAydO_YSxquDIctsiKwVteUYcUzIJhpEsZmUIQSaqhDzkmrxekS-ToQmXTNkIf5l3wSP8fhmRAQM2jyyDQdtxthM2E1iaFZMuGED5Pxd2EaJ965rIeTukQ4jWk63x5z_4gV8OsKu8UZ_mZFCLnl6xRB79jl4iIdZ5rlrvDa5uGTBY56b-WsPX4a8Tu6STz0mxmSFmHyNzMkgvoXMSvLZ1PSrIhjnv3CaDDFToVQfD1_C9Jc39f_B1FHviakvGmoYHybiFDk44Gn9_mw1wkkUOMAJoBfQxYhujuKnLMPPHdYHJV9Zzp86LzpylMMtrJmpB7MOVOC1XIPqtW4i3RZaHaf8hDR-8rviIZ_W_Nhy18tF01gYfpxj3Iil8toKOOuAC1GANcVN6ZlEeGkjQTlh4NkgxpJBiE3PJfbOtN2R3TNNuiupJCC2Zi4zh3Rf5iA2_Q55TiwKAABzXU5kCgF9Eiy8npuszyXbQErGcaAJdb36aJ6V2hvUHa-l92k8qVMIa9A-zLEYh5RqIBJZT6k3W-LUeTptcde9WRg46DMAgS9zQ7z0Nu06t3JDWwUirtcDPQUPrjWJQjj8_RzTrw9URYfajMMSwKiQyJNM1XjwOdzdoMwOa3QB4pDIfGaPUvtphURaiGrjPzKwrax77Y-KRY__J7ddzWuHOpPuMatJc4U6hV0dC8UXTkM7UHIZ0_YzvFsyVYDIdq45Ugy-68IuU_snSpPptAla7z5npOBSs5GSWku-zx0atNsowpOJHN3EB4DyUoVwVylUFB2It_IYJuH_Z4rxVAT6tZ3xc_jhj_0G00?></g></svg>