<?plantuml 1.2026.1?><svg xmlns="http://www.w3.org/2000/svg" xmlns:xlink="http://www.w3.org/1999/xlink" contentStyleType="text/css" data-diagram-type="STATE" height="644px" preserveAspectRatio="none" style="width:991px;height:644px;background:#FFFFFF;" version="1.1" viewBox="0 0 991 644" width="991px" zoomAndPan="magnify"><title>Devils Resting - Message Lifecycle</title><defs/><g><g class="title" data-source-line="1"><text fill="#000000" font-family="sans-serif" font-size="14" font-weight="bold" lengthAdjust="spacing" textLength="271.9473" x="352.7992" y="22.9951">Devils Resting - Message Lifecycle</text></g><g><rect fill="#FFFFFF" height="64.2344" rx="5" ry="5" style="stroke:#9FB0C7;stroke-width:0.5;" width="152.4746" x="297.87" y="44.2969"/><line style="stroke:#9FB0C7;stroke-width:0.5;" x1="297.87" x2="450.3446" y1="70.5938" y2="70.5938"/><text fill="#1F2937" font-family="sans-serif" font-size="14" lengthAdjust="spacing" textLength="56.9092" x="345.6527" y="62.292">Sending</text><text fill="#1F2937" font-family="sans-serif" font-size="12" lengthAdjust="spacing" textLength="106.0723" x="321.0712" y="86.7324">ws chat_message</text><text fill="#1F2937" font-family="sans-serif" font-size="12" lengthAdjust="spacing" textLength="132.4746" x="307.87" y="100.7012">or attachment finalize</text></g><ellipse cx="106.11" cy="76.4069" fill="#222222" rx="10" ry="10" style="stroke:#222222;stroke-width:1;"/><g><rect fill="#FFFFFF" height="50" rx="5" ry="5" style="stroke:#9FB0C7;stroke-width:0.5;" width="74.5713" x="68.82" y="166.2269"/><line style="stroke:#9FB0C7;stroke-width:0.5;" x1="68.82" x2="143.3913" y1="192.5238" y2="192.5238"/><text fill="#1F2937" font-family="sans-serif" font-size="14" lengthAdjust="spacing" textLength="54.5713" x="78.82" y="184.222">NoDraft</text></g><g><rect fill="#FFFFFF" height="50" rx="5" ry="5" style="stroke:#9FB0C7;stroke-width:0.5;" width="77.1826" x="197.52" y="273.9269"/><line style="stroke:#9FB0C7;stroke-width:0.5;" x1="197.52" x2="274.7026" y1="300.2238" y2="300.2238"/><text fill="#1F2937" font-family="sans-serif" font-size="14" lengthAdjust="spacing" textLength="57.1826" x="207.52" y="291.922">Drafting</text></g><g><rect fill="#FFFFFF" height="50" rx="5" ry="5" style="stroke:#9FB0C7;stroke-width:0.5;" width="106.6182" x="230.8" y="378.9269"/><line style="stroke:#9FB0C7;stroke-width:0.5;" x1="230.8" x2="337.4182" y1="405.2238" y2="405.2238"/><text fill="#1F2937" font-family="sans-serif" font-size="14" lengthAdjust="spacing" textLength="86.6182" x="240.8" y="396.922">FilesQueued</text></g><g><rect fill="#FFFFFF" height="50" rx="5" ry="5" style="stroke:#9FB0C7;stroke-width:0.5;" width="90.7041" x="238.76" y="483.9269"/><line style="stroke:#9FB0C7;stroke-width:0.5;" x1="238.76" x2="329.4641" y1="510.2238" y2="510.2238"/><text fill="#1F2937" font-family="sans-serif" font-size="14" lengthAdjust="spacing" textLength="70.7041" x="248.76" y="501.922">Uploading</text></g><g><rect fill="#FFFFFF" height="50" rx="5" ry="5" style="stroke:#9FB0C7;stroke-width:0.5;" width="116.4688" x="310.87" y="588.9269"/><line style="stroke:#9FB0C7;stroke-width:0.5;" x1="310.87" x2="427.3388" y1="615.2238" y2="615.2238"/><text fill="#1F2937" font-family="sans-serif" font-size="14" lengthAdjust="spacing" textLength="96.4688" x="320.87" y="606.922">ReadyToSend</text></g><g><rect fill="#FFFFFF" height="50" rx="5" ry="5" style="stroke:#9FB0C7;stroke-width:0.5;" width="87.6484" x="567.28" y="166.2269"/><line style="stroke:#9FB0C7;stroke-width:0.5;" x1="567.28" x2="654.9284" y1="192.5238" y2="192.5238"/><text fill="#1F2937" font-family="sans-serif" font-size="14" lengthAdjust="spacing" textLength="67.6484" x="577.28" y="184.222">Published</text></g><g><rect fill="#FFFFFF" height="50" rx="5" ry="5" style="stroke:#9FB0C7;stroke-width:0.5;" width="81.5303" x="279.34" y="166.2269"/><line style="stroke:#9FB0C7;stroke-width:0.5;" x1="279.34" x2="360.8703" y1="192.5238" y2="192.5238"/><text fill="#1F2937" font-family="sans-serif" font-size="14" lengthAdjust="spacing" textLength="61.5303" x="289.34" y="184.222">Rejected</text></g><g><rect fill="#FFFFFF" height="50" rx="5" ry="5" style="stroke:#9FB0C7;stroke-width:0.5;" width="64.6113" x="678.8" y="273.9269"/><line style="stroke:#9FB0C7;stroke-width:0.5;" x1="678.8" x2="743.4113" y1="300.2238" y2="300.2238"/><text fill="#1F2937" font-family="sans-serif" font-size="14" lengthAdjust="spacing" textLength="44.6113" x="688.8" y="291.922">Edited</text></g><g><rect fill="#FFFFFF" height="50" rx="5" ry="5" style="stroke:#9FB0C7;stroke-width:0.5;" width="111.998" x="588.11" y="378.9269"/><line style="stroke:#9FB0C7;stroke-width:0.5;" x1="588.11" x2="700.108" y1="405.2238" y2="405.2238"/><text fill="#1F2937" font-family="sans-serif" font-size="14" lengthAdjust="spacing" textLength="91.998" x="598.11" y="396.922">ReadTracked</text></g><g><rect fill="#FFFFFF" height="50" rx="5" ry="5" style="stroke:#9FB0C7;stroke-width:0.5;" width="74.8857" x="606.67" y="483.9269"/><line style="stroke:#9FB0C7;stroke-width:0.5;" x1="606.67" x2="681.5557" y1="510.2238" y2="510.2238"/><text fill="#1F2937" font-family="sans-serif" font-size="14" lengthAdjust="spacing" textLength="54.8857" x="616.67" y="501.922">Deleted</text></g><ellipse cx="644.11" cy="613.9269" fill="none" rx="11" ry="11" style="stroke:#222222;stroke-width:1;"/><ellipse cx="644.11" cy="613.9269" fill="#222222" rx="6" ry="6" style="stroke:#222222;stroke-width:1;"/><g class="entity" data-qualified-name="GMN2" data-source-line="52" id="ent0003"><path d="M699.68,168.5269 L699.68,174.9269 L655.37,178.9269 L699.68,182.9269 L699.68,213.9253 A5,5 0 0 0 704.68,218.9253 L979.5457,218.9253 A5,5 0 0 0 984.5457,213.9253 L984.5457,173.5269 L974.5457,163.5269 L704.68,163.5269 A5,5 0 0 0 699.68,168.5269" fill="#FBFCFE" style="stroke:#D7DEE8;stroke-width:0.5;"/><path d="M974.5457,163.5269 L974.5457,171.0269 A2.5,2.5 0 0 0 977.0457,173.5269 L984.5457,173.5269 L974.5457,163.5269" fill="#FBFCFE" style="stroke:#D7DEE8;stroke-width:0.5;"/><text fill="#445066" font-family="sans-serif" font-size="13" lengthAdjust="spacing" textLength="248.6567" x="713.2845" y="180.5938">A published message can also receive</text><text fill="#445066" font-family="sans-serif" font-size="13" lengthAdjust="spacing" textLength="247.7554" x="713.7352" y="195.7266">reactions, pins and inbox notifications</text><text fill="#445066" font-family="sans-serif" font-size="13" lengthAdjust="spacing" textLength="263.8657" x="705.68" y="210.8594">without changing its core lifecycle state.</text></g><!--link *start* to NoDraft--><g class="link" data-entity-1="ent0002" data-entity-2="ent0003" data-link-type="dependency" data-source-line="22" id="lnk4"><path d="M106.11,86.5969 C106.11,104.2769 106.11,135.0969 106.11,159.9969" fill="none" id="*start*-to-NoDraft" style="stroke:#687385;stroke-width:1.1;"/><polygon fill="#687385" points="106.11,165.9969,110.11,156.9969,106.11,160.9969,102.11,156.9969,106.11,165.9969" style="stroke:#687385;stroke-width:1.1;"/></g><!--link NoDraft to Drafting--><g class="link" data-entity-1="ent0003" data-entity-2="ent0005" data-link-type="dependency" data-source-line="24" id="lnk6"><path d="M106.11,216.7169 C106.11,248.8369 106.11,299.9269 106.11,299.9269 C106.11,299.9269 152.81,299.9269 191.1,299.9269" fill="none" id="NoDraft-to-Drafting" style="stroke:#687385;stroke-width:1.1;"/><polygon fill="#687385" points="197.1,299.9269,188.1,295.9269,192.1,299.9269,188.1,303.9269,197.1,299.9269" style="stroke:#687385;stroke-width:1.1;"/><text fill="#000000" font-family="sans-serif" font-size="13" lengthAdjust="spacing" textLength="102.9082" x="7" y="295.9938">focus composer</text></g><!--link Drafting to FilesQueued--><g class="link" data-entity-1="ent0005" data-entity-2="ent0007" data-link-type="dependency" data-source-line="25" id="lnk8"><path d="M252.75,324.3469 C252.75,340.8569 252.75,356.2769 252.75,372.7469" fill="none" id="Drafting-to-FilesQueued" style="stroke:#687385;stroke-width:1.1;"/><polygon fill="#687385" points="252.75,378.7469,256.75,369.7469,252.75,373.7469,248.75,369.7469,252.75,378.7469" style="stroke:#687385;stroke-width:1.1;"/><text fill="#000000" font-family="sans-serif" font-size="13" lengthAdjust="spacing" textLength="72.2173" x="179.75" y="347.6138">attach files</text></g><!--link FilesQueued to Uploading--><g class="link" data-entity-1="ent0007" data-entity-2="ent0009" data-link-type="dependency" data-source-line="26" id="lnk10"><path d="M268.99,429.3469 C268.99,445.8569 268.99,461.2769 268.99,477.7469" fill="none" id="FilesQueued-to-Uploading" style="stroke:#687385;stroke-width:1.1;"/><polygon fill="#687385" points="268.99,483.7469,272.99,474.7469,268.99,478.7469,264.99,474.7469,268.99,483.7469" style="stroke:#687385;stroke-width:1.1;"/><text fill="#000000" font-family="sans-serif" font-size="13" lengthAdjust="spacing" textLength="127.4863" x="140.99" y="452.6138">uploadAttachments</text></g><!--link Uploading to FilesQueued--><g class="link" data-entity-1="ent0009" data-entity-2="ent0007" data-link-type="dependency" data-source-line="27" id="lnk11"><path d="M299.23,483.5069 C299.23,466.9969 299.23,451.5769 299.23,435.1069" fill="none" id="Uploading-to-FilesQueued" style="stroke:#687385;stroke-width:1.1;"/><polygon fill="#687385" points="299.23,429.1069,295.23,438.1069,299.23,434.1069,303.23,438.1069,299.23,429.1069" style="stroke:#687385;stroke-width:1.1;"/><text fill="#000000" font-family="sans-serif" font-size="13" lengthAdjust="spacing" textLength="151.0044" x="300.23" y="452.3738">cancel or partial failure</text></g><!--link Uploading to ReadyToSend--><g class="link" data-entity-1="ent0009" data-entity-2="ent0012" data-link-type="dependency" data-source-line="28" id="lnk13"><path d="M320.17,534.3469 C320.17,550.8569 320.17,566.2769 320.17,582.7469" fill="none" id="Uploading-to-ReadyToSend" style="stroke:#687385;stroke-width:1.1;"/><polygon fill="#687385" points="320.17,588.7469,324.17,579.7469,320.17,583.7469,316.17,579.7469,320.17,588.7469" style="stroke:#687385;stroke-width:1.1;"/><text fill="#000000" font-family="sans-serif" font-size="13" lengthAdjust="spacing" textLength="131.8979" x="188.17" y="557.6138">upload ids complete</text></g><!--link Drafting to Sending--><g class="link" data-entity-1="ent0005" data-entity-2="ent0002" data-link-type="dependency" data-source-line="30" id="lnk14"><path d="M236.11,273.4669 C236.11,219.3869 236.11,97.9269 236.11,97.9269 C236.11,97.9269 259.68,97.9269 291.44,97.9269" fill="none" id="Drafting-to-Sending" style="stroke:#687385;stroke-width:1.1;"/><polygon fill="#687385" points="297.44,97.9269,288.44,93.9269,292.44,97.9269,288.44,101.9269,297.44,97.9269" style="stroke:#687385;stroke-width:1.1;"/><text fill="#000000" font-family="sans-serif" font-size="13" lengthAdjust="spacing" textLength="92.9106" x="143.11" y="151.1038">send text only</text></g><!--link ReadyToSend to Sending--><g class="link" data-entity-1="ent0012" data-entity-2="ent0002" data-link-type="dependency" data-source-line="31" id="lnk15"><path d="M394.11,588.7269 C394.11,500.7169 394.11,213.1369 394.11,114.8169" fill="none" id="ReadyToSend-to-Sending" style="stroke:#687385;stroke-width:1.1;"/><polygon fill="#687385" points="394.11,108.8169,390.11,117.8169,394.11,113.8169,398.11,117.8169,394.11,108.8169" style="stroke:#687385;stroke-width:1.1;"/><text fill="#000000" font-family="sans-serif" font-size="13" lengthAdjust="spacing" textLength="147.4814" x="395.11" y="344.8338">send text + upload ids</text></g><!--link Sending to Published--><g class="link" data-entity-1="ent0002" data-entity-2="ent0016" data-link-type="dependency" data-source-line="34" id="lnk17"><path d="M438.84,108.8969 C438.84,143.0669 438.84,191.9269 438.84,191.9269 C438.84,191.9269 510.16,191.9269 561.19,191.9269" fill="none" id="Sending-to-Published" style="stroke:#687385;stroke-width:1.1;"/><polygon fill="#687385" points="567.19,191.9269,558.19,187.9269,562.19,191.9269,558.19,195.9269,567.19,191.9269" style="stroke:#687385;stroke-width:1.1;"/><text fill="#000000" font-family="sans-serif" font-size="13" lengthAdjust="spacing" textLength="122.6558" x="432.2512" y="204.9938">message persisted</text><text fill="#000000" font-family="sans-serif" font-size="13" lengthAdjust="spacing" textLength="125.6582" x="430.75" y="220.1266">attachments linked</text></g><!--link Sending to Rejected--><g class="link" data-entity-1="ent0002" data-entity-2="ent0018" data-link-type="dependency" data-source-line="35" id="lnk19"><path d="M329.37,109.0069 C329.37,127.0369 329.37,143.1169 329.37,159.8569" fill="none" id="Sending-to-Rejected" style="stroke:#687385;stroke-width:1.1;"/><polygon fill="#687385" points="329.37,165.8569,333.37,156.8569,329.37,160.8569,325.37,156.8569,329.37,165.8569" style="stroke:#687385;stroke-width:1.1;"/><text fill="#000000" font-family="sans-serif" font-size="13" lengthAdjust="spacing" textLength="156.3809" x="172.37" y="118.4938">validation / permission /</text><text fill="#000000" font-family="sans-serif" font-size="13" lengthAdjust="spacing" textLength="141.7495" x="179.6857" y="133.6266">rate limit / slow mode</text></g><!--link Rejected to Drafting--><g class="link" data-entity-1="ent0018" data-entity-2="ent0005" data-link-type="dependency" data-source-line="36" id="lnk20"><path d="M308.38,216.7169 C308.38,248.8369 308.38,299.9269 308.38,299.9269 C308.38,299.9269 297.97,299.9269 280.78,299.9269" fill="none" id="Rejected-to-Drafting" style="stroke:#687385;stroke-width:1.1;"/><polygon fill="#687385" points="274.78,299.9269,283.78,303.9269,279.78,299.9269,283.78,295.9269,274.78,299.9269" style="stroke:#687385;stroke-width:1.1;"/><text fill="#000000" font-family="sans-serif" font-size="13" lengthAdjust="spacing" textLength="89.1592" x="309.38" y="271.1838">edit and retry</text></g><!--link Published to Edited--><g class="link" data-entity-1="ent0016" data-entity-2="ent0021" data-link-type="dependency" data-source-line="38" id="lnk22"><path d="M655.26,191.9269 C674.49,191.9269 692.72,191.9269 692.72,191.9269 C692.72,191.9269 692.72,235.9269 692.72,267.5669" fill="none" id="Published-to-Edited" style="stroke:#687385;stroke-width:1.1;"/><polygon fill="#687385" points="692.72,273.5669,696.72,264.5669,692.72,268.5669,688.72,264.5669,692.72,273.5669" style="stroke:#687385;stroke-width:1.1;"/><text fill="#000000" font-family="sans-serif" font-size="13" lengthAdjust="spacing" textLength="89.8828" x="602.72" y="227.0838">edit_message</text></g><!--link Edited to Published--><g class="link" data-entity-1="ent0021" data-entity-2="ent0016" data-link-type="dependency" data-source-line="39" id="lnk23"><path d="M685.76,273.4669 C685.76,245.3269 685.76,203.9269 685.76,203.9269 C685.76,203.9269 677.47,203.9269 661.4,203.9269" fill="none" id="Edited-to-Published" style="stroke:#687385;stroke-width:1.1;"/><polygon fill="#687385" points="655.4,203.9269,664.4,207.9269,660.4,203.9269,664.4,199.9269,655.4,203.9269" style="stroke:#687385;stroke-width:1.1;"/><text fill="#000000" font-family="sans-serif" font-size="13" lengthAdjust="spacing" textLength="145.9199" x="686.76" y="236.5838">edit broadcast applied</text></g><!--link Published to ReadTracked--><g class="link" data-entity-1="ent0016" data-entity-2="ent0024" data-link-type="dependency" data-source-line="41" id="lnk25"><path d="M621.52,216.4669 C621.52,257.3969 621.52,331.8069 621.52,372.7269" fill="none" id="Published-to-ReadTracked" style="stroke:#687385;stroke-width:1.1;"/><polygon fill="#687385" points="621.52,378.7269,625.52,369.7269,621.52,373.7269,617.52,369.7269,621.52,378.7269" style="stroke:#687385;stroke-width:1.1;"/><text fill="#000000" font-family="sans-serif" font-size="13" lengthAdjust="spacing" textLength="163.7188" x="457.52" y="293.6638">mark_read / read_receipt</text></g><!--link Edited to ReadTracked--><g class="link" data-entity-1="ent0021" data-entity-2="ent0024" data-link-type="dependency" data-source-line="42" id="lnk26"><path d="M685.91,324.3469 C685.91,340.8569 685.91,356.2769 685.91,372.7469" fill="none" id="Edited-to-ReadTracked" style="stroke:#687385;stroke-width:1.1;"/><polygon fill="#687385" points="685.91,378.7469,689.91,369.7469,685.91,373.7469,681.91,369.7469,685.91,378.7469" style="stroke:#687385;stroke-width:1.1;"/><text fill="#000000" font-family="sans-serif" font-size="13" lengthAdjust="spacing" textLength="120.0659" x="564.91" y="347.6138">later read receipts</text></g><!--link ReadTracked to Edited--><g class="link" data-entity-1="ent0024" data-entity-2="ent0021" data-link-type="dependency" data-source-line="46" id="lnk30"><path d="M693.01,378.5069 C693.01,361.9969 693.01,346.5769 693.01,330.1069" fill="none" id="ReadTracked-to-Edited" style="stroke:#687385;stroke-width:1.1;"/><polygon fill="#687385" points="693.01,324.1069,689.01,333.1069,693.01,329.1069,697.01,333.1069,693.01,324.1069" style="stroke:#687385;stroke-width:1.1;"/><text fill="#000000" font-family="sans-serif" font-size="13" lengthAdjust="spacing" textLength="59.1094" x="694.01" y="347.3738">later edit</text></g><!--link Published to Deleted--><g class="link" data-entity-1="ent0016" data-entity-2="ent0027" data-link-type="dependency" data-source-line="44" id="lnk28"><path d="M577.7,216.5069 C577.7,291.8769 577.7,509.9269 577.7,509.9269 C577.7,509.9269 585.33,509.9269 600.25,509.9269" fill="none" id="Published-to-Deleted" style="stroke:#687385;stroke-width:1.1;"/><polygon fill="#687385" points="606.25,509.9269,597.25,505.9269,601.25,509.9269,597.25,513.9269,606.25,509.9269" style="stroke:#687385;stroke-width:1.1;"/><text fill="#000000" font-family="sans-serif" font-size="13" lengthAdjust="spacing" textLength="105.8789" x="471.7" y="373.5538">delete_message</text></g><!--link Edited to Deleted--><g class="link" data-entity-1="ent0021" data-entity-2="ent0027" data-link-type="dependency" data-source-line="45" id="lnk29"><path d="M721.76,324.3769 C721.76,380.4969 721.76,509.9269 721.76,509.9269 C721.76,509.9269 707.74,509.9269 688.03,509.9269" fill="none" id="Edited-to-Deleted" style="stroke:#687385;stroke-width:1.1;"/><polygon fill="#687385" points="682.03,509.9269,691.03,513.9269,687.03,509.9269,691.03,505.9269,682.03,509.9269" style="stroke:#687385;stroke-width:1.1;"/><text fill="#000000" font-family="sans-serif" font-size="13" lengthAdjust="spacing" textLength="105.8789" x="615.76" y="450.0838">delete_message</text></g><!--link ReadTracked to Deleted--><g class="link" data-entity-1="ent0024" data-entity-2="ent0027" data-link-type="dependency" data-source-line="47" id="lnk31"><path d="M644.11,429.3469 C644.11,445.8569 644.11,461.2769 644.11,477.7469" fill="none" id="ReadTracked-to-Deleted" style="stroke:#687385;stroke-width:1.1;"/><polygon fill="#687385" points="644.11,483.7469,648.11,474.7469,644.11,478.7469,640.11,474.7469,644.11,483.7469" style="stroke:#687385;stroke-width:1.1;"/><text fill="#000000" font-family="sans-serif" font-size="13" lengthAdjust="spacing" textLength="75.1055" x="568.11" y="469.6138">later delete</text></g><!--link Deleted to *end*--><g class="link" data-entity-1="ent0027" data-entity-2="ent0032" data-link-type="dependency" data-source-line="49" id="lnk33"><path d="M644.11,534.3469 C644.11,556.0769 644.11,580.3269 644.11,596.5569" fill="none" id="Deleted-to-*end*" style="stroke:#687385;stroke-width:1.1;"/><polygon fill="#687385" points="644.11,602.5569,648.11,593.5569,644.11,597.5569,640.11,593.5569,644.11,602.5569" style="stroke:#687385;stroke-width:1.1;"/></g><?plantuml-src TLJ1SXCn3BtxApJ33MXfQDEq79W9b9w0WH9EbEaujZOHSUmTsziqPVXt9EyssQHj3eaZFJtfoP8pPOTmWRVa4bnXokHdS01VC2KzG_XC5PgrSQZIWdojerv2cciRLeAhj4jzprIRnIo6njkFmOK8BwhowI4SUSph6Y74F0yzXyLADovFy2wF7Sty4dq6mryOUoWVB2QiuMJOCqRj5s8SxXYb2XEYnmY3evvZ76DOTUMTdesEpuRxpicSpC9p0s1mEEZhpZeZ_5K07qAq63kIysfwP4PYVKOzm6NmkRCDghVdnoFrRqVKKxHsP17FdgITLgR2NTgJa-7HwIdJgbylVyF1mNlu6YwYhh9ItQ4OoqbkxXrKmJG9J5ZM8N6FDnw1NPB3zBt11YqZTSxQpA4Ie-gx1FgpTa7Rbh8fvt61o_qbjVK-fZNQ6tGy2C1joAGTZnEv9k9Ur1Lgkvw47-Zj9WUGRMjtc57j5Y_0jfua8Pad2e9tQzKdUWxugfT0gIrYnUdcEjyisxsuzbostWZbtdZjw1ut4SB_hPawIlCYjek36cEYbD5U-sruahLOeDs9li8_Q789lcLkgpC53s-4OKafbJ_NFif8EbfIPbToOGLBNX6r2TwxTBGCr2msOevhfROb2l0JUqj2WJr8LPrrNr6XcaRkbT69IUlQ4KlOevIUJo9FSDi57HStaKrShFpmsI3LkPzZDyAnlbYmq67JVeeBb24Gi2sdfmf_5jFFjjE2Dh68V8JPahMWbfAdiBCBXhTGgRBOaMPp7i1gspmrXdgZu64mU1k0NzFGohn5nPgDN7bw3JNvL6wD_3JSoNj15Pao44cjY1_I9iju-fdSCcLPZIXZqRtTxSjrg6JAfQR_?></g></svg>