<?plantuml 1.2026.1?><svg xmlns="http://www.w3.org/2000/svg" xmlns:xlink="http://www.w3.org/1999/xlink" contentStyleType="text/css" data-diagram-type="STATE" height="769px" preserveAspectRatio="none" style="width:1188px;height:769px;background:#FFFFFF;" version="1.1" viewBox="0 0 1188 769" width="1188px" zoomAndPan="magnify"><title>Devils Resting - Message Lifecycle</title><defs/><g><g class="title" data-source-line="1"><text fill="#000000" font-family="sans-serif" font-size="14" font-weight="bold" lengthAdjust="spacing" textLength="271.9473" x="451.1108" y="22.9951">Devils Resting - Message Lifecycle</text></g><g><rect fill="#F1F1F1" height="64.2344" rx="12.5" ry="12.5" style="stroke:#181818;stroke-width:0.5;" width="152.4746" x="278.05" y="44.2969"/><line style="stroke:#181818;stroke-width:0.5;" x1="278.05" x2="430.5246" y1="70.5938" y2="70.5938"/><text fill="#000000" font-family="sans-serif" font-size="14" lengthAdjust="spacing" textLength="56.9092" x="325.8327" y="62.292">Sending</text><text fill="#000000" font-family="sans-serif" font-size="12" lengthAdjust="spacing" textLength="106.0723" x="283.05" y="86.7324">ws chat_message</text><text fill="#000000" font-family="sans-serif" font-size="12" lengthAdjust="spacing" textLength="132.4746" x="283.05" y="100.7012">or attachment finalize</text></g><ellipse cx="44.29" cy="76.4069" fill="#222222" rx="10" ry="10" style="stroke:#222222;stroke-width:1;"/><g><rect fill="#F1F1F1" height="50" rx="12.5" ry="12.5" style="stroke:#181818;stroke-width:0.5;" width="74.5713" x="7" y="203.2269"/><line style="stroke:#181818;stroke-width:0.5;" x1="7" x2="81.5713" y1="229.5237" y2="229.5237"/><text fill="#000000" font-family="sans-serif" font-size="14" lengthAdjust="spacing" textLength="54.5713" x="17" y="221.222">NoDraft</text></g><g><rect fill="#F1F1F1" height="50" rx="12.5" ry="12.5" style="stroke:#181818;stroke-width:0.5;" width="77.1826" x="132.69" y="332.9269"/><line style="stroke:#181818;stroke-width:0.5;" x1="132.69" x2="209.8726" y1="359.2238" y2="359.2238"/><text fill="#000000" font-family="sans-serif" font-size="14" lengthAdjust="spacing" textLength="57.1826" x="142.69" y="350.922">Drafting</text></g><g><rect fill="#F1F1F1" height="50" rx="12.5" ry="12.5" style="stroke:#181818;stroke-width:0.5;" width="106.6182" x="117.98" y="459.9269"/><line style="stroke:#181818;stroke-width:0.5;" x1="117.98" x2="224.5982" y1="486.2238" y2="486.2238"/><text fill="#000000" font-family="sans-serif" font-size="14" lengthAdjust="spacing" textLength="86.6182" x="127.98" y="477.922">FilesQueued</text></g><g><rect fill="#F1F1F1" height="50" rx="12.5" ry="12.5" style="stroke:#181818;stroke-width:0.5;" width="90.7041" x="223.93" y="586.9269"/><line style="stroke:#181818;stroke-width:0.5;" x1="223.93" x2="314.6341" y1="613.2238" y2="613.2238"/><text fill="#000000" font-family="sans-serif" font-size="14" lengthAdjust="spacing" textLength="70.7041" x="233.93" y="604.922">Uploading</text></g><g><rect fill="#F1F1F1" height="50" rx="12.5" ry="12.5" style="stroke:#181818;stroke-width:0.5;" width="116.4688" x="304.05" y="713.9269"/><line style="stroke:#181818;stroke-width:0.5;" x1="304.05" x2="420.5188" y1="740.2238" y2="740.2238"/><text fill="#000000" font-family="sans-serif" font-size="14" lengthAdjust="spacing" textLength="96.4688" x="314.05" y="731.922">ReadyToSend</text></g><g><rect fill="#F1F1F1" height="50" rx="12.5" ry="12.5" style="stroke:#181818;stroke-width:0.5;" width="87.6484" x="763.46" y="203.2269"/><line style="stroke:#181818;stroke-width:0.5;" x1="763.46" x2="851.1084" y1="229.5237" y2="229.5237"/><text fill="#000000" font-family="sans-serif" font-size="14" lengthAdjust="spacing" textLength="67.6484" x="773.46" y="221.222">Published</text></g><g><rect fill="#F1F1F1" height="50" rx="12.5" ry="12.5" style="stroke:#181818;stroke-width:0.5;" width="81.5303" x="300.52" y="203.2269"/><line style="stroke:#181818;stroke-width:0.5;" x1="300.52" x2="382.0503" y1="229.5237" y2="229.5237"/><text fill="#000000" font-family="sans-serif" font-size="14" lengthAdjust="spacing" textLength="61.5303" x="310.52" y="221.222">Rejected</text></g><g><rect fill="#F1F1F1" height="50" rx="12.5" ry="12.5" style="stroke:#181818;stroke-width:0.5;" width="64.6113" x="642.98" y="332.9269"/><line style="stroke:#181818;stroke-width:0.5;" x1="642.98" x2="707.5913" y1="359.2238" y2="359.2238"/><text fill="#000000" font-family="sans-serif" font-size="14" lengthAdjust="spacing" textLength="44.6113" x="652.98" y="350.922">Edited</text></g><g><rect fill="#F1F1F1" height="50" rx="12.5" ry="12.5" style="stroke:#181818;stroke-width:0.5;" width="111.998" x="759.29" y="459.9269"/><line style="stroke:#181818;stroke-width:0.5;" x1="759.29" x2="871.288" y1="486.2238" y2="486.2238"/><text fill="#000000" font-family="sans-serif" font-size="14" lengthAdjust="spacing" textLength="91.998" x="769.29" y="477.922">ReadTracked</text></g><g><rect fill="#F1F1F1" height="50" rx="12.5" ry="12.5" style="stroke:#181818;stroke-width:0.5;" width="74.8857" x="777.84" y="586.9269"/><line style="stroke:#181818;stroke-width:0.5;" x1="777.84" x2="852.7257" y1="613.2238" y2="613.2238"/><text fill="#000000" font-family="sans-serif" font-size="14" lengthAdjust="spacing" textLength="54.8857" x="787.84" y="604.922">Deleted</text></g><ellipse cx="815.29" cy="738.9269" fill="none" rx="11" ry="11" style="stroke:#222222;stroke-width:1;"/><ellipse cx="815.29" cy="738.9269" fill="#222222" rx="6" ry="6" style="stroke:#222222;stroke-width:1;"/><g class="entity" data-qualified-name="GMN2" data-source-line="34" id="ent0003"><path d="M885.85,200.5269 L885.85,224.2269 L851.31,228.2269 L885.85,232.2269 L885.85,255.9253 A0,0 0 0 0 885.85,255.9253 L1170.7157,255.9253 A0,0 0 0 0 1170.7157,255.9253 L1170.7157,210.5269 L1160.7157,200.5269 L885.85,200.5269 A0,0 0 0 0 885.85,200.5269" fill="#FEFFDD" style="stroke:#181818;stroke-width:0.5;"/><path d="M1160.7157,200.5269 L1160.7157,210.5269 L1170.7157,210.5269 L1160.7157,200.5269" fill="#FEFFDD" style="stroke:#181818;stroke-width:0.5;"/><text fill="#000000" font-family="sans-serif" font-size="13" lengthAdjust="spacing" textLength="248.6567" x="891.85" y="217.5938">A published message can also receive</text><text fill="#000000" font-family="sans-serif" font-size="13" lengthAdjust="spacing" textLength="247.7554" x="891.85" y="232.7266">reactions, pins and inbox notifications</text><text fill="#000000" font-family="sans-serif" font-size="13" lengthAdjust="spacing" textLength="263.8657" x="891.85" y="247.8594">without changing its core lifecycle state.</text></g><!--link *start* to NoDraft--><g class="link" data-entity-1="ent0002" data-entity-2="ent0003" data-link-type="dependency" data-source-line="4" id="lnk4"><path d="M44.29,86.7869 C44.29,109.7169 44.29,163.2469 44.29,196.9769" fill="none" id="*start*-to-NoDraft" style="stroke:#181818;stroke-width:1;"/><polygon fill="#181818" points="44.29,202.9769,48.29,193.9769,44.29,197.9769,40.29,193.9769,44.29,202.9769" style="stroke:#181818;stroke-width:1;"/></g><!--link NoDraft to Drafting--><g class="link" data-entity-1="ent0003" data-entity-2="ent0005" data-link-type="dependency" data-source-line="6" id="lnk6"><path d="M36.48,253.4169 C33.05,268.8369 31.69,288.5469 41.29,302.9269 C61.43,333.1169 96.0586,345.3103 126.5386,351.1903" fill="none" id="NoDraft-to-Drafting" style="stroke:#181818;stroke-width:1;"/><polygon fill="#181818" points="132.43,352.3269,124.3506,346.6945,127.5205,351.3798,122.8353,354.5497,132.43,352.3269" style="stroke:#181818;stroke-width:1;"/><text fill="#000000" font-family="sans-serif" font-size="13" lengthAdjust="spacing" textLength="102.9082" x="42.29" y="298.9938">focus composer</text></g><!--link Drafting to FilesQueued--><g class="link" data-entity-1="ent0005" data-entity-2="ent0007" data-link-type="dependency" data-source-line="7" id="lnk8"><path d="M171.29,383.3269 C171.29,405.3469 171.29,431.5869 171.29,453.5869" fill="none" id="Drafting-to-FilesQueued" style="stroke:#181818;stroke-width:1;"/><polygon fill="#181818" points="171.29,459.5869,175.29,450.5869,171.29,454.5869,167.29,450.5869,171.29,459.5869" style="stroke:#181818;stroke-width:1;"/><text fill="#000000" font-family="sans-serif" font-size="13" lengthAdjust="spacing" textLength="72.2173" x="172.29" y="425.9938">attach files</text></g><!--link FilesQueued to Uploading--><g class="link" data-entity-1="ent0007" data-entity-2="ent0009" data-link-type="dependency" data-source-line="8" id="lnk10"><path d="M120.12,510.1669 C100.11,523.0269 84.64,539.7069 97.29,556.9269 C126,596.0269 177.0067,607.1293 217.5167,610.1593" fill="none" id="FilesQueued-to-Uploading" style="stroke:#181818;stroke-width:1;"/><polygon fill="#181818" points="223.5,610.6069,214.8234,605.9467,218.5139,610.2339,214.2267,613.9244,223.5,610.6069" style="stroke:#181818;stroke-width:1;"/><text fill="#000000" font-family="sans-serif" font-size="13" lengthAdjust="spacing" textLength="127.4863" x="98.29" y="552.9938">uploadAttachments</text></g><!--link Uploading to FilesQueued--><g class="link" data-entity-1="ent0009" data-entity-2="ent0007" data-link-type="dependency" data-source-line="9" id="lnk11"><path d="M258.45,586.7069 C251.46,572.3869 241.58,554.3069 230.29,539.9269 C221.96,529.3369 215.9642,523.0033 206.1442,514.2733" fill="none" id="Uploading-to-FilesQueued" style="stroke:#181818;stroke-width:1;"/><polygon fill="#181818" points="201.66,510.2869,205.7287,519.256,205.3968,513.6089,211.044,513.2771,201.66,510.2869" style="stroke:#181818;stroke-width:1;"/><text fill="#000000" font-family="sans-serif" font-size="13" lengthAdjust="spacing" textLength="151.0044" x="242.29" y="552.9938">cancel or partial failure</text></g><!--link Uploading to ReadyToSend--><g class="link" data-entity-1="ent0009" data-entity-2="ent0012" data-link-type="dependency" data-source-line="10" id="lnk13"><path d="M270.84,637.3369 C272.76,651.8969 276.99,670.1669 286.29,683.9269 C294.17,695.5969 300.5641,702.1126 312.0541,710.2026" fill="none" id="Uploading-to-ReadyToSend" style="stroke:#181818;stroke-width:1;"/><polygon fill="#181818" points="316.96,713.6569,311.9039,705.2049,312.8717,710.7784,307.2983,711.7462,316.96,713.6569" style="stroke:#181818;stroke-width:1;"/><text fill="#000000" font-family="sans-serif" font-size="13" lengthAdjust="spacing" textLength="131.8979" x="287.29" y="679.9938">upload ids complete</text></g><!--link Drafting to Sending--><g class="link" data-entity-1="ent0005" data-entity-2="ent0002" data-link-type="dependency" data-source-line="12" id="lnk14"><path d="M169.45,332.5969 C168.05,300.7069 169.07,243.7269 189.29,200.5269 C208.37,159.7369 243.4218,132.2384 279.4018,111.8184" fill="none" id="Drafting-to-Sending" style="stroke:#181818;stroke-width:1;"/><polygon fill="#181818" points="284.62,108.8569,274.8184,109.8204,280.2715,111.3248,278.7671,116.7779,284.62,108.8569" style="stroke:#181818;stroke-width:1;"/><text fill="#000000" font-family="sans-serif" font-size="13" lengthAdjust="spacing" textLength="92.9106" x="190.29" y="232.7938">send text only</text></g><!--link ReadyToSend to Sending--><g class="link" data-entity-1="ent0012" data-entity-2="ent0002" data-link-type="dependency" data-source-line="13" id="lnk15"><path d="M396.31,713.5669 C406.15,705.1269 416.15,694.9769 423.29,683.9269 C441.21,656.1769 445.29,645.9669 445.29,612.9269 C445.29,227.2269 445.29,227.2269 445.29,227.2269 C445.29,186.6069 444.33,173.2669 423.29,138.5269 C416.65,127.5769 411.8701,121.5424 402.3201,112.8624" fill="none" id="ReadyToSend-to-Sending" style="stroke:#181818;stroke-width:1;"/><polygon fill="#181818" points="397.88,108.8269,401.8497,117.8403,401.5801,112.1899,407.2305,111.9202,397.88,108.8269" style="stroke:#181818;stroke-width:1;"/><text fill="#000000" font-family="sans-serif" font-size="13" lengthAdjust="spacing" textLength="147.4814" x="446.29" y="425.9938">send text + upload ids</text></g><!--link Sending to Published--><g class="link" data-entity-1="ent0002" data-entity-2="ent0016" data-link-type="dependency" data-source-line="16" id="lnk17"><path d="M430.87,102.7369 C526.24,134.2769 680.2633,185.2235 757.3333,210.7035" fill="none" id="Sending-to-Published" style="stroke:#181818;stroke-width:1;"/><polygon fill="#181818" points="763.03,212.5869,755.7405,205.964,758.2827,211.0174,753.2293,213.5596,763.03,212.5869" style="stroke:#181818;stroke-width:1;"/><text fill="#000000" font-family="sans-serif" font-size="13" lengthAdjust="spacing" textLength="121.2085" x="637.5149" y="151.5938">Message persisted</text><text fill="#000000" font-family="sans-serif" font-size="13" lengthAdjust="spacing" textLength="125.6582" x="635.29" y="166.7266">attachments linked</text></g><!--link Sending to Rejected--><g class="link" data-entity-1="ent0002" data-entity-2="ent0018" data-link-type="dependency" data-source-line="17" id="lnk19"><path d="M288.04,108.8169 C277.29,116.9469 267.61,126.7969 261.29,138.5269 C254.53,151.0469 254.75,157.8969 261.29,170.5269 C269.65,186.7069 279.8735,196.1494 294.9035,205.2894" fill="none" id="Sending-to-Rejected" style="stroke:#181818;stroke-width:1;"/><polygon fill="#181818" points="300.03,208.4069,294.4186,200.3129,295.7579,205.8089,290.2619,207.1483,300.03,208.4069" style="stroke:#181818;stroke-width:1;"/><text fill="#000000" font-family="sans-serif" font-size="13" lengthAdjust="spacing" textLength="156.3809" x="262.29" y="151.5938">validation / permission /</text><text fill="#000000" font-family="sans-serif" font-size="13" lengthAdjust="spacing" textLength="141.7495" x="269.6057" y="166.7266">rate limit / slow mode</text></g><!--link Rejected to Drafting--><g class="link" data-entity-1="ent0018" data-entity-2="ent0005" data-link-type="dependency" data-source-line="18" id="lnk20"><path d="M308.91,253.5469 C278.76,276.1969 238.8375,306.1836 208.6275,328.8736" fill="none" id="Rejected-to-Drafting" style="stroke:#181818;stroke-width:1;"/><polygon fill="#181818" points="203.83,332.4769,213.4285,330.2703,207.8279,329.4741,208.6241,323.8736,203.83,332.4769" style="stroke:#181818;stroke-width:1;"/><text fill="#000000" font-family="sans-serif" font-size="13" lengthAdjust="spacing" textLength="89.1592" x="262.29" y="298.9938">edit and retry</text></g><!--link Published to Edited--><g class="link" data-entity-1="ent0016" data-entity-2="ent0021" data-link-type="dependency" data-source-line="20" id="lnk22"><path d="M798.46,253.6169 C791.93,269.1169 781.83,288.8369 768.29,302.9269 C751.33,320.5569 732.7987,331.7105 713.4487,340.9105" fill="none" id="Published-to-Edited" style="stroke:#181818;stroke-width:1;"/><polygon fill="#181818" points="708.03,343.4869,717.8756,343.2348,712.5456,341.3399,714.4405,336.0099,708.03,343.4869" style="stroke:#181818;stroke-width:1;"/><text fill="#000000" font-family="sans-serif" font-size="13" lengthAdjust="spacing" textLength="89.8828" x="781.29" y="298.9938">edit_message</text></g><!--link Edited to Published--><g class="link" data-entity-1="ent0021" data-entity-2="ent0016" data-link-type="dependency" data-source-line="21" id="lnk23"><path d="M642.84,339.4569 C621.14,325.4469 598.96,305.0469 613.29,285.9269 C631.28,261.9169 705.8758,245.6977 757.3658,236.8977" fill="none" id="Edited-to-Published" style="stroke:#181818;stroke-width:1;"/><polygon fill="#181818" points="763.28,235.8869,753.7348,233.4602,758.3515,236.7292,755.0825,241.3459,763.28,235.8869" style="stroke:#181818;stroke-width:1;"/><text fill="#000000" font-family="sans-serif" font-size="13" lengthAdjust="spacing" textLength="145.9199" x="614.29" y="298.9938">edit broadcast applied</text></g><!--link Published to ReadTracked--><g class="link" data-entity-1="ent0016" data-entity-2="ent0024" data-link-type="dependency" data-source-line="23" id="lnk25"><path d="M850.26,253.4569 C861.71,262.1369 872.71,273.0269 879.29,285.9269 C904.95,336.2469 883.17,356.4469 884.29,412.9269 C884.43,420.4769 887.59,423.1369 884.29,429.9269 C878.56,441.6869 873.6214,447.9472 863.3114,455.9872" fill="none" id="Published-to-ReadTracked" style="stroke:#181818;stroke-width:1;"/><polygon fill="#181818" points="858.58,459.6769,868.1369,457.2966,862.5228,456.6021,863.2173,450.9881,858.58,459.6769" style="stroke:#181818;stroke-width:1;"/><text fill="#000000" font-family="sans-serif" font-size="13" lengthAdjust="spacing" textLength="163.7188" x="892.29" y="362.4938">mark_read / read_receipt</text></g><!--link Edited to ReadTracked--><g class="link" data-entity-1="ent0021" data-entity-2="ent0024" data-link-type="dependency" data-source-line="24" id="lnk26"><path d="M703.49,383.2569 C714.12,392.4969 726.31,403.1469 737.29,412.9269 C754.52,428.2669 769.2559,441.6539 784.2759,455.4139" fill="none" id="Edited-to-ReadTracked" style="stroke:#181818;stroke-width:1;"/><polygon fill="#181818" points="788.7,459.4669,784.7658,450.4379,785.0132,456.0894,779.3618,456.3368,788.7,459.4669" style="stroke:#181818;stroke-width:1;"/><text fill="#000000" font-family="sans-serif" font-size="13" lengthAdjust="spacing" textLength="120.0659" x="755.29" y="425.9938">later read receipts</text></g><!--link ReadTracked to Edited--><g class="link" data-entity-1="ent0024" data-entity-2="ent0021" data-link-type="dependency" data-source-line="28" id="lnk30"><path d="M759.12,466.7069 C720.02,454.1469 673.91,437.9769 668.29,429.9269 C658.93,416.5169 659.4069,403.8289 663.6869,389.0889" fill="none" id="ReadTracked-to-Edited" style="stroke:#181818;stroke-width:1;"/><polygon fill="#181818" points="665.36,383.3269,659.009,390.8545,663.9658,388.1285,666.6917,393.0853,665.36,383.3269" style="stroke:#181818;stroke-width:1;"/><text fill="#000000" font-family="sans-serif" font-size="13" lengthAdjust="spacing" textLength="59.1094" x="669.29" y="425.9938">later edit</text></g><!--link Published to Deleted--><g class="link" data-entity-1="ent0016" data-entity-2="ent0027" data-link-type="dependency" data-source-line="26" id="lnk28"><path d="M851.51,248.8269 C857.14,251.2469 862.84,253.6669 868.29,255.9269 C954.73,291.8069 1011.58,255.5869 1064.29,332.9269 C1138.18,441.3469 944.7751,549.582 858.4551,591.182" fill="none" id="Published-to-Deleted" style="stroke:#181818;stroke-width:1;"/><polygon fill="#181818" points="853.05,593.7869,862.8942,593.483,857.5542,591.6162,859.421,586.2762,853.05,593.7869" style="stroke:#181818;stroke-width:1;"/><text fill="#000000" font-family="sans-serif" font-size="13" lengthAdjust="spacing" textLength="105.8789" x="1074.29" y="425.9938">delete_message</text></g><!--link Edited to Deleted--><g class="link" data-entity-1="ent0021" data-entity-2="ent0027" data-link-type="dependency" data-source-line="27" id="lnk29"><path d="M658.09,383.2169 C638.33,414.3969 611.51,469.3269 635.29,509.9269 C665.89,562.1869 728.7673,587.7963 771.8873,600.2963" fill="none" id="Edited-to-Deleted" style="stroke:#181818;stroke-width:1;"/><polygon fill="#181818" points="777.65,601.9669,770.1196,595.6192,772.8477,600.5747,767.8922,603.3029,777.65,601.9669" style="stroke:#181818;stroke-width:1;"/><text fill="#000000" font-family="sans-serif" font-size="13" lengthAdjust="spacing" textLength="105.8789" x="636.29" y="489.4938">delete_message</text></g><!--link ReadTracked to Deleted--><g class="link" data-entity-1="ent0024" data-entity-2="ent0027" data-link-type="dependency" data-source-line="29" id="lnk31"><path d="M815.29,510.3269 C815.29,532.3469 815.29,558.5869 815.29,580.5869" fill="none" id="ReadTracked-to-Deleted" style="stroke:#181818;stroke-width:1;"/><polygon fill="#181818" points="815.29,586.5869,819.29,577.5869,815.29,581.5869,811.29,577.5869,815.29,586.5869" style="stroke:#181818;stroke-width:1;"/><text fill="#000000" font-family="sans-serif" font-size="13" lengthAdjust="spacing" textLength="75.1055" x="816.29" y="552.9938">later delete</text></g><!--link Deleted to *end*--><g class="link" data-entity-1="ent0027" data-entity-2="ent0032" data-link-type="dependency" data-source-line="31" id="lnk33"><path d="M815.29,637.3269 C815.29,664.7469 815.29,702.0069 815.29,721.6269" fill="none" id="Deleted-to-*end*" style="stroke:#181818;stroke-width:1;"/><polygon fill="#181818" points="815.29,727.6269,819.29,718.6269,815.29,722.6269,811.29,718.6269,815.29,727.6269" style="stroke:#181818;stroke-width:1;"/></g><?plantuml-src TLJ1ajCm3BtxAtG62dSEpEnCuGGCbEL4cHtNLXfHnyvOJhlbwv6SRD9ssLDLwUb9Jv9Jg0I4DHufC6oG2yKzhE0BCjizmcTgq9rTGCC7YhtDjWDkhKydnJKsC1hpwzLlMAq-mDUqphOfnan6TLPBmU-XIMvWSAdh4sCsSqHXdoWWVnzmG2z8MufrBJJgD9SXXVxiGx9-f1ogVLVX7SR2Pea-ftKsEWoGCeYIGZQ80Wf3nfki3Lf_lay_CFgv1f0VUmzOHFDLymeS-s5DAVXO8CLmDfT4Bm5VNnGmPa6Sf5nhoqCthc8RfMqx2vNPH1leByuPolzjs0NYjefzMc6FcOaB-crSqXa2nGFwg-mD_a5NQl9HkBqjb2AyKuQEcEkVRSose6HtL2J48PsWInxDd7opTFG2j28sOybdOvOM5VXHehMWmfwacibxgwXIxRBCobaMqhuF919kA7NczzcwGytfR3uyP759i_eZjaFgosMDwumW-dB5meJbsn9hr2DGiA_M_nf_4NDPxMe4Os4L-Gopa8sWaLAkSF8hHbwXCJ79SZBjMpd0PXcUkOD-LZ0regy1v06dKUOHZMXskd9-0pr5hbkZk4kF8BJKaAi7mUP4fKr3qVECUzqo5NqQMSzY-bm05sdqhT4hrvx-0G00?></g></svg>