<?plantuml 1.2026.1?><svg xmlns="http://www.w3.org/2000/svg" xmlns:xlink="http://www.w3.org/1999/xlink" contentStyleType="text/css" data-diagram-type="STATE" height="870px" preserveAspectRatio="none" style="width:1357px;height:870px;background:#FFFFFF;" version="1.1" viewBox="0 0 1357 870" width="1357px" zoomAndPan="magnify"><title>Devils Resting - &#1057;&#1086;&#1089;&#1090;&#1086;&#1103;&#1085;&#1080;&#1103; &#1089;&#1077;&#1089;&#1089;&#1080;&#1080; &#1095;&#1072;&#1090;&#1072;</title><defs/><g><g class="title" data-source-line="1"><text fill="#000000" font-family="Arial" font-size="14" font-weight="bold" lengthAdjust="spacing" textLength="312.457" x="515.7235" y="22.9951">Devils Resting - &#1057;&#1086;&#1089;&#1090;&#1086;&#1103;&#1085;&#1080;&#1103; &#1089;&#1077;&#1089;&#1089;&#1080;&#1080; &#1095;&#1072;&#1090;&#1072;</text></g><g><rect fill="#FFFFFF" height="50" rx="5" ry="5" style="stroke:#9FB0C7;stroke-width:0.5;" width="97.8545" x="1172.54" y="118.2969"/><line style="stroke:#9FB0C7;stroke-width:0.5;" x1="1172.54" x2="1270.3945" y1="144.5938" y2="144.5938"/><text fill="#1F2937" font-family="Arial" font-size="14" lengthAdjust="spacing" textLength="77.8545" x="1182.54" y="136.292">&#1054;&#1078;&#1080;&#1076;&#1072;&#1085;&#1080;&#1077;</text></g><g><rect fill="#FFFFFF" height="50.2656" rx="5" ry="5" style="stroke:#9FB0C7;stroke-width:0.5;" width="204.7754" x="1119.08" y="360.8169"/><line style="stroke:#9FB0C7;stroke-width:0.5;" x1="1119.08" x2="1323.8554" y1="387.1138" y2="387.1138"/><text fill="#1F2937" font-family="Arial" font-size="14" lengthAdjust="spacing" textLength="184.7754" x="1129.08" y="378.812">&#1056;&#1072;&#1079;&#1088;&#1077;&#1096;&#1077;&#1085;&#1080;&#1077; &#1072;&#1076;&#1088;&#1077;&#1089;&#1072; &#1095;&#1072;&#1090;&#1072;</text><text fill="#1F2937" font-family="Arial" font-size="12" lengthAdjust="spacing" textLength="139.9102" x="1151.5126" y="403.2524">POST /api/chat/resolve/</text></g><g><rect fill="#FFFFFF" height="50" rx="5" ry="5" style="stroke:#9FB0C7;stroke-width:0.5;" width="150.874" x="1200.03" y="708.8569"/><line style="stroke:#9FB0C7;stroke-width:0.5;" x1="1200.03" x2="1350.904" y1="735.1538" y2="735.1538"/><text fill="#1F2937" font-family="Arial" font-size="14" lengthAdjust="spacing" textLength="130.874" x="1210.03" y="726.852">&#1044;&#1086;&#1089;&#1090;&#1091;&#1087; &#1079;&#1072;&#1087;&#1088;&#1077;&#1097;&#1077;&#1085;</text></g><g><rect fill="#FFFFFF" height="50.2656" rx="5" ry="5" style="stroke:#9FB0C7;stroke-width:0.5;" width="200.9902" x="657.97" y="603.5969"/><line style="stroke:#9FB0C7;stroke-width:0.5;" x1="657.97" x2="858.9602" y1="629.8938" y2="629.8938"/><text fill="#1F2937" font-family="Arial" font-size="14" lengthAdjust="spacing" textLength="135.5361" x="690.6971" y="621.592">&#1047;&#1072;&#1075;&#1088;&#1091;&#1079;&#1082;&#1072; &#1082;&#1086;&#1084;&#1085;&#1072;&#1090;&#1099;</text><text fill="#1F2937" font-family="Arial" font-size="12" lengthAdjust="spacing" textLength="180.9902" x="667.97" y="646.0324">GET room details + messages</text></g><g><rect fill="#FFFFFF" height="50" rx="5" ry="5" style="stroke:#9FB0C7;stroke-width:0.5;" width="176.0781" x="797.43" y="708.8569"/><line style="stroke:#9FB0C7;stroke-width:0.5;" x1="797.43" x2="973.5081" y1="735.1538" y2="735.1538"/><text fill="#1F2937" font-family="Arial" font-size="14" lengthAdjust="spacing" textLength="156.0781" x="807.43" y="726.852">&#1055;&#1072;&#1089;&#1089;&#1080;&#1074;&#1085;&#1099;&#1081; &#1087;&#1088;&#1086;&#1089;&#1084;&#1086;&#1090;&#1088;</text></g><g><rect fill="#FFFFFF" height="50.2656" rx="5" ry="5" style="stroke:#9FB0C7;stroke-width:0.5;" width="241.9531" x="338.49" y="813.8569"/><line style="stroke:#9FB0C7;stroke-width:0.5;" x1="338.49" x2="580.4431" y1="840.1538" y2="840.1538"/><text fill="#1F2937" font-family="Arial" font-size="14" lengthAdjust="spacing" textLength="164.6299" x="377.1516" y="831.852">&#1055;&#1086;&#1076;&#1082;&#1083;&#1102;&#1095;&#1077;&#1085;&#1080;&#1077; realtime</text><text fill="#1F2937" font-family="Arial" font-size="12" lengthAdjust="spacing" textLength="221.9531" x="348.49" y="856.2924">&#1087;&#1086;&#1076;&#1082;&#1083;&#1102;&#1095;&#1077;&#1085;&#1080;&#1077; &#1082; /ws/chat/&lt;roomId&gt;/</text></g><g><rect fill="#FFFFFF" height="50" rx="5" ry="5" style="stroke:#9FB0C7;stroke-width:0.5;" width="156.9785" x="316.98" y="603.7269"/><line style="stroke:#9FB0C7;stroke-width:0.5;" x1="316.98" x2="473.9585" y1="630.0238" y2="630.0238"/><text fill="#1F2937" font-family="Arial" font-size="14" lengthAdjust="spacing" textLength="136.9785" x="326.98" y="621.722">&#1055;&#1077;&#1088;&#1077;&#1087;&#1086;&#1076;&#1082;&#1083;&#1102;&#1095;&#1077;&#1085;&#1080;&#1077;</text></g><g><rect fill="#FFFFFF" height="50" rx="5" ry="5" style="stroke:#9FB0C7;stroke-width:0.5;" width="210.1143" x="451.41" y="708.8569"/><line style="stroke:#9FB0C7;stroke-width:0.5;" x1="451.41" x2="661.5243" y1="735.1538" y2="735.1538"/><text fill="#1F2937" font-family="Arial" font-size="14" lengthAdjust="spacing" textLength="190.1143" x="461.41" y="726.852">&#1044;&#1077;&#1075;&#1088;&#1072;&#1076;&#1080;&#1088;&#1086;&#1074;&#1072;&#1085;&#1085;&#1099;&#1081; &#1088;&#1077;&#1078;&#1080;&#1084;</text></g><g><rect fill="#FFFFFF" height="50" rx="5" ry="5" style="stroke:#9FB0C7;stroke-width:0.5;" width="160.7109" x="904.11" y="603.7269"/><line style="stroke:#9FB0C7;stroke-width:0.5;" x1="904.11" x2="1064.8209" y1="630.0238" y2="630.0238"/><text fill="#1F2937" font-family="Arial" font-size="14" lengthAdjust="spacing" textLength="140.7109" x="914.11" y="621.722">&#1063;&#1083;&#1077;&#1085;&#1089;&#1090;&#1074;&#1086; &#1086;&#1090;&#1086;&#1079;&#1074;&#1072;&#1085;&#1086;</text></g><path d="M12,223.2969 L786.9344,223.2969 A5,5 0 0 1 791.9344,228.2969 L791.9344,249.5938 L7,249.5938 L7,228.2969 A5,5 0 0 1 12,223.2969" fill="#FFFFFF"/><rect fill="none" height="325.2969" rx="5" ry="5" style="stroke:#9FB0C7;stroke-width:0.5;" width="784.9344" x="7" y="223.2969"/><line style="stroke:#9FB0C7;stroke-width:0.5;" x1="7" x2="791.9344" y1="249.5938" y2="249.5938"/><text fill="#1F2937" font-family="Arial" font-size="14" lengthAdjust="spacing" textLength="123.3682" x="337.7831" y="241.292">&#1040;&#1082;&#1090;&#1080;&#1074;&#1085;&#1072;&#1103; &#1089;&#1077;&#1089;&#1089;&#1080;&#1103;</text><g><rect fill="#FFFFFF" height="50" rx="5" ry="5" style="stroke:#9FB0C7;stroke-width:0.5;" width="160.5605" x="368.37" y="316.5938"/><line style="stroke:#9FB0C7;stroke-width:0.5;" x1="368.37" x2="528.9305" y1="342.8906" y2="342.8906"/><text fill="#1F2937" font-family="Arial" font-size="14" lengthAdjust="spacing" textLength="140.5605" x="378.37" y="334.5889">&#1057;&#1080;&#1085;&#1093;&#1088;&#1086;&#1085;&#1080;&#1079;&#1080;&#1088;&#1086;&#1074;&#1072;&#1085;&#1086;</text></g><g><rect fill="#FFFFFF" height="50" rx="5" ry="5" style="stroke:#9FB0C7;stroke-width:0.5;" width="119.2988" x="19" y="402.5938"/><line style="stroke:#9FB0C7;stroke-width:0.5;" x1="19" x2="138.2988" y1="428.8906" y2="428.8906"/><text fill="#1F2937" font-family="Arial" font-size="14" lengthAdjust="spacing" textLength="99.2988" x="29" y="420.5889">&#1053;&#1072;&#1073;&#1086;&#1088; &#1090;&#1077;&#1082;&#1089;&#1090;&#1072;</text></g><g><rect fill="#FFFFFF" height="50" rx="5" ry="5" style="stroke:#9FB0C7;stroke-width:0.5;" width="165.3525" x="155.97" y="402.5938"/><line style="stroke:#9FB0C7;stroke-width:0.5;" x1="155.97" x2="321.3225" y1="428.8906" y2="428.8906"/><text fill="#1F2937" font-family="Arial" font-size="14" lengthAdjust="spacing" textLength="145.3525" x="165.97" y="420.5889">&#1047;&#1072;&#1075;&#1088;&#1091;&#1079;&#1082;&#1072; &#1074;&#1083;&#1086;&#1078;&#1077;&#1085;&#1080;&#1081;</text></g><g><rect fill="#FFFFFF" height="50" rx="5" ry="5" style="stroke:#9FB0C7;stroke-width:0.5;" width="152.0635" x="440.62" y="488.5938"/><line style="stroke:#9FB0C7;stroke-width:0.5;" x1="440.62" x2="592.6835" y1="514.8906" y2="514.8906"/><text fill="#1F2937" font-family="Arial" font-size="14" lengthAdjust="spacing" textLength="132.0635" x="450.62" y="506.5889">&#1054;&#1096;&#1080;&#1073;&#1082;&#1072; composer</text></g><g><rect fill="#FFFFFF" height="50" rx="5" ry="5" style="stroke:#9FB0C7;stroke-width:0.5;" width="217.8594" x="339.72" y="402.5938"/><line style="stroke:#9FB0C7;stroke-width:0.5;" x1="339.72" x2="557.5794" y1="428.8906" y2="428.8906"/><text fill="#1F2937" font-family="Arial" font-size="14" lengthAdjust="spacing" textLength="197.8594" x="349.72" y="420.5889">&#1057;&#1080;&#1085;&#1093;&#1088;&#1086;&#1085;&#1080;&#1079;&#1072;&#1094;&#1080;&#1103; &#1087;&#1088;&#1086;&#1095;&#1090;&#1077;&#1085;&#1080;&#1103;</text></g><g><rect fill="#FFFFFF" height="50" rx="5" ry="5" style="stroke:#9FB0C7;stroke-width:0.5;" width="191.4385" x="575.93" y="402.5938"/><line style="stroke:#9FB0C7;stroke-width:0.5;" x1="575.93" x2="767.3685" y1="428.8906" y2="428.8906"/><text fill="#1F2937" font-family="Arial" font-size="14" lengthAdjust="spacing" textLength="171.4385" x="585.93" y="420.5889">&#1054;&#1075;&#1088;&#1072;&#1085;&#1080;&#1095;&#1077;&#1085;&#1080;&#1077; &#1086;&#1090;&#1087;&#1088;&#1072;&#1074;&#1082;&#1080;</text></g><ellipse cx="448.65" cy="270.5938" fill="#222222" rx="10" ry="10" style="stroke:#222222;stroke-width:1;"/><!--link *start*Active to Synced--><g class="link" data-entity-1="ent0014" data-entity-2="ent0012" data-link-type="dependency" data-source-line="59" id="lnk15"><path d="M448.65,281.0738 C448.65,290.3238 448.65,298.2038 448.65,310.3338" fill="none" id="*start*Active-to-Synced" style="stroke:#687385;stroke-width:1.1;"/><polygon fill="#687385" points="448.65,316.3338,452.65,307.3338,448.65,311.3338,444.65,307.3338,448.65,316.3338" style="stroke:#687385;stroke-width:1.1;"/></g><!--link Synced to Typing--><g class="link" data-entity-1="ent0012" data-entity-2="ent0013" data-link-type="dependency" data-source-line="60" id="lnk16"><path d="M368.34,327.5938 C254.2,327.5938 58.77,327.5938 58.77,327.5938 C58.77,327.5938 58.77,366.4738 58.77,396.1038" fill="none" id="Synced-to-Typing" style="stroke:#687385;stroke-width:1.1;"/><polygon fill="#687385" points="58.77,402.1038,62.77,393.1038,58.77,397.1038,54.77,393.1038,58.77,402.1038" style="stroke:#687385;stroke-width:1.1;"/><text fill="#000000" font-family="Arial" font-size="13" lengthAdjust="spacing" textLength="110.189" x="65.3" y="323.6606">&#1089;&#1086;&#1073;&#1099;&#1090;&#1080;&#1077; &#1085;&#1072;&#1073;&#1086;&#1088;&#1072;</text></g><!--link Typing to Synced--><g class="link" data-entity-1="ent0013" data-entity-2="ent0012" data-link-type="dependency" data-source-line="61" id="lnk17"><path d="M98.53,402.5238 C98.53,375.8938 98.53,337.5938 98.53,337.5938 C98.53,337.5938 258.49,337.5938 361.89,337.5938" fill="none" id="Typing-to-Synced" style="stroke:#687385;stroke-width:1.1;"/><polygon fill="#687385" points="367.89,337.5938,358.89,333.5938,362.89,337.5938,358.89,341.5938,367.89,337.5938" style="stroke:#687385;stroke-width:1.1;"/><text fill="#000000" font-family="Arial" font-size="13" lengthAdjust="spacing" textLength="154.2227" x="201.74" y="333.6606">&#1090;&#1072;&#1081;&#1084;&#1072;&#1091;&#1090; &#1080;&#1083;&#1080; &#1086;&#1090;&#1087;&#1088;&#1072;&#1074;&#1082;&#1072;</text></g><!--link Synced to Uploading--><g class="link" data-entity-1="ent0012" data-entity-2="ent0014" data-link-type="dependency" data-source-line="63" id="lnk18"><path d="M367.89,347.5938 C299.02,347.5938 211.09,347.5938 211.09,347.5938 C211.09,347.5938 211.09,372.8438 211.09,396.2838" fill="none" id="Synced-to-Uploading" style="stroke:#687385;stroke-width:1.1;"/><polygon fill="#687385" points="211.09,402.2838,215.09,393.2838,211.09,397.2838,207.09,393.2838,211.09,402.2838" style="stroke:#687385;stroke-width:1.1;"/><text fill="#000000" font-family="Arial" font-size="13" lengthAdjust="spacing" textLength="129.6953" x="132.15" y="360.6606">&#1086;&#1095;&#1077;&#1088;&#1077;&#1076;&#1100; &#1074;&#1083;&#1086;&#1078;&#1077;&#1085;&#1080;&#1081;</text></g><!--link Uploading to Synced--><g class="link" data-entity-1="ent0014" data-entity-2="ent0012" data-link-type="dependency" data-source-line="64" id="lnk19"><path d="M266.21,402.3238 C266.21,382.2738 266.21,357.5938 266.21,357.5938 C266.21,357.5938 313.22,357.5938 362.1,357.5938" fill="none" id="Uploading-to-Synced" style="stroke:#687385;stroke-width:1.1;"/><polygon fill="#687385" points="368.1,357.5938,359.1,353.5938,363.1,357.5938,359.1,361.5938,368.1,357.5938" style="stroke:#687385;stroke-width:1.1;"/><text fill="#000000" font-family="Arial" font-size="13" lengthAdjust="spacing" textLength="139.6675" x="225.29" y="370.6606">&#1079;&#1072;&#1075;&#1088;&#1091;&#1079;&#1082;&#1072; &#1079;&#1072;&#1074;&#1077;&#1088;&#1096;&#1077;&#1085;&#1072;</text></g><!--link Uploading to ComposerError--><g class="link" data-entity-1="ent0014" data-entity-2="ent0015" data-link-type="dependency" data-source-line="65" id="lnk20"><path d="M238.65,452.7537 C238.65,478.4538 238.65,514.5938 238.65,514.5938 C238.65,514.5938 352.02,514.5938 434.32,514.5938" fill="none" id="Uploading-to-ComposerError" style="stroke:#687385;stroke-width:1.1;"/><polygon fill="#687385" points="440.32,514.5938,431.32,510.5938,435.32,514.5938,431.32,518.5938,440.32,514.5938" style="stroke:#687385;stroke-width:1.1;"/><text fill="#000000" font-family="Arial" font-size="13" lengthAdjust="spacing" textLength="135.4019" x="172.57" y="510.6606">&#1086;&#1096;&#1080;&#1073;&#1082;&#1072; &#1080;&#1083;&#1080; &#1086;&#1090;&#1084;&#1077;&#1085;&#1072;</text></g><!--link ComposerError to Synced--><g class="link" data-entity-1="ent0015" data-entity-2="ent0012" data-link-type="dependency" data-source-line="66" id="lnk21"><path d="M566.75,488.4038 C566.75,443.5638 566.75,354.5938 566.75,354.5938 C566.75,354.5938 556.15,354.5938 535.39,354.5938" fill="none" id="ComposerError-to-Synced" style="stroke:#687385;stroke-width:1.1;"/><polygon fill="#687385" points="529.39,354.5938,538.39,358.5938,534.39,354.5938,538.39,350.5938,529.39,354.5938" style="stroke:#687385;stroke-width:1.1;"/><text fill="#000000" font-family="Arial" font-size="13" lengthAdjust="spacing" textLength="97.0176" x="468.75" y="398.8806">retry &#1080;&#1083;&#1080; clear</text></g><!--link Synced to ReadSync--><g class="link" data-entity-1="ent0012" data-entity-2="ent0016" data-link-type="dependency" data-source-line="68" id="lnk22"><path d="M421.89,366.9338 C421.89,378.0338 421.89,385.0238 421.89,396.1438" fill="none" id="Synced-to-ReadSync" style="stroke:#687385;stroke-width:1.1;"/><polygon fill="#687385" points="421.89,402.1438,425.89,393.1438,421.89,397.1438,417.89,393.1438,421.89,402.1438" style="stroke:#687385;stroke-width:1.1;"/><text fill="#000000" font-family="Arial" font-size="13" lengthAdjust="spacing" textLength="69.564" x="351.89" y="380.6006">mark_read</text></g><!--link ReadSync to Synced--><g class="link" data-entity-1="ent0016" data-entity-2="ent0012" data-link-type="dependency" data-source-line="69" id="lnk23"><path d="M475.41,402.2537 C475.41,391.1538 475.41,384.1638 475.41,373.0438" fill="none" id="ReadSync-to-Synced" style="stroke:#687385;stroke-width:1.1;"/><polygon fill="#687385" points="475.41,367.0438,471.41,376.0438,475.41,372.0438,479.41,376.0438,475.41,367.0438" style="stroke:#687385;stroke-width:1.1;"/><text fill="#000000" font-family="Arial" font-size="13" lengthAdjust="spacing" textLength="83.4082" x="476.41" y="380.7206">&#1087;&#1086;&#1083;&#1091;&#1095;&#1077;&#1085; ack</text></g><!--link Synced to RateLimited--><g class="link" data-entity-1="ent0012" data-entity-2="ent0017" data-link-type="dependency" data-source-line="71" id="lnk24"><path d="M529.3,329.5938 C603.98,329.5938 703.56,329.5938 703.56,329.5938 C703.56,329.5938 703.56,367.0638 703.56,396.1038" fill="none" id="Synced-to-RateLimited" style="stroke:#687385;stroke-width:1.1;"/><polygon fill="#687385" points="703.56,402.1038,707.56,393.1038,703.56,397.1038,699.56,393.1038,703.56,402.1038" style="stroke:#687385;stroke-width:1.1;"/><text fill="#000000" font-family="Arial" font-size="13" lengthAdjust="spacing" textLength="128.2544" x="653.68" y="325.6606">slow mode &#1080;&#1083;&#1080; 429</text></g><!--link RateLimited to Synced--><g class="link" data-entity-1="ent0017" data-entity-2="ent0012" data-link-type="dependency" data-source-line="72" id="lnk25"><path d="M639.74,402.5538 C639.74,377.4738 639.74,342.5938 639.74,342.5938 C639.74,342.5938 587.57,342.5938 535.41,342.5938" fill="none" id="RateLimited-to-Synced" style="stroke:#687385;stroke-width:1.1;"/><polygon fill="#687385" points="529.41,342.5938,538.41,346.5938,534.41,342.5938,538.41,338.5938,529.41,342.5938" style="stroke:#687385;stroke-width:1.1;"/><text fill="#000000" font-family="Arial" font-size="13" lengthAdjust="spacing" textLength="112.1123" x="615.56" y="355.6606">&#1080;&#1089;&#1090;&#1077;&#1082; retry_after</text></g><ellipse cx="1221.47" cy="53.2969" fill="#222222" rx="10" ry="10" style="stroke:#222222;stroke-width:1;"/><ellipse cx="1041.47" cy="838.9969" fill="none" rx="11" ry="11" style="stroke:#222222;stroke-width:1;"/><ellipse cx="1041.47" cy="838.9969" fill="#222222" rx="6" ry="6" style="stroke:#222222;stroke-width:1;"/><g class="entity" data-qualified-name="GMN2" data-source-line="87" id="ent0003"><path d="M837.01,363.2469 L837.01,382.1269 L792.07,386.1269 L837.01,390.1269 L837.01,408.6453 A5,5 0 0 0 842.01,413.6453 L1066.9324,413.6453 A5,5 0 0 0 1071.9324,408.6453 L1071.9324,368.2469 L1061.9324,358.2469 L842.01,358.2469 A5,5 0 0 0 837.01,363.2469" fill="#FBFCFE" style="stroke:#D7DEE8;stroke-width:0.5;"/><path d="M1061.9324,358.2469 L1061.9324,365.7469 A2.5,2.5 0 0 0 1064.4324,368.2469 L1071.9324,368.2469 L1061.9324,358.2469" fill="#FBFCFE" style="stroke:#D7DEE8;stroke-width:0.5;"/><text fill="#445066" font-family="Arial" font-size="13" lengthAdjust="spacing" textLength="213.9224" x="843.01" y="375.3138">&#1058;&#1086;&#1090; &#1078;&#1077; reconnecting WebSocket</text><text fill="#445066" font-family="Arial" font-size="13" lengthAdjust="spacing" textLength="186.2974" x="856.8225" y="390.4466">&#1080;&#1089;&#1087;&#1086;&#1083;&#1100;&#1079;&#1091;&#1077;&#1090;&#1089;&#1103; &#1076;&#1083;&#1103; presence</text><text fill="#445066" font-family="Arial" font-size="13" lengthAdjust="spacing" textLength="94.0469" x="902.9477" y="405.5794">&#1080; direct inbox.</text></g><!--link *start* to Idle--><g class="link" data-entity-1="ent0002" data-entity-2="ent0002" data-link-type="dependency" data-source-line="33" id="lnk3"><path d="M1221.47,63.6269 C1221.47,76.8269 1221.47,94.1369 1221.47,112.1469" fill="none" id="*start*-to-Idle" style="stroke:#687385;stroke-width:1.1;"/><polygon fill="#687385" points="1221.47,118.1469,1225.47,109.1469,1221.47,113.1469,1217.47,109.1469,1221.47,118.1469" style="stroke:#687385;stroke-width:1.1;"/></g><!--link Idle to ResolveTarget--><g class="link" data-entity-1="ent0002" data-entity-2="ent0003" data-link-type="dependency" data-source-line="35" id="lnk4"><path d="M1221.47,168.3569 C1221.47,214.8469 1221.47,307.9969 1221.47,354.6669" fill="none" id="Idle-to-ResolveTarget" style="stroke:#687385;stroke-width:1.1;"/><polygon fill="#687385" points="1221.47,360.6669,1225.47,351.6669,1221.47,355.6669,1217.47,351.6669,1221.47,360.6669" style="stroke:#687385;stroke-width:1.1;"/><text fill="#000000" font-family="Arial" font-size="13" lengthAdjust="spacing" textLength="130.6284" x="1090.47" y="260.5738">&#1087;&#1077;&#1088;&#1077;&#1093;&#1086;&#1076; &#1085;&#1072; /:target</text></g><!--link ResolveTarget to AccessDenied--><g class="link" data-entity-1="ent0003" data-entity-2="ent0004" data-link-type="dependency" data-source-line="37" id="lnk5"><path d="M1261.94,411.5269 C1261.94,476.0269 1261.94,638.6769 1261.94,702.7069" fill="none" id="ResolveTarget-to-AccessDenied" style="stroke:#687385;stroke-width:1.1;"/><polygon fill="#687385" points="1261.94,708.7069,1265.94,699.7069,1261.94,703.7069,1257.94,699.7069,1261.94,708.7069" style="stroke:#687385;stroke-width:1.1;"/><text fill="#000000" font-family="Arial" font-size="13" lengthAdjust="spacing" textLength="137.1855" x="1123.94" y="556.1838">400 / 401 / 403 / 404</text></g><!--link ResolveTarget to LoadRoom--><g class="link" data-entity-1="ent0003" data-entity-2="ent0005" data-link-type="dependency" data-source-line="38" id="lnk6"><path d="M1159.55,411.1969 C1159.55,462.9369 1159.55,576.1269 1159.55,576.1269 C1159.55,576.1269 847.98,576.1269 847.98,576.1269 C847.98,576.1269 847.98,583.8969 847.98,597.3569" fill="none" id="ResolveTarget-to-LoadRoom" style="stroke:#687385;stroke-width:1.1;"/><polygon fill="#687385" points="847.98,603.3569,851.98,594.3569,847.98,598.3569,843.98,594.3569,847.98,603.3569" style="stroke:#687385;stroke-width:1.1;"/><text fill="#000000" font-family="Arial" font-size="13" lengthAdjust="spacing" textLength="100.5342" x="971.62" y="572.1938">&#1085;&#1072;&#1081;&#1076;&#1077;&#1085; roomId</text></g><!--link LoadRoom to PassiveView--><g class="link" data-entity-1="ent0005" data-entity-2="ent0006" data-link-type="dependency" data-source-line="41" id="lnk7"><path d="M828.2,654.1769 C828.2,670.7069 828.2,686.1669 828.2,702.6469" fill="none" id="LoadRoom-to-PassiveView" style="stroke:#687385;stroke-width:1.1;"/><polygon fill="#687385" points="828.2,708.6469,832.2,699.6469,828.2,703.6469,824.2,699.6469,828.2,708.6469" style="stroke:#687385;stroke-width:1.1;"/><text fill="#000000" font-family="Arial" font-size="13" lengthAdjust="spacing" textLength="188.4238" x="639.2" y="677.4838">&#1075;&#1086;&#1089;&#1090;&#1100; &#1074; &#1087;&#1091;&#1073;&#1083;&#1080;&#1095;&#1085;&#1086;&#1081; &#1082;&#1086;&#1084;&#1085;&#1072;&#1090;&#1077;</text></g><!--link LoadRoom to ConnectRealtime--><g class="link" data-entity-1="ent0005" data-entity-2="ent0007" data-link-type="dependency" data-source-line="42" id="lnk8"><path d="M729.48,654.0169 C729.48,705.8069 729.48,819.1269 729.48,819.1269 C729.48,819.1269 658.43,819.1269 586.65,819.1269" fill="none" id="LoadRoom-to-ConnectRealtime" style="stroke:#687385;stroke-width:1.1;"/><polygon fill="#687385" points="580.65,819.1269,589.65,823.1269,585.65,819.1269,589.65,815.1269,580.65,819.1269" style="stroke:#687385;stroke-width:1.1;"/><text fill="#000000" font-family="Arial" font-size="13" lengthAdjust="spacing" textLength="80.2217" x="639.8587" y="792.0538">&#1077;&#1089;&#1090;&#1100; &#1089;&#1077;&#1089;&#1089;&#1080;&#1103;</text><text fill="#000000" font-family="Arial" font-size="13" lengthAdjust="spacing" textLength="98.979" x="630.48" y="807.1866">&#1080;&#1083;&#1080; &#1085;&#1091;&#1078;&#1077;&#1085; WS</text></g><!--link PassiveView to ConnectRealtime--><g class="link" data-entity-1="ent0006" data-entity-2="ent0007" data-link-type="dependency" data-source-line="44" id="lnk9"><path d="M885.47,759.0069 C885.47,785.7169 885.47,824.1269 885.47,824.1269 C885.47,824.1269 712.62,824.1269 586.69,824.1269" fill="none" id="PassiveView-to-ConnectRealtime" style="stroke:#687385;stroke-width:1.1;"/><polygon fill="#687385" points="580.69,824.1269,589.69,828.1269,585.69,824.1269,589.69,820.1269,580.69,824.1269" style="stroke:#687385;stroke-width:1.1;"/><text fill="#000000" font-family="Arial" font-size="13" lengthAdjust="spacing" textLength="157.2568" x="607.64" y="837.1938">&#1089;&#1077;&#1089;&#1089;&#1080;&#1103; &#1089;&#1090;&#1072;&#1083;&#1072; &#1076;&#1086;&#1089;&#1090;&#1091;&#1087;&#1085;&#1072;</text></g><!--link PassiveView to *end*--><g class="link" data-entity-1="ent0006" data-entity-2="ent0010" data-link-type="dependency" data-source-line="45" id="lnk11"><path d="M973.88,743.1269 C1006.64,743.1269 1035.97,743.1269 1035.97,743.1269 C1035.97,743.1269 1035.97,798.5969 1035.97,823.0969" fill="none" id="PassiveView-to-*end*" style="stroke:#687385;stroke-width:1.1;"/><polygon fill="#687385" points="1035.97,829.0969,1039.97,820.0969,1035.97,824.0969,1031.97,820.0969,1035.97,829.0969" style="stroke:#687385;stroke-width:1.1;"/><text fill="#000000" font-family="Arial" font-size="13" lengthAdjust="spacing" textLength="122.6938" x="1036.97" y="751.1338">&#1091;&#1093;&#1086;&#1076; &#1089;&#1086; &#1089;&#1090;&#1088;&#1072;&#1085;&#1080;&#1094;&#1099;</text></g><!--link ConnectRealtime to Active--><g class="link" data-entity-1="ent0007" data-entity-2="ent0011" data-link-type="dependency" data-source-line="48" id="lnk12"><path d="M338.04,839.1269 C255.79,839.1269 161.99,839.1269 161.99,839.1269 C161.99,839.1269 161.99,684.8369 161.99,554.9169" fill="none" id="ConnectRealtime-to-Active" style="stroke:#687385;stroke-width:1.1;"/><polygon fill="#687385" points="161.99,548.9169,157.99,557.9169,161.99,553.9169,165.99,557.9169,161.99,548.9169" style="stroke:#687385;stroke-width:1.1;"/><text fill="#000000" font-family="Arial" font-size="13" lengthAdjust="spacing" textLength="92.1235" x="68.99" y="778.1138">&#1089;&#1086;&#1082;&#1077;&#1090; &#1086;&#1090;&#1082;&#1088;&#1099;&#1090;</text></g><!--link ConnectRealtime to Reconnecting--><g class="link" data-entity-1="ent0007" data-entity-2="ent0008" data-link-type="dependency" data-source-line="49" id="lnk13"><path d="M376.13,813.6269 C376.13,773.2169 376.13,700.6469 376.13,660.1769" fill="none" id="ConnectRealtime-to-Reconnecting" style="stroke:#687385;stroke-width:1.1;"/><polygon fill="#687385" points="376.13,654.1769,372.13,663.1769,376.13,659.1769,380.13,663.1769,376.13,654.1769" style="stroke:#687385;stroke-width:1.1;"/><text fill="#000000" font-family="Arial" font-size="13" lengthAdjust="spacing" textLength="119.0884" x="256.13" y="729.9738">&#1086;&#1096;&#1080;&#1073;&#1082;&#1072; &#1080;&#1083;&#1080; close</text></g><!--link Reconnecting to ConnectRealtime--><g class="link" data-entity-1="ent0008" data-entity-2="ent0007" data-link-type="dependency" data-source-line="76" id="lnk27"><path d="M413.77,654.0869 C413.77,694.5069 413.77,767.0669 413.77,807.5369" fill="none" id="Reconnecting-to-ConnectRealtime" style="stroke:#687385;stroke-width:1.1;"/><polygon fill="#687385" points="413.77,813.5369,417.77,804.5369,413.77,808.5369,409.77,804.5369,413.77,813.5369" style="stroke:#687385;stroke-width:1.1;"/><text fill="#000000" font-family="Arial" font-size="13" lengthAdjust="spacing" textLength="111.3062" x="301.77" y="746.8838">&#1087;&#1086;&#1074;&#1090;&#1086;&#1088; &#1089; backoff</text></g><!--link Active to Reconnecting--><g class="link" data-entity-1="ent0011" data-entity-2="ent0008" data-link-type="dependency" data-source-line="75" id="lnk26"><path d="M395.47,548.8969 C395.47,569.8969 395.47,583.0169 395.47,597.2669" fill="none" id="Active-to-Reconnecting" style="stroke:#687385;stroke-width:1.1;"/><polygon fill="#687385" points="395.47,603.2669,399.47,594.2669,395.47,598.2669,391.47,594.2669,395.47,603.2669" style="stroke:#687385;stroke-width:1.1;"/><text fill="#000000" font-family="Arial" font-size="13" lengthAdjust="spacing" textLength="144.6885" x="250.47" y="572.1538">&#1089;&#1086;&#1082;&#1077;&#1090; &#1079;&#1072;&#1082;&#1088;&#1099;&#1090; / offline</text></g><!--link Reconnecting to Degraded--><g class="link" data-entity-1="ent0008" data-entity-2="ent0009" data-link-type="dependency" data-source-line="77" id="lnk28"><path d="M462.68,654.1769 C462.68,670.7069 462.68,686.1669 462.68,702.6469" fill="none" id="Reconnecting-to-Degraded" style="stroke:#687385;stroke-width:1.1;"/><polygon fill="#687385" points="462.68,708.6469,466.68,699.6469,462.68,703.6469,458.68,699.6469,462.68,708.6469" style="stroke:#687385;stroke-width:1.1;"/><text fill="#000000" font-family="Arial" font-size="13" lengthAdjust="spacing" textLength="153.0356" x="308.68" y="677.4838">&#1076;&#1086;&#1089;&#1090;&#1080;&#1075;&#1085;&#1091;&#1090; &#1083;&#1080;&#1084;&#1080;&#1090; retry</text></g><!--link Degraded to ConnectRealtime--><g class="link" data-entity-1="ent0009" data-entity-2="ent0007" data-link-type="dependency" data-source-line="78" id="lnk29"><path d="M515.93,759.3069 C515.93,775.7169 515.93,790.9769 515.93,807.4169" fill="none" id="Degraded-to-ConnectRealtime" style="stroke:#687385;stroke-width:1.1;"/><polygon fill="#687385" points="515.93,813.4169,519.93,804.4169,515.93,808.4169,511.93,804.4169,515.93,813.4169" style="stroke:#687385;stroke-width:1.1;"/><text fill="#000000" font-family="Arial" font-size="13" lengthAdjust="spacing" textLength="117.8252" x="370.4915" y="767.4338">&#1088;&#1091;&#1095;&#1085;&#1086;&#1081; reconnect</text><text fill="#000000" font-family="Arial" font-size="13" lengthAdjust="spacing" textLength="172.9482" x="342.93" y="782.5666">&#1080;&#1083;&#1080; &#1089;&#1077;&#1090;&#1100; &#1074;&#1086;&#1089;&#1089;&#1090;&#1072;&#1085;&#1086;&#1074;&#1080;&#1083;&#1072;&#1089;&#1100;</text></g><!--link Active to MembershipRevoked--><g class="link" data-entity-1="ent0011" data-entity-2="ent0010" data-link-type="dependency" data-source-line="80" id="lnk30"><path d="M792.11,504.1269 C898.3,504.1269 984.47,504.1269 984.47,504.1269 C984.47,504.1269 984.47,561.1069 984.47,597.5169" fill="none" id="Active-to-MembershipRevoked" style="stroke:#687385;stroke-width:1.1;"/><polygon fill="#687385" points="984.47,603.5169,988.47,594.5169,984.47,598.5169,980.47,594.5169,984.47,603.5169" style="stroke:#687385;stroke-width:1.1;"/><text fill="#000000" font-family="Arial" font-size="13" lengthAdjust="spacing" textLength="143.895" x="793.98" y="485.1938">&#1080;&#1089;&#1082;&#1083;&#1102;&#1095;&#1077;&#1085; / &#1079;&#1072;&#1073;&#1072;&#1085;&#1077;&#1085; /</text><text fill="#000000" font-family="Arial" font-size="13" lengthAdjust="spacing" textLength="106.5073" x="812.6738" y="500.3266">&#1076;&#1086;&#1089;&#1090;&#1091;&#1087; &#1086;&#1090;&#1086;&#1079;&#1074;&#1072;&#1085;</text></g><!--link AccessDenied to *end*--><g class="link" data-entity-1="ent0004" data-entity-2="ent0010" data-link-type="dependency" data-source-line="81" id="lnk31"><path d="M1199.7,726.1269 C1133.18,726.1269 1046.97,726.1269 1046.97,726.1269 C1046.97,726.1269 1046.97,795.3569 1046.97,822.9769" fill="none" id="AccessDenied-to-*end*" style="stroke:#687385;stroke-width:1.1;"/><polygon fill="#687385" points="1046.97,828.9769,1050.97,819.9769,1046.97,823.9769,1042.97,819.9769,1046.97,828.9769" style="stroke:#687385;stroke-width:1.1;"/></g><!--link MembershipRevoked to *end*--><g class="link" data-entity-1="ent0010" data-entity-2="ent0010" data-link-type="dependency" data-source-line="82" id="lnk32"><path d="M1041.47,654.0869 C1041.47,699.9669 1041.47,788.9969 1041.47,821.6769" fill="none" id="MembershipRevoked-to-*end*" style="stroke:#687385;stroke-width:1.1;"/><polygon fill="#687385" points="1041.47,827.6769,1045.47,818.6769,1041.47,822.6769,1037.47,818.6769,1041.47,827.6769" style="stroke:#687385;stroke-width:1.1;"/></g><!--link Active to *end*--><g class="link" data-entity-1="ent0011" data-entity-2="ent0010" data-link-type="dependency" data-source-line="83" id="lnk33"><path d="M791.96,459.1269 C937.76,459.1269 1068.38,459.1269 1068.38,459.1269 C1068.38,459.1269 1068.38,839.1269 1068.38,839.1269 C1068.38,839.1269 1066.1,839.1269 1058.72,839.1269" fill="none" id="Active-to-*end*" style="stroke:#687385;stroke-width:1.1;"/><polygon fill="#687385" points="1052.72,839.1269,1061.72,843.1269,1057.72,839.1269,1061.72,835.1269,1052.72,839.1269" style="stroke:#687385;stroke-width:1.1;"/><text fill="#000000" font-family="Arial" font-size="13" lengthAdjust="spacing" textLength="106.9072" x="961.38" y="514.8138">logout &#1080;&#1083;&#1080; &#1091;&#1093;&#1086;&#1076;</text></g><!--link Degraded to *end*--><g class="link" data-entity-1="ent0009" data-entity-2="ent0010" data-link-type="dependency" data-source-line="84" id="lnk34"><path d="M620.98,759.3469 C620.98,790.4969 620.98,839.1269 620.98,839.1269 C620.98,839.1269 957.35,839.1269 1024.22,839.1269" fill="none" id="Degraded-to-*end*" style="stroke:#687385;stroke-width:1.1;"/><polygon fill="#687385" points="1030.22,839.1269,1021.22,835.1269,1025.22,839.1269,1021.22,843.1269,1030.22,839.1269" style="stroke:#687385;stroke-width:1.1;"/><text fill="#000000" font-family="Arial" font-size="13" lengthAdjust="spacing" textLength="136.3984" x="786.71" y="835.1938">&#1079;&#1072;&#1082;&#1088;&#1099;&#1090;&#1080;&#1077; &#1089;&#1090;&#1088;&#1072;&#1085;&#1080;&#1094;&#1099;</text></g><?plantuml-src VLPTRnD757tVNp6YRwt02IG4K8L4WLP8j4L9MXxQ2crsnyxAwnrhTac8gafn8g1LKDE7IdqgBNtfgnDYOaZi_8NPVzHpx-okPsEdULZ5C_USkVVSZvaioc8fxicDA4x5iaopA6c9oyAyCUEyb-_Wksz6PfZlYxnd1bZgcQ4PYlobwMEtxwNjAEdwsk-8TDqFrIR1ctwSIcTdpG_QBQsU9k5T5IijFchodsCHHudCjhfIA9sjAsSZb4t_QPojocVPdJXg9HsPP2B0Hsh7Ab6XJ6LNB2mwYzfFshIuM5iaBmAb4wd5_9opSKThjLcuT_t6qhKRY-StLzUZe9t8D1NpL-QdNVnS9TbNVaV2EF9ZLvVCpwJuqHFYCwL3gOj3RZRNve8bMhr07I68ibYRRrwzUMt9-waMz2pQS2cKyiPCshLcq9HrseM5nRdhrq7hMIylcTVc7H9yPFgKTJEu9FnKF0XZMHdyZQtZV1kryBCPM2E1fIDUwfb-LHeCHKMfU4Ek-hebiuhZTrjS-Quv4-OOw3D6_qA43BiJ113wdamY6LQeFs3uDjy6wjXym47uZCqfNC1n-HxZ7Ye_N5QgKs7-mgQjsKCpolVCUy5duNWWny1jC-wHdwRHXlmsafiET0mTFfYJ_5U4L8QgfHzdKKSoxAvA4XbaoyMQ0nrGGEPi5aMXIs2nw1T7bW45I6gYu-0bdAOyMCUPaP9poWptP4lxeIFFl-Q4Zk2kFJHZGU61uhWW6JFgIzbPapfTZxhBSaEr0VU--_W7SVdoRPjbZxxyivOvSGkwsQ3ovnIK8Db5urPc4tlU-D7NAwkYuNUZHh3kPmrjjnldxEWODzC0BipDYGQ-y_oznj-56R0oqUGOF37l8Hc2Ht-hpWC4vUn_SN-Lbz6ecKzJxXFHmP5-IwOJC-9qYe1etnP5-agOGwgQNNC0XOT89CIaGdBApmpgLESAW-W61TbaZERxtoT89pWH0-ZVSGIFLppFzMGsdSiYEELz4A4dZYQjHQvDKL6s0TyjqWY6CUEvx6ZGlyZtF6-6_pDh6IA8ncPgi_of5VzsOmfk4vt13-lw63o3VCUMw0Uqz5w-CnFajWavCSRG6I8FtFvMkY1Mk6ogBlWDV3kstP6O_PfGnMXXFsXmbfWti1_bpxdZAApZMlVPnbdPIW9qomJq9pOFuD2seFJZr5urz5QtkjJM4zkfoNK8rySsuJZlFQE-wSOeeJhmjHDle3fTXAgBoMD_tCVDfFytb7x-Wekac7ilsTjH9GVa3Yaszz1Y28susAjCKwxEUECG_Wmj6eY7KIVAQ908KOwIIYpx3wzPKShy7r3ABU-e51BLAagp2GiXThZ3Jn7BBbLDqJDrX_fU_RnAJbitBukHVCJzN9SVm8brxMI-d6gPE-RZm5LSV_qfS2qr5nGj-tvQ4TGXDG-qpFJMfDQbhy_5MIOGjXrVjv_WWYBbg-LwFDJ59r2HyohmH3ZFDaaepDDOROeE7bUb0mjNRnAtOrId7t8Ne1kitq_y9ZtKyBmekcv6JxlZWCGjnW4clseswLterG0NJ5UAwv2Vg-Z77hyu0P-6bhScOOfHYT3Uqlmb1qxeUaKKEzP_hpA_O0flivJsFj3bMTLKvzbZBn0-oexf4KyMig2doQkQDbFNSo6gEtUX30jrm5oyW1EFt2TLxURtQbTiSGTuqoULEuuxzhA8LKizpSeIAA-EkZRMqaqWD_VqpSAlLXsrrZFajnZ6dlc7N1RKaHCPAMMFvTgA2jfuOR0AjdfVuVsvoyhsQAuTOMbVTF76a2X368em0aacecHDFRlYoIJaj_9_?></g></svg>