<?plantuml 1.2026.1?><svg xmlns="http://www.w3.org/2000/svg" xmlns:xlink="http://www.w3.org/1999/xlink" contentStyleType="text/css" data-diagram-type="STATE" height="1062px" preserveAspectRatio="none" style="width:1923px;height:1062px;background:#FFFFFF;" version="1.1" viewBox="0 0 1923 1062" width="1923px" zoomAndPan="magnify"><title>Devils Resting - Chat Session State</title><defs/><g><g class="title" data-source-line="1"><text fill="#000000" font-family="sans-serif" font-size="14" font-weight="bold" lengthAdjust="spacing" textLength="277.8604" x="815.7372" y="22.9951">Devils Resting - Chat Session State</text></g><g><rect fill="#F1F1F1" height="50.2656" rx="12.5" ry="12.5" style="stroke:#181818;stroke-width:0.5;" width="159.9102" x="1707.72" y="406.3169"/><line style="stroke:#181818;stroke-width:0.5;" x1="1707.72" x2="1867.6302" y1="432.6138" y2="432.6138"/><text fill="#000000" font-family="sans-serif" font-size="14" lengthAdjust="spacing" textLength="100.8643" x="1737.2429" y="424.312">ResolveTarget</text><text fill="#000000" font-family="sans-serif" font-size="12" lengthAdjust="spacing" textLength="139.9102" x="1712.72" y="448.7524">POST /api/chat/resolve/</text></g><g><rect fill="#F1F1F1" height="50.2656" rx="12.5" ry="12.5" style="stroke:#181818;stroke-width:0.5;" width="200.9902" x="1262.18" y="703.5969"/><line style="stroke:#181818;stroke-width:0.5;" x1="1262.18" x2="1463.1702" y1="729.8938" y2="729.8938"/><text fill="#000000" font-family="sans-serif" font-size="14" lengthAdjust="spacing" textLength="74.3271" x="1325.5115" y="721.592">LoadRoom</text><text fill="#000000" font-family="sans-serif" font-size="12" lengthAdjust="spacing" textLength="180.9902" x="1267.18" y="746.0324">GET room details + messages</text></g><g><rect fill="#F1F1F1" height="50.2656" rx="12.5" ry="12.5" style="stroke:#181818;stroke-width:0.5;" width="174.3945" x="743.48" y="1005.8569"/><line style="stroke:#181818;stroke-width:0.5;" x1="743.48" x2="917.8745" y1="1032.1538" y2="1032.1538"/><text fill="#000000" font-family="sans-serif" font-size="14" lengthAdjust="spacing" textLength="120.3262" x="770.5142" y="1023.852">ConnectRealtime</text><text fill="#000000" font-family="sans-serif" font-size="12" lengthAdjust="spacing" textLength="154.3945" x="748.48" y="1048.2924">build /ws/chat/&lt;roomId&gt;/</text></g><path d="M19.5,251.2969 L1281.8583,251.2969 A12.5,12.5 0 0 1 1294.3583,263.7969 L1294.3583,277.5938 L7,277.5938 L7,263.7969 A12.5,12.5 0 0 1 19.5,251.2969" fill="#F1F1F1"/><rect fill="none" height="360.2969" rx="12.5" ry="12.5" style="stroke:#181818;stroke-width:0.5;" width="1287.3583" x="7" y="251.2969"/><line style="stroke:#181818;stroke-width:0.5;" x1="7" x2="1294.3583" y1="277.5938" y2="277.5938"/><text fill="#000000" font-family="sans-serif" font-size="14" lengthAdjust="spacing" textLength="43.5518" x="628.9033" y="269.292">Active</text><ellipse cx="654.39" cy="298.5938" fill="#222222" rx="10" ry="10" style="stroke:#222222;stroke-width:1;"/><g><rect fill="#F1F1F1" height="50" rx="12.5" ry="12.5" style="stroke:#181818;stroke-width:0.5;" width="71.2422" x="618.77" y="345.5938"/><line style="stroke:#181818;stroke-width:0.5;" x1="618.77" x2="690.0122" y1="371.8906" y2="371.8906"/><text fill="#000000" font-family="sans-serif" font-size="14" lengthAdjust="spacing" textLength="51.2422" x="628.77" y="363.5889">Synced</text></g><g><rect fill="#F1F1F1" height="50" rx="12.5" ry="12.5" style="stroke:#181818;stroke-width:0.5;" width="67.373" x="70.7" y="448.5938"/><line style="stroke:#181818;stroke-width:0.5;" x1="70.7" x2="138.073" y1="474.8906" y2="474.8906"/><text fill="#000000" font-family="sans-serif" font-size="14" lengthAdjust="spacing" textLength="47.373" x="80.7" y="466.5889">Typing</text></g><g><rect fill="#F1F1F1" height="50" rx="12.5" ry="12.5" style="stroke:#181818;stroke-width:0.5;" width="90.7041" x="469.04" y="448.5938"/><line style="stroke:#181818;stroke-width:0.5;" x1="469.04" x2="559.7441" y1="474.8906" y2="474.8906"/><text fill="#000000" font-family="sans-serif" font-size="14" lengthAdjust="spacing" textLength="70.7041" x="479.04" y="466.5889">Uploading</text></g><g><rect fill="#F1F1F1" height="50" rx="12.5" ry="12.5" style="stroke:#181818;stroke-width:0.5;" width="125.7725" x="897.5" y="551.5938"/><line style="stroke:#181818;stroke-width:0.5;" x1="897.5" x2="1023.2725" y1="577.8906" y2="577.8906"/><text fill="#000000" font-family="sans-serif" font-size="14" lengthAdjust="spacing" textLength="105.7725" x="907.5" y="569.5889">ComposerError</text></g><g><rect fill="#F1F1F1" height="50" rx="12.5" ry="12.5" style="stroke:#181818;stroke-width:0.5;" width="89.5488" x="656.61" y="448.5938"/><line style="stroke:#181818;stroke-width:0.5;" x1="656.61" x2="746.1588" y1="474.8906" y2="474.8906"/><text fill="#000000" font-family="sans-serif" font-size="14" lengthAdjust="spacing" textLength="69.5488" x="666.61" y="466.5889">ReadSync</text></g><g><rect fill="#F1F1F1" height="50" rx="12.5" ry="12.5" style="stroke:#181818;stroke-width:0.5;" width="104.6152" x="908.08" y="448.5938"/><line style="stroke:#181818;stroke-width:0.5;" x1="908.08" x2="1012.6952" y1="474.8906" y2="474.8906"/><text fill="#000000" font-family="sans-serif" font-size="14" lengthAdjust="spacing" textLength="84.6152" x="918.08" y="466.5889">RateLimited</text></g><!--link *start*Active to Synced--><g class="link" data-entity-1="ent0018" data-entity-2="ent0019" data-link-type="dependency" data-source-line="23" id="lnk20"><path d="M654.39,309.0338 C654.39,318.2938 654.39,326.7838 654.39,339.2738" fill="none" id="*start*Active-to-Synced" style="stroke:#181818;stroke-width:1;"/><polygon fill="#181818" points="654.39,345.2738,658.39,336.2738,654.39,340.2738,650.39,336.2738,654.39,345.2738" style="stroke:#181818;stroke-width:1;"/></g><!--link Synced to Typing--><g class="link" data-entity-1="ent0019" data-entity-2="ent0021" data-link-type="dependency" data-source-line="25" id="lnk22"><path d="M618.39,371.2438 C492.05,370.3837 74.35,370.8338 34.39,413.5938 C18,431.1238 39.827,446.0447 64.977,457.3447" fill="none" id="Synced-to-Typing" style="stroke:#181818;stroke-width:1;"/><polygon fill="#181818" points="70.45,459.8038,63.8799,452.4666,65.8892,457.7546,60.6012,459.7639,70.45,459.8038" style="stroke:#181818;stroke-width:1;"/><text fill="#000000" font-family="sans-serif" font-size="13" lengthAdjust="spacing" textLength="117.6982" x="35.39" y="426.6606">send typing event</text></g><!--link Typing to Synced--><g class="link" data-entity-1="ent0021" data-entity-2="ent0019" data-link-type="dependency" data-source-line="26" id="lnk23"><path d="M131.06,448.3738 C146.63,435.7338 167.3,421.3138 188.39,413.5938 C267.33,384.6738 517.2923,375.229 612.3823,372.609" fill="none" id="Typing-to-Synced" style="stroke:#181818;stroke-width:1;"/><polygon fill="#181818" points="618.38,372.4438,609.2732,368.6931,613.3819,372.5815,609.4936,376.6901,618.38,372.4438" style="stroke:#181818;stroke-width:1;"/><text fill="#000000" font-family="sans-serif" font-size="13" lengthAdjust="spacing" textLength="162.8872" x="189.39" y="426.6606">timeout or message sent</text></g><!--link Synced to Uploading--><g class="link" data-entity-1="ent0019" data-entity-2="ent0024" data-link-type="dependency" data-source-line="28" id="lnk25"><path d="M618.52,371.2038 C548.15,371.2838 396.01,375.9238 363.39,413.5938 C331.14,450.8238 407.575,464.1766 462.945,469.2466" fill="none" id="Synced-to-Uploading" style="stroke:#181818;stroke-width:1;"/><polygon fill="#181818" points="468.92,469.7938,460.3222,464.9898,463.9408,469.3378,459.5928,472.9564,468.92,469.7938" style="stroke:#181818;stroke-width:1;"/><text fill="#000000" font-family="sans-serif" font-size="13" lengthAdjust="spacing" textLength="127.1436" x="364.39" y="426.6606">queue attachments</text></g><!--link Uploading to Synced--><g class="link" data-entity-1="ent0024" data-entity-2="ent0019" data-link-type="dependency" data-source-line="29" id="lnk26"><path d="M515.75,448.1838 C517.61,436.4138 521.67,422.8738 530.39,413.5938 C553.27,389.2537 584.8306,379.9315 612.6106,375.6315" fill="none" id="Uploading-to-Synced" style="stroke:#181818;stroke-width:1;"/><polygon fill="#181818" points="618.54,374.7138,609.0341,372.1375,613.5988,375.4786,610.2578,380.0434,618.54,374.7138" style="stroke:#181818;stroke-width:1;"/><text fill="#000000" font-family="sans-serif" font-size="13" lengthAdjust="spacing" textLength="115.9019" x="531.39" y="426.6606">uploads complete</text></g><!--link Uploading to ComposerError--><g class="link" data-entity-1="ent0024" data-entity-2="ent0027" data-link-type="dependency" data-source-line="30" id="lnk28"><path d="M560.02,484.9238 C640.17,503.0738 800.4782,539.3784 891.5182,559.9984" fill="none" id="Uploading-to-ComposerError" style="stroke:#181818;stroke-width:1;"/><polygon fill="#181818" points="897.37,561.3238,889.4759,555.4345,892.4935,560.2193,887.7087,563.2368,897.37,561.3238" style="stroke:#181818;stroke-width:1;"/><text fill="#000000" font-family="sans-serif" font-size="13" lengthAdjust="spacing" textLength="164.3472" x="764.39" y="529.6606">upload failed or canceled</text></g><!--link ComposerError to Synced--><g class="link" data-entity-1="ent0027" data-entity-2="ent0019" data-link-type="dependency" data-source-line="31" id="lnk29"><path d="M1023.74,551.1838 C1093.57,520.8438 1190,466.5738 1141.39,413.5938 C1111.02,380.4938 803.6994,373.4953 696.2894,372.0353" fill="none" id="ComposerError-to-Synced" style="stroke:#181818;stroke-width:1;"/><polygon fill="#181818" points="690.29,371.9538,699.2348,376.0757,695.2895,372.0217,699.3435,368.0764,690.29,371.9538" style="stroke:#181818;stroke-width:1;"/><text fill="#000000" font-family="sans-serif" font-size="13" lengthAdjust="spacing" textLength="129.9683" x="1154.39" y="478.1606">retry or clear queue</text></g><!--link Synced to ReadSync--><g class="link" data-entity-1="ent0019" data-entity-2="ent0030" data-link-type="dependency" data-source-line="33" id="lnk31"><path d="M650.54,396.0838 C649.86,407.0838 650.59,419.9438 655.39,430.5938 C658.32,437.1038 658.6407,438.7194 663.6807,443.9594" fill="none" id="Synced-to-ReadSync" style="stroke:#181818;stroke-width:1;"/><polygon fill="#181818" points="667.84,448.2838,664.4839,439.0243,664.3739,444.6801,658.7181,444.5701,667.84,448.2838" style="stroke:#181818;stroke-width:1;"/><text fill="#000000" font-family="sans-serif" font-size="13" lengthAdjust="spacing" textLength="69.564" x="656.39" y="426.6606">mark_read</text></g><!--link ReadSync to Synced--><g class="link" data-entity-1="ent0030" data-entity-2="ent0019" data-link-type="dependency" data-source-line="34" id="lnk32"><path d="M721.94,448.1337 C728.51,437.2637 732.65,424.4938 726.39,413.5938 C718.46,399.7938 709.471,392.6653 695.621,386.0953" fill="none" id="ReadSync-to-Synced" style="stroke:#181818;stroke-width:1;"/><polygon fill="#181818" points="690.2,383.5238,696.6171,390.9951,694.7175,385.6667,700.0459,383.7671,690.2,383.5238" style="stroke:#181818;stroke-width:1;"/><text fill="#000000" font-family="sans-serif" font-size="13" lengthAdjust="spacing" textLength="116.5112" x="731.39" y="426.6606">read ack received</text></g><!--link Synced to RateLimited--><g class="link" data-entity-1="ent0019" data-entity-2="ent0033" data-link-type="dependency" data-source-line="36" id="lnk34"><path d="M690.31,376.0137 C730.67,381.6938 797.68,393.3438 852.39,413.5938 C865.71,418.5238 889.1319,431.2746 913.5719,445.2546" fill="none" id="Synced-to-RateLimited" style="stroke:#181818;stroke-width:1;"/><polygon fill="#181818" points="918.78,448.2338,912.9539,440.293,914.4399,445.7511,908.9817,447.2372,918.78,448.2338" style="stroke:#181818;stroke-width:1;"/><text fill="#000000" font-family="sans-serif" font-size="13" lengthAdjust="spacing" textLength="116.3462" x="887.39" y="426.6606">slow mode or 429</text></g><!--link RateLimited to Synced--><g class="link" data-entity-1="ent0033" data-entity-2="ent0019" data-link-type="dependency" data-source-line="37" id="lnk35"><path d="M997.87,448.3738 C1010.11,437.5538 1018.3,424.7537 1008.39,413.5938 C987.48,390.0538 782.1128,377.6978 696.3028,373.4878" fill="none" id="RateLimited-to-Synced" style="stroke:#181818;stroke-width:1;"/><polygon fill="#181818" points="690.31,373.1938,699.1032,377.63,695.304,373.4388,699.4952,369.6396,690.31,373.1938" style="stroke:#181818;stroke-width:1;"/><text fill="#000000" font-family="sans-serif" font-size="13" lengthAdjust="spacing" textLength="123.9443" x="1013.39" y="426.6606">retry_after elapsed</text></g><ellipse cx="1787.68" cy="53.2969" fill="#222222" rx="10" ry="10" style="stroke:#222222;stroke-width:1;"/><g><rect fill="#F1F1F1" height="50" rx="12.5" ry="12.5" style="stroke:#181818;stroke-width:0.5;" width="50" x="1762.68" y="124.2969"/><line style="stroke:#181818;stroke-width:0.5;" x1="1762.68" x2="1812.68" y1="150.5938" y2="150.5938"/><text fill="#000000" font-family="sans-serif" font-size="14" lengthAdjust="spacing" textLength="25.5186" x="1774.9207" y="142.292">Idle</text></g><g><rect fill="#F1F1F1" height="50" rx="12.5" ry="12.5" style="stroke:#181818;stroke-width:0.5;" width="117.8291" x="1698.76" y="783.8569"/><line style="stroke:#181818;stroke-width:0.5;" x1="1698.76" x2="1816.5891" y1="810.1538" y2="810.1538"/><text fill="#000000" font-family="sans-serif" font-size="14" lengthAdjust="spacing" textLength="97.8291" x="1708.76" y="801.852">AccessDenied</text></g><g><rect fill="#F1F1F1" height="50" rx="12.5" ry="12.5" style="stroke:#181818;stroke-width:0.5;" width="105.9277" x="1395.72" y="863.8569"/><line style="stroke:#181818;stroke-width:0.5;" x1="1395.72" x2="1501.6477" y1="890.1538" y2="890.1538"/><text fill="#000000" font-family="sans-serif" font-size="14" lengthAdjust="spacing" textLength="85.9277" x="1405.72" y="881.852">PassiveView</text></g><ellipse cx="1450.68" cy="1030.9969" fill="none" rx="11" ry="11" style="stroke:#222222;stroke-width:1;"/><ellipse cx="1450.68" cy="1030.9969" fill="#222222" rx="6" ry="6" style="stroke:#222222;stroke-width:1;"/><g><rect fill="#F1F1F1" height="50" rx="12.5" ry="12.5" style="stroke:#181818;stroke-width:0.5;" width="115.7988" x="663.78" y="703.7269"/><line style="stroke:#181818;stroke-width:0.5;" x1="663.78" x2="779.5788" y1="730.0238" y2="730.0238"/><text fill="#000000" font-family="sans-serif" font-size="14" lengthAdjust="spacing" textLength="95.7988" x="673.78" y="721.722">Reconnecting</text></g><g><rect fill="#F1F1F1" height="50" rx="12.5" ry="12.5" style="stroke:#181818;stroke-width:0.5;" width="89.002" x="998.18" y="863.8569"/><line style="stroke:#181818;stroke-width:0.5;" x1="998.18" x2="1087.182" y1="890.1538" y2="890.1538"/><text fill="#000000" font-family="sans-serif" font-size="14" lengthAdjust="spacing" textLength="69.002" x="1008.18" y="881.852">Degraded</text></g><g><rect fill="#F1F1F1" height="50" rx="12.5" ry="12.5" style="stroke:#181818;stroke-width:0.5;" width="167.3281" x="1487.02" y="783.8569"/><line style="stroke:#181818;stroke-width:0.5;" x1="1487.02" x2="1654.3481" y1="810.1538" y2="810.1538"/><text fill="#000000" font-family="sans-serif" font-size="14" lengthAdjust="spacing" textLength="147.3281" x="1497.02" y="801.852">MembershipRevoked</text></g><g class="entity" data-qualified-name="GMN2" data-source-line="52" id="ent0003"><path d="M1328.87,411.3169 L1328.87,427.4469 L1294.82,431.4469 L1328.87,435.4469 L1328.87,451.5825 A0,0 0 0 0 1328.87,451.5825 L1672.496,451.5825 A0,0 0 0 0 1672.496,451.5825 L1672.496,421.3169 L1662.496,411.3169 L1328.87,411.3169 A0,0 0 0 0 1328.87,411.3169" fill="#FEFFDD" style="stroke:#181818;stroke-width:0.5;"/><path d="M1662.496,411.3169 L1662.496,421.3169 L1672.496,421.3169 L1662.496,411.3169" fill="#FEFFDD" style="stroke:#181818;stroke-width:0.5;"/><text fill="#000000" font-family="sans-serif" font-size="13" lengthAdjust="spacing" textLength="288.6406" x="1334.87" y="428.3838">The same reconnecting websocket primitive</text><text fill="#000000" font-family="sans-serif" font-size="13" lengthAdjust="spacing" textLength="322.626" x="1334.87" y="443.5166">is reused by presence and direct inbox providers.</text></g><!--link *start* to Idle--><g class="link" data-entity-1="ent0002" data-entity-2="ent0003" data-link-type="dependency" data-source-line="4" id="lnk4"><path d="M1787.68,63.6569 C1787.68,77.5869 1787.68,98.2569 1787.68,117.9469" fill="none" id="*start*-to-Idle" style="stroke:#181818;stroke-width:1;"/><polygon fill="#181818" points="1787.68,123.9469,1791.68,114.9469,1787.68,118.9469,1783.68,114.9469,1787.68,123.9469" style="stroke:#181818;stroke-width:1;"/></g><!--link Idle to ResolveTarget--><g class="link" data-entity-1="ent0003" data-entity-2="ent0002" data-link-type="dependency" data-source-line="6" id="lnk5"><path d="M1787.68,174.6669 C1787.68,227.6569 1787.68,346.8169 1787.68,399.9369" fill="none" id="Idle-to-ResolveTarget" style="stroke:#181818;stroke-width:1;"/><polygon fill="#181818" points="1787.68,405.9369,1791.68,396.9369,1787.68,400.9369,1783.68,396.9369,1787.68,405.9369" style="stroke:#181818;stroke-width:1;"/><text fill="#000000" font-family="sans-serif" font-size="13" lengthAdjust="spacing" textLength="126.6548" x="1788.68" y="217.3638">navigate to /:target</text></g><!--link ResolveTarget to AccessDenied--><g class="link" data-entity-1="ent0002" data-entity-2="ent0006" data-link-type="dependency" data-source-line="8" id="lnk7"><path d="M1785.71,457.0769 C1780.26,525.2669 1765.5079,709.9359 1760.0979,777.6459" fill="none" id="ResolveTarget-to-AccessDenied" style="stroke:#181818;stroke-width:1;"/><polygon fill="#181818" points="1759.62,783.6269,1764.3241,774.974,1760.0182,778.6428,1756.3495,774.3369,1759.62,783.6269" style="stroke:#181818;stroke-width:1;"/><text fill="#000000" font-family="sans-serif" font-size="13" lengthAdjust="spacing" textLength="137.1855" x="1771.68" y="662.1638">400 / 401 / 403 / 404</text></g><!--link ResolveTarget to LoadRoom--><g class="link" data-entity-1="ent0002" data-entity-2="ent0003" data-link-type="dependency" data-source-line="9" id="lnk8"><path d="M1782.13,456.8369 C1771.65,496.7269 1744.85,575.1569 1689.68,611.5969 C1632.3,649.4969 1433.13,595.9769 1381.68,641.5969 C1364.61,656.7369 1360.9883,677.4269 1360.9283,697.0969" fill="none" id="ResolveTarget-to-LoadRoom" style="stroke:#181818;stroke-width:1;"/><polygon fill="#181818" points="1360.91,703.0969,1364.9374,694.1091,1360.9253,698.0969,1356.9375,694.0847,1360.91,703.0969" style="stroke:#181818;stroke-width:1;"/><text fill="#000000" font-family="sans-serif" font-size="13" lengthAdjust="spacing" textLength="105.7583" x="1382.68" y="662.1638">roomId resolved</text></g><!--link LoadRoom to PassiveView--><g class="link" data-entity-1="ent0003" data-entity-2="ent0009" data-link-type="dependency" data-source-line="12" id="lnk10"><path d="M1351.85,754.2269 C1343.76,776.5269 1336.33,809.5769 1350.68,833.8569 C1360.66,850.7569 1372.6069,860.1388 1389.9669,868.4388" fill="none" id="LoadRoom-to-PassiveView" style="stroke:#181818;stroke-width:1;"/><polygon fill="#181818" points="1395.38,871.0269,1388.9857,863.536,1390.8691,868.8701,1385.5349,870.7535,1395.38,871.0269" style="stroke:#181818;stroke-width:1;"/><text fill="#000000" font-family="sans-serif" font-size="13" lengthAdjust="spacing" textLength="117.6538" x="1351.68" y="813.4238">guest public room</text></g><!--link LoadRoom to ConnectRealtime--><g class="link" data-entity-1="ent0003" data-entity-2="ent0004" data-link-type="dependency" data-source-line="13" id="lnk11"><path d="M1341.47,754.1469 C1291.96,810.5669 1168.88,947.2969 1114.68,975.8569 C1053.84,1007.9169 982.7647,1020.6164 924.2647,1026.0064" fill="none" id="LoadRoom-to-ConnectRealtime" style="stroke:#181818;stroke-width:1;"/><polygon fill="#181818" points="918.29,1026.5569,927.619,1029.7143,923.2689,1026.0981,926.885,1021.748,918.29,1026.5569" style="stroke:#181818;stroke-width:1;"/><text fill="#000000" font-family="sans-serif" font-size="13" lengthAdjust="spacing" textLength="128.9971" x="1241.4862" y="885.9238">authenticated room</text><text fill="#000000" font-family="sans-serif" font-size="13" lengthAdjust="spacing" textLength="130.6094" x="1240.68" y="901.0566">or ws-enabled route</text></g><!--link PassiveView to ConnectRealtime--><g class="link" data-entity-1="ent0009" data-entity-2="ent0004" data-link-type="dependency" data-source-line="15" id="lnk12"><path d="M1395.54,905.4569 C1358.79,916.2369 1308.76,930.9169 1264.68,943.8569 C1216.23,958.0769 1204.89,964.5869 1155.68,975.8569 C1075.95,994.1369 989.8188,1008.0323 924.0788,1017.4923" fill="none" id="PassiveView-to-ConnectRealtime" style="stroke:#181818;stroke-width:1;"/><polygon fill="#181818" points="918.14,1018.3469,927.618,1021.0242,923.089,1017.6347,926.4785,1013.1058,918.14,1018.3469" style="stroke:#181818;stroke-width:1;"/><text fill="#000000" font-family="sans-serif" font-size="13" lengthAdjust="spacing" textLength="173.8496" x="1265.68" y="964.4238">session becomes available</text></g><!--link PassiveView to *end*--><g class="link" data-entity-1="ent0009" data-entity-2="ent0013" data-link-type="dependency" data-source-line="16" id="lnk14"><path d="M1447.88,914.3269 C1447.45,931.5469 1447.1,955.1169 1447.68,975.8569 C1448.1,991.1069 1448.7832,1002.7507 1449.5232,1013.6407" fill="none" id="PassiveView-to-*end*" style="stroke:#181818;stroke-width:1;"/><polygon fill="#181818" points="1449.93,1019.6269,1453.3106,1010.3764,1449.591,1014.6384,1445.329,1010.9188,1449.93,1019.6269" style="stroke:#181818;stroke-width:1;"/><text fill="#000000" font-family="sans-serif" font-size="13" lengthAdjust="spacing" textLength="95.2148" x="1448.68" y="964.4238">navigate away</text></g><!--link ConnectRealtime to Active--><g class="link" data-entity-1="ent0004" data-entity-2="ent0005" data-link-type="dependency" data-source-line="19" id="lnk15"><path d="M745.52,1005.4169 C726.73,997.7169 707.68,987.9769 691.68,975.8569 C628.69,928.1469 609.75,908.7969 584.68,833.8569 C560.98,763.0369 566.748,688.0679 583.298,617.6079" fill="none" id="ConnectRealtime-to-Active" style="stroke:#181818;stroke-width:1;"/><polygon fill="#181818" points="584.67,611.7669,578.718,619.6138,583.5267,616.6344,586.5061,621.4431,584.67,611.7669" style="stroke:#181818;stroke-width:1;"/><text fill="#000000" font-family="sans-serif" font-size="13" lengthAdjust="spacing" textLength="79.0728" x="585.68" y="813.4238">socket open</text></g><!--link ConnectRealtime to Reconnecting--><g class="link" data-entity-1="ent0004" data-entity-2="ent0016" data-link-type="dependency" data-source-line="20" id="lnk17"><path d="M821.77,1005.4469 C801.26,948.9669 752.9771,815.9469 732.5571,759.6869" fill="none" id="ConnectRealtime-to-Reconnecting" style="stroke:#181818;stroke-width:1;"/><polygon fill="#181818" points="730.51,754.0469,729.8206,763.8716,732.2159,758.7469,737.3406,761.1421,730.51,754.0469" style="stroke:#181818;stroke-width:1;"/><text fill="#000000" font-family="sans-serif" font-size="13" lengthAdjust="spacing" textLength="165.7563" x="788.68" y="893.4238">error / close before ready</text></g><!--link Reconnecting to ConnectRealtime--><g class="link" data-entity-1="ent0016" data-entity-2="ent0004" data-link-type="dependency" data-source-line="41" id="lnk37"><path d="M705.99,754.1669 C684.74,790.6069 652.34,860.5969 678.68,913.8569 C699.21,955.3869 737.2463,983.2488 772.3963,1002.6388" fill="none" id="Reconnecting-to-ConnectRealtime" style="stroke:#181818;stroke-width:1;"/><polygon fill="#181818" points="777.65,1005.5369,771.7016,997.6873,773.2719,1003.1218,767.8374,1004.6922,777.65,1005.5369" style="stroke:#181818;stroke-width:1;"/><text fill="#000000" font-family="sans-serif" font-size="13" lengthAdjust="spacing" textLength="83.6113" x="679.68" y="893.4238">backoff retry</text></g><!--link Active to Reconnecting--><g class="link" data-entity-1="ent0005" data-entity-2="ent0016" data-link-type="dependency" data-source-line="40" id="lnk36"><path d="M693.82,611.8769 C702.59,648.3469 709.3083,676.2629 714.4883,697.8229" fill="none" id="Active-to-Reconnecting" style="stroke:#181818;stroke-width:1;"/><polygon fill="#181818" points="715.89,703.6569,717.6768,693.9715,714.7219,698.7952,709.8982,695.8404,715.89,703.6569" style="stroke:#181818;stroke-width:1;"/><text fill="#000000" font-family="sans-serif" font-size="13" lengthAdjust="spacing" textLength="198.0088" x="709.68" y="662.1638">socket closed / browser offline</text></g><!--link Reconnecting to Degraded--><g class="link" data-entity-1="ent0016" data-entity-2="ent0038" data-link-type="dependency" data-source-line="42" id="lnk39"><path d="M771.13,754.0869 C833.04,784.5869 932.7877,833.7254 992.4477,863.1154" fill="none" id="Reconnecting-to-Degraded" style="stroke:#181818;stroke-width:1;"/><polygon fill="#181818" points="997.83,865.7669,991.5241,858.2014,993.3447,863.5573,987.9888,865.3779,997.83,865.7669" style="stroke:#181818;stroke-width:1;"/><text fill="#000000" font-family="sans-serif" font-size="13" lengthAdjust="spacing" textLength="121.2847" x="931.68" y="813.4238">retry limit reached</text></g><!--link Degraded to ConnectRealtime--><g class="link" data-entity-1="ent0038" data-entity-2="ent0004" data-link-type="dependency" data-source-line="43" id="lnk40"><path d="M997.83,905.1269 C988.86,908.0869 979.49,911.1269 970.68,913.8569 C924.74,928.1369 902.6,911.8569 866.68,943.8569 C848.77,959.8169 840.9312,980.2804 836.3212,999.6204" fill="none" id="Degraded-to-ConnectRealtime" style="stroke:#181818;stroke-width:1;"/><polygon fill="#181818" points="834.93,1005.4569,840.9078,997.6296,836.0893,1000.5931,833.1258,995.7747,834.93,1005.4569" style="stroke:#181818;stroke-width:1;"/><text fill="#000000" font-family="sans-serif" font-size="13" lengthAdjust="spacing" textLength="117.9839" x="873.2469" y="956.9238">manual reconnect</text><text fill="#000000" font-family="sans-serif" font-size="13" lengthAdjust="spacing" textLength="129.1177" x="867.68" y="972.0566">or network restored</text></g><!--link Active to MembershipRevoked--><g class="link" data-entity-1="ent0005" data-entity-2="ent0041" data-link-type="dependency" data-source-line="45" id="lnk42"><path d="M1294.62,607.8469 C1300.33,609.1069 1306.02,610.3669 1311.68,611.5969 C1391.35,628.9469 1427.68,592.3669 1492.68,641.5969 C1539.19,676.8269 1557.8576,740.7686 1565.4176,777.7286" fill="none" id="Active-to-MembershipRevoked" style="stroke:#181818;stroke-width:1;"/><polygon fill="#181818" points="1566.62,783.6069,1568.7353,773.9879,1565.618,778.7083,1560.8976,775.591,1566.62,783.6069" style="stroke:#181818;stroke-width:1;"/><text fill="#000000" font-family="sans-serif" font-size="13" lengthAdjust="spacing" textLength="112.1694" x="1531.6558" y="654.6638">kicked / banned /</text><text fill="#000000" font-family="sans-serif" font-size="13" lengthAdjust="spacing" textLength="128.1211" x="1523.68" y="669.7966">permission revoked</text></g><!--link AccessDenied to *end*--><g class="link" data-entity-1="ent0006" data-entity-2="ent0013" data-link-type="dependency" data-source-line="46" id="lnk43"><path d="M1737.3,834.2469 C1706.78,869.4869 1645.97,934.9269 1582.68,975.8569 C1541.29,1002.6269 1490.2606,1018.8538 1467.0106,1025.4738" fill="none" id="AccessDenied-to-*end*" style="stroke:#181818;stroke-width:1;"/><polygon fill="#181818" points="1461.24,1027.1169,1470.9913,1028.4993,1466.0489,1025.7476,1468.8006,1020.8052,1461.24,1027.1169" style="stroke:#181818;stroke-width:1;"/></g><!--link MembershipRevoked to *end*--><g class="link" data-entity-1="ent0041" data-entity-2="ent0013" data-link-type="dependency" data-source-line="47" id="lnk44"><path d="M1573.87,834.2169 C1577.08,868.8469 1578.02,932.8769 1548.68,975.8569 C1527.42,1007.0069 1487.9023,1020.5092 1467.2023,1025.9592" fill="none" id="MembershipRevoked-to-*end*" style="stroke:#181818;stroke-width:1;"/><polygon fill="#181818" points="1461.4,1027.4869,1471.1218,1029.0636,1466.2352,1026.2138,1469.085,1021.3272,1461.4,1027.4869" style="stroke:#181818;stroke-width:1;"/></g><!--link Active to *end*--><g class="link" data-entity-1="ent0005" data-entity-2="ent0013" data-link-type="dependency" data-source-line="48" id="lnk45"><path d="M879.96,611.9369 C1008.48,711.2469 1149.84,817.8469 1184.68,833.8569 C1240.92,859.7169 1268.3,830.8769 1320.68,863.8569 C1386.38,905.2369 1429.8011,986.6186 1443.6811,1015.2286" fill="none" id="Active-to-*end*" style="stroke:#181818;stroke-width:1;"/><polygon fill="#181818" points="1446.3,1020.6269,1445.9704,1010.7835,1444.1176,1016.1283,1438.7728,1014.2754,1446.3,1020.6269" style="stroke:#181818;stroke-width:1;"/><text fill="#000000" font-family="sans-serif" font-size="13" lengthAdjust="spacing" textLength="148.9668" x="1185.68" y="813.4238">navigate away / logout</text></g><!--link Degraded to *end*--><g class="link" data-entity-1="ent0038" data-entity-2="ent0013" data-link-type="dependency" data-source-line="49" id="lnk46"><path d="M1046.21,914.2369 C1050.43,934.0169 1059.49,960.9869 1078.68,975.8569 C1137.09,1021.1469 1377.3512,1028.5558 1433.3312,1029.6858" fill="none" id="Degraded-to-*end*" style="stroke:#181818;stroke-width:1;"/><polygon fill="#181818" points="1439.33,1029.8069,1430.4126,1025.6261,1434.331,1029.706,1430.2511,1033.6244,1439.33,1029.8069" style="stroke:#181818;stroke-width:1;"/><text fill="#000000" font-family="sans-serif" font-size="13" lengthAdjust="spacing" textLength="71.8682" x="1079.68" y="964.4238">leave page</text></g><?plantuml-src RLHDRnCn4BtxLymPLBP0BrIe4cehLAa8b0Ok55LUUv9OyTgBxTqbGlntdhsRDbyNP-rvysRcpKoIIPRfXdjZ8yqu9kEMT4RNAvdeWMCqtj53aeb5N1lNoY0RYYkf_P212saZ2_7prIywExkYEsrnosUvWixRdkSoB3dH9JdPcoMeA7cgBbDv5eUWRryVvbJ9rbGAELHXD5S7k4p_IIaaUCFEi8RZnVavLJZVblDzEIzEkDrxgMVUDt09-BdJDCNGGkpOFj_EYvqq9vd5UKqDmiabnnTOvliceLBFFmmFS5jsq93QhhP65VzzyBLtZbMQiRJ9D0m7sQKLksGKXD75uz7vG4CyOoThMzuwo2zsuvocYbE_QbOUkPBiaNZcEFBD3TlfXnpaHeXZmhepLbCrnB4N7qUzhgeZwDYEX10v3Q_MqDgtx4u2PqYllEO9kYGE0VLMfAoFZDmNFZ1Q8ZLIYddojin_1T5sqXusJkM6qVHL7kURTgICx3IbySOzr0LkChuu0vTJWhY4-5DlisiweFtUMhHmPFxTSGUzKf9grG0Q0Nsnxv5tvJaIUj5QHWSFaTSmeEHmMmJOEc2dJEuwdfG45RxXkO_TYnCuXKs1MvPXpF2W0iYlynNeHeRrKrONYEVd0pua8TKQ7ufDVwJo32svDur91Hsj7wZncdC65-y-PDeTm76cJtAHE11RsKPm_nDYQk-9qPWcgKm6vf3gu0U8G7wniCQns8EVteaQbG0-nZvskE5ba7f7HviJpnge5R9xDfycRwJhfCr2ZQQokOxJu4EMBoQCijuhy0itDOUuCksCUxykWTT6hSVo95ZmyUXQ3eqPbpcCEB7tRpVji3YcsrfsOfvOTWIpVedHtwzmH6ACuDbY6uHm7Xx1B5TOaiMqY6A-mfx8XbyApt8EN4_zQaCMCIDD1ARBpQitU6Pibq86s4vju9p8kDh_WSNtHgEGDo9lRWxw7m00?></g></svg>