<?plantuml 1.2026.1?><svg xmlns="http://www.w3.org/2000/svg" xmlns:xlink="http://www.w3.org/1999/xlink" contentStyleType="text/css" data-diagram-type="STATE" height="870px" preserveAspectRatio="none" style="width:1178px;height:870px;background:#FFFFFF;" version="1.1" viewBox="0 0 1178 870" width="1178px" zoomAndPan="magnify"><title>Devils Resting - Chat Session State</title><defs/><g><g class="title" data-source-line="1"><text fill="#000000" font-family="sans-serif" font-size="14" font-weight="bold" lengthAdjust="spacing" textLength="277.8604" x="443.0699" y="22.9951">Devils Resting - Chat Session State</text></g><g><rect fill="#FFFFFF" height="50.2656" rx="5" ry="5" style="stroke:#9FB0C7;stroke-width:0.5;" width="159.9102" x="1011.09" y="360.8169"/><line style="stroke:#9FB0C7;stroke-width:0.5;" x1="1011.09" x2="1171.0002" y1="387.1138" y2="387.1138"/><text fill="#1F2937" font-family="sans-serif" font-size="14" lengthAdjust="spacing" textLength="100.8643" x="1040.6129" y="378.812">ResolveTarget</text><text fill="#1F2937" font-family="sans-serif" font-size="12" lengthAdjust="spacing" textLength="139.9102" x="1021.09" y="403.2524">POST /api/chat/resolve/</text></g><g><rect fill="#FFFFFF" height="50.2656" rx="5" ry="5" style="stroke:#9FB0C7;stroke-width:0.5;" width="200.9902" x="439.55" y="603.5969"/><line style="stroke:#9FB0C7;stroke-width:0.5;" x1="439.55" x2="640.5402" y1="629.8938" y2="629.8938"/><text fill="#1F2937" font-family="sans-serif" font-size="14" lengthAdjust="spacing" textLength="74.3271" x="502.8815" y="621.592">LoadRoom</text><text fill="#1F2937" font-family="sans-serif" font-size="12" lengthAdjust="spacing" textLength="180.9902" x="449.55" y="646.0324">GET room details + messages</text></g><g><rect fill="#FFFFFF" height="50.2656" rx="5" ry="5" style="stroke:#9FB0C7;stroke-width:0.5;" width="174.3945" x="272.85" y="813.8569"/><line style="stroke:#9FB0C7;stroke-width:0.5;" x1="272.85" x2="447.2445" y1="840.1538" y2="840.1538"/><text fill="#1F2937" font-family="sans-serif" font-size="14" lengthAdjust="spacing" textLength="120.3262" x="299.8842" y="831.852">ConnectRealtime</text><text fill="#1F2937" font-family="sans-serif" font-size="12" lengthAdjust="spacing" textLength="154.3945" x="282.85" y="856.2924">build /ws/chat/&lt;roomId&gt;/</text></g><path d="M12,223.2969 L572.0862,223.2969 A5,5 0 0 1 577.0862,228.2969 L577.0862,249.5938 L7,249.5938 L7,228.2969 A5,5 0 0 1 12,223.2969" fill="#FFFFFF"/><rect fill="none" height="325.2969" rx="5" ry="5" style="stroke:#9FB0C7;stroke-width:0.5;" width="570.0862" x="7" y="223.2969"/><line style="stroke:#9FB0C7;stroke-width:0.5;" x1="7" x2="577.0862" y1="249.5938" y2="249.5938"/><text fill="#1F2937" font-family="sans-serif" font-size="14" lengthAdjust="spacing" textLength="43.5518" x="270.2672" y="241.292">Active</text><ellipse cx="329.35" cy="270.5938" fill="#222222" rx="10" ry="10" style="stroke:#222222;stroke-width:1;"/><g><rect fill="#FFFFFF" height="50" rx="5" ry="5" style="stroke:#9FB0C7;stroke-width:0.5;" width="71.2422" x="293.73" y="316.5938"/><line style="stroke:#9FB0C7;stroke-width:0.5;" x1="293.73" x2="364.9722" y1="342.8906" y2="342.8906"/><text fill="#1F2937" font-family="sans-serif" font-size="14" lengthAdjust="spacing" textLength="51.2422" x="303.73" y="334.5889">Synced</text></g><g><rect fill="#FFFFFF" height="50" rx="5" ry="5" style="stroke:#9FB0C7;stroke-width:0.5;" width="67.373" x="90.66" y="402.5938"/><line style="stroke:#9FB0C7;stroke-width:0.5;" x1="90.66" x2="158.033" y1="428.8906" y2="428.8906"/><text fill="#1F2937" font-family="sans-serif" font-size="14" lengthAdjust="spacing" textLength="47.373" x="100.66" y="420.5889">Typing</text></g><g><rect fill="#FFFFFF" height="50" rx="5" ry="5" style="stroke:#9FB0C7;stroke-width:0.5;" width="90.7041" x="175.99" y="402.5938"/><line style="stroke:#9FB0C7;stroke-width:0.5;" x1="175.99" x2="266.6941" y1="428.8906" y2="428.8906"/><text fill="#1F2937" font-family="sans-serif" font-size="14" lengthAdjust="spacing" textLength="70.7041" x="185.99" y="420.5889">Uploading</text></g><g><rect fill="#FFFFFF" height="50" rx="5" ry="5" style="stroke:#9FB0C7;stroke-width:0.5;" width="125.7725" x="309.46" y="488.5938"/><line style="stroke:#9FB0C7;stroke-width:0.5;" x1="309.46" x2="435.2325" y1="514.8906" y2="514.8906"/><text fill="#1F2937" font-family="sans-serif" font-size="14" lengthAdjust="spacing" textLength="105.7725" x="319.46" y="506.5889">ComposerError</text></g><g><rect fill="#FFFFFF" height="50" rx="5" ry="5" style="stroke:#9FB0C7;stroke-width:0.5;" width="89.5488" x="284.57" y="402.5938"/><line style="stroke:#9FB0C7;stroke-width:0.5;" x1="284.57" x2="374.1188" y1="428.8906" y2="428.8906"/><text fill="#1F2937" font-family="sans-serif" font-size="14" lengthAdjust="spacing" textLength="69.5488" x="294.57" y="420.5889">ReadSync</text></g><g><rect fill="#FFFFFF" height="50" rx="5" ry="5" style="stroke:#9FB0C7;stroke-width:0.5;" width="104.6152" x="392.04" y="402.5938"/><line style="stroke:#9FB0C7;stroke-width:0.5;" x1="392.04" x2="496.6552" y1="428.8906" y2="428.8906"/><text fill="#1F2937" font-family="sans-serif" font-size="14" lengthAdjust="spacing" textLength="84.6152" x="402.04" y="420.5889">RateLimited</text></g><!--link *start*Active to Synced--><g class="link" data-entity-1="ent0018" data-entity-2="ent0019" data-link-type="dependency" data-source-line="41" id="lnk20"><path d="M329.35,281.0738 C329.35,290.3238 329.35,298.2038 329.35,310.3338" fill="none" id="*start*Active-to-Synced" style="stroke:#687385;stroke-width:1.1;"/><polygon fill="#687385" points="329.35,316.3338,333.35,307.3338,329.35,311.3338,325.35,307.3338,329.35,316.3338" style="stroke:#687385;stroke-width:1.1;"/></g><!--link Synced to Typing--><g class="link" data-entity-1="ent0019" data-entity-2="ent0021" data-link-type="dependency" data-source-line="43" id="lnk22"><path d="M293.64,327.5938 C232.23,327.5938 113.12,327.5938 113.12,327.5938 C113.12,327.5938 113.12,366.4738 113.12,396.1038" fill="none" id="Synced-to-Typing" style="stroke:#687385;stroke-width:1.1;"/><polygon fill="#687385" points="113.12,402.1038,117.12,393.1038,113.12,397.1038,109.12,393.1038,113.12,402.1038" style="stroke:#687385;stroke-width:1.1;"/><text fill="#000000" font-family="sans-serif" font-size="13" lengthAdjust="spacing" textLength="117.6982" x="48.13" y="323.6606">send typing event</text></g><!--link Typing to Synced--><g class="link" data-entity-1="ent0021" data-entity-2="ent0019" data-link-type="dependency" data-source-line="44" id="lnk23"><path d="M135.58,402.5238 C135.58,375.8938 135.58,337.5938 135.58,337.5938 C135.58,337.5938 231.32,337.5938 287.35,337.5938" fill="none" id="Typing-to-Synced" style="stroke:#687385;stroke-width:1.1;"/><polygon fill="#687385" points="293.35,337.5938,284.35,333.5938,288.35,337.5938,284.35,341.5938,293.35,337.5938" style="stroke:#687385;stroke-width:1.1;"/><text fill="#000000" font-family="sans-serif" font-size="13" lengthAdjust="spacing" textLength="162.8872" x="19" y="350.6606">timeout or message sent</text></g><!--link Synced to Uploading--><g class="link" data-entity-1="ent0019" data-entity-2="ent0024" data-link-type="dependency" data-source-line="46" id="lnk25"><path d="M293.41,347.5938 C257.07,347.5938 206.23,347.5938 206.23,347.5938 C206.23,347.5938 206.23,372.8438 206.23,396.2838" fill="none" id="Synced-to-Uploading" style="stroke:#687385;stroke-width:1.1;"/><polygon fill="#687385" points="206.23,402.2838,210.23,393.2838,206.23,397.2838,202.23,393.2838,206.23,402.2838" style="stroke:#687385;stroke-width:1.1;"/><text fill="#000000" font-family="sans-serif" font-size="13" lengthAdjust="spacing" textLength="127.1436" x="94.47" y="360.6606">queue attachments</text></g><!--link Uploading to Synced--><g class="link" data-entity-1="ent0024" data-entity-2="ent0019" data-link-type="dependency" data-source-line="47" id="lnk26"><path d="M236.46,402.3238 C236.46,382.2738 236.46,357.5938 236.46,357.5938 C236.46,357.5938 261.3,357.5938 287.44,357.5938" fill="none" id="Uploading-to-Synced" style="stroke:#687385;stroke-width:1.1;"/><polygon fill="#687385" points="293.44,357.5938,284.44,353.5938,288.44,357.5938,284.44,361.5938,293.44,357.5938" style="stroke:#687385;stroke-width:1.1;"/><text fill="#000000" font-family="sans-serif" font-size="13" lengthAdjust="spacing" textLength="115.9019" x="126.59" y="370.6606">uploads complete</text></g><!--link Uploading to ComposerError--><g class="link" data-entity-1="ent0024" data-entity-2="ent0027" data-link-type="dependency" data-source-line="48" id="lnk28"><path d="M221.35,452.7537 C221.35,478.4538 221.35,514.5938 221.35,514.5938 C221.35,514.5938 261.81,514.5938 303.18,514.5938" fill="none" id="Uploading-to-ComposerError" style="stroke:#687385;stroke-width:1.1;"/><polygon fill="#687385" points="309.18,514.5938,300.18,510.5938,304.18,514.5938,300.18,518.5938,309.18,514.5938" style="stroke:#687385;stroke-width:1.1;"/><text fill="#000000" font-family="sans-serif" font-size="13" lengthAdjust="spacing" textLength="164.3472" x="69.35" y="510.6606">upload failed or canceled</text></g><!--link ComposerError to Synced--><g class="link" data-entity-1="ent0027" data-entity-2="ent0019" data-link-type="dependency" data-source-line="49" id="lnk29"><path d="M383.08,488.4038 C383.08,443.5638 383.08,354.5938 383.08,354.5938 C383.08,354.5938 381.04,354.5938 371.19,354.5938" fill="none" id="ComposerError-to-Synced" style="stroke:#687385;stroke-width:1.1;"/><polygon fill="#687385" points="365.19,354.5938,374.19,358.5938,370.19,354.5938,374.19,350.5938,365.19,354.5938" style="stroke:#687385;stroke-width:1.1;"/><text fill="#000000" font-family="sans-serif" font-size="13" lengthAdjust="spacing" textLength="129.9683" x="253.08" y="408.6206">retry or clear queue</text></g><!--link Synced to ReadSync--><g class="link" data-entity-1="ent0019" data-entity-2="ent0030" data-link-type="dependency" data-source-line="51" id="lnk31"><path d="M317.47,366.9338 C317.47,378.0338 317.47,385.0238 317.47,396.1438" fill="none" id="Synced-to-ReadSync" style="stroke:#687385;stroke-width:1.1;"/><polygon fill="#687385" points="317.47,402.1438,321.47,393.1438,317.47,397.1438,313.47,393.1438,317.47,402.1438" style="stroke:#687385;stroke-width:1.1;"/><text fill="#000000" font-family="sans-serif" font-size="13" lengthAdjust="spacing" textLength="69.564" x="247.47" y="380.6006">mark_read</text></g><!--link ReadSync to Synced--><g class="link" data-entity-1="ent0030" data-entity-2="ent0019" data-link-type="dependency" data-source-line="52" id="lnk32"><path d="M341.22,402.2537 C341.22,391.1538 341.22,384.1638 341.22,373.0438" fill="none" id="ReadSync-to-Synced" style="stroke:#687385;stroke-width:1.1;"/><polygon fill="#687385" points="341.22,367.0438,337.22,376.0438,341.22,372.0438,345.22,376.0438,341.22,367.0438" style="stroke:#687385;stroke-width:1.1;"/><text fill="#000000" font-family="sans-serif" font-size="13" lengthAdjust="spacing" textLength="116.5112" x="342.22" y="380.7206">read ack received</text></g><!--link Synced to RateLimited--><g class="link" data-entity-1="ent0019" data-entity-2="ent0033" data-link-type="dependency" data-source-line="54" id="lnk34"><path d="M365.19,329.5938 C404.41,329.5938 461.78,329.5938 461.78,329.5938 C461.78,329.5938 461.78,367.0638 461.78,396.1038" fill="none" id="Synced-to-RateLimited" style="stroke:#687385;stroke-width:1.1;"/><polygon fill="#687385" points="461.78,402.1038,465.78,393.1038,461.78,397.1038,457.78,393.1038,461.78,402.1038" style="stroke:#687385;stroke-width:1.1;"/><text fill="#000000" font-family="sans-serif" font-size="13" lengthAdjust="spacing" textLength="116.3462" x="450.74" y="325.6606">slow mode or 429</text></g><!--link RateLimited to Synced--><g class="link" data-entity-1="ent0033" data-entity-2="ent0019" data-link-type="dependency" data-source-line="55" id="lnk35"><path d="M426.91,402.5538 C426.91,377.4738 426.91,342.5938 426.91,342.5938 C426.91,342.5938 399.19,342.5938 371.4,342.5938" fill="none" id="RateLimited-to-Synced" style="stroke:#687385;stroke-width:1.1;"/><polygon fill="#687385" points="365.4,342.5938,374.4,346.5938,370.4,342.5938,374.4,338.5938,365.4,342.5938" style="stroke:#687385;stroke-width:1.1;"/><text fill="#000000" font-family="sans-serif" font-size="13" lengthAdjust="spacing" textLength="123.9443" x="427.13" y="355.6606">retry_after elapsed</text></g><ellipse cx="1091.04" cy="53.2969" fill="#222222" rx="10" ry="10" style="stroke:#222222;stroke-width:1;"/><g><rect fill="#FFFFFF" height="50" rx="5" ry="5" style="stroke:#9FB0C7;stroke-width:0.5;" width="50" x="1066.04" y="118.2969"/><line style="stroke:#9FB0C7;stroke-width:0.5;" x1="1066.04" x2="1116.04" y1="144.5938" y2="144.5938"/><text fill="#1F2937" font-family="sans-serif" font-size="14" lengthAdjust="spacing" textLength="25.5186" x="1078.2807" y="136.292">Idle</text></g><g><rect fill="#FFFFFF" height="50" rx="5" ry="5" style="stroke:#9FB0C7;stroke-width:0.5;" width="117.8291" x="1014.13" y="708.8569"/><line style="stroke:#9FB0C7;stroke-width:0.5;" x1="1014.13" x2="1131.9591" y1="735.1538" y2="735.1538"/><text fill="#1F2937" font-family="sans-serif" font-size="14" lengthAdjust="spacing" textLength="97.8291" x="1024.13" y="726.852">AccessDenied</text></g><g><rect fill="#FFFFFF" height="50" rx="5" ry="5" style="stroke:#9FB0C7;stroke-width:0.5;" width="105.9277" x="608.08" y="708.8569"/><line style="stroke:#9FB0C7;stroke-width:0.5;" x1="608.08" x2="714.0077" y1="735.1538" y2="735.1538"/><text fill="#1F2937" font-family="sans-serif" font-size="14" lengthAdjust="spacing" textLength="85.9277" x="618.08" y="726.852">PassiveView</text></g><ellipse cx="782.04" cy="838.9969" fill="none" rx="11" ry="11" style="stroke:#222222;stroke-width:1;"/><ellipse cx="782.04" cy="838.9969" fill="#222222" rx="6" ry="6" style="stroke:#222222;stroke-width:1;"/><g><rect fill="#FFFFFF" height="50" rx="5" ry="5" style="stroke:#9FB0C7;stroke-width:0.5;" width="115.7988" x="241.14" y="603.7269"/><line style="stroke:#9FB0C7;stroke-width:0.5;" x1="241.14" x2="356.9388" y1="630.0238" y2="630.0238"/><text fill="#1F2937" font-family="sans-serif" font-size="14" lengthAdjust="spacing" textLength="95.7988" x="251.14" y="621.722">Reconnecting</text></g><g><rect fill="#FFFFFF" height="50" rx="5" ry="5" style="stroke:#9FB0C7;stroke-width:0.5;" width="89.002" x="382.54" y="708.8569"/><line style="stroke:#9FB0C7;stroke-width:0.5;" x1="382.54" x2="471.542" y1="735.1538" y2="735.1538"/><text fill="#1F2937" font-family="sans-serif" font-size="14" lengthAdjust="spacing" textLength="69.002" x="392.54" y="726.852">Degraded</text></g><g><rect fill="#FFFFFF" height="50" rx="5" ry="5" style="stroke:#9FB0C7;stroke-width:0.5;" width="167.3281" x="685.38" y="603.7269"/><line style="stroke:#9FB0C7;stroke-width:0.5;" x1="685.38" x2="852.7081" y1="630.0238" y2="630.0238"/><text fill="#1F2937" font-family="sans-serif" font-size="14" lengthAdjust="spacing" textLength="147.3281" x="695.38" y="621.722">MembershipRevoked</text></g><g class="entity" data-qualified-name="GMN2" data-source-line="70" id="ent0003"><path d="M622.23,370.8169 L622.23,382.1269 L577.51,386.1269 L622.23,390.1269 L622.23,401.0825 A5,5 0 0 0 627.23,406.0825 L960.856,406.0825 A5,5 0 0 0 965.856,401.0825 L965.856,375.8169 L955.856,365.8169 L627.23,365.8169 A5,5 0 0 0 622.23,370.8169" fill="#FBFCFE" style="stroke:#D7DEE8;stroke-width:0.5;"/><path d="M955.856,365.8169 L955.856,373.3169 A2.5,2.5 0 0 0 958.356,375.8169 L965.856,375.8169 L955.856,365.8169" fill="#FBFCFE" style="stroke:#D7DEE8;stroke-width:0.5;"/><text fill="#445066" font-family="sans-serif" font-size="13" lengthAdjust="spacing" textLength="288.6406" x="645.2227" y="382.8838">The same reconnecting websocket primitive</text><text fill="#445066" font-family="sans-serif" font-size="13" lengthAdjust="spacing" textLength="322.626" x="628.23" y="398.0166">is reused by presence and direct inbox providers.</text></g><!--link *start* to Idle--><g class="link" data-entity-1="ent0002" data-entity-2="ent0003" data-link-type="dependency" data-source-line="22" id="lnk4"><path d="M1091.04,63.6269 C1091.04,76.8269 1091.04,94.1369 1091.04,112.1469" fill="none" id="*start*-to-Idle" style="stroke:#687385;stroke-width:1.1;"/><polygon fill="#687385" points="1091.04,118.1469,1095.04,109.1469,1091.04,113.1469,1087.04,109.1469,1091.04,118.1469" style="stroke:#687385;stroke-width:1.1;"/></g><!--link Idle to ResolveTarget--><g class="link" data-entity-1="ent0003" data-entity-2="ent0002" data-link-type="dependency" data-source-line="24" id="lnk5"><path d="M1091.04,168.3569 C1091.04,214.8469 1091.04,307.9969 1091.04,354.6669" fill="none" id="Idle-to-ResolveTarget" style="stroke:#687385;stroke-width:1.1;"/><polygon fill="#687385" points="1091.04,360.6669,1095.04,351.6669,1091.04,355.6669,1087.04,351.6669,1091.04,360.6669" style="stroke:#687385;stroke-width:1.1;"/><text fill="#000000" font-family="sans-serif" font-size="13" lengthAdjust="spacing" textLength="126.6548" x="964.04" y="260.5738">navigate to /:target</text></g><!--link ResolveTarget to AccessDenied--><g class="link" data-entity-1="ent0002" data-entity-2="ent0006" data-link-type="dependency" data-source-line="26" id="lnk7"><path d="M1092.68,411.5269 C1092.68,476.0269 1092.68,638.6769 1092.68,702.7069" fill="none" id="ResolveTarget-to-AccessDenied" style="stroke:#687385;stroke-width:1.1;"/><polygon fill="#687385" points="1092.68,708.7069,1096.68,699.7069,1092.68,703.7069,1088.68,699.7069,1092.68,708.7069" style="stroke:#687385;stroke-width:1.1;"/><text fill="#000000" font-family="sans-serif" font-size="13" lengthAdjust="spacing" textLength="137.1855" x="954.68" y="556.1838">400 / 401 / 403 / 404</text></g><!--link ResolveTarget to LoadRoom--><g class="link" data-entity-1="ent0002" data-entity-2="ent0003" data-link-type="dependency" data-source-line="27" id="lnk8"><path d="M1053.4,411.2469 C1053.4,431.7069 1053.4,457.1269 1053.4,457.1269 C1053.4,457.1269 631.38,457.1269 631.38,457.1269 C631.38,457.1269 631.38,549.6769 631.38,597.4069" fill="none" id="ResolveTarget-to-LoadRoom" style="stroke:#687385;stroke-width:1.1;"/><polygon fill="#687385" points="631.38,603.4069,635.38,594.4069,631.38,598.4069,627.38,594.4069,631.38,603.4069" style="stroke:#687385;stroke-width:1.1;"/><text fill="#000000" font-family="sans-serif" font-size="13" lengthAdjust="spacing" textLength="105.7583" x="686.2" y="453.1938">roomId resolved</text></g><!--link LoadRoom to PassiveView--><g class="link" data-entity-1="ent0003" data-entity-2="ent0009" data-link-type="dependency" data-source-line="30" id="lnk10"><path d="M624.31,654.1769 C624.31,670.7069 624.31,686.1669 624.31,702.6469" fill="none" id="LoadRoom-to-PassiveView" style="stroke:#687385;stroke-width:1.1;"/><polygon fill="#687385" points="624.31,708.6469,628.31,699.6469,624.31,703.6469,620.31,699.6469,624.31,708.6469" style="stroke:#687385;stroke-width:1.1;"/><text fill="#000000" font-family="sans-serif" font-size="13" lengthAdjust="spacing" textLength="117.6538" x="625.31" y="677.4838">guest public room</text></g><!--link LoadRoom to ConnectRealtime--><g class="link" data-entity-1="ent0003" data-entity-2="ent0004" data-link-type="dependency" data-source-line="31" id="lnk11"><path d="M439.15,621.1269 C404.39,621.1269 374.01,621.1269 374.01,621.1269 C374.01,621.1269 374.01,750.1069 374.01,807.5769" fill="none" id="LoadRoom-to-ConnectRealtime" style="stroke:#687385;stroke-width:1.1;"/><polygon fill="#687385" points="374.01,813.5769,378.01,804.5769,374.01,808.5769,370.01,804.5769,374.01,813.5769" style="stroke:#687385;stroke-width:1.1;"/><text fill="#000000" font-family="sans-serif" font-size="13" lengthAdjust="spacing" textLength="128.9971" x="243.8162" y="697.8438">authenticated room</text><text fill="#000000" font-family="sans-serif" font-size="13" lengthAdjust="spacing" textLength="130.6094" x="243.01" y="712.9766">or ws-enabled route</text></g><!--link PassiveView to ConnectRealtime--><g class="link" data-entity-1="ent0009" data-entity-2="ent0004" data-link-type="dependency" data-source-line="33" id="lnk12"><path d="M661.04,759.1069 C661.04,784.8769 661.04,821.1269 661.04,821.1269 C661.04,821.1269 542.38,821.1269 453.51,821.1269" fill="none" id="PassiveView-to-ConnectRealtime" style="stroke:#687385;stroke-width:1.1;"/><polygon fill="#687385" points="447.51,821.1269,456.51,825.1269,452.51,821.1269,456.51,817.1269,447.51,821.1269" style="stroke:#687385;stroke-width:1.1;"/><text fill="#000000" font-family="sans-serif" font-size="13" lengthAdjust="spacing" textLength="173.8496" x="586.29" y="817.1938">session becomes available</text></g><!--link PassiveView to *end*--><g class="link" data-entity-1="ent0009" data-entity-2="ent0013" data-link-type="dependency" data-source-line="34" id="lnk14"><path d="M714.22,743.1269 C744.1,743.1269 775.44,743.1269 775.44,743.1269 C775.44,743.1269 775.44,799.8069 775.44,823.8069" fill="none" id="PassiveView-to-*end*" style="stroke:#687385;stroke-width:1.1;"/><polygon fill="#687385" points="775.44,829.8069,779.44,820.8069,775.44,824.8069,771.44,820.8069,775.44,829.8069" style="stroke:#687385;stroke-width:1.1;"/><text fill="#000000" font-family="sans-serif" font-size="13" lengthAdjust="spacing" textLength="95.2148" x="776.44" y="751.9238">navigate away</text></g><!--link ConnectRealtime to Active--><g class="link" data-entity-1="ent0004" data-entity-2="ent0005" data-link-type="dependency" data-source-line="37" id="lnk15"><path d="M365.48,813.6669 C365.48,763.3969 365.48,653.3769 365.48,554.8369" fill="none" id="ConnectRealtime-to-Active" style="stroke:#687385;stroke-width:1.1;"/><polygon fill="#687385" points="365.48,548.8369,361.48,557.8369,365.48,553.8369,369.48,557.8369,365.48,548.8369" style="stroke:#687385;stroke-width:1.1;"/><text fill="#000000" font-family="sans-serif" font-size="13" lengthAdjust="spacing" textLength="79.0728" x="285.48" y="677.3138">socket open</text></g><!--link ConnectRealtime to Reconnecting--><g class="link" data-entity-1="ent0004" data-entity-2="ent0016" data-link-type="dependency" data-source-line="38" id="lnk17"><path d="M300.88,813.6269 C300.88,773.2169 300.88,700.6469 300.88,660.1769" fill="none" id="ConnectRealtime-to-Reconnecting" style="stroke:#687385;stroke-width:1.1;"/><polygon fill="#687385" points="300.88,654.1769,296.88,663.1769,300.88,659.1769,304.88,663.1769,300.88,654.1769" style="stroke:#687385;stroke-width:1.1;"/><text fill="#000000" font-family="sans-serif" font-size="13" lengthAdjust="spacing" textLength="165.7563" x="134.88" y="729.9738">error / close before ready</text></g><!--link Reconnecting to ConnectRealtime--><g class="link" data-entity-1="ent0016" data-entity-2="ent0004" data-link-type="dependency" data-source-line="59" id="lnk37"><path d="M328.91,654.0869 C328.91,694.5069 328.91,767.0669 328.91,807.5369" fill="none" id="Reconnecting-to-ConnectRealtime" style="stroke:#687385;stroke-width:1.1;"/><polygon fill="#687385" points="328.91,813.5369,332.91,804.5369,328.91,808.5369,324.91,804.5369,328.91,813.5369" style="stroke:#687385;stroke-width:1.1;"/><text fill="#000000" font-family="sans-serif" font-size="13" lengthAdjust="spacing" textLength="83.6113" x="244.91" y="746.8838">backoff retry</text></g><!--link Active to Reconnecting--><g class="link" data-entity-1="ent0005" data-entity-2="ent0016" data-link-type="dependency" data-source-line="58" id="lnk36"><path d="M299.04,548.8969 C299.04,569.8969 299.04,583.0169 299.04,597.2669" fill="none" id="Active-to-Reconnecting" style="stroke:#687385;stroke-width:1.1;"/><polygon fill="#687385" points="299.04,603.2669,303.04,594.2669,299.04,598.2669,295.04,594.2669,299.04,603.2669" style="stroke:#687385;stroke-width:1.1;"/><text fill="#000000" font-family="sans-serif" font-size="13" lengthAdjust="spacing" textLength="198.0088" x="100.04" y="572.1538">socket closed / browser offline</text></g><!--link Reconnecting to Degraded--><g class="link" data-entity-1="ent0016" data-entity-2="ent0038" data-link-type="dependency" data-source-line="60" id="lnk39"><path d="M357.18,637.1269 C380.32,637.1269 401.54,637.1269 401.54,637.1269 C401.54,637.1269 401.54,673.7869 401.54,702.4469" fill="none" id="Reconnecting-to-Degraded" style="stroke:#687385;stroke-width:1.1;"/><polygon fill="#687385" points="401.54,708.4469,405.54,699.4469,401.54,703.4469,397.54,699.4469,401.54,708.4469" style="stroke:#687385;stroke-width:1.1;"/><text fill="#000000" font-family="sans-serif" font-size="13" lengthAdjust="spacing" textLength="121.2847" x="341.04" y="663.6738">retry limit reached</text></g><!--link Degraded to ConnectRealtime--><g class="link" data-entity-1="ent0038" data-entity-2="ent0004" data-link-type="dependency" data-source-line="61" id="lnk40"><path d="M414.89,759.3069 C414.89,775.7169 414.89,790.9769 414.89,807.4169" fill="none" id="Degraded-to-ConnectRealtime" style="stroke:#687385;stroke-width:1.1;"/><polygon fill="#687385" points="414.89,813.4169,418.89,804.4169,414.89,808.4169,410.89,804.4169,414.89,813.4169" style="stroke:#687385;stroke-width:1.1;"/><text fill="#000000" font-family="sans-serif" font-size="13" lengthAdjust="spacing" textLength="117.9839" x="290.4569" y="767.4338">manual reconnect</text><text fill="#000000" font-family="sans-serif" font-size="13" lengthAdjust="spacing" textLength="129.1177" x="284.89" y="782.5666">or network restored</text></g><!--link Active to MembershipRevoked--><g class="link" data-entity-1="ent0005" data-entity-2="ent0041" data-link-type="dependency" data-source-line="63" id="lnk42"><path d="M577.43,503.1269 C679.16,503.1269 769.04,503.1269 769.04,503.1269 C769.04,503.1269 769.04,560.6069 769.04,597.3069" fill="none" id="Active-to-MembershipRevoked" style="stroke:#687385;stroke-width:1.1;"/><polygon fill="#687385" points="769.04,603.3069,773.04,594.3069,769.04,598.3069,765.04,594.3069,769.04,603.3069" style="stroke:#687385;stroke-width:1.1;"/><text fill="#000000" font-family="sans-serif" font-size="13" lengthAdjust="spacing" textLength="112.1694" x="602.3058" y="484.1938">kicked / banned /</text><text fill="#000000" font-family="sans-serif" font-size="13" lengthAdjust="spacing" textLength="128.1211" x="594.33" y="499.3266">permission revoked</text></g><!--link AccessDenied to *end*--><g class="link" data-entity-1="ent0006" data-entity-2="ent0013" data-link-type="dependency" data-source-line="64" id="lnk43"><path d="M1013.77,726.1269 C930.42,726.1269 788.64,726.1269 788.64,726.1269 C788.64,726.1269 788.64,796.7969 788.64,823.7569" fill="none" id="AccessDenied-to-*end*" style="stroke:#687385;stroke-width:1.1;"/><polygon fill="#687385" points="788.64,829.7569,792.64,820.7569,788.64,824.7569,784.64,820.7569,788.64,829.7569" style="stroke:#687385;stroke-width:1.1;"/></g><!--link MembershipRevoked to *end*--><g class="link" data-entity-1="ent0041" data-entity-2="ent0013" data-link-type="dependency" data-source-line="65" id="lnk44"><path d="M784.24,654.0869 C784.24,700.1869 784.24,789.9069 784.24,822.1369" fill="none" id="MembershipRevoked-to-*end*" style="stroke:#687385;stroke-width:1.1;"/><polygon fill="#687385" points="784.24,828.1369,788.24,819.1369,784.24,823.1369,780.24,819.1369,784.24,828.1369" style="stroke:#687385;stroke-width:1.1;"/></g><!--link Active to *end*--><g class="link" data-entity-1="ent0005" data-entity-2="ent0013" data-link-type="dependency" data-source-line="66" id="lnk45"><path d="M420.55,548.7669 C420.55,617.5869 420.55,682.1269 420.55,682.1269 C420.55,682.1269 779.84,682.1269 779.84,682.1269 C779.84,682.1269 779.84,785.7469 779.84,821.7169" fill="none" id="Active-to-*end*" style="stroke:#687385;stroke-width:1.1;"/><polygon fill="#687385" points="779.84,827.7169,783.84,818.7169,779.84,822.7169,775.84,818.7169,779.84,827.7169" style="stroke:#687385;stroke-width:1.1;"/><text fill="#000000" font-family="sans-serif" font-size="13" lengthAdjust="spacing" textLength="148.9668" x="457.31" y="678.1938">navigate away / logout</text></g><!--link Degraded to *end*--><g class="link" data-entity-1="ent0038" data-entity-2="ent0013" data-link-type="dependency" data-source-line="67" id="lnk46"><path d="M459.39,759.3469 C459.39,790.4969 459.39,839.1269 459.39,839.1269 C459.39,839.1269 707.08,839.1269 764.56,839.1269" fill="none" id="Degraded-to-*end*" style="stroke:#687385;stroke-width:1.1;"/><polygon fill="#687385" points="770.56,839.1269,761.56,835.1269,765.56,839.1269,761.56,843.1269,770.56,839.1269" style="stroke:#687385;stroke-width:1.1;"/><text fill="#000000" font-family="sans-serif" font-size="13" lengthAdjust="spacing" textLength="71.8682" x="503.08" y="835.1938">leave page</text></g><?plantuml-src TLNRZjis47tNLmpGjnORsrdl5KM0xMvQ14ZHmElsfIa2YXn9X2bI9IaxHj5_xw6apKgswWTPcZbpE7T67GtJ4--r2RJX4BKjwO8UAn7fcKFGpj9p596piDEs4LxK52gXt2412s72M9CBkIkzQwrwTCPv-gxeVYE4qPRZiM5oFbPkf51SYDR4BN-D3qQNjcORIUB1VeIoJd7WXjPN8w4NTfU4LnDXya8wRzdJQZbIF7Zl3eDxrxStbxTNfyfjfUNE8dXQlLcDuqvve7yoef-SL-m7ahiYNygR9FsVw8b-TZOEibNnzkxo9ljt4jGShRfHpBUpj7aX2vxIhjTNo-jhq6P_VlyNNLoyem_AS9QbP_U9sZgpvwtm9KUw9olskapnH4UB-zY9irFGfz-UjxGGZLv8DCJ2z-h52IxHFqY9X3snrQnWk5ukQO7dgdjUTi_rZDb79zJ6kHec7dyV50rdg2mRwNvvl-tqw98eKgV-G3ME4oM7LrZY-oJGidl-G_C1PcMBXgQcpOsMdVqK_EYiPHatB4pKDSD0jB52osc9nAZEuhD5TW_XWgt8JIThCGlP-9nvgZ0CJyxImLSIUpYUECviKy56zH07SSooSyAyrKRHuX3wMlpOv-lTuWpQboFYYEI6aplasZLiPu4RkDT9qpZV4wF_FQebZGiCtmld6IKH2YxrxJymftPzwRJdevMfO3IyTSBjiUaf0rj5iV_YFR8BtA1yDGOkkOJaOZ6yr3QPnXFQtnk34lRCVxVS8byn2bcbTH40VTLFoDjE70YrQ0n7FaC-Ge6G_Vik0Iy6M70wLHqYAK25TrXEiPDpF4T_xE26XUyzF8a0wLVf4-XQ-DsNb5qWlebF-E04vXylalN-BCiRbEIZhdNiqC6u0zLOaSc3zTkxH3i2d7lwHHJOhyH6D07Ss1v3UMTQO-YahZFGXvHZKo89v8eYBVLi0f-VYNGz0DwVVMxmnAKNQfH7annFEP0LlFkcdYUlXMs5IOdgLTtauh8vE9_I5o9QMKq2_9Nhd7seTBFXlTjr1--m-llm15Zmyjasx6lT3xFlSTbasmqpd9tJlMX6PyuCEmuphaJhJoFiaMWZM3QOXYphxWclomf3KWo3c6qhp8ce-JNmbCu3vqEz6f-Ic90w0DEcukL7Y76FeXL8O3gLXd4aRNFt5HgtrxY6mfiiJMuwz3y0?></g></svg>