<?plantuml 1.2026.1?><svg xmlns="http://www.w3.org/2000/svg" xmlns:xlink="http://www.w3.org/1999/xlink" contentStyleType="text/css" data-diagram-type="STATE" height="660px" preserveAspectRatio="none" style="width:1047px;height:660px;background:#FFFFFF;" version="1.1" viewBox="0 0 1047 660" width="1047px" zoomAndPan="magnify"><title>Devils Resting - &#1057;&#1086;&#1089;&#1090;&#1086;&#1103;&#1085;&#1080;&#1103; &#1089;&#1086;&#1086;&#1073;&#1097;&#1077;&#1085;&#1080;&#1103;</title><defs/><g><g class="title" data-source-line="1"><text fill="#000000" font-family="Arial" font-size="14" font-weight="bold" lengthAdjust="spacing" textLength="307.7061" x="362.9998" y="22.9951">Devils Resting - &#1057;&#1086;&#1089;&#1090;&#1086;&#1103;&#1085;&#1080;&#1103; &#1089;&#1086;&#1086;&#1073;&#1097;&#1077;&#1085;&#1080;&#1103;</text></g><g><rect fill="#FFFFFF" height="50" rx="5" ry="5" style="stroke:#9FB0C7;stroke-width:0.5;" width="129.6211" x="7" y="173.7969"/><line style="stroke:#9FB0C7;stroke-width:0.5;" x1="7" x2="136.6211" y1="200.0938" y2="200.0938"/><text fill="#1F2937" font-family="Arial" font-size="14" lengthAdjust="spacing" textLength="109.6211" x="17" y="191.792">&#1053;&#1077;&#1090; &#1095;&#1077;&#1088;&#1085;&#1086;&#1074;&#1080;&#1082;&#1072;</text></g><g><rect fill="#FFFFFF" height="50" rx="5" ry="5" style="stroke:#9FB0C7;stroke-width:0.5;" width="224.4971" x="157.56" y="289.0669"/><line style="stroke:#9FB0C7;stroke-width:0.5;" x1="157.56" x2="382.0571" y1="315.3638" y2="315.3638"/><text fill="#1F2937" font-family="Arial" font-size="14" lengthAdjust="spacing" textLength="204.4971" x="167.56" y="307.062">&#1056;&#1077;&#1076;&#1072;&#1082;&#1090;&#1080;&#1088;&#1086;&#1074;&#1072;&#1085;&#1080;&#1077; &#1095;&#1077;&#1088;&#1085;&#1086;&#1074;&#1080;&#1082;&#1072;</text></g><g><rect fill="#FFFFFF" height="50" rx="5" ry="5" style="stroke:#9FB0C7;stroke-width:0.5;" width="148.6113" x="279.5" y="394.0669"/><line style="stroke:#9FB0C7;stroke-width:0.5;" x1="279.5" x2="428.1113" y1="420.3638" y2="420.3638"/><text fill="#1F2937" font-family="Arial" font-size="14" lengthAdjust="spacing" textLength="128.6113" x="289.5" y="412.062">&#1060;&#1072;&#1081;&#1083;&#1099; &#1074; &#1086;&#1095;&#1077;&#1088;&#1077;&#1076;&#1080;</text></g><g><rect fill="#FFFFFF" height="50" rx="5" ry="5" style="stroke:#9FB0C7;stroke-width:0.5;" width="146.4238" x="280.6" y="499.0669"/><line style="stroke:#9FB0C7;stroke-width:0.5;" x1="280.6" x2="427.0238" y1="525.3638" y2="525.3638"/><text fill="#1F2937" font-family="Arial" font-size="14" lengthAdjust="spacing" textLength="126.4238" x="290.6" y="517.062">&#1047;&#1072;&#1075;&#1088;&#1091;&#1079;&#1082;&#1072; &#1092;&#1072;&#1081;&#1083;&#1086;&#1074;</text></g><g><rect fill="#FFFFFF" height="50" rx="5" ry="5" style="stroke:#9FB0C7;stroke-width:0.5;" width="156.6572" x="365.48" y="604.0669"/><line style="stroke:#9FB0C7;stroke-width:0.5;" x1="365.48" x2="522.1372" y1="630.3638" y2="630.3638"/><text fill="#1F2937" font-family="Arial" font-size="14" lengthAdjust="spacing" textLength="136.6572" x="375.48" y="622.062">&#1043;&#1086;&#1090;&#1086;&#1074;&#1086; &#1082; &#1086;&#1090;&#1087;&#1088;&#1072;&#1074;&#1082;&#1077;</text></g><g><rect fill="#FFFFFF" height="64.2344" rx="5" ry="5" style="stroke:#9FB0C7;stroke-width:0.5;" width="169.7188" x="351.95" y="44.2969"/><line style="stroke:#9FB0C7;stroke-width:0.5;" x1="351.95" x2="521.6688" y1="70.5938" y2="70.5938"/><text fill="#1F2937" font-family="Arial" font-size="14" lengthAdjust="spacing" textLength="71.0801" x="401.2693" y="62.292">&#1054;&#1090;&#1087;&#1088;&#1072;&#1074;&#1082;&#1072;</text><text fill="#1F2937" font-family="Arial" font-size="12" lengthAdjust="spacing" textLength="106.0723" x="383.7732" y="86.7324">ws chat_message</text><text fill="#1F2937" font-family="Arial" font-size="12" lengthAdjust="spacing" textLength="149.7188" x="361.95" y="100.7012">&#1080;&#1083;&#1080; finalize attachments</text></g><g><rect fill="#FFFFFF" height="50" rx="5" ry="5" style="stroke:#9FB0C7;stroke-width:0.5;" width="173.7197" x="272.95" y="173.7969"/><line style="stroke:#9FB0C7;stroke-width:0.5;" x1="272.95" x2="446.6697" y1="200.0938" y2="200.0938"/><text fill="#1F2937" font-family="Arial" font-size="14" lengthAdjust="spacing" textLength="153.7197" x="282.95" y="191.792">&#1054;&#1090;&#1087;&#1088;&#1072;&#1074;&#1082;&#1072; &#1086;&#1090;&#1082;&#1083;&#1086;&#1085;&#1077;&#1085;&#1072;</text></g><g><rect fill="#FFFFFF" height="50" rx="5" ry="5" style="stroke:#9FB0C7;stroke-width:0.5;" width="126.709" x="633.46" y="173.7969"/><line style="stroke:#9FB0C7;stroke-width:0.5;" x1="633.46" x2="760.169" y1="200.0938" y2="200.0938"/><text fill="#1F2937" font-family="Arial" font-size="14" lengthAdjust="spacing" textLength="106.709" x="643.46" y="191.792">&#1054;&#1087;&#1091;&#1073;&#1083;&#1080;&#1082;&#1086;&#1074;&#1072;&#1085;&#1086;</text></g><g><rect fill="#FFFFFF" height="50" rx="5" ry="5" style="stroke:#9FB0C7;stroke-width:0.5;" width="152.6445" x="764.49" y="289.0669"/><line style="stroke:#9FB0C7;stroke-width:0.5;" x1="764.49" x2="917.1345" y1="315.3638" y2="315.3638"/><text fill="#1F2937" font-family="Arial" font-size="14" lengthAdjust="spacing" textLength="132.6445" x="774.49" y="307.062">&#1054;&#1090;&#1088;&#1077;&#1076;&#1072;&#1082;&#1090;&#1080;&#1088;&#1086;&#1074;&#1072;&#1085;&#1086;</text></g><g><rect fill="#FFFFFF" height="50" rx="5" ry="5" style="stroke:#9FB0C7;stroke-width:0.5;" width="150.9629" x="673.33" y="394.0669"/><line style="stroke:#9FB0C7;stroke-width:0.5;" x1="673.33" x2="824.2929" y1="420.3638" y2="420.3638"/><text fill="#1F2937" font-family="Arial" font-size="14" lengthAdjust="spacing" textLength="130.9629" x="683.33" y="412.062">&#1045;&#1089;&#1090;&#1100; read tracking</text></g><g><rect fill="#FFFFFF" height="50" rx="5" ry="5" style="stroke:#9FB0C7;stroke-width:0.5;" width="82.0703" x="707.78" y="499.0669"/><line style="stroke:#9FB0C7;stroke-width:0.5;" x1="707.78" x2="789.8503" y1="525.3638" y2="525.3638"/><text fill="#1F2937" font-family="Arial" font-size="14" lengthAdjust="spacing" textLength="62.0703" x="717.78" y="517.062">&#1059;&#1076;&#1072;&#1083;&#1077;&#1085;&#1086;</text></g><ellipse cx="71.81" cy="76.4169" fill="#222222" rx="10" ry="10" style="stroke:#222222;stroke-width:1;"/><ellipse cx="748.81" cy="629.0669" fill="none" rx="11" ry="11" style="stroke:#222222;stroke-width:1;"/><ellipse cx="748.81" cy="629.0669" fill="#222222" rx="6" ry="6" style="stroke:#222222;stroke-width:1;"/><g class="entity" data-qualified-name="GMN2" data-source-line="65" id="ent0003"><path d="M804.92,168.5369 L804.92,183.0669 L760.37,187.0669 L804.92,191.0669 L804.92,229.0681 A5,5 0 0 0 809.92,234.0681 L1035.7056,234.0681 A5,5 0 0 0 1040.7056,229.0681 L1040.7056,173.5369 L1030.7056,163.5369 L809.92,163.5369 A5,5 0 0 0 804.92,168.5369" fill="#FBFCFE" style="stroke:#D7DEE8;stroke-width:0.5;"/><path d="M1030.7056,163.5369 L1030.7056,171.0369 A2.5,2.5 0 0 0 1033.2056,173.5369 L1040.7056,173.5369 L1030.7056,163.5369" fill="#FBFCFE" style="stroke:#D7DEE8;stroke-width:0.5;"/><text fill="#445066" font-family="Arial" font-size="13" lengthAdjust="spacing" textLength="208.2412" x="814.1922" y="180.6038">&#1055;&#1086;&#1089;&#1083;&#1077; &#1087;&#1091;&#1073;&#1083;&#1080;&#1082;&#1072;&#1094;&#1080;&#1080; &#1089;&#1086;&#1086;&#1073;&#1097;&#1077;&#1085;&#1080;&#1077;</text><text fill="#445066" font-family="Arial" font-size="13" lengthAdjust="spacing" textLength="178.5913" x="829.0172" y="195.7366">&#1084;&#1086;&#1078;&#1077;&#1090; &#1087;&#1086;&#1083;&#1091;&#1095;&#1072;&#1090;&#1100; &#1088;&#1077;&#1072;&#1082;&#1094;&#1080;&#1080;,</text><text fill="#445066" font-family="Arial" font-size="13" lengthAdjust="spacing" textLength="163.3506" x="836.6375" y="210.8694">pins &#1080; inbox notifications</text><text fill="#445066" font-family="Arial" font-size="13" lengthAdjust="spacing" textLength="214.7856" x="810.92" y="226.0022">&#1073;&#1077;&#1079; &#1089;&#1084;&#1077;&#1085;&#1099; &#1073;&#1072;&#1079;&#1086;&#1074;&#1086;&#1075;&#1086; &#1089;&#1086;&#1089;&#1090;&#1086;&#1103;&#1085;&#1080;&#1103;.</text></g><!--link *start* to NoDraft--><g class="link" data-entity-1="ent0002" data-entity-2="ent0002" data-link-type="dependency" data-source-line="35" id="lnk3"><path d="M71.81,86.8569 C71.81,105.9269 71.81,140.9169 71.81,167.6569" fill="none" id="*start*-to-NoDraft" style="stroke:#687385;stroke-width:1.1;"/><polygon fill="#687385" points="71.81,173.6569,75.81,164.6569,71.81,168.6569,67.81,164.6569,71.81,173.6569" style="stroke:#687385;stroke-width:1.1;"/></g><!--link NoDraft to Drafting--><g class="link" data-entity-1="ent0002" data-entity-2="ent0003" data-link-type="dependency" data-source-line="37" id="lnk4"><path d="M136.82,199.0669 C174.77,199.0669 215.26,199.0669 215.26,199.0669 C215.26,199.0669 215.26,248.9769 215.26,282.8269" fill="none" id="NoDraft-to-Drafting" style="stroke:#687385;stroke-width:1.1;"/><polygon fill="#687385" points="215.26,288.8269,219.26,279.8269,215.26,283.8269,211.26,279.8269,215.26,288.8269" style="stroke:#687385;stroke-width:1.1;"/><text fill="#000000" font-family="Arial" font-size="13" lengthAdjust="spacing" textLength="130.5776" x="150.26" y="217.7938">&#1092;&#1086;&#1082;&#1091;&#1089; &#1085;&#1072; composer</text></g><!--link Drafting to FilesQueued--><g class="link" data-entity-1="ent0003" data-entity-2="ent0004" data-link-type="dependency" data-source-line="38" id="lnk5"><path d="M330.78,339.4869 C330.78,355.9969 330.78,371.4169 330.78,387.8869" fill="none" id="Drafting-to-FilesQueued" style="stroke:#687385;stroke-width:1.1;"/><polygon fill="#687385" points="330.78,393.8869,334.78,384.8869,330.78,388.8869,326.78,384.8869,330.78,393.8869" style="stroke:#687385;stroke-width:1.1;"/><text fill="#000000" font-family="Arial" font-size="13" lengthAdjust="spacing" textLength="125.8931" x="204.78" y="362.7538">&#1076;&#1086;&#1073;&#1072;&#1074;&#1083;&#1077;&#1085;&#1099; &#1092;&#1072;&#1081;&#1083;&#1099;</text></g><!--link FilesQueued to Uploading--><g class="link" data-entity-1="ent0004" data-entity-2="ent0005" data-link-type="dependency" data-source-line="39" id="lnk6"><path d="M329.41,444.4869 C329.41,460.9969 329.41,476.4169 329.41,492.8869" fill="none" id="FilesQueued-to-Uploading" style="stroke:#687385;stroke-width:1.1;"/><polygon fill="#687385" points="329.41,498.8869,333.41,489.8869,329.41,493.8869,325.41,489.8869,329.41,498.8869" style="stroke:#687385;stroke-width:1.1;"/><text fill="#000000" font-family="Arial" font-size="13" lengthAdjust="spacing" textLength="127.4863" x="201.41" y="467.7538">uploadAttachments</text></g><!--link Uploading to FilesQueued--><g class="link" data-entity-1="ent0005" data-entity-2="ent0004" data-link-type="dependency" data-source-line="40" id="lnk7"><path d="M378.21,498.6469 C378.21,482.1369 378.21,466.7169 378.21,450.2469" fill="none" id="Uploading-to-FilesQueued" style="stroke:#687385;stroke-width:1.1;"/><polygon fill="#687385" points="378.21,444.2469,374.21,453.2469,378.21,449.2469,382.21,453.2469,378.21,444.2469" style="stroke:#687385;stroke-width:1.1;"/><text fill="#000000" font-family="Arial" font-size="13" lengthAdjust="spacing" textLength="192.6768" x="379.21" y="467.5138">&#1086;&#1090;&#1084;&#1077;&#1085;&#1072; &#1080;&#1083;&#1080; &#1095;&#1072;&#1089;&#1090;&#1080;&#1095;&#1085;&#1099;&#1081; &#1089;&#1073;&#1086;&#1081;</text></g><!--link Uploading to ReadyToSend--><g class="link" data-entity-1="ent0005" data-entity-2="ent0006" data-link-type="dependency" data-source-line="41" id="lnk8"><path d="M396.25,549.4869 C396.25,565.9969 396.25,581.4169 396.25,597.8869" fill="none" id="Uploading-to-ReadyToSend" style="stroke:#687385;stroke-width:1.1;"/><polygon fill="#687385" points="396.25,603.8869,400.25,594.8869,396.25,598.8869,392.25,594.8869,396.25,603.8869" style="stroke:#687385;stroke-width:1.1;"/><text fill="#000000" font-family="Arial" font-size="13" lengthAdjust="spacing" textLength="131.3013" x="264.25" y="572.7538">&#1087;&#1086;&#1083;&#1091;&#1095;&#1077;&#1085;&#1099; upload id</text></g><!--link Drafting to Sending--><g class="link" data-entity-1="ent0003" data-entity-2="ent0007" data-link-type="dependency" data-source-line="43" id="lnk9"><path d="M382.46,315.0669 C425.95,315.0669 465.42,315.0669 465.42,315.0669 C465.42,315.0669 465.42,179.7469 465.42,114.6069" fill="none" id="Drafting-to-Sending" style="stroke:#687385;stroke-width:1.1;"/><polygon fill="#687385" points="465.42,108.6069,461.42,117.6069,465.42,113.6069,469.42,117.6069,465.42,108.6069" style="stroke:#687385;stroke-width:1.1;"/><text fill="#000000" font-family="Arial" font-size="13" lengthAdjust="spacing" textLength="113.9658" x="351.42" y="249.3838">&#1086;&#1090;&#1087;&#1088;&#1072;&#1074;&#1082;&#1072; &#1090;&#1077;&#1082;&#1089;&#1090;&#1072;</text></g><!--link ReadyToSend to Sending--><g class="link" data-entity-1="ent0006" data-entity-2="ent0007" data-link-type="dependency" data-source-line="44" id="lnk10"><path d="M484.17,603.8869 C484.17,514.0369 484.17,215.2269 484.17,114.8069" fill="none" id="ReadyToSend-to-Sending" style="stroke:#687385;stroke-width:1.1;"/><polygon fill="#687385" points="484.17,108.8069,480.17,117.8069,484.17,113.8069,488.17,117.8069,484.17,108.8069" style="stroke:#687385;stroke-width:1.1;"/><text fill="#000000" font-family="Arial" font-size="13" lengthAdjust="spacing" textLength="115.1274" x="368.17" y="352.4138">&#1090;&#1077;&#1082;&#1089;&#1090; &#1080; upload id</text></g><!--link Sending to Published--><g class="link" data-entity-1="ent0007" data-entity-2="ent0009" data-link-type="dependency" data-source-line="47" id="lnk11"><path d="M502.92,108.9669 C502.92,145.2969 502.92,199.0669 502.92,199.0669 C502.92,199.0669 570.54,199.0669 627.05,199.0669" fill="none" id="Sending-to-Published" style="stroke:#687385;stroke-width:1.1;"/><polygon fill="#687385" points="633.05,199.0669,624.05,195.0669,628.05,199.0669,624.05,203.0669,633.05,199.0669" style="stroke:#687385;stroke-width:1.1;"/><text fill="#000000" font-family="Arial" font-size="13" lengthAdjust="spacing" textLength="152.3564" x="446.94" y="212.1338">&#1089;&#1086;&#1086;&#1073;&#1097;&#1077;&#1085;&#1080;&#1077; &#1089;&#1086;&#1093;&#1088;&#1072;&#1085;&#1077;&#1085;&#1086;</text><text fill="#000000" font-family="Arial" font-size="13" lengthAdjust="spacing" textLength="146.8594" x="449.6885" y="227.2666">&#1074;&#1083;&#1086;&#1078;&#1077;&#1085;&#1080;&#1103; &#1087;&#1088;&#1080;&#1074;&#1103;&#1079;&#1072;&#1085;&#1099;</text></g><!--link Sending to Rejected--><g class="link" data-entity-1="ent0007" data-entity-2="ent0008" data-link-type="dependency" data-source-line="48" id="lnk12"><path d="M399.31,108.8969 C399.31,129.1469 399.31,148.8269 399.31,167.5469" fill="none" id="Sending-to-Rejected" style="stroke:#687385;stroke-width:1.1;"/><polygon fill="#687385" points="399.31,173.5469,403.31,164.5469,399.31,168.5469,395.31,164.5469,399.31,173.5469" style="stroke:#687385;stroke-width:1.1;"/><text fill="#000000" font-family="Arial" font-size="13" lengthAdjust="spacing" textLength="156.3809" x="242.31" y="122.2938">validation / permission /</text><text fill="#000000" font-family="Arial" font-size="13" lengthAdjust="spacing" textLength="141.7495" x="249.6257" y="137.4266">rate limit / slow mode</text></g><!--link Rejected to Drafting--><g class="link" data-entity-1="ent0008" data-entity-2="ent0003" data-link-type="dependency" data-source-line="49" id="lnk13"><path d="M327.5,224.0969 C327.5,243.3169 327.5,263.6269 327.5,282.8269" fill="none" id="Rejected-to-Drafting" style="stroke:#687385;stroke-width:1.1;"/><polygon fill="#687385" points="327.5,288.8269,331.5,279.8269,327.5,283.8269,323.5,279.8269,327.5,288.8269" style="stroke:#687385;stroke-width:1.1;"/><text fill="#000000" font-family="Arial" font-size="13" lengthAdjust="spacing" textLength="159.9482" x="167.5" y="252.5338">&#1080;&#1089;&#1087;&#1088;&#1072;&#1074;&#1080;&#1090;&#1100; &#1080; &#1087;&#1086;&#1074;&#1090;&#1086;&#1088;&#1080;&#1090;&#1100;</text></g><!--link Published to Edited--><g class="link" data-entity-1="ent0009" data-entity-2="ent0010" data-link-type="dependency" data-source-line="51" id="lnk14"><path d="M760.46,199.0669 C777.57,199.0669 791.44,199.0669 791.44,199.0669 C791.44,199.0669 791.44,248.9769 791.44,282.8269" fill="none" id="Published-to-Edited" style="stroke:#687385;stroke-width:1.1;"/><polygon fill="#687385" points="791.44,288.8269,795.44,279.8269,791.44,283.8269,787.44,279.8269,791.44,288.8269" style="stroke:#687385;stroke-width:1.1;"/><text fill="#000000" font-family="Arial" font-size="13" lengthAdjust="spacing" textLength="89.8828" x="701.44" y="241.5238">edit_message</text></g><!--link Edited to Published--><g class="link" data-entity-1="ent0010" data-entity-2="ent0009" data-link-type="dependency" data-source-line="52" id="lnk15"><path d="M777.96,288.5869 C777.96,258.3769 777.96,212.0669 777.96,212.0669 C777.96,212.0669 776.62,212.0669 766.36,212.0669" fill="none" id="Edited-to-Published" style="stroke:#687385;stroke-width:1.1;"/><polygon fill="#687385" points="760.36,212.0669,769.36,216.0669,765.36,212.0669,769.36,208.0669,760.36,212.0669" style="stroke:#687385;stroke-width:1.1;"/><text fill="#000000" font-family="Arial" font-size="13" lengthAdjust="spacing" textLength="151.8359" x="778.96" y="254.5938">&#1080;&#1079;&#1084;&#1077;&#1085;&#1077;&#1085;&#1080;&#1103; &#1088;&#1072;&#1079;&#1086;&#1089;&#1083;&#1072;&#1085;&#1099;</text></g><!--link Published to ReadTracked--><g class="link" data-entity-1="ent0009" data-entity-2="ent0011" data-link-type="dependency" data-source-line="54" id="lnk16"><path d="M716.75,224.0669 C716.75,266.4469 716.75,345.3469 716.75,387.7569" fill="none" id="Published-to-ReadTracked" style="stroke:#687385;stroke-width:1.1;"/><polygon fill="#687385" points="716.75,393.7569,720.75,384.7569,716.75,388.7569,712.75,384.7569,716.75,393.7569" style="stroke:#687385;stroke-width:1.1;"/><text fill="#000000" font-family="Arial" font-size="13" lengthAdjust="spacing" textLength="163.7188" x="552.75" y="304.9838">mark_read / read_receipt</text></g><!--link Edited to ReadTracked--><g class="link" data-entity-1="ent0010" data-entity-2="ent0011" data-link-type="dependency" data-source-line="55" id="lnk17"><path d="M784.42,339.4869 C784.42,355.9969 784.42,371.4169 784.42,387.8869" fill="none" id="Edited-to-ReadTracked" style="stroke:#687385;stroke-width:1.1;"/><polygon fill="#687385" points="784.42,393.8869,788.42,384.8869,784.42,388.8869,780.42,384.8869,784.42,393.8869" style="stroke:#687385;stroke-width:1.1;"/><text fill="#000000" font-family="Arial" font-size="13" lengthAdjust="spacing" textLength="147.3481" x="636.42" y="362.7538">&#1087;&#1086;&#1079;&#1076;&#1085;&#1080;&#1077; read receipts</text></g><!--link ReadTracked to Edited--><g class="link" data-entity-1="ent0011" data-entity-2="ent0010" data-link-type="dependency" data-source-line="59" id="lnk20"><path d="M804.36,393.6469 C804.36,377.1369 804.36,361.7169 804.36,345.2469" fill="none" id="ReadTracked-to-Edited" style="stroke:#687385;stroke-width:1.1;"/><polygon fill="#687385" points="804.36,339.2469,800.36,348.2469,804.36,344.2469,808.36,348.2469,804.36,339.2469" style="stroke:#687385;stroke-width:1.1;"/><text fill="#000000" font-family="Arial" font-size="13" lengthAdjust="spacing" textLength="174.8398" x="805.36" y="362.5138">&#1087;&#1086;&#1079;&#1076;&#1085;&#1077;&#1077; &#1088;&#1077;&#1076;&#1072;&#1082;&#1090;&#1080;&#1088;&#1086;&#1074;&#1072;&#1085;&#1080;&#1077;</text></g><!--link Published to Deleted--><g class="link" data-entity-1="ent0009" data-entity-2="ent0012" data-link-type="dependency" data-source-line="57" id="lnk18"><path d="M653.39,224.1269 C653.39,300.7869 653.39,525.0669 653.39,525.0669 C653.39,525.0669 675.73,525.0669 701.51,525.0669" fill="none" id="Published-to-Deleted" style="stroke:#687385;stroke-width:1.1;"/><polygon fill="#687385" points="707.51,525.0669,698.51,521.0669,702.51,525.0669,698.51,529.0669,707.51,525.0669" style="stroke:#687385;stroke-width:1.1;"/><text fill="#000000" font-family="Arial" font-size="13" lengthAdjust="spacing" textLength="105.8789" x="547.39" y="397.7238">delete_message</text></g><!--link Edited to Deleted--><g class="link" data-entity-1="ent0010" data-entity-2="ent0012" data-link-type="dependency" data-source-line="58" id="lnk19"><path d="M870.71,339.5169 C870.71,395.6369 870.71,525.0669 870.71,525.0669 C870.71,525.0669 831.45,525.0669 796.08,525.0669" fill="none" id="Edited-to-Deleted" style="stroke:#687385;stroke-width:1.1;"/><polygon fill="#687385" points="790.08,525.0669,799.08,529.0669,795.08,525.0669,799.08,521.0669,790.08,525.0669" style="stroke:#687385;stroke-width:1.1;"/><text fill="#000000" font-family="Arial" font-size="13" lengthAdjust="spacing" textLength="105.8789" x="764.71" y="468.6738">delete_message</text></g><!--link ReadTracked to Deleted--><g class="link" data-entity-1="ent0011" data-entity-2="ent0012" data-link-type="dependency" data-source-line="60" id="lnk21"><path d="M748.81,444.4869 C748.81,460.9969 748.81,476.4169 748.81,492.8869" fill="none" id="ReadTracked-to-Deleted" style="stroke:#687385;stroke-width:1.1;"/><polygon fill="#687385" points="748.81,498.8869,752.81,489.8869,748.81,493.8869,744.81,489.8869,748.81,498.8869" style="stroke:#687385;stroke-width:1.1;"/><text fill="#000000" font-family="Arial" font-size="13" lengthAdjust="spacing" textLength="126.8833" x="621.81" y="467.7538">&#1087;&#1086;&#1079;&#1076;&#1085;&#1077;&#1077; &#1091;&#1076;&#1072;&#1083;&#1077;&#1085;&#1080;&#1077;</text></g><!--link Deleted to *end*--><g class="link" data-entity-1="ent0012" data-entity-2="ent0022" data-link-type="dependency" data-source-line="62" id="lnk23"><path d="M748.81,549.4869 C748.81,571.2169 748.81,595.4669 748.81,611.6969" fill="none" id="Deleted-to-*end*" style="stroke:#687385;stroke-width:1.1;"/><polygon fill="#687385" points="748.81,617.6969,752.81,608.6969,748.81,612.6969,744.81,608.6969,748.81,617.6969" style="stroke:#687385;stroke-width:1.1;"/></g><?plantuml-src TLPRRnj557wVNt5KtX1f4vfRUK0AX3vMKC9JYwhnxgmzUBrZpOoR5eIK2xH2hTI72lMf1GG_m74nTfpM_Gkp_uXpPY-UTPn4YjUpvtpVkNpdJAoqgO1zyL2c1kuAOsNMXZLmVxbvVfoVuDyNxhsRvYyWFtPp_3tBVtFZueYPhipwNFCUc0wFrI7v9Zmr8dZJub6thTKWYxzKgTBmKU9_0ejKPi8-xWjGsdPKy28M2H-aza0yidkfR6SzaLc8y8_GWLMcOc547pQtWaFDiouTRZKEAOf8wKnes5WFNknfhGxByBPtTsxkRYs_FEZ8g9i9Os3Z-iRb46-hpDxXFO76agTXNIot0dvY05ye7GjTajnAMklH3frUKHq0WYpFDf9FRztSOJytabu56-_4GkokX6qbKIAQi9kRM-lRsmZBYYYlkTTkd9z0_XG_Zh35SpToKpTpmsl03TnH-vedjZR-4sNmhnkw6QfaYlPaFIHXkF5L41u0HL9Z_8CUv-uYVmPk1AYrmermfzxXjao5-MOW1YAkVLwXpzlyA3zr4mA6_9S2XBYyqtVzLF4uf7c9q2S-bZcu6VXl7v1eY2SpD_PUTmMF7n-eRqMse7hJi2jo88CGUycc09_vSDxxGHcMy3-8o0Pfl46lKtU6XbIVgdXpR_pre9LAqn6DICh2N2vuuVDLB4Futsbwy-UWCIsm6lM0GTU97j11OFst1xxmyHPm-o8LXCVkVVmzhArzNhUVbG_-i6eeV4Pjc6Def_anKD8GgLvV6PpKseOSWeQY3xBYGl6byzoeWwgR-JCMsf9ltLVq7FZdFMjvrA6rODZYxGeUwicxeXk0zSQQaqI7ViDDyGcPtJbjk3CCw7m9Ar06ONr0amlCysaPSH4AIAnL8zLIA1Lzg17yEiPQ4VkGXV1DluKP1XtoB4mE3KGTRX_qS3NnjhYVbTabCkEf_5403qfKkH5BBJ7YMThiDC1ubF_gGovKF4VeaLVrVzNw1v_Jr8tmYfYG8VOifAWaZmmFCPYOMwaok05zeNlI6F_bVgP9WQdiIOklJAeEeOSBdTNEIp93ukEwbbClSKpNDsNahwkZufInHOO4KOm70WXygCh5ojFbWc1Iar8lLQwUSKAN8XQXo7M98PWhXEXntNtWX--6dq5yZeJisv2owU5pcE1851tmlgMJMUOgfnEzOl-qAg4hRKBQHcc22CQaWQEhD_mba0NRCiffi5l8arMcv8RRXJ5_cMdPxbXGIR3yt1zblSVGM9R3_0b-JbVebc7Nl49fP1Q3ElGwyVbGDjxx4zQNcI7noAob7j6DAXCPUP4QXbnZDo66T-MO-pqrAIuHznOl4ZyYZN-HhZEQOShcVm00?></g></svg>