<?plantuml 1.2026.1?><svg xmlns="http://www.w3.org/2000/svg" xmlns:xlink="http://www.w3.org/1999/xlink" contentStyleType="text/css" data-diagram-type="DESCRIPTION" height="653px" preserveAspectRatio="none" style="width:633px;height:653px;background:#FBFCFE;" version="1.1" viewBox="0 0 633 653" width="633px" zoomAndPan="magnify"><title>Devil - &#1050;&#1086;&#1085;&#1090;&#1077;&#1082;&#1089;&#1090; &#1089;&#1080;&#1089;&#1090;&#1077;&#1084;&#1099;</title><defs/><g><rect fill="#FBFCFE" height="653" style="stroke:none;stroke-width:1;" width="633" x="0" y="0"/><g class="title" data-source-line="2"><text fill="#000000" font-family="Arial" font-size="14" font-weight="bold" lengthAdjust="spacing" textLength="172.7715" x="223.3452" y="23.1318">Devil - &#1050;&#1086;&#1085;&#1090;&#1077;&#1082;&#1089;&#1090; &#1089;&#1080;&#1089;&#1090;&#1077;&#1084;&#1099;</text></g><!--cluster Devil--><g class="cluster" data-qualified-name="Devil" data-source-line="10" id="ent0006"><rect fill="#F5F8FC" height="119" rx="6" ry="6" style="stroke:#C7D2E3;stroke-width:1;" width="280" x="166" y="208.5986"/><text fill="#111827" font-family="Arial" font-size="14" font-weight="bold" lengthAdjust="spacing" textLength="33.4619" x="289.269" y="223.7305">Devil</text><text fill="#111827" font-family="Arial" font-size="14" font-weight="bold" lengthAdjust="spacing" textLength="148.1279" x="231.936" y="239.8291">Realtime-&#1084;&#1077;&#1089;&#1089;&#1077;&#1085;&#1076;&#1078;&#1077;&#1088;</text></g><!--entity Spa--><g class="entity" data-qualified-name="Devil.Spa" data-source-line="11" id="ent0007"><rect fill="#FFFFFF" height="36.0986" rx="6" ry="6" style="stroke:#8EA3BD;stroke-width:0.5;" width="80.6895" x="182" y="267.5986"/><text fill="#1F2937" font-family="Arial" font-size="14" lengthAdjust="spacing" textLength="28.7861" x="192" y="290.7305">Web</text><text fill="#1F2937" font-family="Arial" font-size="14" lengthAdjust="spacing" textLength="3.8896" x="220.7861" y="290.7305">&#160;</text><text fill="#1F2937" font-family="Arial" font-size="14" lengthAdjust="spacing" textLength="28.0137" x="224.6758" y="290.7305">SPA</text></g><!--entity Backend--><g class="entity" data-qualified-name="Devil.Backend" data-source-line="12" id="ent0008"><rect fill="#FFFFFF" height="52.1973" rx="6" ry="6" style="stroke:#8EA3BD;stroke-width:0.5;" width="103.2959" x="327" y="259.5986"/><text fill="#1F2937" font-family="Arial" font-size="14" lengthAdjust="spacing" textLength="54.4824" x="338.1792" y="282.7305">Backend</text><text fill="#1F2937" font-family="Arial" font-size="14" lengthAdjust="spacing" textLength="3.8896" x="392.6616" y="282.7305">&#160;</text><text fill="#1F2937" font-family="Arial" font-size="14" lengthAdjust="spacing" textLength="22.5654" x="396.5513" y="282.7305">API</text><text fill="#1F2937" font-family="Arial" font-size="14" lengthAdjust="spacing" textLength="7.8203" x="337" y="298.8291">&#1080;</text><text fill="#1F2937" font-family="Arial" font-size="14" lengthAdjust="spacing" textLength="3.8896" x="344.8203" y="298.8291">&#160;</text><text fill="#1F2937" font-family="Arial" font-size="14" lengthAdjust="spacing" textLength="71.5859" x="348.71" y="298.8291">WebSocket</text></g><!--entity Guest--><g class="entity" data-qualified-name="Guest" data-source-line="5" id="ent0002"><ellipse cx="62.0366" cy="51.0986" fill="#FFFFFF" rx="8" ry="8" style="stroke:#64748B;stroke-width:0.5;"/><path d="M62.0366,59.0986 L62.0366,86.0986 M49.0366,67.0986 L75.0366,67.0986 M62.0366,86.0986 L49.0366,101.0986 M62.0366,86.0986 L75.0366,101.0986" fill="none" style="stroke:#64748B;stroke-width:0.5;"/><text fill="#111827" font-family="Arial" font-size="14" lengthAdjust="spacing" textLength="36.0732" x="44" y="115.7305">&#1043;&#1086;&#1089;&#1090;&#1100;</text></g><!--entity User--><g class="entity" data-qualified-name="User" data-source-line="6" id="ent0003"><ellipse cx="62.2007" cy="185.0986" fill="#FFFFFF" rx="8" ry="8" style="stroke:#64748B;stroke-width:0.5;"/><path d="M62.2007,193.0986 L62.2007,220.0986 M49.2007,201.0986 L75.2007,201.0986 M62.2007,220.0986 L49.2007,235.0986 M62.2007,220.0986 L75.2007,235.0986" fill="none" style="stroke:#64748B;stroke-width:0.5;"/><text fill="#111827" font-family="Arial" font-size="14" lengthAdjust="spacing" textLength="92.4014" x="16" y="249.7305">&#1055;&#1086;&#1083;&#1100;&#1079;&#1086;&#1074;&#1072;&#1090;&#1077;&#1083;&#1100;</text></g><!--entity Moderator--><g class="entity" data-qualified-name="Moderator" data-source-line="7" id="ent0004"><ellipse cx="62.1641" cy="319.0986" fill="#FFFFFF" rx="8" ry="8" style="stroke:#64748B;stroke-width:0.5;"/><path d="M62.1641,327.0986 L62.1641,354.0986 M49.1641,335.0986 L75.1641,335.0986 M62.1641,354.0986 L49.1641,369.0986 M62.1641,354.0986 L75.1641,369.0986" fill="none" style="stroke:#64748B;stroke-width:0.5;"/><text fill="#111827" font-family="Arial" font-size="14" lengthAdjust="spacing" textLength="72.96" x="21.7944" y="383.7305">&#1052;&#1086;&#1076;&#1077;&#1088;&#1072;&#1090;&#1086;&#1088;</text><text fill="#111827" font-family="Arial" font-size="14" lengthAdjust="spacing" textLength="3.8896" x="94.7544" y="383.7305">&#160;</text><text fill="#111827" font-family="Arial" font-size="14" lengthAdjust="spacing" textLength="3.8896" x="98.644" y="383.7305">/</text><text fill="#111827" font-family="Arial" font-size="14" lengthAdjust="spacing" textLength="63.3213" x="6" y="399.8291">&#1074;&#1083;&#1072;&#1076;&#1077;&#1083;&#1077;&#1094;</text><text fill="#111827" font-family="Arial" font-size="14" lengthAdjust="spacing" textLength="3.8896" x="69.3213" y="399.8291">&#160;</text><text fill="#111827" font-family="Arial" font-size="14" lengthAdjust="spacing" textLength="45.1172" x="73.2109" y="399.8291">&#1075;&#1088;&#1091;&#1087;&#1087;&#1099;</text></g><!--entity Admin--><g class="entity" data-qualified-name="Admin" data-source-line="8" id="ent0005"><ellipse cx="62.2363" cy="469.0986" fill="#FFFFFF" rx="8" ry="8" style="stroke:#64748B;stroke-width:0.5;"/><path d="M62.2363,477.0986 L62.2363,504.0986 M49.2363,485.0986 L75.2363,485.0986 M62.2363,504.0986 L49.2363,519.0986 M62.2363,504.0986 L75.2363,519.0986" fill="none" style="stroke:#64748B;stroke-width:0.5;"/><text fill="#111827" font-family="Arial" font-size="14" lengthAdjust="spacing" textLength="101.4727" x="11.5" y="533.7305">&#1040;&#1076;&#1084;&#1080;&#1085;&#1080;&#1089;&#1090;&#1088;&#1072;&#1090;&#1086;&#1088;</text></g><!--entity Google--><g class="entity" data-qualified-name="Google" data-source-line="15" id="ent0009"><path d="M503.6727,73.7014 C507.0549,66.9542 512.5219,66.9107 517.1822,72.276 C520.9829,66.0305 526.822,65.8966 529.9737,72.9025 C533.2452,65.3738 537.2607,65.1176 542.9037,70.5339 C547.82,64.6605 552.0074,63.8771 556.8194,70.6488 C561.3341,65.0883 565.5969,66.7815 568.4721,72.3635 C571.8859,66.8878 577.4,67.0175 580.6889,72.5027 C584.9209,65.9798 589.0494,66.5755 593.4927,72.2813 C597.7783,66.7689 604.2539,66.8681 607.8388,73.1346 C616.332,76.8968 617.6304,84.0692 609.2299,89.2863 C615.8179,94.5171 614.5782,100.4675 606.9901,103.4578 C603.9635,109.9686 599.4563,109.4384 595.2456,104.6932 C591.719,112.2474 587.1444,113.4099 581.4471,106.8092 C578.3455,113.062 574.2199,113.7906 569.6915,108.229 C567.2872,114.9198 560.8929,116.8223 556.4277,110.2973 C552.0846,115.7846 546.8139,116.6305 543.0373,109.687 C537.9727,114.7704 532.2597,112.7578 530.0365,106.4454 C525.3315,111.2758 520.9839,111.2524 517.3571,105.1903 C513.8167,111.1217 508.0525,111.1652 504.9789,104.7233 C494.6127,103.5415 490.7492,97.9868 496.0917,88.303 C491.2997,79.4906 494.1452,75.0794 503.6727,73.7014" fill="#FFFFFF" style="stroke:#8EA3BD;stroke-width:0.5;"/><text fill="#1F2937" font-family="Arial" font-size="14" lengthAdjust="spacing" textLength="45.1445" x="510.5" y="92.7305">Google</text><text fill="#1F2937" font-family="Arial" font-size="14" lengthAdjust="spacing" textLength="3.8896" x="555.6445" y="92.7305">&#160;</text><text fill="#1F2937" font-family="Arial" font-size="14" lengthAdjust="spacing" textLength="39.6895" x="559.5342" y="92.7305">OAuth</text></g><!--entity Db--><g class="entity" data-qualified-name="Db" data-source-line="16" id="ent0010"><path d="M507,179.0986 C507,169.0986 555.1309,169.0986 555.1309,169.0986 C555.1309,169.0986 603.2617,169.0986 603.2617,179.0986 L603.2617,204.1973 C603.2617,214.1973 555.1309,214.1973 555.1309,214.1973 C555.1309,214.1973 507,214.1973 507,204.1973 L507,179.0986" fill="#FFFFFF" style="stroke:#8EA3BD;stroke-width:0.5;"/><path d="M507,179.0986 C507,189.0986 555.1309,189.0986 555.1309,189.0986 C555.1309,189.0986 603.2617,189.0986 603.2617,179.0986" fill="none" style="stroke:#8EA3BD;stroke-width:0.5;"/><text fill="#1F2937" font-family="Arial" font-size="14" lengthAdjust="spacing" textLength="76.2617" x="517" y="206.2305">PostgreSQL</text></g><!--entity Redis--><g class="entity" data-qualified-name="Redis" data-source-line="17" id="ent0011"><path d="M532,272.5986 L577.793,272.5986 C582.793,272.5986 582.793,285.6479 582.793,285.6479 C582.793,285.6479 582.793,298.6973 577.793,298.6973 L532,298.6973 C527,298.6973 527,285.6479 527,285.6479 C527,285.6479 527,272.5986 532,272.5986" fill="#FFFFFF" style="stroke:#8EA3BD;stroke-width:0.5;"/><path d="M577.793,272.5986 C572.793,272.5986 572.793,285.6479 572.793,285.6479 C572.793,298.6973 577.793,298.6973 577.793,298.6973" fill="none" style="stroke:#8EA3BD;stroke-width:0.5;"/><text fill="#1F2937" font-family="Arial" font-size="14" lengthAdjust="spacing" textLength="35.793" x="532" y="290.7305">Redis</text></g><!--entity Media--><g class="entity" data-qualified-name="Media" data-source-line="18" id="ent0012"><path d="M501.5,356.5986 L535.5,356.5986 A9,9 0 0 1 541.5,362.5986 L548.5,377.5986 L608.2168,377.5986 A6,6 0 0 1 614.2168,383.5986 L614.2168,404.6973 A6,6 0 0 1 608.2168,410.6973 L501.5,410.6973 A6,6 0 0 1 495.5,404.6973 L495.5,362.5986 A6,6 0 0 1 501.5,356.5986" fill="#FFFFFF" style="stroke:#8EA3BD;stroke-width:0.5;"/><line style="stroke:#8EA3BD;stroke-width:0.5;" x1="495.5" x2="548.5" y1="377.5986" y2="377.5986"/><text fill="#1F2937" font-family="Arial" font-size="14" lengthAdjust="spacing" textLength="38.1309" x="505.5" y="397.7305">Media</text><text fill="#1F2937" font-family="Arial" font-size="14" lengthAdjust="spacing" textLength="3.8896" x="543.6309" y="397.7305">&#160;</text><text fill="#1F2937" font-family="Arial" font-size="14" lengthAdjust="spacing" textLength="46.6963" x="547.5205" y="397.7305">storage</text></g><!--entity Observability--><g class="entity" data-qualified-name="Observability" data-source-line="19" id="ent0013"><polygon fill="#FFFFFF" points="494,478.5986,504,468.5986,616.4619,468.5986,616.4619,536.8945,606.4619,546.8945,494,546.8945,494,478.5986" style="stroke:#8EA3BD;stroke-width:0.5;"/><line style="stroke:#8EA3BD;stroke-width:0.5;" x1="606.4619" x2="616.4619" y1="478.5986" y2="468.5986"/><line style="stroke:#8EA3BD;stroke-width:0.5;" x1="494" x2="606.4619" y1="478.5986" y2="478.5986"/><line style="stroke:#8EA3BD;stroke-width:0.5;" x1="606.4619" x2="606.4619" y1="478.5986" y2="546.8945"/><text fill="#1F2937" font-family="Arial" font-size="14" lengthAdjust="spacing" textLength="80.917" x="509.7725" y="501.7305">Observability</text><text fill="#1F2937" font-family="Arial" font-size="14" lengthAdjust="spacing" textLength="49" x="509" y="517.8291">metrics,</text><text fill="#1F2937" font-family="Arial" font-size="14" lengthAdjust="spacing" textLength="3.8896" x="558" y="517.8291">&#160;</text><text fill="#1F2937" font-family="Arial" font-size="14" lengthAdjust="spacing" textLength="29.5723" x="561.8896" y="517.8291">logs,</text><text fill="#1F2937" font-family="Arial" font-size="14" lengthAdjust="spacing" textLength="34.2344" x="533.1138" y="533.9277">alerts</text></g><!--link Guest to Spa--><g class="link" data-entity-1="ent0002" data-entity-2="ent0007" data-link-type="dependency" data-source-line="21" id="lnk14"><path d="M80.29,114.5986 C124.97,114.5986 236,114.5986 236,114.5986 C236,114.5986 236,217.1886 236,261.2986" fill="none" id="Guest-to-Spa" style="stroke:#5F6F86;stroke-width:1.15;"/><polygon fill="#5F6F86" points="236,267.2986,240,258.2986,236,262.2986,232,258.2986,236,267.2986" style="stroke:#5F6F86;stroke-width:1.15;"/><text fill="#4B5563" font-family="Arial" font-size="12" lengthAdjust="spacing" textLength="123.668" x="110.5" y="126.8545">&#1095;&#1080;&#1090;&#1072;&#1077;&#1090; &#1087;&#1091;&#1073;&#1083;&#1080;&#1095;&#1085;&#1099;&#1081; &#1095;&#1072;&#1090;</text><text fill="#4B5563" font-family="Arial" font-size="12" lengthAdjust="spacing" textLength="84.0938" x="130.2871" y="140.6533">&#1080; &#1087;&#1088;&#1080;&#1075;&#1083;&#1072;&#1096;&#1077;&#1085;&#1080;&#1103;</text></g><!--link User to Spa--><g class="link" data-entity-1="ent0003" data-entity-2="ent0007" data-link-type="dependency" data-source-line="22" id="lnk15"><path d="M108.11,233.3486 C151.22,233.3486 209,233.3486 209,233.3486 C209,233.3486 209,246.2586 209,261.3286" fill="none" id="User-to-Spa" style="stroke:#5F6F86;stroke-width:1.15;"/><polygon fill="#5F6F86" points="209,267.3286,213,258.3286,209,262.3286,205,258.3286,209,267.3286" style="stroke:#5F6F86;stroke-width:1.15;"/><text fill="#4B5563" font-family="Arial" font-size="12" lengthAdjust="spacing" textLength="58.0957" x="207.2783" y="245.6045">&#1086;&#1073;&#1097;&#1072;&#1077;&#1090;&#1089;&#1103;,</text><text fill="#4B5563" font-family="Arial" font-size="12" lengthAdjust="spacing" textLength="119.5723" x="176.54" y="259.4033">&#1091;&#1087;&#1088;&#1072;&#1074;&#1083;&#1103;&#1077;&#1090; &#1087;&#1088;&#1086;&#1092;&#1080;&#1083;&#1077;&#1084;</text></g><!--link Moderator to Spa--><g class="link" data-entity-1="ent0004" data-entity-2="ent0007" data-link-type="dependency" data-source-line="23" id="lnk16"><path d="M113,310.4286 C113,296.8686 113,285.5986 113,285.5986 C113,285.5986 144.59,285.5986 175.73,285.5986" fill="none" id="Moderator-to-Spa" style="stroke:#5F6F86;stroke-width:1.15;"/><polygon fill="#5F6F86" points="181.73,285.5986,172.73,281.5986,176.73,285.5986,172.73,289.5986,181.73,285.5986" style="stroke:#5F6F86;stroke-width:1.15;"/><text fill="#4B5563" font-family="Arial" font-size="12" lengthAdjust="spacing" textLength="104.6484" x="29.95" y="268.8545">&#1091;&#1087;&#1088;&#1072;&#1074;&#1083;&#1103;&#1077;&#1090; &#1075;&#1088;&#1091;&#1087;&#1087;&#1086;&#1081;</text><text fill="#4B5563" font-family="Arial" font-size="12" lengthAdjust="spacing" textLength="78.9375" x="42.8055" y="282.6533">&#1080; &#1084;&#1086;&#1076;&#1077;&#1088;&#1072;&#1094;&#1080;&#1077;&#1081;</text></g><!--link Admin to Spa--><g class="link" data-entity-1="ent0005" data-entity-2="ent0007" data-link-type="dependency" data-source-line="24" id="lnk17"><path d="M112.94,464.5986 C160.11,464.5986 223,464.5986 223,464.5986 C223,464.5986 223,355.2586 223,309.7486" fill="none" id="Admin-to-Spa" style="stroke:#5F6F86;stroke-width:1.15;"/><polygon fill="#5F6F86" points="223,303.7486,219,312.7486,223,308.7486,227,312.7486,223,303.7486" style="stroke:#5F6F86;stroke-width:1.15;"/><text fill="#4B5563" font-family="Arial" font-size="12" lengthAdjust="spacing" textLength="80.502" x="242.9814" y="451.4545">&#1089;&#1084;&#1086;&#1090;&#1088;&#1080;&#1090; &#1072;&#1091;&#1076;&#1080;&#1090;</text><text fill="#4B5563" font-family="Arial" font-size="12" lengthAdjust="spacing" textLength="118.4648" x="224" y="465.2533">&#1080; &#1089;&#1086;&#1089;&#1090;&#1086;&#1103;&#1085;&#1080;&#1077; &#1089;&#1080;&#1089;&#1090;&#1077;&#1084;&#1099;</text></g><!--link Spa to Backend--><g class="link" data-entity-1="ent0007" data-entity-2="ent0008" data-link-type="dependency" data-source-line="26" id="lnk18"><path d="M263.08,285.5986 C282.58,285.5986 300.17,285.5986 320.93,285.5986" fill="none" id="Spa-to-Backend" style="stroke:#5F6F86;stroke-width:1.15;"/><polygon fill="#5F6F86" points="326.93,285.5986,317.93,281.5986,321.93,285.5986,317.93,289.5986,326.93,285.5986" style="stroke:#5F6F86;stroke-width:1.15;"/><text fill="#4B5563" font-family="Arial" font-size="12" lengthAdjust="spacing" textLength="62.0098" x="226.6689" y="297.8545">HTTPS API</text><text fill="#4B5563" font-family="Arial" font-size="12" lengthAdjust="spacing" textLength="73.3477" x="221" y="311.6533">WSS realtime</text></g><!--link Backend to Google--><g class="link" data-entity-1="ent0008" data-entity-2="ent0009" data-link-type="dependency" data-source-line="27" id="lnk19"><path d="M430.03,263.9286 C463.14,263.9286 500,263.9286 500,263.9286 C500,263.9286 500,164.4486 500,116.6486" fill="none" id="Backend-to-Google" style="stroke:#5F6F86;stroke-width:1.15;"/><polygon fill="#5F6F86" points="500,110.6486,496,119.6486,500,115.6486,504,119.6486,500,110.6486" style="stroke:#5F6F86;stroke-width:1.15;"/><text fill="#4B5563" font-family="Arial" font-size="12" lengthAdjust="spacing" textLength="89.5078" x="410" y="234.5345">OAuth-&#1087;&#1088;&#1086;&#1074;&#1077;&#1088;&#1082;&#1072;</text></g><!--link Backend to Db--><g class="link" data-entity-1="ent0008" data-entity-2="ent0010" data-link-type="dependency" data-source-line="28" id="lnk20"><path d="M430.07,268.2686 C469.45,268.2686 517,268.2686 517,268.2686 C517,268.2686 517,242.7986 517,220.1886" fill="none" id="Backend-to-Db" style="stroke:#5F6F86;stroke-width:1.15;"/><polygon fill="#5F6F86" points="517,214.1886,513,223.1886,517,219.1886,521,223.1886,517,214.1886" style="stroke:#5F6F86;stroke-width:1.15;"/><text fill="#4B5563" font-family="Arial" font-size="12" lengthAdjust="spacing" textLength="102.7148" x="501.58" y="265.5245">&#1076;&#1086;&#1084;&#1077;&#1085;&#1085;&#1099;&#1077; &#1076;&#1072;&#1085;&#1085;&#1099;&#1077;</text></g><!--link Backend to Redis--><g class="link" data-entity-1="ent0008" data-entity-2="ent0011" data-link-type="dependency" data-source-line="29" id="lnk21"><path d="M430.03,285.5986 C461.67,285.5986 494.98,285.5986 520.97,285.5986" fill="none" id="Backend-to-Redis" style="stroke:#5F6F86;stroke-width:1.15;"/><polygon fill="#5F6F86" points="526.97,285.5986,517.97,281.5986,521.97,285.5986,517.97,289.5986,526.97,285.5986" style="stroke:#5F6F86;stroke-width:1.15;"/><text fill="#4B5563" font-family="Arial" font-size="12" lengthAdjust="spacing" textLength="71.3789" x="479.5" y="297.8545">channel layer</text><text fill="#4B5563" font-family="Arial" font-size="12" lengthAdjust="spacing" textLength="49.3652" x="490.5068" y="311.6533">presence</text></g><!--link Backend to Media--><g class="link" data-entity-1="ent0008" data-entity-2="ent0012" data-link-type="dependency" data-source-line="30" id="lnk22"><path d="M430.27,305.0986 C464.84,305.0986 504,305.0986 504,305.0986 C504,305.0986 504,327.8786 504,350.5786" fill="none" id="Backend-to-Media" style="stroke:#5F6F86;stroke-width:1.15;"/><polygon fill="#5F6F86" points="504,356.5786,508,347.5786,504,351.5786,500,347.5786,504,356.5786" style="stroke:#5F6F86;stroke-width:1.15;"/><text fill="#4B5563" font-family="Arial" font-size="12" lengthAdjust="spacing" textLength="47.1914" x="436.5929" y="317.3545">&#1072;&#1074;&#1072;&#1090;&#1072;&#1088;&#1099;</text><text fill="#4B5563" font-family="Arial" font-size="12" lengthAdjust="spacing" textLength="64.6172" x="427.88" y="331.1533">&#1080; &#1074;&#1083;&#1086;&#1078;&#1077;&#1085;&#1080;&#1103;</text></g><!--link Backend to Observability--><g class="link" data-entity-1="ent0008" data-entity-2="ent0013" data-link-type="dependency" data-source-line="31" id="lnk23"><path d="M379,311.7786 C379,369.4886 379,502.5986 379,502.5986 C379,502.5986 437.1,502.5986 487.94,502.5986" fill="none" id="Backend-to-Observability" style="stroke:#5F6F86;stroke-width:1.15;"/><polygon fill="#5F6F86" points="493.94,502.5986,484.94,498.5986,488.94,502.5986,484.94,506.5986,493.94,502.5986" style="stroke:#5F6F86;stroke-width:1.15;"/><text fill="#4B5563" font-family="Arial" font-size="12" lengthAdjust="spacing" textLength="36.0293" x="395.6592" y="476.9145">health,</text><text fill="#4B5563" font-family="Arial" font-size="12" lengthAdjust="spacing" textLength="67.3477" x="380" y="490.7133">metrics, logs</text></g><g class="legend" data-source-line="33"><rect fill="#FFFFFF" height="58.2959" rx="6" ry="6" style="stroke:#D6DEEA;stroke-width:1;" width="303.8086" x="303.6533" y="574.8945"/><text fill="#465569" font-family="Arial" font-size="14" lengthAdjust="spacing" textLength="88.1152" x="411.5" y="593.0264">&#1062;&#1077;&#1083;&#1100; &#1089;&#1083;&#1072;&#1081;&#1076;&#1072;:</text><text fill="#465569" font-family="Arial" font-size="14" lengthAdjust="spacing" textLength="178.876" x="366.1196" y="609.125">&#1087;&#1086;&#1082;&#1072;&#1079;&#1072;&#1090;&#1100; &#1075;&#1088;&#1072;&#1085;&#1080;&#1094;&#1099; &#1089;&#1080;&#1089;&#1090;&#1077;&#1084;&#1099;,</text><text fill="#465569" font-family="Arial" font-size="14" lengthAdjust="spacing" textLength="293.8086" x="308.6533" y="625.2236">&#1074;&#1085;&#1077;&#1096;&#1085;&#1080;&#1093; &#1091;&#1095;&#1072;&#1089;&#1090;&#1085;&#1080;&#1082;&#1086;&#1074; &#1080; &#1086;&#1089;&#1085;&#1086;&#1074;&#1085;&#1099;&#1077; &#1080;&#1085;&#1090;&#1077;&#1075;&#1088;&#1072;&#1094;&#1080;&#1080;.</text></g><?plantuml-src RLHDRzD04BtlhnXoJiez1wIWIWM9gg4fwYKIsjZRnC9P1tjJgK98IGi5b4f1ueQGk75scngSvgD_OVSVCRFhXAJYajWpRvvdthpTHu7qmhuluBNgYAxOwVMx8LE12WNiYjCWX0hextgf5-PSP_hE3CqvcA7EwG43SpDYeJXHe2A8WtP7WH_4mbD191dZdefYAEblUabmSrK2di1UNoHgdVk9t3DpfV_W_urEBUciGBvAHBm6_a30hSxCm8AMPW2Fcn9BPZgbEFvdvXBqn0pCXRxNzsPaEVOZNyGSATP4Nn4-rxbUk27-4LfypUy6s3hDm6KRLIXP6PhoKF1G1LrHmU8C2uVupGLI_QQURAdJwnq3yA9kBv92AYWTYnOqwZKBQFJuTl8fzzu8wKEj_XndoG71ZGX3oiABB7lFc1T6VHzAUr54BHtK-ghZjBG1vdF5Mpp1PkjHejgnQBnyuLfgiRTzqSV4eV23nCRi4pk9GXG6IllunY51QNXRECKemYJg1gM35gxWbBU2C51dJTaLAWwyf0nXr4xAJSb34Il7keLap2uPAfKdD3HKmNn2jSznLHdw1vTpeQznOpc65sQafvJ7BLWHC3l0zKnei-QpLJatOqPcs214DroRBuuGjp76RcZlj4qoXHcllZJ0rNv0lXcvbQtjiDdRV-hMDiBlJ5rRymq3NY9XfgVCkcMJQaWmQwgSQ58akQL7Iu5PUn3mTqnJwUpXKM94GtGhPrJXsT5HlU4SSjneG5pOaAqGX2vyKNNEgBYfSHngzawdMzZT5gbtY_cvrPRqpoYGhbwsuDOjME5rk9GYX92VYRWfUx58XFIsst1UGlQqECefgZXowj51NT9XATQvMRVb7Qplq8oTyWE_CRnesbHYxnayIFgNkoj8HBe5fZH4bHAqDPmRBvMKhXsxJZjVRYxDw87ePQgumMI6RYF8HtI4zID1Q4rt92RG5BW-Z92qXMnvSJ5ErhR8TnWswLhz2m00?></g></svg>