<?plantuml 1.2026.1?><svg xmlns="http://www.w3.org/2000/svg" xmlns:xlink="http://www.w3.org/1999/xlink" contentStyleType="text/css" data-diagram-type="DESCRIPTION" height="2043px" preserveAspectRatio="none" style="width:944px;height:2043px;background:#FFFFFF;" version="1.1" viewBox="0 0 944 2043" width="944px" zoomAndPan="magnify"><title>Devils Resting - Primary Use Cases</title><defs/><g><g class="title" data-source-line="1"><text fill="#000000" font-family="sans-serif" font-size="14" font-weight="bold" lengthAdjust="spacing" textLength="275.5498" x="327.6751" y="22.9951">Devils Resting - Primary Use Cases</text></g><!--cluster Devils Resting--><g class="cluster" data-qualified-name="Devils Resting" data-source-line="17" id="ent0012"><rect fill="none" height="1993" rx="2.5" ry="2.5" style="stroke:#181818;stroke-width:1;" width="319.17" x="619.73" y="44.2969"/><text fill="#000000" font-family="sans-serif" font-size="14" font-weight="bold" lengthAdjust="spacing" textLength="113.1348" x="722.7476" y="59.292">Devils Resting</text></g><!--entity UC_PublicGroups--><g class="entity" data-qualified-name="Devils Resting.UC_PublicGroups" data-source-line="18" id="ent0013"><ellipse cx="779.3216" cy="385.2972" fill="#F1F1F1" rx="88.6016" ry="20.1203" style="stroke:#181818;stroke-width:0.5;"/><text fill="#000000" font-family="sans-serif" font-size="14" lengthAdjust="spacing" textLength="150.5684" x="704.0374" y="389.9456">Browse public groups</text></g><!--entity UC_PublicRoom--><g class="entity" data-qualified-name="Devils Resting.UC_PublicRoom" data-source-line="19" id="ent0014"><ellipse cx="779.3219" cy="458.3013" fill="#F1F1F1" rx="75.9719" ry="17.5944" style="stroke:#181818;stroke-width:0.5;"/><text fill="#000000" font-family="sans-serif" font-size="14" lengthAdjust="spacing" textLength="121.0781" x="718.7829" y="462.9497">View public room</text></g><!--entity UC_InvitePreview--><g class="entity" data-qualified-name="Devils Resting.UC_InvitePreview" data-source-line="20" id="ent0015"><ellipse cx="779.3224" cy="312.2994" fill="#F1F1F1" rx="78.7624" ry="18.1525" style="stroke:#181818;stroke-width:0.5;"/><text fill="#000000" font-family="sans-serif" font-size="14" lengthAdjust="spacing" textLength="127.75" x="715.4474" y="316.9478">Preview invite link</text></g><!--entity UC_Register--><g class="entity" data-qualified-name="Devils Resting.UC_Register" data-source-line="21" id="ent0016"><ellipse cx="779.3237" cy="167.2976" fill="#F1F1F1" rx="74.9037" ry="17.3807" style="stroke:#181818;stroke-width:0.5;"/><text fill="#000000" font-family="sans-serif" font-size="14" lengthAdjust="spacing" textLength="118.4941" x="720.0766" y="171.9461">Register account</text></g><!--entity UC_Login--><g class="entity" data-qualified-name="Devils Resting.UC_Login" data-source-line="22" id="ent0017"><ellipse cx="779.3162" cy="239.2941" fill="#F1F1F1" rx="85.4362" ry="19.4872" style="stroke:#181818;stroke-width:0.5;"/><text fill="#000000" font-family="sans-serif" font-size="14" lengthAdjust="spacing" textLength="143.3291" x="707.6517" y="243.9426">Login with password</text></g><!--entity UC_GoogleLogin--><g class="entity" data-qualified-name="Devils Resting.UC_GoogleLogin" data-source-line="23" id="ent0018"><ellipse cx="779.3204" cy="97.301" fill="#F1F1F1" rx="78.0204" ry="18.0041" style="stroke:#181818;stroke-width:0.5;"/><text fill="#000000" font-family="sans-serif" font-size="14" lengthAdjust="spacing" textLength="125.9863" x="716.3273" y="101.9494">Login with Google</text></g><!--entity UC_Profile--><g class="entity" data-qualified-name="Devils Resting.UC_Profile" data-source-line="24" id="ent0019"><ellipse cx="779.3177" cy="1446.2924" fill="#F1F1F1" rx="107.1277" ry="23.8255" style="stroke:#181818;stroke-width:0.5;"/><text fill="#000000" font-family="sans-serif" font-size="14" lengthAdjust="spacing" textLength="191.6523" x="683.4915" y="1450.9409">Manage profile and session</text></g><!--entity UC_Friends--><g class="entity" data-qualified-name="Devils Resting.UC_Friends" data-source-line="25" id="ent0020"><ellipse cx="779.3211" cy="1528.2951" fill="#F1F1F1" rx="105.4411" ry="23.4882" style="stroke:#181818;stroke-width:0.5;"/><text fill="#000000" font-family="sans-serif" font-size="14" lengthAdjust="spacing" textLength="187.9814" x="685.3304" y="1532.9435">Manage friends and blocks</text></g><!--entity UC_Direct--><g class="entity" data-qualified-name="Devils Resting.UC_Direct" data-source-line="26" id="ent0021"><ellipse cx="779.3176" cy="954.2964" fill="#F1F1F1" rx="74.3976" ry="17.2795" style="stroke:#181818;stroke-width:0.5;"/><text fill="#000000" font-family="sans-serif" font-size="14" lengthAdjust="spacing" textLength="117.2637" x="720.6858" y="958.9448">Open direct chat</text></g><!--entity UC_GroupChat--><g class="entity" data-qualified-name="Devils Resting.UC_GroupChat" data-source-line="27" id="ent0022"><ellipse cx="779.3189" cy="1024.2986" fill="#F1F1F1" rx="74.6589" ry="17.3318" style="stroke:#181818;stroke-width:0.5;"/><text fill="#000000" font-family="sans-serif" font-size="14" lengthAdjust="spacing" textLength="117.8994" x="720.3692" y="1028.9471">Open group chat</text></g><!--entity UC_ResolveTarget--><g class="entity" data-qualified-name="Devils Resting.UC_ResolveTarget" data-source-line="28" id="ent0023"><ellipse cx="779.317" cy="866.2963" fill="#F1F1F1" rx="82.847" ry="18.9694" style="stroke:#181818;stroke-width:0.5;"/><text fill="#000000" font-family="sans-serif" font-size="14" lengthAdjust="spacing" textLength="137.3408" x="710.6466" y="870.9447">Resolve chat target</text></g><!--entity UC_Message--><g class="entity" data-qualified-name="Devils Resting.UC_Message" data-source-line="29" id="ent0024"><ellipse cx="779.3249" cy="1107.2938" fill="#F1F1F1" rx="143.5849" ry="31.117" style="stroke:#181818;stroke-width:0.5;"/><text fill="#000000" font-family="sans-serif" font-size="14" lengthAdjust="spacing" textLength="269.1035" x="644.7731" y="1111.9423">Send / edit / delete / react to message</text></g><!--entity UC_Attach--><g class="entity" data-qualified-name="Devils Resting.UC_Attach" data-source-line="30" id="ent0025"><ellipse cx="779.3209" cy="1296.299" fill="#F1F1F1" rx="84.9109" ry="19.3822" style="stroke:#181818;stroke-width:0.5;"/><text fill="#000000" font-family="sans-serif" font-size="14" lengthAdjust="spacing" textLength="142.1191" x="708.2613" y="1300.9475">Upload attachments</text></g><!--entity UC_Realtime--><g class="entity" data-qualified-name="Devils Resting.UC_Realtime" data-source-line="31" id="ent0026"><ellipse cx="779.3174" cy="1216.3004" fill="#F1F1F1" rx="117.7174" ry="25.9435" style="stroke:#181818;stroke-width:0.5;"/><text fill="#000000" font-family="sans-serif" font-size="14" lengthAdjust="spacing" textLength="214.4775" x="672.0786" y="1220.9488">Track presence and read state</text></g><!--entity UC_Search--><g class="entity" data-qualified-name="Devils Resting.UC_Search" data-source-line="32" id="ent0027"><ellipse cx="779.3216" cy="1614.3012" fill="#F1F1F1" rx="128.0216" ry="28.0043" style="stroke:#181818;stroke-width:0.5;"/><text fill="#000000" font-family="sans-serif" font-size="14" lengthAdjust="spacing" textLength="236.3936" x="661.1248" y="1618.9496">Search users / groups / messages</text></g><!--entity UC_GroupCrud--><g class="entity" data-qualified-name="Devils Resting.UC_GroupCrud" data-source-line="33" id="ent0028"><ellipse cx="779.316" cy="1841.2941" fill="#F1F1F1" rx="116.986" ry="25.7972" style="stroke:#181818;stroke-width:0.5;"/><text fill="#000000" font-family="sans-serif" font-size="14" lengthAdjust="spacing" textLength="212.9121" x="672.86" y="1845.9425">Create / update / delete group</text></g><!--entity UC_GroupMembership--><g class="entity" data-qualified-name="Devils Resting.UC_GroupMembership" data-source-line="34" id="ent0029"><ellipse cx="779.3152" cy="1369.2959" fill="#F1F1F1" rx="80.5952" ry="18.519" style="stroke:#181818;stroke-width:0.5;"/><text fill="#000000" font-family="sans-serif" font-size="14" lengthAdjust="spacing" textLength="132.0771" x="713.2767" y="1373.9444">Join or leave group</text></g><!--entity UC_Invites--><g class="entity" data-qualified-name="Devils Resting.UC_Invites" data-source-line="35" id="ent0030"><ellipse cx="779.3165" cy="1693.2982" fill="#F1F1F1" rx="70.0065" ry="16.4013" style="stroke:#181818;stroke-width:0.5;"/><text fill="#000000" font-family="sans-serif" font-size="14" lengthAdjust="spacing" textLength="106.3945" x="726.1193" y="1697.9466">Manage invites</text></g><!--entity UC_JoinRequests--><g class="entity" data-qualified-name="Devils Resting.UC_JoinRequests" data-source-line="36" id="ent0031"><ellipse cx="779.317" cy="606.2963" fill="#F1F1F1" rx="89.897" ry="20.3794" style="stroke:#181818;stroke-width:0.5;"/><text fill="#000000" font-family="sans-serif" font-size="14" lengthAdjust="spacing" textLength="153.5078" x="702.5631" y="610.9447">Approve join requests</text></g><!--entity UC_Roles--><g class="entity" data-qualified-name="Devils Resting.UC_Roles" data-source-line="37" id="ent0032"><ellipse cx="779.3157" cy="788.298" fill="#F1F1F1" rx="108.7057" ry="24.1411" style="stroke:#181818;stroke-width:0.5;"/><text fill="#000000" font-family="sans-serif" font-size="14" lengthAdjust="spacing" textLength="195.0771" x="681.7771" y="792.9465">Manage roles and overrides</text></g><!--entity UC_Moderate--><g class="entity" data-qualified-name="Devils Resting.UC_Moderate" data-source-line="38" id="ent0033"><ellipse cx="779.3209" cy="687.2983" fill="#F1F1F1" rx="97.0609" ry="25.3015" style="stroke:#181818;stroke-width:0.5;"/><text fill="#000000" font-family="sans-serif" font-size="14" lengthAdjust="spacing" textLength="137.4707" x="710.5856" y="684.8713">Moderate members</text><text fill="#000000" font-family="sans-serif" font-size="14" lengthAdjust="spacing" textLength="117.9883" x="720.3268" y="701.1682">kick / ban / mute</text></g><!--entity UC_Pins--><g class="entity" data-qualified-name="Devils Resting.UC_Pins" data-source-line="39" id="ent0034"><ellipse cx="779.3201" cy="531.2989" fill="#F1F1F1" rx="87.8601" ry="19.972" style="stroke:#181818;stroke-width:0.5;"/><text fill="#000000" font-family="sans-serif" font-size="14" lengthAdjust="spacing" textLength="148.8799" x="704.8801" y="535.9473">Pin / unpin messages</text></g><!--entity UC_Transfer--><g class="entity" data-qualified-name="Devils Resting.UC_Transfer" data-source-line="40" id="ent0035"><ellipse cx="779.324" cy="1921.2957" fill="#F1F1F1" rx="81.844" ry="18.7688" style="stroke:#181818;stroke-width:0.5;"/><text fill="#000000" font-family="sans-serif" font-size="14" lengthAdjust="spacing" textLength="135.0029" x="711.8225" y="1925.9441">Transfer ownership</text></g><!--entity UC_Audit--><g class="entity" data-qualified-name="Devils Resting.UC_Audit" data-source-line="41" id="ent0036"><ellipse cx="779.3181" cy="1762.2945" fill="#F1F1F1" rx="76.6881" ry="17.7376" style="stroke:#181818;stroke-width:0.5;"/><text fill="#000000" font-family="sans-serif" font-size="14" lengthAdjust="spacing" textLength="122.8008" x="717.9177" y="1766.9429">Review audit trail</text></g><!--entity UC_Metrics--><g class="entity" data-qualified-name="Devils Resting.UC_Metrics" data-source-line="42" id="ent0037"><ellipse cx="779.3166" cy="1998.2982" fill="#F1F1F1" rx="103.7566" ry="23.1513" style="stroke:#181818;stroke-width:0.5;"/><text fill="#000000" font-family="sans-serif" font-size="14" lengthAdjust="spacing" textLength="184.3037" x="687.1647" y="2002.9466">Collect metrics and health</text></g><!--entity Guest--><g class="entity" data-qualified-name="Guest" data-source-line="5" id="ent0002"><ellipse cx="441.0791" cy="250.6469" fill="#F1F1F1" rx="8" ry="8" style="stroke:#181818;stroke-width:0.5;"/><path d="M441.0791,258.6469 L441.0791,285.6469 M428.0791,266.6469 L454.0791,266.6469 M441.0791,285.6469 L428.0791,300.6469 M441.0791,285.6469 L454.0791,300.6469" fill="none" style="stroke:#181818;stroke-width:0.5;"/><text fill="#000000" font-family="sans-serif" font-size="14" lengthAdjust="spacing" textLength="41.1182" x="420.52" y="315.142">Guest</text></g><!--entity User--><g class="entity" data-qualified-name="User" data-source-line="6" id="ent0003"><ellipse cx="441.0819" cy="1266.6469" fill="#F1F1F1" rx="8" ry="8" style="stroke:#181818;stroke-width:0.5;"/><path d="M441.0819,1274.6469 L441.0819,1301.6469 M428.0819,1282.6469 L454.0819,1282.6469 M441.0819,1301.6469 L428.0819,1316.6469 M441.0819,1301.6469 L454.0819,1316.6469" fill="none" style="stroke:#181818;stroke-width:0.5;"/><text fill="#000000" font-family="sans-serif" font-size="14" lengthAdjust="spacing" textLength="135.3037" x="373.43" y="1331.142">Authenticated User</text></g><!--entity Moderator--><g class="entity" data-qualified-name="Moderator" data-source-line="7" id="ent0004"><ellipse cx="236.265" cy="758.6469" fill="#F1F1F1" rx="8" ry="8" style="stroke:#181818;stroke-width:0.5;"/><path d="M236.265,766.6469 L236.265,793.6469 M223.265,774.6469 L249.265,774.6469 M236.265,793.6469 L223.265,808.6469 M236.265,793.6469 L249.265,808.6469" fill="none" style="stroke:#181818;stroke-width:0.5;"/><text fill="#000000" font-family="sans-serif" font-size="14" lengthAdjust="spacing" textLength="72.29" x="200.12" y="823.142">Moderator</text></g><!--entity Owner--><g class="entity" data-qualified-name="Owner" data-source-line="8" id="ent0005"><ellipse cx="52.5459" cy="1808.6469" fill="#F1F1F1" rx="8" ry="8" style="stroke:#181818;stroke-width:0.5;"/><path d="M52.5459,1816.6469 L52.5459,1843.6469 M39.5459,1824.6469 L65.5459,1824.6469 M52.5459,1843.6469 L39.5459,1858.6469 M52.5459,1843.6469 L65.5459,1858.6469" fill="none" style="stroke:#181818;stroke-width:0.5;"/><text fill="#000000" font-family="sans-serif" font-size="14" lengthAdjust="spacing" textLength="93.0918" x="6" y="1873.142">Group Owner</text></g><!--entity Admin--><g class="entity" data-qualified-name="Admin" data-source-line="9" id="ent0006"><ellipse cx="236.2594" cy="1657.6469" fill="#F1F1F1" rx="8" ry="8" style="stroke:#181818;stroke-width:0.5;"/><path d="M236.2594,1665.6469 L236.2594,1692.6469 M223.2594,1673.6469 L249.2594,1673.6469 M236.2594,1692.6469 L223.2594,1707.6469 M236.2594,1692.6469 L249.2594,1707.6469" fill="none" style="stroke:#181818;stroke-width:0.5;"/><text fill="#000000" font-family="sans-serif" font-size="14" lengthAdjust="spacing" textLength="152.3389" x="160.09" y="1722.142">System Administrator</text></g><!--entity Google--><g class="entity" data-qualified-name="Google" data-source-line="10" id="ent0007"><ellipse cx="441.0857" cy="67.6469" fill="#F1F1F1" rx="8" ry="8" style="stroke:#181818;stroke-width:0.5;"/><path d="M441.0857,75.6469 L441.0857,102.6469 M428.0857,83.6469 L454.0857,83.6469 M441.0857,102.6469 L428.0857,117.6469 M441.0857,102.6469 L454.0857,117.6469" fill="none" style="stroke:#181818;stroke-width:0.5;"/><text fill="#000000" font-family="sans-serif" font-size="14" lengthAdjust="spacing" textLength="97.6514" x="392.26" y="132.142">Google OAuth</text></g><!--entity Monitoring--><g class="entity" data-qualified-name="Monitoring" data-source-line="11" id="ent0008"><ellipse cx="441.0786" cy="1970.6469" fill="#F1F1F1" rx="8" ry="8" style="stroke:#181818;stroke-width:0.5;"/><path d="M441.0786,1978.6469 L441.0786,2005.6469 M428.0786,1986.6469 L454.0786,1986.6469 M441.0786,2005.6469 L428.0786,2020.6469 M441.0786,2005.6469 L454.0786,2020.6469" fill="none" style="stroke:#181818;stroke-width:0.5;"/><text fill="#000000" font-family="sans-serif" font-size="14" lengthAdjust="spacing" textLength="118.0771" x="382.04" y="2035.142">Monitoring Stack</text></g><!--link Moderator to User--><g class="link" data-entity-1="ent0004" data-entity-2="ent0003" data-link-type="extension" data-source-line="13" id="lnk9"><path d="M252.67,826.8969 C290.39,921.3669 380.3263,1146.6298 418.0163,1241.0398" fill="none" id="Moderator-to-User" style="stroke:#181818;stroke-width:1;"/><polygon fill="none" points="424.69,1257.7569,423.5886,1238.8152,412.4439,1243.2644,424.69,1257.7569" style="stroke:#181818;stroke-width:1;"/></g><!--link Owner to Moderator--><g class="link" data-entity-1="ent0005" data-entity-2="ent0004" data-link-type="extension" data-source-line="14" id="lnk10"><path d="M60.23,1799.6769 C88.75,1634.8469 197.0912,1008.8733 225.5412,844.4433" fill="none" id="Owner-to-Moderator" style="stroke:#181818;stroke-width:1;"/><polygon fill="none" points="228.61,826.7069,219.629,843.4204,231.4534,845.4663,228.61,826.7069" style="stroke:#181818;stroke-width:1;"/></g><!--link Admin to User--><g class="link" data-entity-1="ent0006" data-entity-2="ent0003" data-link-type="extension" data-source-line="15" id="lnk11"><path d="M257.26,1648.7369 C296.09,1573.8869 372.9611,1425.6848 411.7911,1350.8348" fill="none" id="Admin-to-User" style="stroke:#181818;stroke-width:1;"/><polygon fill="none" points="420.08,1334.8569,406.4651,1348.0718,417.1171,1353.5978,420.08,1334.8569" style="stroke:#181818;stroke-width:1;"/></g><!--link Guest to UC_PublicGroups--><g class="link" data-entity-1="ent0002" data-entity-2="ent0013" data-link-type="dependency" data-source-line="45" id="lnk38"><path d="M462.07,289.5469 C493.4,303.7669 556.26,331.1469 611.73,348.2969 C643.43,358.0969 673.4033,365.1966 703.7033,371.4366" fill="none" id="Guest-to-UC_PublicGroups" style="stroke:#181818;stroke-width:1;"/><polygon fill="#181818" points="709.58,372.6469,701.5718,366.9137,704.6828,371.6383,699.9582,374.7493,709.58,372.6469" style="stroke:#181818;stroke-width:1;"/></g><!--link Guest to UC_PublicRoom--><g class="link" data-entity-1="ent0002" data-entity-2="ent0014" data-link-type="dependency" data-source-line="46" id="lnk39"><path d="M462.07,303.1269 C491.51,335.2069 549.76,393.0769 611.73,423.2969 C641.88,437.9969 672.1157,445.5965 703.0357,450.5565" fill="none" id="Guest-to-UC_PublicRoom" style="stroke:#181818;stroke-width:1;"/><polygon fill="#181818" points="708.96,451.5069,700.7072,446.1319,704.0231,450.7149,699.4401,454.0309,708.96,451.5069" style="stroke:#181818;stroke-width:1;"/></g><!--link Guest to UC_InvitePreview--><g class="link" data-entity-1="ent0002" data-entity-2="ent0015" data-link-type="dependency" data-source-line="47" id="lnk40"><path d="M462.11,282.2069 C509.05,286.6669 622.097,297.4286 699.987,304.8386" fill="none" id="Guest-to-UC_InvitePreview" style="stroke:#181818;stroke-width:1;"/><polygon fill="#181818" points="705.96,305.4069,697.3793,300.5725,700.9825,304.9333,696.6216,308.5365,705.96,305.4069" style="stroke:#181818;stroke-width:1;"/></g><!--link Guest to UC_Register--><g class="link" data-entity-1="ent0002" data-entity-2="ent0016" data-link-type="dependency" data-source-line="48" id="lnk41"><path d="M462.11,269.2869 C493.26,252.5969 555.56,220.8569 611.73,202.2969 C645.55,191.1269 678.537,183.7917 710.227,178.0217" fill="none" id="Guest-to-UC_Register" style="stroke:#181818;stroke-width:1;"/><polygon fill="#181818" points="716.13,176.9469,706.559,174.6238,711.2109,177.8425,707.9921,182.4944,716.13,176.9469" style="stroke:#181818;stroke-width:1;"/></g><!--link Guest to UC_Login--><g class="link" data-entity-1="ent0002" data-entity-2="ent0017" data-link-type="dependency" data-source-line="49" id="lnk42"><path d="M462.11,277.8569 C508.48,272.1969 619.2541,258.6931 697.1641,249.1931" fill="none" id="Guest-to-UC_Login" style="stroke:#181818;stroke-width:1;"/><polygon fill="#181818" points="703.12,248.4669,693.702,245.5856,698.1568,249.0721,694.6703,253.5268,703.12,248.4669" style="stroke:#181818;stroke-width:1;"/></g><!--link Guest to UC_GoogleLogin--><g class="link" data-entity-1="ent0002" data-entity-2="ent0018" data-link-type="dependency" data-source-line="50" id="lnk43"><path d="M462.02,256.1169 C491.17,222.5269 548.84,162.4869 611.73,132.2969 C641.44,118.0369 670.9495,110.5304 701.4795,105.5104" fill="none" id="Guest-to-UC_GoogleLogin" style="stroke:#181818;stroke-width:1;"/><polygon fill="#181818" points="707.4,104.5369,697.8703,102.0501,702.4663,105.3481,699.1683,109.9441,707.4,104.5369" style="stroke:#181818;stroke-width:1;"/></g><!--link User to UC_Profile--><g class="link" data-entity-1="ent0003" data-entity-2="ent0019" data-link-type="dependency" data-source-line="52" id="lnk44"><path d="M492.32,1334.8669 C524.84,1358.1969 568.96,1386.8969 611.73,1405.2969 C637.86,1416.5369 661.8361,1423.7372 688.9561,1430.0472" fill="none" id="User-to-UC_Profile" style="stroke:#181818;stroke-width:1;"/><polygon fill="#181818" points="694.8,1431.4069,686.9406,1425.4714,689.9301,1430.2738,685.1277,1433.2633,694.8,1431.4069" style="stroke:#181818;stroke-width:1;"/></g><!--link User to UC_Friends--><g class="link" data-entity-1="ent0003" data-entity-2="ent0020" data-link-type="dependency" data-source-line="53" id="lnk45"><path d="M473.94,1334.7369 C492.51,1356.8369 516.57,1384.9669 538.73,1409.2969 C566.68,1439.9669 577.02,1444.5569 603.73,1476.2969 C607.63,1480.9269 606.72,1483.9269 611.73,1487.2969 C633.49,1501.9169 654.1339,1509.9339 679.5239,1515.9939" fill="none" id="User-to-UC_Friends" style="stroke:#181818;stroke-width:1;"/><polygon fill="#181818" points="685.36,1517.3869,677.5345,1511.4068,680.4966,1516.2261,675.6773,1519.1882,685.36,1517.3869" style="stroke:#181818;stroke-width:1;"/></g><!--link User to UC_Direct--><g class="link" data-entity-1="ent0003" data-entity-2="ent0021" data-link-type="dependency" data-source-line="54" id="lnk46"><path d="M447.79,1257.7269 C460.31,1178.8969 492.76,1003.6969 538.73,967.2969 C591.97,925.1569 668.6462,930.2831 721.6162,940.3831" fill="none" id="User-to-UC_Direct" style="stroke:#181818;stroke-width:1;"/><polygon fill="#181818" points="727.51,941.5069,719.4185,935.892,722.5985,940.5704,717.9201,943.7504,727.51,941.5069" style="stroke:#181818;stroke-width:1;"/></g><!--link User to UC_GroupChat--><g class="link" data-entity-1="ent0003" data-entity-2="ent0022" data-link-type="dependency" data-source-line="55" id="lnk47"><path d="M457.06,1257.7469 C480.7,1202.7269 532.3,1103.3769 611.73,1058.2969 C640.61,1041.9069 670.341,1034.21 701.251,1029.77" fill="none" id="User-to-UC_GroupChat" style="stroke:#181818;stroke-width:1;"/><polygon fill="#181818" points="707.19,1028.9169,697.7127,1026.2372,702.2408,1029.6278,698.8502,1034.1559,707.19,1028.9169" style="stroke:#181818;stroke-width:1;"/></g><!--link User to UC_Message--><g class="link" data-entity-1="ent0003" data-entity-2="ent0024" data-link-type="dependency" data-source-line="56" id="lnk48"><path d="M488.58,1257.6769 C521.54,1231.5669 567.57,1197.5569 611.73,1173.2969 C639.55,1158.0169 666.0288,1146.5615 694.5788,1135.7515" fill="none" id="User-to-UC_Message" style="stroke:#181818;stroke-width:1;"/><polygon fill="#181818" points="700.19,1133.6269,690.3567,1133.073,695.514,1135.3974,693.1895,1140.5546,700.19,1133.6269" style="stroke:#181818;stroke-width:1;"/></g><!--link User to UC_Attach--><g class="link" data-entity-1="ent0003" data-entity-2="ent0025" data-link-type="dependency" data-source-line="57" id="lnk49"><path d="M508.91,1296.2969 C562.06,1296.2969 630.74,1296.2969 687.99,1296.2969" fill="none" id="User-to-UC_Attach" style="stroke:#181818;stroke-width:1;"/><polygon fill="#181818" points="693.99,1296.2969,684.99,1292.2969,688.99,1296.2969,684.99,1300.2969,693.99,1296.2969" style="stroke:#181818;stroke-width:1;"/></g><!--link User to UC_Realtime--><g class="link" data-entity-1="ent0003" data-entity-2="ent0026" data-link-type="dependency" data-source-line="58" id="lnk50"><path d="M509.13,1279.5269 C519.05,1277.0769 529.15,1274.6069 538.73,1272.2969 C591.16,1259.6569 644.3048,1247.2209 690.6248,1236.4909" fill="none" id="User-to-UC_Realtime" style="stroke:#181818;stroke-width:1;"/><polygon fill="#181818" points="696.47,1235.1369,686.7995,1233.2711,691.599,1236.2652,688.6049,1241.0647,696.47,1235.1369" style="stroke:#181818;stroke-width:1;"/></g><!--link User to UC_Search--><g class="link" data-entity-1="ent0003" data-entity-2="ent0027" data-link-type="dependency" data-source-line="59" id="lnk51"><path d="M459.54,1334.9269 C477.43,1373.0769 507.04,1432.4769 538.73,1480.2969 C545.8,1490.9569 600.99,1562.3569 611.73,1569.2969 C631.11,1581.8169 648.1414,1589.1922 670.5314,1595.7422" fill="none" id="User-to-UC_Search" style="stroke:#181818;stroke-width:1;"/><polygon fill="#181818" points="676.29,1597.4269,668.7751,1591.0608,671.4911,1596.023,666.5289,1598.739,676.29,1597.4269" style="stroke:#181818;stroke-width:1;"/></g><!--link User to UC_GroupMembership--><g class="link" data-entity-1="ent0003" data-entity-2="ent0029" data-link-type="dependency" data-source-line="60" id="lnk52"><path d="M508.95,1310.9169 C540.18,1317.7269 577.86,1325.9369 611.73,1333.2969 C647.44,1341.0469 681.6051,1348.4308 713.4751,1355.3108" fill="none" id="User-to-UC_GroupMembership" style="stroke:#181818;stroke-width:1;"/><polygon fill="#181818" points="719.34,1356.5769,711.3867,1350.7678,714.4526,1355.5218,709.6986,1358.5877,719.34,1356.5769" style="stroke:#181818;stroke-width:1;"/></g><!--link Moderator to UC_Invites--><g class="link" data-entity-1="ent0004" data-entity-2="ent0030" data-link-type="dependency" data-source-line="62" id="lnk53"><path d="M240.94,826.7569 C251.1,920.7069 284.88,1167.7069 373.43,1352.2969 C448.29,1508.3469 464.46,1569.3869 611.73,1660.2969 C640.96,1678.3369 672.1335,1686.0753 703.9135,1689.9253" fill="none" id="Moderator-to-UC_Invites" style="stroke:#181818;stroke-width:1;"/><polygon fill="#181818" points="709.87,1690.6469,701.4164,1685.5935,704.9063,1690.0455,700.4543,1693.5354,709.87,1690.6469" style="stroke:#181818;stroke-width:1;"/></g><!--link Moderator to UC_JoinRequests--><g class="link" data-entity-1="ent0004" data-entity-2="ent0031" data-link-type="dependency" data-source-line="63" id="lnk54"><path d="M272.81,767.4569 C299.8,752.2169 338.15,731.7569 373.43,717.2969 C487.75,670.4469 622.3093,638.2156 704.1593,620.9456" fill="none" id="Moderator-to-UC_JoinRequests" style="stroke:#181818;stroke-width:1;"/><polygon fill="#181818" points="710.03,619.7069,700.3981,617.6511,705.1377,620.7391,702.0497,625.4788,710.03,619.7069" style="stroke:#181818;stroke-width:1;"/></g><!--link Moderator to UC_Roles--><g class="link" data-entity-1="ent0004" data-entity-2="ent0032" data-link-type="dependency" data-source-line="64" id="lnk55"><path d="M272.76,788.2969 C352.23,788.2969 541.1,788.2969 664.37,788.2969" fill="none" id="Moderator-to-UC_Roles" style="stroke:#181818;stroke-width:1;"/><polygon fill="#181818" points="670.37,788.2969,661.37,784.2969,665.37,788.2969,661.37,792.2969,670.37,788.2969" style="stroke:#181818;stroke-width:1;"/></g><!--link Moderator to UC_Moderate--><g class="link" data-entity-1="ent0004" data-entity-2="ent0033" data-link-type="dependency" data-source-line="65" id="lnk56"><path d="M272.65,778.8769 C292.99,773.6269 319.05,767.1869 342.43,762.2969 C464.19,736.8069 600.4709,714.4664 688.4909,700.8164" fill="none" id="Moderator-to-UC_Moderate" style="stroke:#181818;stroke-width:1;"/><polygon fill="#181818" points="694.42,699.8969,684.9133,697.3233,689.4791,700.6631,686.1393,705.2288,694.42,699.8969" style="stroke:#181818;stroke-width:1;"/></g><!--link Moderator to UC_Pins--><g class="link" data-entity-1="ent0004" data-entity-2="ent0034" data-link-type="dependency" data-source-line="66" id="lnk57"><path d="M272.77,751.1369 C298.83,725.4169 336.05,691.7269 373.43,668.2969 C470.76,607.2969 502.28,603.1069 611.73,568.2969 C643.35,558.2369 673.3116,551.0989 703.6316,544.8989" fill="none" id="Moderator-to-UC_Pins" style="stroke:#181818;stroke-width:1;"/><polygon fill="#181818" points="709.51,543.6969,699.8911,541.581,704.6114,544.6986,701.4938,549.4188,709.51,543.6969" style="stroke:#181818;stroke-width:1;"/></g><!--link Owner to UC_GroupCrud--><g class="link" data-entity-1="ent0005" data-entity-2="ent0028" data-link-type="dependency" data-source-line="68" id="lnk58"><path d="M99.43,1838.4869 C210.99,1838.9469 493.1601,1840.1118 655.9301,1840.7918" fill="none" id="Owner-to-UC_GroupCrud" style="stroke:#181818;stroke-width:1;"/><polygon fill="#181818" points="661.93,1840.8169,652.9468,1836.7793,656.93,1840.796,652.9134,1844.7792,661.93,1840.8169" style="stroke:#181818;stroke-width:1;"/></g><!--link Owner to UC_Transfer--><g class="link" data-entity-1="ent0005" data-entity-2="ent0035" data-link-type="dependency" data-source-line="69" id="lnk59"><path d="M99.48,1843.8069 C109.26,1844.9669 119.51,1846.1769 129.09,1847.2969 C338.11,1871.6569 579.1377,1898.8956 699.3177,1912.4256" fill="none" id="Owner-to-UC_Transfer" style="stroke:#181818;stroke-width:1;"/><polygon fill="#181818" points="705.28,1913.0969,696.784,1908.1151,700.3114,1912.5375,695.889,1916.0649,705.28,1913.0969" style="stroke:#181818;stroke-width:1;"/></g><!--link Admin to UC_Audit--><g class="link" data-entity-1="ent0006" data-entity-2="ent0036" data-link-type="dependency" data-source-line="71" id="lnk60"><path d="M312.78,1697.7669 C419.28,1712.5269 605.9068,1738.4036 706.7568,1752.3736" fill="none" id="Admin-to-UC_Audit" style="stroke:#181818;stroke-width:1;"/><polygon fill="#181818" points="712.7,1753.1969,704.334,1747.9998,707.7473,1752.5108,703.2363,1755.9241,712.7,1753.1969" style="stroke:#181818;stroke-width:1;"/></g><!--link Monitoring to UC_Metrics--><g class="link" data-entity-1="ent0008" data-entity-2="ent0037" data-link-type="dependency" data-source-line="72" id="lnk61"><path d="M500.27,1999.9469 C548.38,1999.6669 611.9001,1999.2824 669.3801,1998.9424" fill="none" id="Monitoring-to-UC_Metrics" style="stroke:#181818;stroke-width:1;"/><polygon fill="#181818" points="675.38,1998.9069,666.3565,1994.9602,670.3801,1998.9364,666.4038,2002.96,675.38,1998.9069" style="stroke:#181818;stroke-width:1;"/></g><!--link Google to UC_GoogleLogin--><g class="link" data-entity-1="ent0007" data-entity-2="ent0018" data-link-type="dependency" data-source-line="73" id="lnk62"><path d="M490.26,97.2969 C545.28,97.2969 630.06,97.2969 695.01,97.2969" fill="none" id="Google-to-UC_GoogleLogin" style="stroke:#181818;stroke-width:1;"/><polygon fill="#181818" points="701.01,97.2969,692.01,93.2969,696.01,97.2969,692.01,101.2969,701.01,97.2969" style="stroke:#181818;stroke-width:1;"/></g><!--link UC_Direct to UC_ResolveTarget--><g class="link" data-entity-1="ent0021" data-entity-2="ent0023" data-link-type="dependency" data-source-line="75" id="lnk63"><path d="M779.32,936.9069 C779.32,922.0869 779.32,906.7969 779.32,891.4769" fill="none" id="UC_Direct-to-UC_ResolveTarget" style="stroke:#181818;stroke-width:1;stroke-dasharray:7,7;"/><polygon fill="#181818" points="779.32,885.4769,775.32,894.4769,779.32,890.4769,783.32,894.4769,779.32,885.4769" style="stroke:#181818;stroke-width:1;"/><text fill="#000000" font-family="sans-serif" font-size="13" lengthAdjust="spacing" textLength="63.0068" x="736.32" y="915.7038">&#171;include&#187;</text></g><!--link UC_GroupChat to UC_ResolveTarget--><g class="link" data-entity-1="ent0022" data-entity-2="ent0023" data-link-type="dependency" data-source-line="76" id="lnk64"><path d="M728.34,1037.2769 C680.83,1045.9769 611.73,1049.2969 573.42,1007.7969 C548.92,981.2669 549.53,970.9069 611.73,919.2969 C638.98,896.6969 670.0941,885.0479 702.3741,877.5879" fill="none" id="UC_GroupChat-to-UC_ResolveTarget" style="stroke:#181818;stroke-width:1;stroke-dasharray:7,7;"/><polygon fill="#181818" points="708.22,876.2369,698.5504,874.3661,703.3484,877.3627,700.3518,882.1607,708.22,876.2369" style="stroke:#181818;stroke-width:1;"/><text fill="#000000" font-family="sans-serif" font-size="13" lengthAdjust="spacing" textLength="63.0068" x="539.73" y="1003.8638">&#171;include&#187;</text></g><!--link UC_Message to UC_Realtime--><g class="link" data-entity-1="ent0024" data-entity-2="ent0026" data-link-type="dependency" data-source-line="77" id="lnk65"><path d="M779.32,1138.8669 C779.32,1155.0569 779.32,1168.5369 779.32,1183.9069" fill="none" id="UC_Message-to-UC_Realtime" style="stroke:#181818;stroke-width:1;stroke-dasharray:7,7;"/><polygon fill="#181818" points="779.32,1189.9069,783.32,1180.9069,779.32,1184.9069,775.32,1180.9069,779.32,1189.9069" style="stroke:#181818;stroke-width:1;"/><text fill="#000000" font-family="sans-serif" font-size="13" lengthAdjust="spacing" textLength="63.0068" x="736.32" y="1168.9538">&#171;include&#187;</text></g><!--link UC_Attach to UC_Message--><g class="link" data-entity-1="ent0025" data-entity-2="ent0024" data-link-type="dependency" data-source-line="78" id="lnk66"><path d="M694.99,1293.6169 C665.81,1288.8469 634.71,1278.9569 611.73,1259.2969 C571.71,1225.0469 540.88,1187.4169 574.42,1146.7969 C590.16,1127.7269 606.3111,1117.7105 629.9811,1110.7905" fill="none" id="UC_Attach-to-UC_Message" style="stroke:#181818;stroke-width:1;stroke-dasharray:7,7;"/><polygon fill="#181818" points="635.74,1109.1069,625.9792,1107.793,630.9409,1110.5099,628.224,1115.4716,635.74,1109.1069" style="stroke:#181818;stroke-width:1;"/><text fill="#000000" font-family="sans-serif" font-size="13" lengthAdjust="spacing" textLength="61.1851" x="540.73" y="1159.8638">&#171;extend&#187;</text></g><!--link UC_GroupMembership to UC_InvitePreview--><g class="link" data-entity-1="ent0029" data-entity-2="ent0015" data-link-type="dependency" data-source-line="79" id="lnk67"><path d="M698.91,1371.2069 C667.35,1367.5969 633.54,1357.5069 611.73,1333.2969 C507.79,1217.8669 582.72,1140.9069 574.42,985.7969 C566.82,843.8669 518.83,454.8569 611.73,347.2969 C633.69,321.8769 662.9357,312.6419 695.4457,309.6219" fill="none" id="UC_GroupMembership-to-UC_InvitePreview" style="stroke:#181818;stroke-width:1;stroke-dasharray:7,7;"/><polygon fill="#181818" points="701.42,309.0669,692.0886,305.9165,696.4414,309.5294,692.8286,313.8822,701.42,309.0669" style="stroke:#181818;stroke-width:1;"/><text fill="#000000" font-family="sans-serif" font-size="13" lengthAdjust="spacing" textLength="61.1851" x="540.73" y="981.8638">&#171;extend&#187;</text></g><!--link UC_Moderate to UC_Roles--><g class="link" data-entity-1="ent0033" data-entity-2="ent0032" data-link-type="dependency" data-source-line="80" id="lnk68"><path d="M779.32,712.9269 C779.32,728.5669 779.32,742.4369 779.32,757.8469" fill="none" id="UC_Moderate-to-UC_Roles" style="stroke:#181818;stroke-width:1;stroke-dasharray:7,7;"/><polygon fill="#181818" points="779.32,763.8469,783.32,754.8469,779.32,758.8469,775.32,754.8469,779.32,763.8469" style="stroke:#181818;stroke-width:1;"/><text fill="#000000" font-family="sans-serif" font-size="13" lengthAdjust="spacing" textLength="63.0068" x="736.32" y="742.9438">&#171;include&#187;</text></g><?plantuml-src ZLN1Rjim3BtxAuZSszw78a2MOiM61ItITgS1Ws8piHPPyYGvMR7jtqT9bYpL6R2JvST7KI8VASkjGBZ34nS6jcWibmUuWaVDEwPVuSKWh9b1KmdSMx0AD3-q5XgkiRPSoSeSkUoPPXsObZNgxFptJ1YiAbPRfU5-e5t7zM8rs1QbvJMpsBZTzGAOyOkHib4DQaQhw7AlrT33mrcENB-AngTNOx63LTDnoOtrZfxbaRI5KWUwvOEBxgq1YEQDafmMxkHFbjL7Jvd0gafdWgkhtyjmMd-Cy3yTsKVDI9NB4fCk-ABCyG9-LG23mPgo2ultMftfsmyxmMiuk2kRa9drjqSF-ZIOtESBntFqq4fr9NzBICv-r1IV7BWySOiWk3n6XuyU6WcvpnOFb5Iw9gjhDKWR7IAUSp-h0rtzp6qBFJFch7GJwTxq3sweH6I6lnb_moGxK7QqsdDA9PCDa2GDoI_TEPWkEEqrHzaOxxGJgZwcl7u8bjpdeKSvQXlgbgKBttbenlHrAeY-Ici2oZGQ9KxeYM2PFc2MIMzwzc3kyqH7Wnl0XblwD2YGYdO36acphWqxkZzTB-wp2R_v3Y-zKAm1PadIRKTDbow-yb3EVTOaUyel6fHrI315eYnRwjFfh4nOtc5vJARhrlrhGySBmgN5UBmKCl1oppK5y5SQ-YOinalwFSfywg79NJyfKWyreq1skiJVOBUZyxIylw27e7zJQhyGmQedeT76trqOZJ_S_4fy5tixOXTsrqfWq1hje3LlfaXRPofSmjX0IfO_xrTvv5I56zWnwL8uJAcFrAAXkMCDigVlstIJpRofhpHxQcJbffRBJ6H6IwbNFodOuCH7CvMBf1m75LLKGhXcwT1gNeURjqudxQHCRwd-L9L_2MWwBcTJxOB5pwy2ByTKOKe3gK3372cWVC1KRaIdeEC0oR4u879id0GvDFLyZiQEpB6nyN8eDLKEZjqo2v89ktYJbhcIPuP2iZDhaEKCJegRMRosqlEtBBkqW9Esqhkud4IKFRefOq4fusjziMAn072zd8rFU0UtjrpMOcXmkQpoolmVVInP8eVAp7cXZ2CjEZaM_hGac2psLB2HNMXuvfCcmlLKcZByNm00?></g></svg>