<?plantuml 1.2026.1?><svg xmlns="http://www.w3.org/2000/svg" xmlns:xlink="http://www.w3.org/1999/xlink" contentStyleType="text/css" data-diagram-type="DESCRIPTION" height="2599px" preserveAspectRatio="none" style="width:1095px;height:2599px;background:#FFFFFF;" version="1.1" viewBox="0 0 1095 2599" width="1095px" zoomAndPan="magnify"><title>Devil - &#1054;&#1089;&#1085;&#1086;&#1074;&#1085;&#1099;&#1077; &#1074;&#1072;&#1088;&#1080;&#1072;&#1085;&#1090;&#1099; &#1080;&#1089;&#1087;&#1086;&#1083;&#1100;&#1079;&#1086;&#1074;&#1072;&#1085;&#1080;&#1103;</title><defs/><g><g class="title" data-source-line="1"><text fill="#000000" font-family="Arial" font-size="14" font-weight="bold" lengthAdjust="spacing" textLength="417.6895" x="331.8403" y="22.9951">Devil - &#1054;&#1089;&#1085;&#1086;&#1074;&#1085;&#1099;&#1077; &#1074;&#1072;&#1088;&#1080;&#1072;&#1085;&#1090;&#1099; &#1080;&#1089;&#1087;&#1086;&#1083;&#1100;&#1079;&#1086;&#1074;&#1072;&#1085;&#1080;&#1103;</text></g><!--cluster Devil--><g class="cluster" data-qualified-name="Devil" data-source-line="36" id="ent0012"><rect fill="#F7F9FC" height="2549" rx="5" ry="5" style="stroke:#C8D0DB;stroke-width:1;" width="393.75" x="695.62" y="44.2969"/><text fill="#000000" font-family="Arial" font-size="14" font-weight="bold" lengthAdjust="spacing" textLength="113.1348" x="835.9276" y="59.292">Devil</text></g><!--cluster ???????? ??????--><g class="cluster" data-qualified-name="Devil......... ......" data-source-line="37" id="ent0013"><rect fill="#F7F9FC" height="566" rx="5" ry="5" style="stroke:#C8D0DB;stroke-width:1;" width="241.26" x="771.86" y="87.2969"/><text fill="#000000" font-family="Arial" font-size="14" font-weight="bold" lengthAdjust="spacing" textLength="133.7451" x="825.6174" y="102.292">&#1043;&#1086;&#1089;&#1090;&#1077;&#1074;&#1086;&#1081; &#1076;&#1086;&#1089;&#1090;&#1091;&#1087;</text></g><!--cluster ???????? ???????--><g class="cluster" data-qualified-name="Devil......... ......." data-source-line="46" id="ent0020"><rect fill="#F7F9FC" height="879" rx="5" ry="5" style="stroke:#C8D0DB;stroke-width:1;" width="345.75" x="719.62" y="1472.2969"/><text fill="#000000" font-family="Arial" font-size="14" font-weight="bold" lengthAdjust="spacing" textLength="155.3535" x="814.8182" y="1487.292">&#1054;&#1089;&#1085;&#1086;&#1074;&#1085;&#1086;&#1077; &#1086;&#1073;&#1097;&#1077;&#1085;&#1080;&#1077;</text></g><!--cluster ?????????? ???????--><g class="cluster" data-qualified-name="Devil........... ......." data-source-line="58" id="ent0030"><rect fill="#F7F9FC" height="771" rx="5" ry="5" style="stroke:#C8D0DB;stroke-width:1;" width="281.33" x="751.83" y="677.2969"/><text fill="#000000" font-family="Arial" font-size="14" font-weight="bold" lengthAdjust="spacing" textLength="167.6309" x="808.6796" y="692.292">&#1059;&#1087;&#1088;&#1072;&#1074;&#1083;&#1077;&#1085;&#1080;&#1077; &#1075;&#1088;&#1091;&#1087;&#1087;&#1086;&#1081;</text></g><!--cluster ????????????--><g class="cluster" data-qualified-name="Devil............." data-source-line="69" id="ent0039"><rect fill="#F7F9FC" height="194" rx="5" ry="5" style="stroke:#C8D0DB;stroke-width:1;" width="222.05" x="781.47" y="2375.2969"/><text fill="#000000" font-family="Arial" font-size="14" font-weight="bold" lengthAdjust="spacing" textLength="113.3125" x="835.8388" y="2390.292">&#1069;&#1082;&#1089;&#1087;&#1083;&#1091;&#1072;&#1090;&#1072;&#1094;&#1080;&#1103;</text></g><!--entity UC_PublicGroups--><g class="entity" data-qualified-name="Devil......... .......UC_PublicGroups" data-source-line="38" id="ent0014"><ellipse cx="892.4887" cy="333.2929" fill="#FFFFFF" rx="97.6887" ry="25.116" style="stroke:#9FB0C7;stroke-width:0.5;"/><text fill="#1F2937" font-family="Arial" font-size="14" lengthAdjust="spacing" textLength="114.1943" x="835.3916" y="328.4469">&#1055;&#1088;&#1086;&#1089;&#1084;&#1072;&#1090;&#1088;&#1080;&#1074;&#1072;&#1090;&#1100;</text><text fill="#1F2937" font-family="Arial" font-size="14" lengthAdjust="spacing" textLength="139.5488" x="822.7143" y="344.7438">&#1087;&#1091;&#1073;&#1083;&#1080;&#1095;&#1085;&#1099;&#1077; &#1075;&#1088;&#1091;&#1087;&#1087;&#1099;</text></g><!--entity UC_PublicRoom--><g class="entity" data-qualified-name="Devil......... .......UC_PublicRoom" data-source-line="39" id="ent0015"><ellipse cx="892.4887" cy="427.2925" fill="#FFFFFF" rx="96.7687" ry="23.6756" style="stroke:#9FB0C7;stroke-width:0.5;"/><text fill="#1F2937" font-family="Arial" font-size="14" lengthAdjust="spacing" textLength="51.8369" x="866.5702" y="420.2193">&#1063;&#1080;&#1090;&#1072;&#1090;&#1100;</text><text fill="#1F2937" font-family="Arial" font-size="14" lengthAdjust="spacing" textLength="147.8203" x="818.5785" y="436.5161">&#1087;&#1091;&#1073;&#1083;&#1080;&#1095;&#1085;&#1091;&#1102; &#1082;&#1086;&#1084;&#1085;&#1072;&#1090;&#1091;</text></g><!--entity UC_InvitePreview--><g class="entity" data-qualified-name="Devil......... .......UC_InvitePreview" data-source-line="40" id="ent0016"><ellipse cx="892.4916" cy="520.299" fill="#FFFFFF" rx="104.6316" ry="24.0321" style="stroke:#9FB0C7;stroke-width:0.5;"/><text fill="#1F2937" font-family="Arial" font-size="14" lengthAdjust="spacing" textLength="80.8076" x="852.0878" y="513.7972">&#1054;&#1090;&#1082;&#1088;&#1099;&#1074;&#1072;&#1090;&#1100;</text><text fill="#1F2937" font-family="Arial" font-size="14" lengthAdjust="spacing" textLength="157.5" x="813.7416" y="530.0941">&#1089;&#1089;&#1099;&#1083;&#1082;&#1091;-&#1087;&#1088;&#1080;&#1075;&#1083;&#1072;&#1096;&#1077;&#1085;&#1080;&#1077;</text></g><!--entity UC_Register--><g class="entity" data-qualified-name="Devil......... .......UC_Register" data-source-line="41" id="ent0017"><ellipse cx="892.4943" cy="146.2991" fill="#FFFFFF" rx="79.0943" ry="24.0122" style="stroke:#9FB0C7;stroke-width:0.5;"/><text fill="#1F2937" font-family="Arial" font-size="14" lengthAdjust="spacing" textLength="118.0361" x="833.4762" y="145.8323">&#1056;&#1077;&#1075;&#1080;&#1089;&#1090;&#1088;&#1080;&#1088;&#1086;&#1074;&#1072;&#1090;&#1100;</text><text fill="#1F2937" font-family="Arial" font-size="14" lengthAdjust="spacing" textLength="59.6641" x="862.6622" y="162.1292">&#1072;&#1082;&#1082;&#1072;&#1091;&#1085;&#1090;</text></g><!--entity UC_Login--><g class="entity" data-qualified-name="Devil......... .......UC_Login" data-source-line="42" id="ent0018"><ellipse cx="892.4884" cy="239.2982" fill="#FFFFFF" rx="92.9484" ry="23.9913" style="stroke:#9FB0C7;stroke-width:0.5;"/><text fill="#1F2937" font-family="Arial" font-size="14" lengthAdjust="spacing" textLength="139.665" x="822.6559" y="238.8645">&#1042;&#1093;&#1086;&#1076;&#1080;&#1090;&#1100; &#1087;&#1086; &#1083;&#1086;&#1075;&#1080;&#1085;&#1091;</text><text fill="#1F2937" font-family="Arial" font-size="14" lengthAdjust="spacing" textLength="69.4668" x="857.755" y="255.1614">&#1080; &#1087;&#1072;&#1088;&#1086;&#1083;&#1102;</text></g><!--entity UC_GoogleLogin--><g class="entity" data-qualified-name="Devil......... .......UC_GoogleLogin" data-source-line="43" id="ent0019"><ellipse cx="892.4901" cy="613.3007" fill="#FFFFFF" rx="72.1801" ry="23.8938" style="stroke:#9FB0C7;stroke-width:0.5;"/><text fill="#1F2937" font-family="Arial" font-size="14" lengthAdjust="spacing" textLength="107.9189" x="838.5306" y="613.0223">&#1042;&#1093;&#1086;&#1076;&#1080;&#1090;&#1100; &#1095;&#1077;&#1088;&#1077;&#1079;</text><text fill="#1F2937" font-family="Arial" font-size="14" lengthAdjust="spacing" textLength="49.3691" x="867.8055" y="629.3191">Google</text></g><!--entity UC_Profile--><g class="entity" data-qualified-name="Devil......... ........UC_Profile" data-source-line="47" id="ent0021"><ellipse cx="892.4886" cy="1721.3014" fill="#FFFFFF" rx="103.9186" ry="23.8945" style="stroke:#9FB0C7;stroke-width:0.5;"/><text fill="#1F2937" font-family="Arial" font-size="14" lengthAdjust="spacing" textLength="157.4248" x="813.7762" y="1721.0218">&#1059;&#1087;&#1088;&#1072;&#1074;&#1083;&#1103;&#1090;&#1100; &#1087;&#1088;&#1086;&#1092;&#1080;&#1083;&#1077;&#1084;</text><text fill="#1F2937" font-family="Arial" font-size="14" lengthAdjust="spacing" textLength="72.0645" x="856.4564" y="1737.3187">&#1080; &#1089;&#1077;&#1089;&#1089;&#1080;&#1077;&#1081;</text></g><!--entity UC_Friends--><g class="entity" data-qualified-name="Devil......... ........UC_Friends" data-source-line="48" id="ent0022"><ellipse cx="892.494" cy="1815.3" fill="#FFFFFF" rx="105.644" ry="24.9731" style="stroke:#9FB0C7;stroke-width:0.5;"/><text fill="#1F2937" font-family="Arial" font-size="14" lengthAdjust="spacing" textLength="152.2568" x="816.3656" y="1813.3582">&#1059;&#1087;&#1088;&#1072;&#1074;&#1083;&#1103;&#1090;&#1100; &#1076;&#1088;&#1091;&#1079;&#1100;&#1103;&#1084;&#1080;</text><text fill="#1F2937" font-family="Arial" font-size="14" lengthAdjust="spacing" textLength="119.6494" x="832.6693" y="1829.655">&#1080; &#1073;&#1083;&#1086;&#1082;&#1080;&#1088;&#1086;&#1074;&#1082;&#1072;&#1084;&#1080;</text></g><!--entity UC_ResolveTarget--><g class="entity" data-qualified-name="Devil......... ........UC_ResolveTarget" data-source-line="49" id="ent0023"><ellipse cx="892.4861" cy="1531.2974" fill="#FFFFFF" rx="100.4061" ry="24.1106" style="stroke:#9FB0C7;stroke-width:0.5;"/><text fill="#1F2937" font-family="Arial" font-size="14" lengthAdjust="spacing" textLength="150.3906" x="817.2908" y="1530.6754">&#1056;&#1072;&#1079;&#1088;&#1077;&#1096;&#1072;&#1090;&#1100; &#1074;&#1085;&#1077;&#1096;&#1085;&#1080;&#1081;</text><text fill="#1F2937" font-family="Arial" font-size="14" lengthAdjust="spacing" textLength="81.4912" x="851.7405" y="1546.9723">&#1072;&#1076;&#1088;&#1077;&#1089; &#1095;&#1072;&#1090;&#1072;</text></g><!--entity UC_Direct--><g class="entity" data-qualified-name="Devil......... ........UC_Direct" data-source-line="50" id="ent0024"><ellipse cx="892.489" cy="2008.2938" fill="#FFFFFF" rx="62.429" ry="25.7669" style="stroke:#9FB0C7;stroke-width:0.5;"/><text fill="#1F2937" font-family="Arial" font-size="14" lengthAdjust="spacing" textLength="80.8076" x="852.0851" y="2004.3949">&#1054;&#1090;&#1082;&#1088;&#1099;&#1074;&#1072;&#1090;&#1100;</text><text fill="#1F2937" font-family="Arial" font-size="14" lengthAdjust="spacing" textLength="85.0801" x="849.9489" y="2020.6918">&#1083;&#1080;&#1095;&#1085;&#1099;&#1081; &#1095;&#1072;&#1090;</text></g><!--entity UC_GroupChat--><g class="entity" data-qualified-name="Devil......... ........UC_GroupChat" data-source-line="51" id="ent0025"><ellipse cx="892.4902" cy="2104.2981" fill="#FFFFFF" rx="74.5802" ry="24.8512" style="stroke:#9FB0C7;stroke-width:0.5;"/><text fill="#1F2937" font-family="Arial" font-size="14" lengthAdjust="spacing" textLength="80.8076" x="852.0864" y="2099.0576">&#1054;&#1090;&#1082;&#1088;&#1099;&#1074;&#1072;&#1090;&#1100;</text><text fill="#1F2937" font-family="Arial" font-size="14" lengthAdjust="spacing" textLength="106.7705" x="839.1049" y="2115.3545">&#1075;&#1088;&#1091;&#1087;&#1087;&#1086;&#1074;&#1086;&#1081; &#1095;&#1072;&#1090;</text></g><!--entity UC_Message--><g class="entity" data-qualified-name="Devil......... ........UC_Message" data-source-line="52" id="ent0026"><ellipse cx="892.4865" cy="2301.2922" fill="#FFFFFF" rx="156.8765" ry="33.7753" style="stroke:#9FB0C7;stroke-width:0.5;"/><text fill="#1F2937" font-family="Arial" font-size="14" lengthAdjust="spacing" textLength="213.3291" x="785.822" y="2291.9074">&#1054;&#1090;&#1087;&#1088;&#1072;&#1074;&#1083;&#1103;&#1090;&#1100;, &#1088;&#1077;&#1076;&#1072;&#1082;&#1090;&#1080;&#1088;&#1086;&#1074;&#1072;&#1090;&#1100;,</text><text fill="#1F2937" font-family="Arial" font-size="14" lengthAdjust="spacing" textLength="289.6045" x="747.6843" y="2308.2043">&#1091;&#1076;&#1072;&#1083;&#1103;&#1090;&#1100; &#1089;&#1086;&#1086;&#1073;&#1097;&#1077;&#1085;&#1080;&#1103; &#1080; &#1089;&#1090;&#1072;&#1074;&#1080;&#1090;&#1100; &#1088;&#1077;&#1072;&#1082;&#1094;&#1080;&#1080;</text></g><!--entity UC_Attach--><g class="entity" data-qualified-name="Devil......... ........UC_Attach" data-source-line="53" id="ent0027"><ellipse cx="892.4882" cy="1626.2994" fill="#FFFFFF" rx="58.3282" ry="25.6326" style="stroke:#9FB0C7;stroke-width:0.5;"/><text fill="#1F2937" font-family="Arial" font-size="14" lengthAdjust="spacing" textLength="79.6797" x="852.6484" y="1623.3914">&#1047;&#1072;&#1075;&#1088;&#1091;&#1078;&#1072;&#1090;&#1100;</text><text fill="#1F2937" font-family="Arial" font-size="14" lengthAdjust="spacing" textLength="73.6641" x="855.6562" y="1639.6883">&#1074;&#1083;&#1086;&#1078;&#1077;&#1085;&#1080;&#1103;</text></g><!--entity UC_Realtime--><g class="entity" data-qualified-name="Devil......... ........UC_Realtime" data-source-line="54" id="ent0028"><ellipse cx="892.4936" cy="2198.2928" fill="#FFFFFF" rx="93.5836" ry="24.3359" style="stroke:#9FB0C7;stroke-width:0.5;"/><text fill="#1F2937" font-family="Arial" font-size="14" lengthAdjust="spacing" textLength="138.3799" x="823.3036" y="2197.3189">&#1055;&#1086;&#1083;&#1091;&#1095;&#1072;&#1090;&#1100; presence</text><text fill="#1F2937" font-family="Arial" font-size="14" lengthAdjust="spacing" textLength="85.2988" x="849.8442" y="2213.6158">&#1080; read state</text></g><!--entity UC_Search--><g class="entity" data-qualified-name="Devil......... ........UC_Search" data-source-line="55" id="ent0029"><ellipse cx="892.4857" cy="1911.294" fill="#FFFFFF" rx="118.3357" ry="26.0671" style="stroke:#9FB0C7;stroke-width:0.5;"/><text fill="#1F2937" font-family="Arial" font-size="14" lengthAdjust="spacing" textLength="171.6982" x="806.6366" y="1908.6867">&#1048;&#1089;&#1082;&#1072;&#1090;&#1100; &#1087;&#1086;&#1083;&#1100;&#1079;&#1086;&#1074;&#1072;&#1090;&#1077;&#1083;&#1077;&#1081;,</text><text fill="#1F2937" font-family="Arial" font-size="14" lengthAdjust="spacing" textLength="153.8223" x="815.5746" y="1924.9835">&#1075;&#1088;&#1091;&#1087;&#1087;&#1099; &#1080; &#1089;&#1086;&#1086;&#1073;&#1097;&#1077;&#1085;&#1080;&#1103;</text></g><!--entity UC_GroupCrud--><g class="entity" data-qualified-name="Devil........... ........UC_GroupCrud" data-source-line="59" id="ent0031"><ellipse cx="892.4923" cy="737.2977" fill="#FFFFFF" rx="109.0323" ry="25.1708" style="stroke:#9FB0C7;stroke-width:0.5;"/><text fill="#1F2937" font-family="Arial" font-size="14" lengthAdjust="spacing" textLength="155.8799" x="814.5523" y="735.0627">&#1057;&#1086;&#1079;&#1076;&#1072;&#1074;&#1072;&#1090;&#1100;, &#1080;&#1079;&#1084;&#1077;&#1085;&#1103;&#1090;&#1100;</text><text fill="#1F2937" font-family="Arial" font-size="14" lengthAdjust="spacing" textLength="129.4385" x="827.773" y="751.3596">&#1080; &#1091;&#1076;&#1072;&#1083;&#1103;&#1090;&#1100; &#1075;&#1088;&#1091;&#1087;&#1087;&#1091;</text></g><!--entity UC_GroupMembership--><g class="entity" data-qualified-name="Devil........... ........UC_GroupMembership" data-source-line="60" id="ent0032"><ellipse cx="892.4943" cy="1407.2925" fill="#FFFFFF" rx="109.3843" ry="25.4056" style="stroke:#9FB0C7;stroke-width:0.5;"/><text fill="#1F2937" font-family="Arial" font-size="14" lengthAdjust="spacing" textLength="136.1514" x="824.4186" y="1402.8716">&#1042;&#1089;&#1090;&#1091;&#1087;&#1072;&#1090;&#1100; &#1074; &#1075;&#1088;&#1091;&#1087;&#1087;&#1091;</text><text fill="#1F2937" font-family="Arial" font-size="14" lengthAdjust="spacing" textLength="154.7588" x="815.1149" y="1419.1685">&#1080;&#1083;&#1080; &#1074;&#1099;&#1093;&#1086;&#1076;&#1080;&#1090;&#1100; &#1080;&#1079; &#1085;&#1077;&#1077;</text></g><!--entity UC_Invites--><g class="entity" data-qualified-name="Devil........... ........UC_Invites" data-source-line="61" id="ent0033"><ellipse cx="892.4888" cy="1022.2956" fill="#FFFFFF" rx="81.7488" ry="24.4287" style="stroke:#9FB0C7;stroke-width:0.5;"/><text fill="#1F2937" font-family="Arial" font-size="14" lengthAdjust="spacing" textLength="77.1777" x="853.9" y="1016.4129">&#1059;&#1087;&#1088;&#1072;&#1074;&#1083;&#1103;&#1090;&#1100;</text><text fill="#1F2937" font-family="Arial" font-size="14" lengthAdjust="spacing" textLength="119.7793" x="832.5992" y="1032.7097">&#1087;&#1088;&#1080;&#1075;&#1083;&#1072;&#1096;&#1077;&#1085;&#1080;&#1103;&#1084;&#1080;</text></g><!--entity UC_JoinRequests--><g class="entity" data-qualified-name="Devil........... ........UC_JoinRequests" data-source-line="62" id="ent0034"><ellipse cx="892.4924" cy="1116.2947" fill="#FFFFFF" rx="110.2624" ry="24.4678" style="stroke:#9FB0C7;stroke-width:0.5;"/><text fill="#1F2937" font-family="Arial" font-size="14" lengthAdjust="spacing" textLength="106.7773" x="839.1037" y="1110.4719">&#1054;&#1073;&#1088;&#1072;&#1073;&#1072;&#1090;&#1099;&#1074;&#1072;&#1090;&#1100;</text><text fill="#1F2937" font-family="Arial" font-size="14" lengthAdjust="spacing" textLength="162.8525" x="811.0661" y="1126.7688">&#1079;&#1072;&#1103;&#1074;&#1082;&#1080; &#1085;&#1072; &#1074;&#1089;&#1090;&#1091;&#1087;&#1083;&#1077;&#1085;&#1080;&#1077;</text></g><!--entity UC_Roles--><g class="entity" data-qualified-name="Devil........... ........UC_Roles" data-source-line="63" id="ent0035"><ellipse cx="892.4925" cy="927.2988" fill="#FFFFFF" rx="96.3825" ry="25.3619" style="stroke:#9FB0C7;stroke-width:0.5;"/><text fill="#1F2937" font-family="Arial" font-size="14" lengthAdjust="spacing" textLength="136.1104" x="824.4373" y="924.7834">&#1059;&#1087;&#1088;&#1072;&#1074;&#1083;&#1103;&#1090;&#1100; &#1088;&#1086;&#1083;&#1103;&#1084;&#1080;</text><text fill="#1F2937" font-family="Arial" font-size="14" lengthAdjust="spacing" textLength="118.5283" x="833.2283" y="941.0802">&#1080; overrides &#1087;&#1088;&#1072;&#1074;</text></g><!--entity UC_Moderate--><g class="entity" data-qualified-name="Devil........... ........UC_Moderate" data-source-line="64" id="ent0036"><ellipse cx="892.4927" cy="1309.2994" fill="#FFFFFF" rx="124.6627" ry="27.3325" style="stroke:#9FB0C7;stroke-width:0.5;"/><text fill="#1F2937" font-family="Arial" font-size="14" lengthAdjust="spacing" textLength="196.5742" x="794.2056" y="1307.7555">&#1052;&#1086;&#1076;&#1077;&#1088;&#1080;&#1088;&#1086;&#1074;&#1072;&#1090;&#1100; &#1091;&#1095;&#1072;&#1089;&#1090;&#1085;&#1080;&#1082;&#1086;&#1074;</text><text fill="#1F2937" font-family="Arial" font-size="14" lengthAdjust="spacing" textLength="160.9043" x="812.0405" y="1324.0524">&#1080;&#1089;&#1082;&#1083;&#1102;&#1095;&#1077;&#1085;&#1080;&#1077;, &#1073;&#1072;&#1085;, &#1084;&#1091;&#1090;</text></g><!--entity UC_Pins--><g class="entity" data-qualified-name="Devil........... ........UC_Pins" data-source-line="65" id="ent0037"><ellipse cx="892.4933" cy="1211.2995" fill="#FFFFFF" rx="114.8133" ry="25.3627" style="stroke:#9FB0C7;stroke-width:0.5;"/><text fill="#1F2937" font-family="Arial" font-size="14" lengthAdjust="spacing" textLength="190.0459" x="797.4704" y="1212.3102">&#1047;&#1072;&#1082;&#1088;&#1077;&#1087;&#1083;&#1103;&#1090;&#1100; &#1080; &#1086;&#1090;&#1082;&#1088;&#1077;&#1087;&#1083;&#1103;&#1090;&#1100;</text><text fill="#1F2937" font-family="Arial" font-size="14" lengthAdjust="spacing" textLength="81.9355" x="851.5256" y="1228.6071">&#1089;&#1086;&#1086;&#1073;&#1097;&#1077;&#1085;&#1080;&#1103;</text></g><!--entity UC_Transfer--><g class="entity" data-qualified-name="Devil........... ........UC_Transfer" data-source-line="66" id="ent0038"><ellipse cx="892.4908" cy="832.2928" fill="#FFFFFF" rx="62.6408" ry="25.0559" style="stroke:#9FB0C7;stroke-width:0.5;"/><text fill="#1F2937" font-family="Arial" font-size="14" lengthAdjust="spacing" textLength="88.1357" x="848.4229" y="830.2278">&#1055;&#1077;&#1088;&#1077;&#1076;&#1072;&#1074;&#1072;&#1090;&#1100;</text><text fill="#1F2937" font-family="Arial" font-size="14" lengthAdjust="spacing" textLength="70.9365" x="857.0225" y="846.5247">&#1074;&#1083;&#1072;&#1076;&#1077;&#1085;&#1080;&#1077;</text></g><!--entity UC_Audit--><g class="entity" data-qualified-name="Devil..............UC_Audit" data-source-line="70" id="ent0040"><ellipse cx="892.4907" cy="2434.2931" fill="#FFFFFF" rx="75.6507" ry="23.7362" style="stroke:#9FB0C7;stroke-width:0.5;"/><text fill="#1F2937" font-family="Arial" font-size="14" lengthAdjust="spacing" textLength="114.1943" x="835.3936" y="2434.268">&#1055;&#1088;&#1086;&#1089;&#1084;&#1072;&#1090;&#1088;&#1080;&#1074;&#1072;&#1090;&#1100;</text><text fill="#1F2937" font-family="Arial" font-size="14" lengthAdjust="spacing" textLength="43.7979" x="870.5918" y="2450.5649">&#1072;&#1091;&#1076;&#1080;&#1090;</text></g><!--entity UC_Metrics--><g class="entity" data-qualified-name="Devil..............UC_Metrics" data-source-line="71" id="ent0041"><ellipse cx="892.4868" cy="2528.2987" fill="#FFFFFF" rx="95.0268" ry="24.8518" style="stroke:#9FB0C7;stroke-width:0.5;"/><text fill="#1F2937" font-family="Arial" font-size="14" lengthAdjust="spacing" textLength="137.2656" x="823.854" y="2526.5383">&#1057;&#1086;&#1073;&#1080;&#1088;&#1072;&#1090;&#1100; &#1084;&#1077;&#1090;&#1088;&#1080;&#1082;&#1080;</text><text fill="#1F2937" font-family="Arial" font-size="14" lengthAdjust="spacing" textLength="103.9063" x="840.5337" y="2542.8352">&#1080; health-check</text></g><!--entity Guest--><g class="entity" data-qualified-name="Guest" data-source-line="24" id="ent0002"><ellipse cx="564.6135" cy="350.6469" fill="#F1F1F1" rx="8" ry="8" style="stroke:#181818;stroke-width:0.5;"/><path d="M564.6135,358.6469 L564.6135,385.6469 M551.6135,366.6469 L577.6135,366.6469 M564.6135,385.6469 L551.6135,400.6469 M564.6135,385.6469 L577.6135,400.6469" fill="none" style="stroke:#181818;stroke-width:0.5;"/><text fill="#000000" font-family="Arial" font-size="14" lengthAdjust="spacing" textLength="41.207" x="544.01" y="415.142">&#1043;&#1086;&#1089;&#1090;&#1100;</text></g><!--entity User--><g class="entity" data-qualified-name="User" data-source-line="25" id="ent0003"><ellipse cx="564.6144" cy="1881.6469" fill="#F1F1F1" rx="8" ry="8" style="stroke:#181818;stroke-width:0.5;"/><path d="M564.6144,1889.6469 L564.6144,1916.6469 M551.6144,1897.6469 L577.6144,1897.6469 M564.6144,1916.6469 L551.6144,1931.6469 M564.6144,1916.6469 L577.6144,1931.6469" fill="none" style="stroke:#181818;stroke-width:0.5;"/><text fill="#000000" font-family="Arial" font-size="14" lengthAdjust="spacing" textLength="230.0088" x="449.61" y="1946.142">&#1040;&#1074;&#1090;&#1086;&#1088;&#1080;&#1079;&#1086;&#1074;&#1072;&#1085;&#1085;&#1099;&#1081; &#1087;&#1086;&#1083;&#1100;&#1079;&#1086;&#1074;&#1072;&#1090;&#1077;&#1083;&#1100;</text></g><!--entity Moderator--><g class="entity" data-qualified-name="Moderator" data-source-line="26" id="ent0004"><ellipse cx="293.2354" cy="1086.6469" fill="#F1F1F1" rx="8" ry="8" style="stroke:#181818;stroke-width:0.5;"/><path d="M293.2354,1094.6469 L293.2354,1121.6469 M280.2354,1102.6469 L306.2354,1102.6469 M293.2354,1121.6469 L280.2354,1136.6469 M293.2354,1121.6469 L306.2354,1136.6469" fill="none" style="stroke:#181818;stroke-width:0.5;"/><text fill="#000000" font-family="Arial" font-size="14" lengthAdjust="spacing" textLength="82.0107" x="252.23" y="1151.142">&#1052;&#1086;&#1076;&#1077;&#1088;&#1072;&#1090;&#1086;&#1088;</text></g><!--entity Owner--><g class="entity" data-qualified-name="Owner" data-source-line="27" id="ent0005"><ellipse cx="71.4268" cy="802.6469" fill="#F1F1F1" rx="8" ry="8" style="stroke:#181818;stroke-width:0.5;"/><path d="M71.4268,810.6469 L71.4268,837.6469 M58.4268,818.6469 L84.4268,818.6469 M71.4268,837.6469 L58.4268,852.6469 M71.4268,837.6469 L84.4268,852.6469" fill="none" style="stroke:#181818;stroke-width:0.5;"/><text fill="#000000" font-family="Arial" font-size="14" lengthAdjust="spacing" textLength="130.8535" x="6" y="867.142">&#1042;&#1083;&#1072;&#1076;&#1077;&#1083;&#1077;&#1094; &#1075;&#1088;&#1091;&#1087;&#1087;&#1099;</text></g><!--entity Admin--><g class="entity" data-qualified-name="Admin" data-source-line="28" id="ent0006"><ellipse cx="293.227" cy="1934.6469" fill="#F1F1F1" rx="8" ry="8" style="stroke:#181818;stroke-width:0.5;"/><path d="M293.227,1942.6469 L293.227,1969.6469 M280.227,1950.6469 L306.227,1950.6469 M293.227,1969.6469 L280.227,1984.6469 M293.227,1969.6469 L306.227,1984.6469" fill="none" style="stroke:#181818;stroke-width:0.5;"/><text fill="#000000" font-family="Arial" font-size="14" lengthAdjust="spacing" textLength="202.7539" x="191.85" y="1999.142">&#1057;&#1080;&#1089;&#1090;&#1077;&#1084;&#1085;&#1099;&#1081; &#1072;&#1076;&#1084;&#1080;&#1085;&#1080;&#1089;&#1090;&#1088;&#1072;&#1090;&#1086;&#1088;</text></g><!--entity Google--><g class="entity" data-qualified-name="Google" data-source-line="29" id="ent0007"><ellipse cx="564.6157" cy="583.6469" fill="#F1F1F1" rx="8" ry="8" style="stroke:#181818;stroke-width:0.5;"/><path d="M564.6157,591.6469 L564.6157,618.6469 M551.6157,599.6469 L577.6157,599.6469 M564.6157,618.6469 L551.6157,633.6469 M564.6157,618.6469 L577.6157,633.6469" fill="none" style="stroke:#181818;stroke-width:0.5;"/><text fill="#000000" font-family="Arial" font-size="14" lengthAdjust="spacing" textLength="97.6514" x="515.79" y="648.142">Google OAuth</text></g><!--entity Monitoring--><g class="entity" data-qualified-name="Monitoring" data-source-line="30" id="ent0008"><ellipse cx="564.61" cy="2498.6469" fill="#F1F1F1" rx="8" ry="8" style="stroke:#181818;stroke-width:0.5;"/><path d="M564.61,2506.6469 L564.61,2533.6469 M551.61,2514.6469 L577.61,2514.6469 M564.61,2533.6469 L551.61,2548.6469 M564.61,2533.6469 L577.61,2548.6469" fill="none" style="stroke:#181818;stroke-width:0.5;"/><text fill="#000000" font-family="Arial" font-size="14" lengthAdjust="spacing" textLength="157.5" x="485.86" y="2563.142">&#1057;&#1090;&#1077;&#1082; &#1085;&#1072;&#1073;&#1083;&#1102;&#1076;&#1072;&#1077;&#1084;&#1086;&#1089;&#1090;&#1080;</text></g><!--link Moderator to User--><g class="link" data-entity-1="ent0004" data-entity-2="ent0003" data-link-type="extension" data-source-line="32" id="lnk9"><path d="M334.49,1149.8869 C390.41,1149.8869 483.37,1149.8869 483.37,1149.8869 C483.37,1149.8869 483.37,1699.9769 483.37,1854.7569" fill="none" id="Moderator-to-User" style="stroke:#687385;stroke-width:1;"/><polygon fill="none" points="483.37,1872.7569,489.37,1854.7569,477.37,1854.7569,483.37,1872.7569" style="stroke:#687385;stroke-width:1;"/></g><!--link Owner to Moderator--><g class="link" data-entity-1="ent0005" data-entity-2="ent0004" data-link-type="extension" data-source-line="33" id="lnk10"><path d="M137.25,863.8969 C198.5,863.8969 280.37,863.8969 280.37,863.8969 C280.37,863.8969 280.37,988.9869 280.37,1059.6869" fill="none" id="Owner-to-Moderator" style="stroke:#687385;stroke-width:1;"/><polygon fill="none" points="280.37,1077.6869,286.37,1059.6869,274.37,1059.6869,280.37,1077.6869" style="stroke:#687385;stroke-width:1;"/></g><!--link Admin to User--><g class="link" data-entity-1="ent0006" data-entity-2="ent0003" data-link-type="extension" data-source-line="34" id="lnk11"><path d="M395.05,1937.7969 C412.8,1937.7969 413.38,1937.7969 431.45,1937.7969" fill="none" id="Admin-to-User" style="stroke:#687385;stroke-width:1;"/><polygon fill="none" points="449.45,1937.7969,431.45,1931.7969,431.45,1943.7969,449.45,1937.7969" style="stroke:#687385;stroke-width:1;"/></g><!--link Guest to UC_PublicGroups--><g class="link" data-entity-1="ent0002" data-entity-2="ent0014" data-link-type="dependency" data-source-line="75" id="lnk42"><path d="M585.62,350.2769 C631.77,350.2769 737.85,350.2769 813.01,350.2769" fill="none" id="Guest-to-UC_PublicGroups" style="stroke:#687385;stroke-width:1;"/><polygon fill="#687385" points="819.01,350.2769,810.01,346.2769,814.01,350.2769,810.01,354.2769,819.01,350.2769" style="stroke:#687385;stroke-width:1;"/></g><!--link Guest to UC_PublicRoom--><g class="link" data-entity-1="ent0002" data-entity-2="ent0015" data-link-type="dependency" data-source-line="76" id="lnk43"><path d="M585.62,408.5669 C634.31,408.5669 750.41,408.5669 825.09,408.5669" fill="none" id="Guest-to-UC_PublicRoom" style="stroke:#687385;stroke-width:1;"/><polygon fill="#687385" points="831.09,408.5669,822.09,404.5669,826.09,408.5669,822.09,412.5669,831.09,408.5669" style="stroke:#687385;stroke-width:1;"/></g><!--link Guest to UC_InvitePreview--><g class="link" data-entity-1="ent0002" data-entity-2="ent0016" data-link-type="dependency" data-source-line="77" id="lnk44"><path d="M565.37,418.9269 C565.37,460.3669 565.37,520.2969 565.37,520.2969 C565.37,520.2969 685.96,520.2969 781.64,520.2969" fill="none" id="Guest-to-UC_InvitePreview" style="stroke:#687385;stroke-width:1;"/><polygon fill="#687385" points="787.64,520.2969,778.64,516.2969,782.64,520.2969,778.64,524.2969,787.64,520.2969" style="stroke:#687385;stroke-width:1;"/></g><!--link Guest to UC_Register--><g class="link" data-entity-1="ent0002" data-entity-2="ent0017" data-link-type="dependency" data-source-line="78" id="lnk45"><path d="M558.37,341.6569 C558.37,275.1969 558.37,146.2969 558.37,146.2969 C558.37,146.2969 708.51,146.2969 807.31,146.2969" fill="none" id="Guest-to-UC_Register" style="stroke:#687385;stroke-width:1;"/><polygon fill="#687385" points="813.31,146.2969,804.31,142.2969,808.31,146.2969,804.31,150.2969,813.31,146.2969" style="stroke:#687385;stroke-width:1;"/></g><!--link Guest to UC_Login--><g class="link" data-entity-1="ent0002" data-entity-2="ent0018" data-link-type="dependency" data-source-line="79" id="lnk46"><path d="M572.37,341.7669 C572.37,300.0169 572.37,239.2969 572.37,239.2969 C572.37,239.2969 698.95,239.2969 793.47,239.2969" fill="none" id="Guest-to-UC_Login" style="stroke:#687385;stroke-width:1;"/><polygon fill="#687385" points="799.47,239.2969,790.47,235.2969,794.47,239.2969,790.47,243.2969,799.47,239.2969" style="stroke:#687385;stroke-width:1;"/></g><!--link Guest to UC_GoogleLogin--><g class="link" data-entity-1="ent0002" data-entity-2="ent0019" data-link-type="dependency" data-source-line="80" id="lnk47"><path d="M585.5,413.5069 C610.01,413.5069 647.37,413.5069 647.37,413.5069 C647.37,413.5069 647.37,605.3369 647.37,605.3369 C647.37,605.3369 745.37,605.3369 817.89,605.3369" fill="none" id="Guest-to-UC_GoogleLogin" style="stroke:#687385;stroke-width:1;"/><polygon fill="#687385" points="823.89,605.3369,814.89,601.3369,818.89,605.3369,814.89,609.3369,823.89,605.3369" style="stroke:#687385;stroke-width:1;"/></g><!--link User to UC_Profile--><g class="link" data-entity-1="ent0003" data-entity-2="ent0021" data-link-type="dependency" data-source-line="82" id="lnk48"><path d="M658.37,1872.8469 C658.37,1817.3269 658.37,1721.2969 658.37,1721.2969 C658.37,1721.2969 719.67,1721.2969 782.1,1721.2969" fill="none" id="User-to-UC_Profile" style="stroke:#687385;stroke-width:1;"/><polygon fill="#687385" points="788.1,1721.2969,779.1,1717.2969,783.1,1721.2969,779.1,1725.2969,788.1,1721.2969" style="stroke:#687385;stroke-width:1;"/></g><!--link User to UC_Friends--><g class="link" data-entity-1="ent0003" data-entity-2="ent0022" data-link-type="dependency" data-source-line="83" id="lnk49"><path d="M669.37,1872.8069 C669.37,1846.0969 669.37,1815.2969 669.37,1815.2969 C669.37,1815.2969 722.92,1815.2969 780.49,1815.2969" fill="none" id="User-to-UC_Friends" style="stroke:#687385;stroke-width:1;"/><polygon fill="#687385" points="786.49,1815.2969,777.49,1811.2969,781.49,1815.2969,777.49,1819.2969,786.49,1815.2969" style="stroke:#687385;stroke-width:1;"/></g><!--link User to UC_Direct--><g class="link" data-entity-1="ent0003" data-entity-2="ent0024" data-link-type="dependency" data-source-line="84" id="lnk50"><path d="M662.37,1949.5969 C662.37,1971.9569 662.37,1995.8069 662.37,1995.8069 C662.37,1995.8069 763.29,1995.8069 831.37,1995.8069" fill="none" id="User-to-UC_Direct" style="stroke:#687385;stroke-width:1;"/><polygon fill="#687385" points="837.37,1995.8069,828.37,1991.8069,832.37,1995.8069,828.37,1999.8069,837.37,1995.8069" style="stroke:#687385;stroke-width:1;"/></g><!--link User to UC_GroupChat--><g class="link" data-entity-1="ent0003" data-entity-2="ent0025" data-link-type="dependency" data-source-line="85" id="lnk51"><path d="M680.06,1940.3869 C749.43,1940.3869 824.37,1940.3869 824.37,1940.3869 C824.37,1940.3869 824.37,2052.1569 824.37,2088.0469" fill="none" id="User-to-UC_GroupChat" style="stroke:#687385;stroke-width:1;"/><polygon fill="#687385" points="824.37,2094.0469,828.37,2085.0469,824.37,2089.0469,820.37,2085.0469,824.37,2094.0469" style="stroke:#687385;stroke-width:1;"/></g><!--link User to UC_Message--><g class="link" data-entity-1="ent0003" data-entity-2="ent0026" data-link-type="dependency" data-source-line="86" id="lnk52"><path d="M679.95,1946.4269 C714.01,1946.4269 742.37,1946.4269 742.37,1946.4269 C742.37,1946.4269 742.37,2226.8769 742.37,2285.0569" fill="none" id="User-to-UC_Message" style="stroke:#687385;stroke-width:1;"/><polygon fill="#687385" points="742.37,2291.0569,746.37,2282.0569,742.37,2286.0569,738.37,2282.0569,742.37,2291.0569" style="stroke:#687385;stroke-width:1;"/></g><!--link User to UC_Attach--><g class="link" data-entity-1="ent0003" data-entity-2="ent0027" data-link-type="dependency" data-source-line="87" id="lnk53"><path d="M636.37,1872.9169 C636.37,1793.3569 636.37,1617.7569 636.37,1617.7569 C636.37,1617.7569 755.59,1617.7569 830.92,1617.7569" fill="none" id="User-to-UC_Attach" style="stroke:#687385;stroke-width:1;"/><polygon fill="#687385" points="836.92,1617.7569,827.92,1613.7569,831.92,1617.7569,827.92,1621.7569,836.92,1617.7569" style="stroke:#687385;stroke-width:1;"/></g><!--link User to UC_Realtime--><g class="link" data-entity-1="ent0003" data-entity-2="ent0028" data-link-type="dependency" data-source-line="88" id="lnk54"><path d="M679.82,1943.4069 C743.31,1943.4069 809.37,1943.4069 809.37,1943.4069 C809.37,1943.4069 809.37,2130.8169 809.37,2180.6869" fill="none" id="User-to-UC_Realtime" style="stroke:#687385;stroke-width:1;"/><polygon fill="#687385" points="809.37,2186.6869,813.37,2177.6869,809.37,2181.6869,805.37,2177.6869,809.37,2186.6869" style="stroke:#687385;stroke-width:1;"/></g><!--link User to UC_Search--><g class="link" data-entity-1="ent0003" data-entity-2="ent0029" data-link-type="dependency" data-source-line="89" id="lnk55"><path d="M679.75,1911.2969 C710.2,1911.2969 737.11,1911.2969 767.75,1911.2969" fill="none" id="User-to-UC_Search" style="stroke:#687385;stroke-width:1;"/><polygon fill="#687385" points="773.75,1911.2969,764.75,1907.2969,768.75,1911.2969,764.75,1915.2969,773.75,1911.2969" style="stroke:#687385;stroke-width:1;"/></g><!--link User to UC_GroupMembership--><g class="link" data-entity-1="ent0003" data-entity-2="ent0032" data-link-type="dependency" data-source-line="90" id="lnk56"><path d="M625.37,1872.9969 C625.37,1755.3869 625.37,1407.2969 625.37,1407.2969 C625.37,1407.2969 703.01,1407.2969 776.69,1407.2969" fill="none" id="User-to-UC_GroupMembership" style="stroke:#687385;stroke-width:1;"/><polygon fill="#687385" points="782.69,1407.2969,773.69,1403.2969,777.69,1407.2969,773.69,1411.2969,782.69,1407.2969" style="stroke:#687385;stroke-width:1;"/></g><!--link Moderator to UC_Invites--><g class="link" data-entity-1="ent0004" data-entity-2="ent0033" data-link-type="dependency" data-source-line="92" id="lnk57"><path d="M307.37,1077.7969 C307.37,1051.8369 307.37,1022.2969 307.37,1022.2969 C307.37,1022.2969 643.48,1022.2969 804.52,1022.2969" fill="none" id="Moderator-to-UC_Invites" style="stroke:#687385;stroke-width:1;"/><polygon fill="#687385" points="810.52,1022.2969,801.52,1018.2969,805.52,1022.2969,801.52,1026.2969,810.52,1022.2969" style="stroke:#687385;stroke-width:1;"/></g><!--link Moderator to UC_JoinRequests--><g class="link" data-entity-1="ent0004" data-entity-2="ent0034" data-link-type="dependency" data-source-line="93" id="lnk58"><path d="M334.42,1116.2969 C425.58,1116.2969 641,1116.2969 775.93,1116.2969" fill="none" id="Moderator-to-UC_JoinRequests" style="stroke:#687385;stroke-width:1;"/><polygon fill="#687385" points="781.93,1116.2969,772.93,1112.2969,776.93,1116.2969,772.93,1120.2969,781.93,1116.2969" style="stroke:#687385;stroke-width:1;"/></g><!--link Moderator to UC_Roles--><g class="link" data-entity-1="ent0004" data-entity-2="ent0035" data-link-type="dependency" data-source-line="94" id="lnk59"><path d="M334.63,1084.9869 C456.31,1084.9869 804.37,1084.9869 804.37,1084.9869 C804.37,1084.9869 804.37,979.2469 804.37,943.8869" fill="none" id="Moderator-to-UC_Roles" style="stroke:#687385;stroke-width:1;"/><polygon fill="#687385" points="804.37,937.8869,800.37,946.8869,804.37,942.8869,808.37,946.8869,804.37,937.8869" style="stroke:#687385;stroke-width:1;"/></g><!--link Moderator to UC_Moderate--><g class="link" data-entity-1="ent0004" data-entity-2="ent0036" data-link-type="dependency" data-source-line="95" id="lnk60"><path d="M334.41,1145.3269 C450.39,1145.3269 771.37,1145.3269 771.37,1145.3269 C771.37,1145.3269 771.37,1265.9869 771.37,1296.6669" fill="none" id="Moderator-to-UC_Moderate" style="stroke:#687385;stroke-width:1;"/><polygon fill="#687385" points="771.37,1302.6669,775.37,1293.6669,771.37,1297.6669,767.37,1293.6669,771.37,1302.6669" style="stroke:#687385;stroke-width:1;"/></g><!--link Moderator to UC_Pins--><g class="link" data-entity-1="ent0004" data-entity-2="ent0037" data-link-type="dependency" data-source-line="96" id="lnk61"><path d="M293.37,1154.9369 C293.37,1181.2369 293.37,1211.2969 293.37,1211.2969 C293.37,1211.2969 597.3,1211.2969 771.33,1211.2969" fill="none" id="Moderator-to-UC_Pins" style="stroke:#687385;stroke-width:1;"/><polygon fill="#687385" points="777.33,1211.2969,768.33,1207.2969,772.33,1211.2969,768.33,1215.2969,777.33,1211.2969" style="stroke:#687385;stroke-width:1;"/></g><!--link Owner to UC_GroupCrud--><g class="link" data-entity-1="ent0005" data-entity-2="ent0031" data-link-type="dependency" data-source-line="98" id="lnk62"><path d="M137.13,800.6969 C314.61,800.6969 790.37,800.6969 790.37,800.6969 C790.37,800.6969 790.37,769.9069 790.37,752.3769" fill="none" id="Owner-to-UC_GroupCrud" style="stroke:#687385;stroke-width:1;"/><polygon fill="#687385" points="790.37,746.3769,786.37,755.3769,790.37,751.3769,794.37,755.3769,790.37,746.3769" style="stroke:#687385;stroke-width:1;"/></g><!--link Owner to UC_Transfer--><g class="link" data-entity-1="ent0005" data-entity-2="ent0038" data-link-type="dependency" data-source-line="99" id="lnk63"><path d="M137.23,832.2969 C292.01,832.2969 671.53,832.2969 823.49,832.2969" fill="none" id="Owner-to-UC_Transfer" style="stroke:#687385;stroke-width:1;"/><polygon fill="#687385" points="829.49,832.2969,820.49,828.2969,824.49,832.2969,820.49,836.2969,829.49,832.2969" style="stroke:#687385;stroke-width:1;"/></g><!--link Admin to UC_Audit--><g class="link" data-entity-1="ent0006" data-entity-2="ent0040" data-link-type="dependency" data-source-line="101" id="lnk64"><path d="M293.37,2002.7569 C293.37,2115.0069 293.37,2434.2969 293.37,2434.2969 C293.37,2434.2969 649.4,2434.2969 810.61,2434.2969" fill="none" id="Admin-to-UC_Audit" style="stroke:#687385;stroke-width:1;"/><polygon fill="#687385" points="816.61,2434.2969,807.61,2430.2969,811.61,2434.2969,807.61,2438.2969,816.61,2434.2969" style="stroke:#687385;stroke-width:1;"/></g><!--link Monitoring to UC_Metrics--><g class="link" data-entity-1="ent0008" data-entity-2="ent0041" data-link-type="dependency" data-source-line="102" id="lnk65"><path d="M643.56,2528.2969 C689.71,2528.2969 742.26,2528.2969 790.99,2528.2969" fill="none" id="Monitoring-to-UC_Metrics" style="stroke:#687385;stroke-width:1;"/><polygon fill="#687385" points="796.99,2528.2969,787.99,2524.2969,791.99,2528.2969,787.99,2532.2969,796.99,2528.2969" style="stroke:#687385;stroke-width:1;"/></g><!--link Google to UC_GoogleLogin--><g class="link" data-entity-1="ent0007" data-entity-2="ent0019" data-link-type="dependency" data-source-line="103" id="lnk66"><path d="M613.7,621.2569 C669.53,621.2569 755.06,621.2569 817.92,621.2569" fill="none" id="Google-to-UC_GoogleLogin" style="stroke:#687385;stroke-width:1;"/><polygon fill="#687385" points="823.92,621.2569,814.92,617.2569,818.92,621.2569,814.92,625.2569,823.92,621.2569" style="stroke:#687385;stroke-width:1;"/></g><!--link UC_Direct to UC_ResolveTarget--><g class="link" data-entity-1="ent0024" data-entity-2="ent0023" data-link-type="dependency" data-source-line="105" id="lnk67"><path d="M849.52,1989.1669 C811.62,1989.1669 762.37,1989.1669 762.37,1989.1669 C762.37,1989.1669 762.37,1539.3369 762.37,1539.3369 C762.37,1539.3369 771.4,1539.3369 791.24,1539.3369" fill="none" id="UC_Direct-to-UC_ResolveTarget" style="stroke:#687385;stroke-width:1;stroke-dasharray:7,7;"/><polygon fill="#687385" points="797.24,1539.3369,788.24,1535.3369,792.24,1539.3369,788.24,1543.3369,797.24,1539.3369" style="stroke:#687385;stroke-width:1;"/><text fill="#000000" font-family="Arial" font-size="13" lengthAdjust="spacing" textLength="63.0068" x="698.37" y="1803.4638">&#171;include&#187;</text></g><!--link UC_GroupChat to UC_ResolveTarget--><g class="link" data-entity-1="ent0025" data-entity-2="ent0023" data-link-type="dependency" data-source-line="106" id="lnk68"><path d="M817.51,2104.2969 C785.5,2104.2969 755.37,2104.2969 755.37,2104.2969 C755.37,2104.2969 755.37,1523.2569 755.37,1523.2569 C755.37,1523.2569 767.86,1523.2569 791.26,1523.2569" fill="none" id="UC_GroupChat-to-UC_ResolveTarget" style="stroke:#687385;stroke-width:1;stroke-dasharray:7,7;"/><polygon fill="#687385" points="797.26,1523.2569,788.26,1519.2569,792.26,1523.2569,788.26,1527.2569,797.26,1523.2569" style="stroke:#687385;stroke-width:1;"/><text fill="#000000" font-family="Arial" font-size="13" lengthAdjust="spacing" textLength="63.0068" x="691.37" y="1836.9738">&#171;include&#187;</text></g><!--link UC_Attach to UC_Message--><g class="link" data-entity-1="ent0027" data-entity-2="ent0026" data-link-type="dependency" data-source-line="107" id="lnk69"><path d="M837.16,1634.8369 C796.88,1634.8369 749.37,1634.8369 749.37,1634.8369 C749.37,1634.8369 749.37,2184.4869 749.37,2281.0669" fill="none" id="UC_Attach-to-UC_Message" style="stroke:#687385;stroke-width:1;stroke-dasharray:7,7;"/><polygon fill="#687385" points="749.37,2287.0669,753.37,2278.0669,749.37,2282.0669,745.37,2278.0669,749.37,2287.0669" style="stroke:#687385;stroke-width:1;"/><text fill="#000000" font-family="Arial" font-size="13" lengthAdjust="spacing" textLength="61.1851" x="687.37" y="1930.1238">&#171;extend&#187;</text></g><!--link UC_Message to UC_Realtime--><g class="link" data-entity-1="ent0026" data-entity-2="ent0028" data-link-type="dependency" data-source-line="108" id="lnk70"><path d="M893.37,2267.2869 C893.37,2252.7569 893.37,2242.1169 893.37,2228.8169" fill="none" id="UC_Message-to-UC_Realtime" style="stroke:#687385;stroke-width:1;stroke-dasharray:7,7;"/><polygon fill="#687385" points="893.37,2222.8169,889.37,2231.8169,893.37,2227.8169,897.37,2231.8169,893.37,2222.8169" style="stroke:#687385;stroke-width:1;"/><text fill="#000000" font-family="Arial" font-size="13" lengthAdjust="spacing" textLength="63.0068" x="829.37" y="2258.1138">&#171;include&#187;</text></g><!--link UC_Moderate to UC_Roles--><g class="link" data-entity-1="ent0036" data-entity-2="ent0035" data-link-type="dependency" data-source-line="109" id="lnk71"><path d="M775.37,1299.8569 C775.37,1241.0269 775.37,927.2969 775.37,927.2969 C775.37,927.2969 777.63,927.2969 789.77,927.2969" fill="none" id="UC_Moderate-to-UC_Roles" style="stroke:#687385;stroke-width:1;stroke-dasharray:7,7;"/><polygon fill="#687385" points="795.77,927.2969,786.77,923.2969,790.77,927.2969,786.77,931.2969,795.77,927.2969" style="stroke:#687385;stroke-width:1;"/><text fill="#000000" font-family="Arial" font-size="13" lengthAdjust="spacing" textLength="63.0068" x="711.37" y="1116.4438">&#171;include&#187;</text></g><?plantuml-src bLTHRzn447w_Nx4AhqdLKafQL9qKMZK2KHgbwLibvDXxTwlux6Ezbr01KjA30ahKeF803oXGyS0JadFDDPUxvFeNx7_4pApNNjjNKlgGnhEptyv-yytiH0dbStQNRmi_OkiyKY9eioMM7ALxoKKoIuR9HRgVZ1Zy4gUxoJY9mV0qtMV963pUWCSqFKXEoHEMm7hOy7bBCHKoATeTnJmXkQj463IYBH7q7EbqMTHnl707ZsevViIjbKt7tMhBi1zuTq8_bEoz5lspF7mHSFManraeLIUq5ZpUSlg-sk1VgHLVj8Ck3nHpuGUNbbSGUZpYFVR13SiedM0BZJTAHep23MN09RjsrLfOaJBSoSBxyERozPitwb7S2mFrkTFbu2mStrhlmGMTDd-edW3lo8mJj7rUTs1VDnZxE9GUbzbHxatlghU9rXf7owrRBHTMyDJCTgtr_gthourlBUH-n5qdceDygxLvrLsUYwpPdu_SS5m5XeNabsIMxe4g3XQO4x7LFiWeN_iv6QPFOHsrKyW4HNN6gle1nn5-4yoZ2F9cK7u7XvDa12YnHYEN-v1BwO17xlSYcGB-2SA0zpEMl4ftqm6SyoRTfoqFTW8BzYMgc4uzDo7XxdE8zK8lLKvSyReYCDjNmn1Innwiz5L7tvmC1JeXJnXWnSanNEmvOCTq6F6LZBDR108sG3Kq6lcDsDBIDqtD0OMiluiBKo2MKoEN4bieL_C2vTkeAayMX344Kk769rdsW2RjotAbB2H_006m3277HCPOvoazU1m0fmEy5X3rW-aILReVtVbYhR_f2tSLLDMBAk1_mzQdRu4RfCzPCe48pv4-3AyCk1w6tGhS4O1D883z8aQus1vyJy4-M88Jy0AlK2FfZq00v3WP6TXFWcsX-9e4ylXE1VbFS7wL2sACd5Wyn13d1Bu6s1eDt3flYmXRJndfHVezINcCUwa068GpGtIyDA2DqHhJ4Q0O0_TPs0RX_HSMi8RrCKfE7mTQY6Ql_Z88KBUs7An63pyXXRFaEFsf8ASgYB-8nHZyf-bXTWdIo7VWFqLnqnq0TOJa8qXobgTEXYq15N8fv0dfw3GzI0-n6ZKjnyJK9ESVECT50tvF2XvuKIrrCU00Bv3nM8FZLV4JRtX6-JiXXpta4AizBf8OXVustt1acwlBrMRLmbc6PP3kqYlu3X1v1T4LPpKWAgGx7MSULeN6HKPwm9upmMvZotOHQcD0IuPpoDNCJdvwo2YFo0VioaI6W0Zt3BZBcR_FemZKL8deLt3KjtcTtsv8ANnjJZ00AqevRgVQUgW21lhwS7PFmiCTk9p48BdZiKWvYXUvSdmbkjKeVeDxJKpcvxutAD15ctcQRkRmOKvwo1r9qLPAoTAngHzMokTPlPnUWlcKyc0Im-YXF4S4dHbTJ-LaMS4EoigGVQ_M9hBkdkk_j1tXKRXWJ_VBtGa2mSThL3H9EkC-xsvo6NL4xx92fgvUwxcwfijzjrgsHq3yBZsR6BHT8AVmso5L_vXULepRN71QRUgVXY9Ovr_YH19TsdModbjqd72RIobWNcJ6DnTRwDT2BcQKKgMnJC9OI1WRlcb3X2TXGel7ngsZNiGU1-CH_7yEk_AQpvxzUGKseOfyKmW3I9dfjcBRyILycvpNH13LIc-KjuvXgNZrS5NYU0EcvwX5Brsb8Fw1CFOeY87kgzWsyE3_CsN49FrnmSPAtnDgJXaT4--Png5-CgH9bimEzeVEajlXxbRHk9GKRaIHG-mqkS9GrQpDBNDMQ00fsSiJH6afdmPALlqabqpsMzt0oIu_D7iwRPjvyMnRzj3OfkB9iAscQTksh0_RfhojsiQi0zOEiJf3QPHjseLUMoWLQMrLbrhDdDT4RONqd4_DpN9hB9bpvURZTBCGM36M5unfjMHp_zoCcGImAytQ0C4-OhTlYy3r-nvlDXjsPjxDNQSdyytoHrxm9oy8GJiP-vLI-kfWXa3ZY3INlVu5?></g></svg>