<?plantuml 1.2026.1?><svg xmlns="http://www.w3.org/2000/svg" xmlns:xlink="http://www.w3.org/1999/xlink" contentStyleType="text/css" data-diagram-type="DESCRIPTION" height="2386px" preserveAspectRatio="none" style="width:866px;height:2386px;background:#FFFFFF;" version="1.1" viewBox="0 0 866 2386" width="866px" zoomAndPan="magnify"><title>Devils Resting - Primary Use Cases</title><defs/><g><g class="title" data-source-line="1"><text fill="#000000" font-family="sans-serif" font-size="14" font-weight="bold" lengthAdjust="spacing" textLength="275.5498" x="288.6385" y="22.9951">Devils Resting - Primary Use Cases</text></g><!--cluster Devils Resting--><g class="cluster" data-qualified-name="Devils Resting" data-source-line="35" id="ent0012"><rect fill="#F7F9FC" height="2336" rx="5" ry="5" style="stroke:#C8D0DB;stroke-width:1;" width="293.09" x="512.73" y="44.2969"/><text fill="#000000" font-family="sans-serif" font-size="14" font-weight="bold" lengthAdjust="spacing" textLength="113.1348" x="602.7076" y="59.292">Devils Resting</text></g><!--cluster Guest Access--><g class="cluster" data-qualified-name="Devils Resting.Guest Access" data-source-line="36" id="ent0013"><rect fill="#F7F9FC" height="498" rx="5" ry="5" style="stroke:#C8D0DB;stroke-width:1;" width="209.21" x="554.67" y="87.2969"/><text fill="#000000" font-family="sans-serif" font-size="14" font-weight="bold" lengthAdjust="spacing" textLength="104.4463" x="607.0519" y="102.292">Guest Access</text></g><!--cluster Core Communication--><g class="cluster" data-qualified-name="Devils Resting.Core Communication" data-source-line="45" id="ent0020"><rect fill="#F7F9FC" height="807" rx="5" ry="5" style="stroke:#C8D0DB;stroke-width:1;" width="245.09" x="536.73" y="1344.2969"/><text fill="#000000" font-family="sans-serif" font-size="14" font-weight="bold" lengthAdjust="spacing" textLength="163.7891" x="577.3805" y="1359.292">Core Communication</text></g><!--cluster Group Administration--><g class="cluster" data-qualified-name="Devils Resting.Group Administration" data-source-line="57" id="ent0030"><rect fill="#F7F9FC" height="711" rx="5" ry="5" style="stroke:#C8D0DB;stroke-width:1;" width="226.97" x="545.79" y="609.2969"/><text fill="#000000" font-family="sans-serif" font-size="14" font-weight="bold" lengthAdjust="spacing" textLength="170.3379" x="574.1061" y="624.292">Group Administration</text></g><!--cluster Operations--><g class="cluster" data-qualified-name="Devils Resting.Operations" data-source-line="68" id="ent0039"><rect fill="#F7F9FC" height="181" rx="5" ry="5" style="stroke:#C8D0DB;stroke-width:1;" width="185.37" x="566.59" y="2175.2969"/><text fill="#000000" font-family="sans-serif" font-size="14" font-weight="bold" lengthAdjust="spacing" textLength="87.1787" x="615.6856" y="2190.292">Operations</text></g><!--entity UC_PublicGroups--><g class="entity" data-qualified-name="Devils Resting.Guest Access.UC_PublicGroups" data-source-line="37" id="ent0014"><ellipse cx="659.2816" cy="306.2972" fill="#FFFFFF" rx="88.6016" ry="20.1203" style="stroke:#9FB0C7;stroke-width:0.5;"/><text fill="#1F2937" font-family="sans-serif" font-size="14" lengthAdjust="spacing" textLength="150.5684" x="583.9974" y="310.9456">Browse public groups</text></g><!--entity UC_PublicRoom--><g class="entity" data-qualified-name="Devils Resting.Guest Access.UC_PublicRoom" data-source-line="38" id="ent0015"><ellipse cx="659.2819" cy="389.3013" fill="#FFFFFF" rx="75.9719" ry="17.5944" style="stroke:#9FB0C7;stroke-width:0.5;"/><text fill="#1F2937" font-family="sans-serif" font-size="14" lengthAdjust="spacing" textLength="121.0781" x="598.7429" y="393.9497">View public room</text></g><!--entity UC_InvitePreview--><g class="entity" data-qualified-name="Devils Resting.Guest Access.UC_InvitePreview" data-source-line="39" id="ent0016"><ellipse cx="659.2824" cy="470.2994" fill="#FFFFFF" rx="78.7624" ry="18.1525" style="stroke:#9FB0C7;stroke-width:0.5;"/><text fill="#1F2937" font-family="sans-serif" font-size="14" lengthAdjust="spacing" textLength="127.75" x="595.4074" y="474.9478">Preview invite link</text></g><!--entity UC_Register--><g class="entity" data-qualified-name="Devils Resting.Guest Access.UC_Register" data-source-line="40" id="ent0017"><ellipse cx="659.2837" cy="139.2976" fill="#FFFFFF" rx="74.9037" ry="17.3807" style="stroke:#9FB0C7;stroke-width:0.5;"/><text fill="#1F2937" font-family="sans-serif" font-size="14" lengthAdjust="spacing" textLength="118.4941" x="600.0366" y="143.9461">Register account</text></g><!--entity UC_Login--><g class="entity" data-qualified-name="Devils Resting.Guest Access.UC_Login" data-source-line="41" id="ent0018"><ellipse cx="659.2762" cy="221.2941" fill="#FFFFFF" rx="85.4362" ry="19.4872" style="stroke:#9FB0C7;stroke-width:0.5;"/><text fill="#1F2937" font-family="sans-serif" font-size="14" lengthAdjust="spacing" textLength="143.3291" x="587.6117" y="225.9426">Login with password</text></g><!--entity UC_GoogleLogin--><g class="entity" data-qualified-name="Devils Resting.Guest Access.UC_GoogleLogin" data-source-line="42" id="ent0019"><ellipse cx="659.2804" cy="551.301" fill="#FFFFFF" rx="78.0204" ry="18.0041" style="stroke:#9FB0C7;stroke-width:0.5;"/><text fill="#1F2937" font-family="sans-serif" font-size="14" lengthAdjust="spacing" textLength="125.9863" x="596.2873" y="555.9494">Login with Google</text></g><!--entity UC_Profile--><g class="entity" data-qualified-name="Devils Resting.Core Communication.UC_Profile" data-source-line="46" id="ent0021"><ellipse cx="659.285" cy="1570.2973" fill="#FFFFFF" rx="73.565" ry="24.9904" style="stroke:#9FB0C7;stroke-width:0.5;"/><text fill="#1F2937" font-family="sans-serif" font-size="14" lengthAdjust="spacing" textLength="104.5898" x="606.9901" y="1568.3297">Manage profile</text><text fill="#1F2937" font-family="sans-serif" font-size="14" lengthAdjust="spacing" textLength="82.6123" x="617.9788" y="1584.6265">and session</text></g><!--entity UC_Friends--><g class="entity" data-qualified-name="Devils Resting.Core Communication.UC_Friends" data-source-line="47" id="ent0022"><ellipse cx="659.2783" cy="1665.2948" fill="#FFFFFF" rx="74.7983" ry="24.6079" style="stroke:#9FB0C7;stroke-width:0.5;"/><text fill="#1F2937" font-family="sans-serif" font-size="14" lengthAdjust="spacing" textLength="108.3018" x="605.1274" y="1663.9032">Manage friends</text><text fill="#1F2937" font-family="sans-serif" font-size="14" lengthAdjust="spacing" textLength="75.2295" x="621.6635" y="1680.2">and blocks</text></g><!--entity UC_ResolveTarget--><g class="entity" data-qualified-name="Devils Resting.Core Communication.UC_ResolveTarget" data-source-line="48" id="ent0023"><ellipse cx="659.277" cy="1398.2963" fill="#FFFFFF" rx="82.847" ry="18.9694" style="stroke:#9FB0C7;stroke-width:0.5;"/><text fill="#1F2937" font-family="sans-serif" font-size="14" lengthAdjust="spacing" textLength="137.3408" x="590.6066" y="1402.9447">Resolve chat target</text></g><!--entity UC_Direct--><g class="entity" data-qualified-name="Devils Resting.Core Communication.UC_Direct" data-source-line="49" id="ent0024"><ellipse cx="659.2776" cy="1846.2964" fill="#FFFFFF" rx="74.3976" ry="17.2795" style="stroke:#9FB0C7;stroke-width:0.5;"/><text fill="#1F2937" font-family="sans-serif" font-size="14" lengthAdjust="spacing" textLength="117.2637" x="600.6458" y="1850.9448">Open direct chat</text></g><!--entity UC_GroupChat--><g class="entity" data-qualified-name="Devils Resting.Core Communication.UC_GroupChat" data-source-line="50" id="ent0025"><ellipse cx="659.2789" cy="1926.2986" fill="#FFFFFF" rx="74.6589" ry="17.3318" style="stroke:#9FB0C7;stroke-width:0.5;"/><text fill="#1F2937" font-family="sans-serif" font-size="14" lengthAdjust="spacing" textLength="117.8994" x="600.3292" y="1930.9471">Open group chat</text></g><!--entity UC_Message--><g class="entity" data-qualified-name="Devils Resting.Core Communication.UC_Message" data-source-line="51" id="ent0026"><ellipse cx="659.2817" cy="2110.2938" fill="#FFFFFF" rx="106.5417" ry="25.0869" style="stroke:#9FB0C7;stroke-width:0.5;"/><text fill="#1F2937" font-family="sans-serif" font-size="14" lengthAdjust="spacing" textLength="124.0449" x="597.2592" y="2105.4047">Send, edit, delete</text><text fill="#1F2937" font-family="sans-serif" font-size="14" lengthAdjust="spacing" textLength="152.7969" x="582.8832" y="2121.7016">and react to message</text></g><!--entity UC_Attach--><g class="entity" data-qualified-name="Devils Resting.Core Communication.UC_Attach" data-source-line="52" id="ent0027"><ellipse cx="659.2809" cy="1481.299" fill="#FFFFFF" rx="84.9109" ry="19.3822" style="stroke:#9FB0C7;stroke-width:0.5;"/><text fill="#1F2937" font-family="sans-serif" font-size="14" lengthAdjust="spacing" textLength="142.1191" x="588.2213" y="1485.9475">Upload attachments</text></g><!--entity UC_Realtime--><g class="entity" data-qualified-name="Devils Resting.Core Communication.UC_Realtime" data-source-line="53" id="ent0028"><ellipse cx="659.2758" cy="2014.2964" fill="#FFFFFF" rx="78.1558" ry="25.7895" style="stroke:#9FB0C7;stroke-width:0.5;"/><text fill="#1F2937" font-family="sans-serif" font-size="14" lengthAdjust="spacing" textLength="107.4883" x="605.5316" y="2011.163">Track presence</text><text fill="#1F2937" font-family="sans-serif" font-size="14" lengthAdjust="spacing" textLength="102.5391" x="608.0063" y="2027.4598">and read state</text></g><!--entity UC_Search--><g class="entity" data-qualified-name="Devils Resting.Core Communication.UC_Search" data-source-line="54" id="ent0029"><ellipse cx="659.279" cy="1759.3009" fill="#FFFFFF" rx="103.659" ry="24.344" style="stroke:#9FB0C7;stroke-width:0.5;"/><text fill="#1F2937" font-family="sans-serif" font-size="14" lengthAdjust="spacing" textLength="95.1357" x="611.7111" y="1753.2874">Search users,</text><text fill="#1F2937" font-family="sans-serif" font-size="14" lengthAdjust="spacing" textLength="153.7129" x="582.4226" y="1769.5842">groups and messages</text></g><!--entity UC_GroupCrud--><g class="entity" data-qualified-name="Devils Resting.Group Administration.UC_GroupCrud" data-source-line="58" id="ent0031"><ellipse cx="659.2762" cy="669.3002" fill="#FFFFFF" rx="85.5862" ry="25.3734" style="stroke:#9FB0C7;stroke-width:0.5;"/><text fill="#1F2937" font-family="sans-serif" font-size="14" lengthAdjust="spacing" textLength="105.0547" x="606.7489" y="664.8324">Create, update</text><text fill="#1F2937" font-family="sans-serif" font-size="14" lengthAdjust="spacing" textLength="120.3125" x="599.12" y="681.1293">and delete group</text></g><!--entity UC_GroupMembership--><g class="entity" data-qualified-name="Devils Resting.Group Administration.UC_GroupMembership" data-source-line="59" id="ent0032"><ellipse cx="659.2752" cy="1285.2959" fill="#FFFFFF" rx="80.5952" ry="18.519" style="stroke:#9FB0C7;stroke-width:0.5;"/><text fill="#1F2937" font-family="sans-serif" font-size="14" lengthAdjust="spacing" textLength="132.0771" x="593.2367" y="1289.9444">Join or leave group</text></g><!--entity UC_Invites--><g class="entity" data-qualified-name="Devils Resting.Group Administration.UC_Invites" data-source-line="60" id="ent0033"><ellipse cx="659.2765" cy="935.2982" fill="#FFFFFF" rx="70.0065" ry="16.4013" style="stroke:#9FB0C7;stroke-width:0.5;"/><text fill="#1F2937" font-family="sans-serif" font-size="14" lengthAdjust="spacing" textLength="106.3945" x="606.0793" y="939.9466">Manage invites</text></g><!--entity UC_JoinRequests--><g class="entity" data-qualified-name="Devils Resting.Group Administration.UC_JoinRequests" data-source-line="61" id="ent0034"><ellipse cx="659.277" cy="1017.2963" fill="#FFFFFF" rx="89.897" ry="20.3794" style="stroke:#9FB0C7;stroke-width:0.5;"/><text fill="#1F2937" font-family="sans-serif" font-size="14" lengthAdjust="spacing" textLength="153.5078" x="582.5231" y="1021.9447">Approve join requests</text></g><!--entity UC_Roles--><g class="entity" data-qualified-name="Devils Resting.Group Administration.UC_Roles" data-source-line="62" id="ent0035"><ellipse cx="659.2839" cy="848.3005" fill="#FFFFFF" rx="70.8039" ry="25.9137" style="stroke:#9FB0C7;stroke-width:0.5;"/><text fill="#1F2937" font-family="sans-serif" font-size="14" lengthAdjust="spacing" textLength="94.1787" x="612.1945" y="844.6111">Manage roles</text><text fill="#1F2937" font-family="sans-serif" font-size="14" lengthAdjust="spacing" textLength="96.4482" x="611.0598" y="860.9079">and overrides</text></g><!--entity UC_Moderate--><g class="entity" data-qualified-name="Devils Resting.Group Administration.UC_Moderate" data-source-line="63" id="ent0036"><ellipse cx="659.2753" cy="1196.2964" fill="#FFFFFF" rx="95.7453" ry="24.9895" style="stroke:#9FB0C7;stroke-width:0.5;"/><text fill="#1F2937" font-family="sans-serif" font-size="14" lengthAdjust="spacing" textLength="137.4707" x="590.5399" y="1194.3301">Moderate members</text><text fill="#1F2937" font-family="sans-serif" font-size="14" lengthAdjust="spacing" textLength="108.5547" x="604.9979" y="1210.627">kick, ban, mute</text></g><!--entity UC_Pins--><g class="entity" data-qualified-name="Devils Resting.Group Administration.UC_Pins" data-source-line="64" id="ent0037"><ellipse cx="659.2763" cy="1104.2941" fill="#FFFFFF" rx="97.4863" ry="21.8973" style="stroke:#9FB0C7;stroke-width:0.5;"/><text fill="#1F2937" font-family="sans-serif" font-size="14" lengthAdjust="spacing" textLength="170.502" x="574.0253" y="1108.9426">Pin and unpin messages</text></g><!--entity UC_Transfer--><g class="entity" data-qualified-name="Devils Resting.Group Administration.UC_Transfer" data-source-line="65" id="ent0038"><ellipse cx="659.284" cy="758.2957" fill="#FFFFFF" rx="81.844" ry="18.7688" style="stroke:#9FB0C7;stroke-width:0.5;"/><text fill="#1F2937" font-family="sans-serif" font-size="14" lengthAdjust="spacing" textLength="135.0029" x="591.7825" y="762.9441">Transfer ownership</text></g><!--entity UC_Audit--><g class="entity" data-qualified-name="Devils Resting.Operations.UC_Audit" data-source-line="69" id="ent0040"><ellipse cx="659.2781" cy="2228.2945" fill="#FFFFFF" rx="76.6881" ry="17.7376" style="stroke:#9FB0C7;stroke-width:0.5;"/><text fill="#1F2937" font-family="sans-serif" font-size="14" lengthAdjust="spacing" textLength="122.8008" x="597.8777" y="2232.9429">Review audit trail</text></g><!--entity UC_Metrics--><g class="entity" data-qualified-name="Devils Resting.Operations.UC_Metrics" data-source-line="70" id="ent0041"><ellipse cx="659.2842" cy="2315.2996" fill="#FFFFFF" rx="72.7142" ry="24.6927" style="stroke:#9FB0C7;stroke-width:0.5;"/><text fill="#1F2937" font-family="sans-serif" font-size="14" lengthAdjust="spacing" textLength="104.7471" x="606.9107" y="2313.7791">Collect metrics</text><text fill="#1F2937" font-family="sans-serif" font-size="14" lengthAdjust="spacing" textLength="75.1064" x="621.731" y="2330.076">and health</text></g><!--entity Guest--><g class="entity" data-qualified-name="Guest" data-source-line="23" id="ent0002"><ellipse cx="429.0791" cy="318.6469" fill="#F1F1F1" rx="8" ry="8" style="stroke:#181818;stroke-width:0.5;"/><path d="M429.0791,326.6469 L429.0791,353.6469 M416.0791,334.6469 L442.0791,334.6469 M429.0791,353.6469 L416.0791,368.6469 M429.0791,353.6469 L442.0791,368.6469" fill="none" style="stroke:#181818;stroke-width:0.5;"/><text fill="#000000" font-family="sans-serif" font-size="14" lengthAdjust="spacing" textLength="41.1182" x="408.52" y="383.142">Guest</text></g><!--entity User--><g class="entity" data-qualified-name="User" data-source-line="24" id="ent0003"><ellipse cx="429.0819" cy="1729.6469" fill="#F1F1F1" rx="8" ry="8" style="stroke:#181818;stroke-width:0.5;"/><path d="M429.0819,1737.6469 L429.0819,1764.6469 M416.0819,1745.6469 L442.0819,1745.6469 M429.0819,1764.6469 L416.0819,1779.6469 M429.0819,1764.6469 L442.0819,1779.6469" fill="none" style="stroke:#181818;stroke-width:0.5;"/><text fill="#000000" font-family="sans-serif" font-size="14" lengthAdjust="spacing" textLength="135.3037" x="361.43" y="1794.142">Authenticated User</text></g><!--entity Moderator--><g class="entity" data-qualified-name="Moderator" data-source-line="25" id="ent0004"><ellipse cx="230.265" cy="998.6469" fill="#F1F1F1" rx="8" ry="8" style="stroke:#181818;stroke-width:0.5;"/><path d="M230.265,1006.6469 L230.265,1033.6469 M217.265,1014.6469 L243.265,1014.6469 M230.265,1033.6469 L217.265,1048.6469 M230.265,1033.6469 L243.265,1048.6469" fill="none" style="stroke:#181818;stroke-width:0.5;"/><text fill="#000000" font-family="sans-serif" font-size="14" lengthAdjust="spacing" textLength="72.29" x="194.12" y="1063.142">Moderator</text></g><!--entity Owner--><g class="entity" data-qualified-name="Owner" data-source-line="26" id="ent0005"><ellipse cx="52.5459" cy="725.6469" fill="#F1F1F1" rx="8" ry="8" style="stroke:#181818;stroke-width:0.5;"/><path d="M52.5459,733.6469 L52.5459,760.6469 M39.5459,741.6469 L65.5459,741.6469 M52.5459,760.6469 L39.5459,775.6469 M52.5459,760.6469 L65.5459,775.6469" fill="none" style="stroke:#181818;stroke-width:0.5;"/><text fill="#000000" font-family="sans-serif" font-size="14" lengthAdjust="spacing" textLength="93.0918" x="6" y="790.142">Group Owner</text></g><!--entity Admin--><g class="entity" data-qualified-name="Admin" data-source-line="27" id="ent0006"><ellipse cx="230.2594" cy="1782.6469" fill="#F1F1F1" rx="8" ry="8" style="stroke:#181818;stroke-width:0.5;"/><path d="M230.2594,1790.6469 L230.2594,1817.6469 M217.2594,1798.6469 L243.2594,1798.6469 M230.2594,1817.6469 L217.2594,1832.6469 M230.2594,1817.6469 L243.2594,1832.6469" fill="none" style="stroke:#181818;stroke-width:0.5;"/><text fill="#000000" font-family="sans-serif" font-size="14" lengthAdjust="spacing" textLength="152.3389" x="154.09" y="1847.142">System Administrator</text></g><!--entity Google--><g class="entity" data-qualified-name="Google" data-source-line="28" id="ent0007"><ellipse cx="429.0857" cy="521.6469" fill="#F1F1F1" rx="8" ry="8" style="stroke:#181818;stroke-width:0.5;"/><path d="M429.0857,529.6469 L429.0857,556.6469 M416.0857,537.6469 L442.0857,537.6469 M429.0857,556.6469 L416.0857,571.6469 M429.0857,556.6469 L442.0857,571.6469" fill="none" style="stroke:#181818;stroke-width:0.5;"/><text fill="#000000" font-family="sans-serif" font-size="14" lengthAdjust="spacing" textLength="97.6514" x="380.26" y="586.142">Google OAuth</text></g><!--entity Monitoring--><g class="entity" data-qualified-name="Monitoring" data-source-line="29" id="ent0008"><ellipse cx="429.0786" cy="2285.6469" fill="#F1F1F1" rx="8" ry="8" style="stroke:#181818;stroke-width:0.5;"/><path d="M429.0786,2293.6469 L429.0786,2320.6469 M416.0786,2301.6469 L442.0786,2301.6469 M429.0786,2320.6469 L416.0786,2335.6469 M429.0786,2320.6469 L442.0786,2335.6469" fill="none" style="stroke:#181818;stroke-width:0.5;"/><text fill="#000000" font-family="sans-serif" font-size="14" lengthAdjust="spacing" textLength="118.0771" x="370.04" y="2350.142">Monitoring Stack</text></g><!--link Moderator to User--><g class="link" data-entity-1="ent0004" data-entity-2="ent0003" data-link-type="extension" data-source-line="31" id="lnk9"><path d="M266.72,1056.8569 C308.66,1056.8569 371.82,1056.8569 371.82,1056.8569 C371.82,1056.8569 371.82,1555.8569 371.82,1702.7769" fill="none" id="Moderator-to-User" style="stroke:#687385;stroke-width:1;"/><polygon fill="none" points="371.82,1720.7769,377.82,1702.7769,365.82,1702.7769,371.82,1720.7769" style="stroke:#687385;stroke-width:1;"/></g><!--link Owner to Moderator--><g class="link" data-entity-1="ent0005" data-entity-2="ent0004" data-link-type="extension" data-source-line="32" id="lnk10"><path d="M99.33,785.2569 C146.64,785.2569 212.82,785.2569 212.82,785.2569 C212.82,785.2569 212.82,903.2569 212.82,971.7869" fill="none" id="Owner-to-Moderator" style="stroke:#687385;stroke-width:1;"/><polygon fill="none" points="212.82,989.7869,218.82,971.7869,206.82,971.7869,212.82,989.7869" style="stroke:#687385;stroke-width:1;"/></g><!--link Admin to User--><g class="link" data-entity-1="ent0006" data-entity-2="ent0003" data-link-type="extension" data-source-line="33" id="lnk11"><path d="M306.85,1785.7969 C324.68,1785.7969 325.54,1785.7969 342.98,1785.7969" fill="none" id="Admin-to-User" style="stroke:#687385;stroke-width:1;"/><polygon fill="none" points="360.98,1785.7969,342.98,1779.7969,342.98,1791.7969,360.98,1785.7969" style="stroke:#687385;stroke-width:1;"/></g><!--link Guest to UC_PublicGroups--><g class="link" data-entity-1="ent0002" data-entity-2="ent0014" data-link-type="dependency" data-source-line="74" id="lnk42"><path d="M449.92,318.2869 C480.57,318.2869 533.34,318.2869 580.82,318.2869" fill="none" id="Guest-to-UC_PublicGroups" style="stroke:#687385;stroke-width:1;"/><polygon fill="#687385" points="586.82,318.2869,577.82,314.2869,581.82,318.2869,577.82,322.2869,586.82,318.2869" style="stroke:#687385;stroke-width:1;"/></g><!--link Guest to UC_PublicRoom--><g class="link" data-entity-1="ent0002" data-entity-2="ent0015" data-link-type="dependency" data-source-line="75" id="lnk43"><path d="M449.92,376.6169 C484.67,376.6169 549.54,376.6169 599.15,376.6169" fill="none" id="Guest-to-UC_PublicRoom" style="stroke:#687385;stroke-width:1;"/><polygon fill="#687385" points="605.15,376.6169,596.15,372.6169,600.15,376.6169,596.15,380.6169,605.15,376.6169" style="stroke:#687385;stroke-width:1;"/></g><!--link Guest to UC_InvitePreview--><g class="link" data-entity-1="ent0002" data-entity-2="ent0016" data-link-type="dependency" data-source-line="76" id="lnk44"><path d="M429.82,386.8969 C429.82,422.6369 429.82,470.2969 429.82,470.2969 C429.82,470.2969 507.94,470.2969 574.31,470.2969" fill="none" id="Guest-to-UC_InvitePreview" style="stroke:#687385;stroke-width:1;"/><polygon fill="#687385" points="580.31,470.2969,571.31,466.2969,575.31,470.2969,571.31,474.2969,580.31,470.2969" style="stroke:#687385;stroke-width:1;"/></g><!--link Guest to UC_Register--><g class="link" data-entity-1="ent0002" data-entity-2="ent0017" data-link-type="dependency" data-source-line="77" id="lnk45"><path d="M422.82,309.9669 C422.82,249.6269 422.82,139.2969 422.82,139.2969 C422.82,139.2969 508.9,139.2969 578.13,139.2969" fill="none" id="Guest-to-UC_Register" style="stroke:#687385;stroke-width:1;"/><polygon fill="#687385" points="584.13,139.2969,575.13,135.2969,579.13,139.2969,575.13,143.2969,584.13,139.2969" style="stroke:#687385;stroke-width:1;"/></g><!--link Guest to UC_Login--><g class="link" data-entity-1="ent0002" data-entity-2="ent0018" data-link-type="dependency" data-source-line="78" id="lnk46"><path d="M436.82,309.8469 C436.82,272.4669 436.82,221.2969 436.82,221.2969 C436.82,221.2969 504.92,221.2969 567.59,221.2969" fill="none" id="Guest-to-UC_Login" style="stroke:#687385;stroke-width:1;"/><polygon fill="#687385" points="573.59,221.2969,564.59,217.2969,568.59,221.2969,564.59,225.2969,573.59,221.2969" style="stroke:#687385;stroke-width:1;"/></g><!--link Guest to UC_GoogleLogin--><g class="link" data-entity-1="ent0002" data-entity-2="ent0019" data-link-type="dependency" data-source-line="79" id="lnk47"><path d="M449.89,381.5269 C466.08,381.5269 485.82,381.5269 485.82,381.5269 C485.82,381.5269 485.82,545.2969 485.82,545.2969 C485.82,545.2969 532.07,545.2969 579.21,545.2969" fill="none" id="Guest-to-UC_GoogleLogin" style="stroke:#687385;stroke-width:1;"/><polygon fill="#687385" points="585.21,545.2969,576.21,541.2969,580.21,545.2969,576.21,549.2969,585.21,545.2969" style="stroke:#687385;stroke-width:1;"/></g><!--link User to UC_Profile--><g class="link" data-entity-1="ent0003" data-entity-2="ent0021" data-link-type="dependency" data-source-line="81" id="lnk48"><path d="M489.82,1721.0469 C489.82,1665.8269 489.82,1570.2969 489.82,1570.2969 C489.82,1570.2969 533.78,1570.2969 579.44,1570.2969" fill="none" id="User-to-UC_Profile" style="stroke:#687385;stroke-width:1;"/><polygon fill="#687385" points="585.44,1570.2969,576.44,1566.2969,580.44,1570.2969,576.44,1574.2969,585.44,1570.2969" style="stroke:#687385;stroke-width:1;"/></g><!--link User to UC_Friends--><g class="link" data-entity-1="ent0003" data-entity-2="ent0022" data-link-type="dependency" data-source-line="82" id="lnk49"><path d="M493.82,1720.7969 C493.82,1694.8369 493.82,1665.2969 493.82,1665.2969 C493.82,1665.2969 534.51,1665.2969 578.29,1665.2969" fill="none" id="User-to-UC_Friends" style="stroke:#687385;stroke-width:1;"/><polygon fill="#687385" points="584.29,1665.2969,575.29,1661.2969,579.29,1665.2969,575.29,1669.2969,584.29,1665.2969" style="stroke:#687385;stroke-width:1;"/></g><!--link User to UC_Direct--><g class="link" data-entity-1="ent0003" data-entity-2="ent0024" data-link-type="dependency" data-source-line="83" id="lnk50"><path d="M494.82,1797.6269 C494.82,1818.3469 494.82,1839.7269 494.82,1839.7269 C494.82,1839.7269 539.06,1839.7269 584.01,1839.7269" fill="none" id="User-to-UC_Direct" style="stroke:#687385;stroke-width:1;"/><polygon fill="#687385" points="590.01,1839.7269,581.01,1835.7269,585.01,1839.7269,581.01,1843.7269,590.01,1839.7269" style="stroke:#687385;stroke-width:1;"/></g><!--link User to UC_GroupChat--><g class="link" data-entity-1="ent0003" data-entity-2="ent0025" data-link-type="dependency" data-source-line="84" id="lnk51"><path d="M492.82,1797.6069 C492.82,1846.9169 492.82,1926.2969 492.82,1926.2969 C492.82,1926.2969 534.14,1926.2969 578.33,1926.2969" fill="none" id="User-to-UC_GroupChat" style="stroke:#687385;stroke-width:1;"/><polygon fill="#687385" points="584.33,1926.2969,575.33,1922.2969,579.33,1926.2969,575.33,1930.2969,584.33,1926.2969" style="stroke:#687385;stroke-width:1;"/></g><!--link User to UC_Message--><g class="link" data-entity-1="ent0003" data-entity-2="ent0026" data-link-type="dependency" data-source-line="85" id="lnk52"><path d="M496.9,1790.5469 C532.51,1790.5469 568.82,1790.5469 568.82,1790.5469 C568.82,1790.5469 568.82,2030.4469 568.82,2090.9669" fill="none" id="User-to-UC_Message" style="stroke:#687385;stroke-width:1;"/><polygon fill="#687385" points="568.82,2096.9669,572.82,2087.9669,568.82,2091.9669,564.82,2087.9669,568.82,2096.9669" style="stroke:#687385;stroke-width:1;"/></g><!--link User to UC_Attach--><g class="link" data-entity-1="ent0003" data-entity-2="ent0027" data-link-type="dependency" data-source-line="86" id="lnk53"><path d="M496.95,1728.0469 C536.96,1728.0469 579.82,1728.0469 579.82,1728.0469 C579.82,1728.0469 579.82,1534.8769 579.82,1494.4169" fill="none" id="User-to-UC_Attach" style="stroke:#687385;stroke-width:1;"/><polygon fill="#687385" points="579.82,1488.4169,575.82,1497.4169,579.82,1493.4169,583.82,1497.4169,579.82,1488.4169" style="stroke:#687385;stroke-width:1;"/></g><!--link User to UC_Realtime--><g class="link" data-entity-1="ent0003" data-entity-2="ent0028" data-link-type="dependency" data-source-line="87" id="lnk54"><path d="M490.82,1797.7469 C490.82,1868.9869 490.82,2014.2969 490.82,2014.2969 C490.82,2014.2969 530.97,2014.2969 574.96,2014.2969" fill="none" id="User-to-UC_Realtime" style="stroke:#687385;stroke-width:1;"/><polygon fill="#687385" points="580.96,2014.2969,571.96,2010.2969,575.96,2014.2969,571.96,2018.2969,580.96,2014.2969" style="stroke:#687385;stroke-width:1;"/></g><!--link User to UC_Search--><g class="link" data-entity-1="ent0003" data-entity-2="ent0029" data-link-type="dependency" data-source-line="88" id="lnk55"><path d="M497.21,1759.2969 C515.51,1759.2969 529.72,1759.2969 549.47,1759.2969" fill="none" id="User-to-UC_Search" style="stroke:#687385;stroke-width:1;"/><polygon fill="#687385" points="555.47,1759.2969,546.47,1755.2969,550.47,1759.2969,546.47,1763.2969,555.47,1759.2969" style="stroke:#687385;stroke-width:1;"/></g><!--link User to UC_GroupMembership--><g class="link" data-entity-1="ent0003" data-entity-2="ent0032" data-link-type="dependency" data-source-line="89" id="lnk56"><path d="M481.82,1720.9069 C481.82,1608.0669 481.82,1285.2969 481.82,1285.2969 C481.82,1285.2969 525.53,1285.2969 572.34,1285.2969" fill="none" id="User-to-UC_GroupMembership" style="stroke:#687385;stroke-width:1;"/><polygon fill="#687385" points="578.34,1285.2969,569.34,1281.2969,573.34,1285.2969,569.34,1289.2969,578.34,1285.2969" style="stroke:#687385;stroke-width:1;"/></g><!--link Moderator to UC_Invites--><g class="link" data-entity-1="ent0004" data-entity-2="ent0033" data-link-type="dependency" data-source-line="91" id="lnk57"><path d="M248.82,989.6669 C248.82,964.1169 248.82,935.2969 248.82,935.2969 C248.82,935.2969 465.95,935.2969 583.18,935.2969" fill="none" id="Moderator-to-UC_Invites" style="stroke:#687385;stroke-width:1;"/><polygon fill="#687385" points="589.18,935.2969,580.18,931.2969,584.18,935.2969,580.18,939.2969,589.18,935.2969" style="stroke:#687385;stroke-width:1;"/></g><!--link Moderator to UC_JoinRequests--><g class="link" data-entity-1="ent0004" data-entity-2="ent0034" data-link-type="dependency" data-source-line="92" id="lnk58"><path d="M266.84,1017.2969 C333.2,1017.2969 469.23,1017.2969 562.98,1017.2969" fill="none" id="Moderator-to-UC_JoinRequests" style="stroke:#687385;stroke-width:1;"/><polygon fill="#687385" points="568.98,1017.2969,559.98,1013.2969,563.98,1017.2969,559.98,1021.2969,568.98,1017.2969" style="stroke:#687385;stroke-width:1;"/></g><!--link Moderator to UC_Roles--><g class="link" data-entity-1="ent0004" data-entity-2="ent0035" data-link-type="dependency" data-source-line="93" id="lnk59"><path d="M230.82,989.6869 C230.82,936.7969 230.82,848.2969 230.82,848.2969 C230.82,848.2969 460.21,848.2969 582.04,848.2969" fill="none" id="Moderator-to-UC_Roles" style="stroke:#687385;stroke-width:1;"/><polygon fill="#687385" points="588.04,848.2969,579.04,844.2969,583.04,848.2969,579.04,852.2969,588.04,848.2969" style="stroke:#687385;stroke-width:1;"/></g><!--link Moderator to UC_Moderate--><g class="link" data-entity-1="ent0004" data-entity-2="ent0036" data-link-type="dependency" data-source-line="94" id="lnk60"><path d="M230.82,1066.8369 C230.82,1116.4369 230.82,1196.2969 230.82,1196.2969 C230.82,1196.2969 430.8,1196.2969 557.12,1196.2969" fill="none" id="Moderator-to-UC_Moderate" style="stroke:#687385;stroke-width:1;"/><polygon fill="#687385" points="563.12,1196.2969,554.12,1192.2969,558.12,1196.2969,554.12,1200.2969,563.12,1196.2969" style="stroke:#687385;stroke-width:1;"/></g><!--link Moderator to UC_Pins--><g class="link" data-entity-1="ent0004" data-entity-2="ent0037" data-link-type="dependency" data-source-line="95" id="lnk61"><path d="M266.81,1047.2669 C353.78,1047.2669 565.82,1047.2669 565.82,1047.2669 C565.82,1047.2669 565.82,1076.7769 565.82,1091.7569" fill="none" id="Moderator-to-UC_Pins" style="stroke:#687385;stroke-width:1;"/><polygon fill="#687385" points="565.82,1097.7569,569.82,1088.7569,565.82,1092.7569,561.82,1088.7569,565.82,1097.7569" style="stroke:#687385;stroke-width:1;"/></g><!--link Owner to UC_GroupCrud--><g class="link" data-entity-1="ent0005" data-entity-2="ent0031" data-link-type="dependency" data-source-line="97" id="lnk62"><path d="M52.82,716.8269 C52.82,693.9269 52.82,669.2969 52.82,669.2969 C52.82,669.2969 400.05,669.2969 567.35,669.2969" fill="none" id="Owner-to-UC_GroupCrud" style="stroke:#687385;stroke-width:1;"/><polygon fill="#687385" points="573.35,669.2969,564.35,665.2969,568.35,669.2969,564.35,673.2969,573.35,669.2969" style="stroke:#687385;stroke-width:1;"/></g><!--link Owner to UC_Transfer--><g class="link" data-entity-1="ent0005" data-entity-2="ent0038" data-link-type="dependency" data-source-line="98" id="lnk63"><path d="M99.4,758.2969 C202.1,758.2969 442.16,758.2969 571.18,758.2969" fill="none" id="Owner-to-UC_Transfer" style="stroke:#687385;stroke-width:1;"/><polygon fill="#687385" points="577.18,758.2969,568.18,754.2969,572.18,758.2969,568.18,762.2969,577.18,758.2969" style="stroke:#687385;stroke-width:1;"/></g><!--link Admin to UC_Audit--><g class="link" data-entity-1="ent0006" data-entity-2="ent0040" data-link-type="dependency" data-source-line="100" id="lnk64"><path d="M230.82,1850.6869 C230.82,1953.6769 230.82,2228.2969 230.82,2228.2969 C230.82,2228.2969 452.83,2228.2969 576.18,2228.2969" fill="none" id="Admin-to-UC_Audit" style="stroke:#687385;stroke-width:1;"/><polygon fill="#687385" points="582.18,2228.2969,573.18,2224.2969,577.18,2228.2969,573.18,2232.2969,582.18,2228.2969" style="stroke:#687385;stroke-width:1;"/></g><!--link Monitoring to UC_Metrics--><g class="link" data-entity-1="ent0008" data-entity-2="ent0041" data-link-type="dependency" data-source-line="101" id="lnk65"><path d="M488.36,2315.2969 C518.2,2315.2969 548.65,2315.2969 580.2,2315.2969" fill="none" id="Monitoring-to-UC_Metrics" style="stroke:#687385;stroke-width:1;"/><polygon fill="#687385" points="586.2,2315.2969,577.2,2311.2969,581.2,2315.2969,577.2,2319.2969,586.2,2315.2969" style="stroke:#687385;stroke-width:1;"/></g><!--link Google to UC_GoogleLogin--><g class="link" data-entity-1="ent0007" data-entity-2="ent0019" data-link-type="dependency" data-source-line="102" id="lnk66"><path d="M478.18,557.2969 C509.34,557.2969 544.25,557.2969 579.31,557.2969" fill="none" id="Google-to-UC_GoogleLogin" style="stroke:#687385;stroke-width:1;"/><polygon fill="#687385" points="585.31,557.2969,576.31,553.2969,580.31,557.2969,576.31,561.2969,585.31,557.2969" style="stroke:#687385;stroke-width:1;"/></g><!--link UC_Direct to UC_ResolveTarget--><g class="link" data-entity-1="ent0024" data-entity-2="ent0023" data-link-type="dependency" data-source-line="104" id="lnk67"><path d="M733.83,1846.2969 C758.99,1846.2969 780.82,1846.2969 780.82,1846.2969 C780.82,1846.2969 780.82,1404.6169 780.82,1404.6169 C780.82,1404.6169 767.33,1404.6169 743.97,1404.6169" fill="none" id="UC_Direct-to-UC_ResolveTarget" style="stroke:#687385;stroke-width:1;stroke-dasharray:7,7;"/><polygon fill="#687385" points="737.97,1404.6169,746.97,1408.6169,742.97,1404.6169,746.97,1400.6169,737.97,1404.6169" style="stroke:#687385;stroke-width:1;"/><text fill="#000000" font-family="sans-serif" font-size="13" lengthAdjust="spacing" textLength="63.0068" x="781.82" y="1640.5938">&#171;include&#187;</text></g><!--link UC_GroupChat to UC_ResolveTarget--><g class="link" data-entity-1="ent0025" data-entity-2="ent0023" data-link-type="dependency" data-source-line="105" id="lnk68"><path d="M734.42,1926.2969 C762.55,1926.2969 787.82,1926.2969 787.82,1926.2969 C787.82,1926.2969 787.82,1391.9769 787.82,1391.9769 C787.82,1391.9769 770.51,1391.9769 743.75,1391.9769" fill="none" id="UC_GroupChat-to-UC_ResolveTarget" style="stroke:#687385;stroke-width:1;stroke-dasharray:7,7;"/><polygon fill="#687385" points="737.75,1391.9769,746.75,1395.9769,742.75,1391.9769,746.75,1387.9769,737.75,1391.9769" style="stroke:#687385;stroke-width:1;"/><text fill="#000000" font-family="sans-serif" font-size="13" lengthAdjust="spacing" textLength="63.0068" x="788.82" y="1673.8638">&#171;include&#187;</text></g><!--link UC_Attach to UC_Message--><g class="link" data-entity-1="ent0027" data-entity-2="ent0026" data-link-type="dependency" data-source-line="106" id="lnk69"><path d="M744.62,1481.2969 C761.34,1481.2969 773.82,1481.2969 773.82,1481.2969 C773.82,1481.2969 773.82,2110.2969 773.82,2110.2969 C773.82,2110.2969 777.02,2110.2969 772.3,2110.2969" fill="none" id="UC_Attach-to-UC_Message" style="stroke:#687385;stroke-width:1;stroke-dasharray:7,7;"/><polygon fill="#687385" points="766.3,2110.2969,775.3,2114.2969,771.3,2110.2969,775.3,2106.2969,766.3,2110.2969" style="stroke:#687385;stroke-width:1;"/><text fill="#000000" font-family="sans-serif" font-size="13" lengthAdjust="spacing" textLength="61.1851" x="711.82" y="1798.0238">&#171;extend&#187;</text></g><!--link UC_Message to UC_Realtime--><g class="link" data-entity-1="ent0026" data-entity-2="ent0028" data-link-type="dependency" data-source-line="107" id="lnk70"><path d="M659.82,2084.8269 C659.82,2071.1569 659.82,2060.3469 659.82,2046.5569" fill="none" id="UC_Message-to-UC_Realtime" style="stroke:#687385;stroke-width:1;stroke-dasharray:7,7;"/><polygon fill="#687385" points="659.82,2040.5569,655.82,2049.5569,659.82,2045.5569,663.82,2049.5569,659.82,2040.5569" style="stroke:#687385;stroke-width:1;"/><text fill="#000000" font-family="sans-serif" font-size="13" lengthAdjust="spacing" textLength="63.0068" x="595.82" y="2075.7538">&#171;include&#187;</text></g><!--link UC_Moderate to UC_Roles--><g class="link" data-entity-1="ent0036" data-entity-2="ent0035" data-link-type="dependency" data-source-line="108" id="lnk71"><path d="M755.25,1196.2969 C777.5,1196.2969 794.82,1196.2969 794.82,1196.2969 C794.82,1196.2969 794.82,848.2969 794.82,848.2969 C794.82,848.2969 769.02,848.2969 736.22,848.2969" fill="none" id="UC_Moderate-to-UC_Roles" style="stroke:#687385;stroke-width:1;stroke-dasharray:7,7;"/><polygon fill="#687385" points="730.22,848.2969,739.22,852.2969,735.22,848.2969,739.22,844.2969,730.22,848.2969" style="stroke:#687385;stroke-width:1;"/><text fill="#000000" font-family="sans-serif" font-size="13" lengthAdjust="spacing" textLength="63.0068" x="795.82" y="1022.8538">&#171;include&#187;</text></g><?plantuml-src ZLPTRzis57ttho2yLpj8rtL9YiA0wwB5XXa9d7HF0GgQkh8uKwH6Kl62RlzzbryoQMd0yk18vzvBNfrxU2JBhG3o2LwuC6G7nd9v84loe7bBzIlvQe1ig04p4r1ROXNH_D1OKd4Dp78bP-R8PKSrRObfQALEhhwcma0MsLDsF6ZLosgZXDBaXzh_PHc2Ix2l7H2bRQEoG0KrxOLzWh_iMl23R45Qml07T9ObLGK6ElBJkmpKL1uT-Au0NHTCQGcQlBdE0ckjrIcsz_FjpTlRlAh31w07UBIlI9PxSYeF0iO9vFkCa8zALw3ZKkoskgxs3XrnS5FVrGmZdvMq4NjJ_tZtzcRsJxPoRu3X0COhtzNxQtOpkN9WTthb6MKMWIyzpZfUpzUzRP1IpgY5oirSpmar_YAcR95WJV4gbNp13JjoVv8nrr-buEEhiO2KLYsNt5XVwBCyCYoX5998xjtkFXg05DugoV72wUdHuYFwb3CucmqzaUNoxrNerhSHxiyj-rspfDamGJ8lbJ_tDATXpZr9PCqO61D2P9Z7_2Fg1Vzt_LvmHjm0EXDestnxyA3do9HLltCufHgjL5jMx10fynyqDeWbNBvm2-wS75F9BnwA2MNL3Wx8Ep916KDXs5IIy3BxDtL0VaxSDlZenfnGPQd0X_upEmmivOQxL85AovZSA8r6ejgsbqvbQ1mZFhTKkjHEgveBU9PKLWIDn_ZSI5A8JTRLceEiJAZR2yMEmpG-Xz0bHKQ95o2ieUXhL1yWOyc7dZnOLjrt8AFv-SfKyib34xbU5qMgLyK6WJBx4LjS4AYuNQ3f2R2H0Wru7fpnjiW5FcXQPXjkoqM-TaBHYb2B1wPnLZbmiFPGcVsaSJn8E5gdPEVja7QBHd1cWmhBMxXibshMk7jj5iyoo9-u5MAVmyuXSwI8O22PHKnfOeFjM5YGlgje8YIG4uWjETLzLPR_gb2fw0y2wCjKnHRQFVRVy6vIKk7CcVAyNSXetQ5WSV4_t5OQ_dIECLIu_NSHczn1Am5HihY8rhmwRxTpiOkgO6c07Fl6d-MHi-C2twzoGTh-FBEKUE4bsABRgfSTNbtE2QDcf0zfQdGHvLpLqPHoKsGqLTHy6ENOBtV1o6YF4YSuS2u6RJheOl1A27V6Mh2QiqXHuvJOd0-03_aMi8dWrSlbQkI_4n7limLUccaH6aopG8FF5L1kW3FtfXasZRwLOycKSYowI0wTtI97q-7FiNZ2SsWukZaOp-Dea-mm5A_MLQxzKQ2G-2WQD3o21tcE8bw4mrjyLPxj0XuaEBpULsSjPTyE0sD1BV6ZOt9YQG3aQZLw3P3tvCC7BfdeArYjPlba_bzw64_CZVFpMVXbYq88IGc_AiOtNcmmWgippMNMlm00?></g></svg>