<?xml version="1.0" encoding="UTF-8"?>
<svg version="1.1" xmlns="http://www.w3.org/2000/svg" width="1024" height="1024">
<path d="M0 0 C0.84304688 -0.00128906 1.68609375 -0.00257813 2.5546875 -0.00390625 C3.86953125 0.00189453 3.86953125 0.00189453 5.2109375 0.0078125 C6.09523438 0.00394531 6.97953125 0.00007812 7.890625 -0.00390625 C8.73109375 -0.00261719 9.5715625 -0.00132812 10.4375 0 C11.20916504 0.00112793 11.98083008 0.00225586 12.77587891 0.00341797 C14.5859375 0.1328125 14.5859375 0.1328125 15.5859375 1.1328125 C15.67989807 3.06587748 15.70337267 5.00240088 15.69946289 6.93774414 C15.69938736 8.17895523 15.69931183 9.42016632 15.69923401 10.69898987 C15.69412661 12.0636499 15.6889106 13.42830952 15.68359375 14.79296875 C15.6817295 16.18159433 15.68030563 17.57022057 15.67930603 18.95884705 C15.67548137 22.62002365 15.66565153 26.2811608 15.65460205 29.94232178 C15.64438682 33.67573513 15.63980817 37.40915484 15.63476562 41.14257812 C15.6240292 48.47267635 15.60643284 55.80273388 15.5859375 63.1328125 C20.5359375 63.1328125 25.4859375 63.1328125 30.5859375 63.1328125 C30.9159375 76.9928125 31.2459375 90.8528125 31.5859375 105.1328125 C36.5359375 105.4628125 41.4859375 105.7928125 46.5859375 106.1328125 C46.5859375 112.7328125 46.5859375 119.3328125 46.5859375 126.1328125 C72.9859375 126.1328125 99.3859375 126.1328125 126.5859375 126.1328125 C126.5859375 131.4128125 126.5859375 136.6928125 126.5859375 142.1328125 C140.1159375 142.1328125 153.6459375 142.1328125 167.5859375 142.1328125 C169.3072436 147.29673079 168.63947302 152.72572486 168.5859375 158.1328125 C174.1959375 158.1328125 179.8059375 158.1328125 185.5859375 158.1328125 C185.5859375 163.4128125 185.5859375 168.6928125 185.5859375 174.1328125 C187.8753125 174.101875 187.8753125 174.101875 190.2109375 174.0703125 C194.26331612 174.01555063 197.47334891 174.44738107 201.5859375 175.1328125 C201.5859375 180.4128125 201.5859375 185.6928125 201.5859375 191.1328125 C206.5359375 191.1328125 211.4859375 191.1328125 216.5859375 191.1328125 C217.63538531 194.28115593 217.71509256 196.52024677 217.71875 199.82421875 C217.72003906 200.93345703 217.72132813 202.04269531 217.72265625 203.18554688 C217.71878906 204.34376953 217.71492188 205.50199219 217.7109375 206.6953125 C217.71480469 207.85740234 217.71867187 209.01949219 217.72265625 210.21679688 C217.72072266 211.8787207 217.72072266 211.8787207 217.71875 213.57421875 C217.71762207 214.59201416 217.71649414 215.60980957 217.71533203 216.65844727 C217.5859375 219.1328125 217.5859375 219.1328125 216.5859375 221.1328125 C221.8659375 221.4628125 227.1459375 221.7928125 232.5859375 222.1328125 C232.5859375 243.9128125 232.5859375 265.6928125 232.5859375 288.1328125 C260.9659375 288.1328125 289.3459375 288.1328125 318.5859375 288.1328125 C318.5859375 298.0328125 318.5859375 307.9328125 318.5859375 318.1328125 C313.6359375 318.1328125 308.6859375 318.1328125 303.5859375 318.1328125 C303.5859375 322.7528125 303.5859375 327.3728125 303.5859375 332.1328125 C298.9659375 332.1328125 294.3459375 332.1328125 289.5859375 332.1328125 C289.5859375 336.7528125 289.5859375 341.3728125 289.5859375 346.1328125 C286.53323904 347.65916173 283.82748061 346.97075694 280.4609375 346.6953125 C279.17960937 346.59347656 277.89828125 346.49164062 276.578125 346.38671875 C275.59070313 346.30292969 274.60328125 346.21914063 273.5859375 346.1328125 C273.71162109 347.28910156 273.71162109 347.28910156 273.83984375 348.46875 C273.94167969 349.47164062 274.04351563 350.47453125 274.1484375 351.5078125 C274.25285156 352.50554687 274.35726563 353.50328125 274.46484375 354.53125 C274.5859375 357.1328125 274.5859375 357.1328125 273.5859375 359.1328125 C270.42578125 359.546875 270.42578125 359.546875 266.5234375 359.7578125 C264.58791016 359.86996094 264.58791016 359.86996094 262.61328125 359.984375 C261.61425781 360.03335937 260.61523438 360.08234375 259.5859375 360.1328125 C259.2559375 364.0928125 258.9259375 368.0528125 258.5859375 372.1328125 C253.9659375 372.4628125 249.3459375 372.7928125 244.5859375 373.1328125 C244.6065625 374.5765625 244.6271875 376.0203125 244.6484375 377.5078125 C244.7109375 381.8828125 244.7109375 381.8828125 243.5859375 384.1328125 C239.2959375 384.1328125 235.0059375 384.1328125 230.5859375 384.1328125 C230.6478125 386.5459375 230.6478125 386.5459375 230.7109375 389.0078125 C230.78125 391.75 230.78125 391.75 230.5859375 394.1328125 C228.5859375 396.1328125 228.5859375 396.1328125 225.109375 396.328125 C223.72642782 396.31482743 222.34355096 396.29097482 220.9609375 396.2578125 C220.25453125 396.24878906 219.548125 396.23976563 218.8203125 396.23046875 C217.07537652 396.20688853 215.33061455 396.17101711 213.5859375 396.1328125 C213.5859375 400.0928125 213.5859375 404.0528125 213.5859375 408.1328125 C208.6359375 408.1328125 203.6859375 408.1328125 198.5859375 408.1328125 C198.5859375 414.4028125 198.5859375 420.6728125 198.5859375 427.1328125 C200.8753125 426.9471875 203.1646875 426.7615625 205.5234375 426.5703125 C207.87440168 426.37969378 210.22898796 426.22312824 212.5859375 426.1328125 C214.46418641 428.01106141 213.97696147 431.17216526 214.1484375 433.6953125 C214.23222656 434.89285156 214.31601562 436.09039063 214.40234375 437.32421875 C214.46292969 438.25105469 214.52351563 439.17789062 214.5859375 440.1328125 C215.65714844 440.19339844 216.72835938 440.25398438 217.83203125 440.31640625 C219.22918141 440.40079787 220.62631607 440.48544656 222.0234375 440.5703125 C223.08401367 440.62928711 223.08401367 440.62928711 224.16601562 440.68945312 C229.47265625 441.01953125 229.47265625 441.01953125 230.5859375 442.1328125 C230.68576808 444.12038278 230.71674503 446.1114877 230.71875 448.1015625 C230.72003906 449.31199219 230.72132813 450.52242187 230.72265625 451.76953125 C230.71878906 453.04441406 230.71492188 454.31929687 230.7109375 455.6328125 C230.71480469 456.90769531 230.71867187 458.18257812 230.72265625 459.49609375 C230.72072266 461.31173828 230.72072266 461.31173828 230.71875 463.1640625 C230.71762207 464.28361328 230.71649414 465.40316406 230.71533203 466.55664062 C230.5859375 469.1328125 230.5859375 469.1328125 229.5859375 470.1328125 C227.51331674 470.22048362 225.43773456 470.23977123 223.36328125 470.23046875 C222.10322266 470.22724609 220.84316406 470.22402344 219.54492188 470.22070312 C218.20442641 470.21234653 216.86393162 470.20388157 215.5234375 470.1953125 C214.17903808 470.1902991 212.8346369 470.18573592 211.49023438 470.18164062 C208.18875809 470.16980738 204.88736947 470.15332221 201.5859375 470.1328125 C201.5859375 472.7728125 201.5859375 475.4128125 201.5859375 478.1328125 C202.72933594 478.12121094 203.87273437 478.10960937 205.05078125 478.09765625 C206.54166504 478.08827962 208.03255059 478.07917929 209.5234375 478.0703125 C210.27818359 478.06193359 211.03292969 478.05355469 211.81054688 478.04492188 C213.73588063 478.03628809 215.66129331 478.08056917 217.5859375 478.1328125 C218.5859375 479.1328125 218.5859375 479.1328125 218.68359375 481.63671875 C218.65104167 484.46875 218.61848958 487.30078125 218.5859375 490.1328125 C223.2059375 490.1328125 227.8259375 490.1328125 232.5859375 490.1328125 C232.5859375 496.0728125 232.5859375 502.0128125 232.5859375 508.1328125 C237.47747221 508.0932446 237.47747221 508.0932446 242.36889648 508.04272461 C244.10815467 508.03556337 245.84739054 508.08256548 247.5859375 508.1328125 C248.5859375 509.1328125 248.5859375 509.1328125 248.69946289 511.35766602 C248.69422607 512.31600342 248.68898926 513.27434082 248.68359375 514.26171875 C248.68037109 515.29619141 248.67714844 516.33066406 248.67382812 517.39648438 C248.66544922 518.48509766 248.65707031 519.57371094 248.6484375 520.6953125 C248.64166992 522.3340332 248.64166992 522.3340332 248.63476562 524.00585938 C248.6229359 526.71486682 248.60499981 529.4238463 248.5859375 532.1328125 C253.5359375 532.1328125 258.4859375 532.1328125 263.5859375 532.1328125 C263.5859375 541.7028125 263.5859375 551.2728125 263.5859375 561.1328125 C268.47747221 561.0932446 268.47747221 561.0932446 273.36889648 561.04272461 C275.10815467 561.03556337 276.84739054 561.08256548 278.5859375 561.1328125 C279.5859375 562.1328125 279.5859375 562.1328125 279.69946289 564.35766602 C279.69422607 565.31600342 279.68898926 566.27434082 279.68359375 567.26171875 C279.68037109 568.29619141 279.67714844 569.33066406 279.67382812 570.39648438 C279.66544922 571.48509766 279.65707031 572.57371094 279.6484375 573.6953125 C279.64166992 575.3340332 279.64166992 575.3340332 279.63476562 577.00585938 C279.62293576 579.71489745 279.60645293 582.42382849 279.5859375 585.1328125 C280.51277344 585.19339844 281.43960937 585.25398437 282.39453125 585.31640625 C283.59207031 585.40019531 284.78960938 585.48398437 286.0234375 585.5703125 C287.21839844 585.65152344 288.41335938 585.73273437 289.64453125 585.81640625 C292.5859375 586.1328125 292.5859375 586.1328125 293.5859375 587.1328125 C293.67307581 588.84053608 293.69293757 590.55179899 293.68359375 592.26171875 C293.68037109 593.29619141 293.67714844 594.33066406 293.67382812 595.39648438 C293.66544922 596.48509766 293.65707031 597.57371094 293.6484375 598.6953125 C293.64166992 600.3340332 293.64166992 600.3340332 293.63476562 602.00585938 C293.6229359 604.71486682 293.60499981 607.4238463 293.5859375 610.1328125 C288.3059375 610.1328125 283.0259375 610.1328125 277.5859375 610.1328125 C277.5859375 602.8728125 277.5859375 595.6128125 277.5859375 588.1328125 C276.5959375 588.4628125 275.6059375 588.7928125 274.5859375 589.1328125 C272.71280086 589.22619468 270.83639388 589.26276093 268.9609375 589.2578125 C267.48753906 589.26167969 267.48753906 589.26167969 265.984375 589.265625 C263.5859375 589.1328125 263.5859375 589.1328125 262.5859375 588.1328125 C262.49856105 586.27911639 262.47895597 584.42213709 262.48828125 582.56640625 C262.49150391 581.44169922 262.49472656 580.31699219 262.49804688 579.15820312 C262.50642578 577.97419922 262.51480469 576.79019531 262.5234375 575.5703125 C262.52794922 574.38244141 262.53246094 573.19457031 262.53710938 571.97070312 C262.54894064 569.02471838 262.56687674 566.07875934 262.5859375 563.1328125 C257.6359375 563.1328125 252.6859375 563.1328125 247.5859375 563.1328125 C247.53695313 561.20695313 247.48796875 559.28109375 247.4375 557.296875 C247.362484 554.78383905 247.28693568 552.27081894 247.2109375 549.7578125 C247.16453125 547.85128906 247.16453125 547.85128906 247.1171875 545.90625 C247.07851563 544.69453125 247.03984375 543.4828125 247 542.234375 C246.95286865 540.55335693 246.95286865 540.55335693 246.90478516 538.83837891 C246.85182547 535.98570838 246.85182547 535.98570838 244.5859375 534.1328125 C241.46397414 533.66794532 241.46397414 533.66794532 237.9609375 533.5078125 C235.8571875 533.3840625 233.7534375 533.2603125 231.5859375 533.1328125 C231.2559375 525.5428125 230.9259375 517.9528125 230.5859375 510.1328125 C226.2959375 510.1328125 222.0059375 510.1328125 217.5859375 510.1328125 C215.80815972 495.68836806 215.80815972 495.68836806 217.5859375 492.1328125 C215.88824219 492.16761719 215.88824219 492.16761719 214.15625 492.203125 C212.67448575 492.22188151 211.19271438 492.24008184 209.7109375 492.2578125 C208.96457031 492.27457031 208.21820312 492.29132813 207.44921875 492.30859375 C205.49399289 492.3262084 203.53851729 492.23601439 201.5859375 492.1328125 C200.9259375 491.4728125 200.2659375 490.8128125 199.5859375 490.1328125 C199.5859375 486.8328125 199.5859375 483.5328125 199.5859375 480.1328125 C187.3759375 480.1328125 175.1659375 480.1328125 162.5859375 480.1328125 C162.5859375 483.7628125 162.5859375 487.3928125 162.5859375 491.1328125 C161.5859375 492.1328125 161.5859375 492.1328125 159.63647461 492.15454102 C158.3874939 492.08384399 158.3874939 492.08384399 157.11328125 492.01171875 C156.21416016 491.96337891 155.31503906 491.91503906 154.38867188 491.86523438 C153.44314453 491.80916016 152.49761719 491.75308594 151.5234375 491.6953125 C150.57404297 491.64310547 149.62464844 491.59089844 148.64648438 491.53710938 C146.29266798 491.40699892 143.93923051 491.27202138 141.5859375 491.1328125 C141.53201757 489.34147272 141.49318179 487.54967351 141.4609375 485.7578125 C141.43773437 484.76007813 141.41453125 483.76234375 141.390625 482.734375 C141.5859375 480.1328125 141.5859375 480.1328125 143.5859375 478.1328125 C145.46533203 477.90576172 145.46533203 477.90576172 147.71875 477.9375 C148.52441406 477.94394531 149.33007812 477.95039062 150.16015625 477.95703125 C151.00191406 477.97378906 151.84367187 477.99054688 152.7109375 478.0078125 C153.56042969 478.01683594 154.40992188 478.02585937 155.28515625 478.03515625 C157.38553634 478.05875603 159.48577194 478.09462767 161.5859375 478.1328125 C161.5859375 475.1628125 161.5859375 472.1928125 161.5859375 469.1328125 C169.5059375 469.1328125 177.4259375 469.1328125 185.5859375 469.1328125 C185.5859375 465.1728125 185.5859375 461.2128125 185.5859375 457.1328125 C194.4959375 457.1328125 203.4059375 457.1328125 212.5859375 457.1328125 C212.5859375 452.8428125 212.5859375 448.5528125 212.5859375 444.1328125 C207.6359375 443.8028125 202.6859375 443.4728125 197.5859375 443.1328125 C196.5859375 433.6328125 196.5859375 433.6328125 196.5859375 429.1328125 C191.6359375 428.8028125 186.6859375 428.4728125 181.5859375 428.1328125 C181.616875 431.566875 181.616875 431.566875 181.6484375 435.0703125 C181.66964618 437.42447582 181.65865491 439.77967695 181.5859375 442.1328125 C180.5859375 443.1328125 180.5859375 443.1328125 177.16772461 443.24633789 C175.64956762 443.24617878 174.13140521 443.24048476 172.61328125 443.23046875 C171.81563858 443.2290538 171.01799591 443.22763885 170.19618225 443.22618103 C167.63856315 443.22056566 165.08103032 443.20801062 162.5234375 443.1953125 C160.79362105 443.19029948 159.06380324 443.18573623 157.33398438 443.18164062 C153.08460197 443.17059125 148.83528438 443.15331636 144.5859375 443.1328125 C144.5859375 448.0828125 144.5859375 453.0328125 144.5859375 458.1328125 C136.0059375 458.4628125 127.4259375 458.7928125 118.5859375 459.1328125 C118.5859375 462.4328125 118.5859375 465.7328125 118.5859375 469.1328125 C117.5859375 470.1328125 117.5859375 470.1328125 114.64453125 470.23046875 C112.85208984 470.21306641 112.85208984 470.21306641 111.0234375 470.1953125 C109.82589844 470.18628906 108.62835937 470.17726563 107.39453125 470.16796875 C106.46769531 470.15636719 105.54085938 470.14476562 104.5859375 470.1328125 C104.5859375 473.4328125 104.5859375 476.7328125 104.5859375 480.1328125 C95.8359375 480.2578125 95.8359375 480.2578125 93.5859375 479.1328125 C93.5859375 483.0928125 93.5859375 487.0528125 93.5859375 491.1328125 C90.2859375 491.4628125 86.9859375 491.7928125 83.5859375 492.1328125 C83.616875 493.8034375 83.616875 493.8034375 83.6484375 495.5078125 C83.5859375 499.1328125 83.5859375 499.1328125 82.5859375 501.1328125 C79.6159375 501.1328125 76.6459375 501.1328125 73.5859375 501.1328125 C73.616875 503.0509375 73.616875 503.0509375 73.6484375 505.0078125 C73.7109375 508.8828125 73.7109375 508.8828125 72.5859375 511.1328125 C68.9559375 511.1328125 65.3259375 511.1328125 61.5859375 511.1328125 C61.9159375 511.7928125 62.2459375 512.4528125 62.5859375 513.1328125 C62.72009222 515.8051746 62.62912291 518.45531738 62.5859375 521.1328125 C58.2959375 521.1328125 54.0059375 521.1328125 49.5859375 521.1328125 C49.2559375 518.1628125 48.9259375 515.1928125 48.5859375 512.1328125 C45.6159375 511.8028125 42.6459375 511.4728125 39.5859375 511.1328125 C38.93437341 506.40897287 38.46643113 501.91306733 38.5859375 497.1328125 C37.95945312 497.14441406 37.33296875 497.15601563 36.6875 497.16796875 C35.46160156 497.18150391 35.46160156 497.18150391 34.2109375 497.1953125 C33.39882813 497.20691406 32.58671875 497.21851563 31.75 497.23046875 C29.5859375 497.1328125 29.5859375 497.1328125 27.5859375 496.1328125 C27.55902065 493.67440645 27.53913948 491.21629368 27.5234375 488.7578125 C27.51505859 488.05914063 27.50667969 487.36046875 27.49804688 486.640625 C27.47265625 481.359375 27.47265625 481.359375 28.5859375 479.1328125 C32.5459375 479.1328125 36.5059375 479.1328125 40.5859375 479.1328125 C40.5859375 484.4128125 40.5859375 489.6928125 40.5859375 495.1328125 C43.8859375 495.1328125 47.1859375 495.1328125 50.5859375 495.1328125 C50.5859375 499.7528125 50.5859375 504.3728125 50.5859375 509.1328125 C53.5559375 508.8028125 56.5259375 508.4728125 59.5859375 508.1328125 C59.555 505.93625 59.555 505.93625 59.5234375 503.6953125 C59.50201743 502.17448732 59.51413786 500.65209288 59.5859375 499.1328125 C60.5859375 498.1328125 60.5859375 498.1328125 63.9609375 498.0078125 C67.5859375 498.1328125 67.5859375 498.1328125 70.5859375 499.1328125 C70.5859375 495.8328125 70.5859375 492.5328125 70.5859375 489.1328125 C73.8859375 489.1328125 77.1859375 489.1328125 80.5859375 489.1328125 C80.57433594 487.77285156 80.56273437 486.41289063 80.55078125 485.01171875 C80.54140488 483.2395847 80.53230452 481.46744917 80.5234375 479.6953125 C80.51505859 478.79748047 80.50667969 477.89964844 80.49804688 476.97460938 C80.49321289 475.69360352 80.49321289 475.69360352 80.48828125 474.38671875 C80.48042603 473.20057983 80.48042603 473.20057983 80.47241211 471.99047852 C80.5859375 470.1328125 80.5859375 470.1328125 81.5859375 469.1328125 C85.2550952 468.98970963 88.91309191 469.09059588 92.5859375 469.1328125 C92.5859375 465.1728125 92.5859375 461.2128125 92.5859375 457.1328125 C100.5059375 457.1328125 108.4259375 457.1328125 116.5859375 457.1328125 C116.5859375 452.1828125 116.5859375 447.2328125 116.5859375 442.1328125 C119.98357826 441.28340231 122.3556702 441.01519467 125.7890625 441.03515625 C126.76875 441.03837891 127.7484375 441.04160156 128.7578125 441.04492188 C130.28148437 441.05749023 130.28148437 441.05749023 131.8359375 441.0703125 C133.3828125 441.07708008 133.3828125 441.07708008 134.9609375 441.08398438 C137.50262904 441.09575147 140.04429068 441.1136864 142.5859375 441.1328125 C142.5859375 436.5128125 142.5859375 431.8928125 142.5859375 427.1328125 C146.64616657 426.11775523 150.27436701 426.00560676 154.4140625 426.03515625 C155.16306824 426.0365712 155.91207397 426.03798615 156.68377686 426.03944397 C159.06787162 426.04502591 161.45187128 426.05757505 163.8359375 426.0703125 C165.45572781 426.07532984 167.07551959 426.07989234 168.6953125 426.08398438 C172.65889062 426.09498942 176.62239795 426.11224159 180.5859375 426.1328125 C180.58070068 425.56248291 180.57546387 424.99215332 180.57006836 424.40454102 C180.54935529 421.83480927 180.5362956 419.26509503 180.5234375 416.6953125 C180.51505859 415.79748047 180.50667969 414.89964844 180.49804688 413.97460938 C180.49321289 412.69360352 180.49321289 412.69360352 180.48828125 411.38671875 C180.48042603 410.20057983 180.48042603 410.20057983 180.47241211 408.99047852 C180.5859375 407.1328125 180.5859375 407.1328125 181.5859375 406.1328125 C183.93581012 405.89753477 186.29149789 405.71894833 188.6484375 405.5703125 C190.58396484 405.44462891 190.58396484 405.44462891 192.55859375 405.31640625 C193.55761719 405.25582031 194.55664062 405.19523437 195.5859375 405.1328125 C195.9159375 401.5028125 196.2459375 397.8728125 196.5859375 394.1328125 C201.5359375 393.8028125 206.4859375 393.4728125 211.5859375 393.1328125 C212.2459375 388.1828125 212.9059375 383.2328125 213.5859375 378.1328125 C218.5359375 378.1328125 223.4859375 378.1328125 228.5859375 378.1328125 C228.5859375 375.1628125 228.5859375 372.1928125 228.5859375 369.1328125 C232.8759375 369.1328125 237.1659375 369.1328125 241.5859375 369.1328125 C241.555 366.44125 241.555 366.44125 241.5234375 363.6953125 C241.5021253 361.84115128 241.51367248 359.98568752 241.5859375 358.1328125 C242.5859375 357.1328125 242.5859375 357.1328125 245.74609375 357.03515625 C247.67775391 357.05255859 247.67775391 357.05255859 249.6484375 357.0703125 C250.93878906 357.07933594 252.22914063 357.08835937 253.55859375 357.09765625 C255.05712891 357.11505859 255.05712891 357.11505859 256.5859375 357.1328125 C256.64652344 356.27816406 256.70710938 355.42351562 256.76953125 354.54296875 C256.85332031 353.43824219 256.93710937 352.33351563 257.0234375 351.1953125 C257.10464844 350.09316406 257.18585938 348.99101563 257.26953125 347.85546875 C257.5859375 345.1328125 257.5859375 345.1328125 258.5859375 344.1328125 C263.25438978 343.98854636 267.91459703 344.09072835 272.5859375 344.1328125 C272.5859375 339.5128125 272.5859375 334.8928125 272.5859375 330.1328125 C277.54213663 328.48074612 282.4262719 329.63349002 287.5859375 330.1328125 C287.5859375 325.5128125 287.5859375 320.8928125 287.5859375 316.1328125 C292.2059375 316.1328125 296.8259375 316.1328125 301.5859375 316.1328125 C301.5859375 312.5028125 301.5859375 308.8728125 301.5859375 305.1328125 C278.4859375 305.1328125 255.3859375 305.1328125 231.5859375 305.1328125 C230.14385809 302.24865367 230.49198863 299.71559722 230.5234375 296.5078125 C230.53697266 294.72503906 230.53697266 294.72503906 230.55078125 292.90625 C230.56818359 291.53339844 230.56818359 291.53339844 230.5859375 290.1328125 C229.58691406 290.07222656 228.58789062 290.01164062 227.55859375 289.94921875 C226.26824219 289.86542969 224.97789062 289.78164063 223.6484375 289.6953125 C222.36066406 289.61410156 221.07289063 289.53289062 219.74609375 289.44921875 C216.5859375 289.1328125 216.5859375 289.1328125 215.5859375 288.1328125 C215.49184271 286.10787019 215.46850628 284.0796138 215.47241211 282.05249023 C215.47248764 280.75121689 215.47256317 279.44994354 215.47264099 278.10923767 C215.47774841 276.67829348 215.48296442 275.24734968 215.48828125 273.81640625 C215.49014547 272.3605199 215.49156935 270.90463293 215.49256897 269.44874573 C215.49639385 265.61001871 215.50622386 261.77132931 215.51727295 257.93261719 C215.52748772 254.01823434 215.53206673 250.10384544 215.53710938 246.18945312 C215.54784617 238.50388709 215.56544271 230.81835985 215.5859375 223.1328125 C210.3059375 223.1328125 205.0259375 223.1328125 199.5859375 223.1328125 C199.2559375 213.2328125 198.9259375 203.3328125 198.5859375 193.1328125 C193.9659375 192.8028125 189.3459375 192.4728125 184.5859375 192.1328125 C183.53466749 186.87646245 183.51478042 182.46959367 183.5859375 177.1328125 C175.1709375 176.6378125 175.1709375 176.6378125 166.5859375 176.1328125 C166.5859375 170.5228125 166.5859375 164.9128125 166.5859375 159.1328125 C152.7259375 159.1328125 138.8659375 159.1328125 124.5859375 159.1328125 C124.5859375 153.8528125 124.5859375 148.5728125 124.5859375 143.1328125 C98.1859375 143.1328125 71.7859375 143.1328125 44.5859375 143.1328125 C44.5859375 138.1828125 44.5859375 133.2328125 44.5859375 128.1328125 C42.4375 128.16536458 40.2890625 128.19791667 38.140625 128.23046875 C35.5859375 128.1328125 35.5859375 128.1328125 29.5859375 127.1328125 C29.5859375 120.5328125 29.5859375 113.9328125 29.5859375 107.1328125 C24.36493688 107.50117385 24.36493688 107.50117385 19.14477539 107.88110352 C17.29403084 108.00436361 15.43973228 108.0704155 13.5859375 108.1328125 C12.5859375 107.1328125 12.5859375 107.1328125 12.47241211 103.16381836 C12.4725713 101.39175643 12.47826965 99.6196899 12.48828125 97.84765625 C12.49040367 96.45142784 12.49040367 96.45142784 12.49256897 95.0269928 C12.49818578 92.04140059 12.5107411 89.05588221 12.5234375 86.0703125 C12.52845034 84.05143337 12.53301362 82.03255307 12.53710938 80.01367188 C12.54816067 75.05335678 12.56543655 70.09309718 12.5859375 65.1328125 C8.9559375 65.1328125 5.3259375 65.1328125 1.5859375 65.1328125 C1.5859375 49.9528125 1.5859375 34.7728125 1.5859375 19.1328125 C-0.7240625 19.1328125 -3.0340625 19.1328125 -5.4140625 19.1328125 C-5.40882568 19.90995605 -5.40358887 20.68709961 -5.39819336 21.48779297 C-5.37746094 24.99445799 -5.36441429 28.50111013 -5.3515625 32.0078125 C-5.34318359 33.23113281 -5.33480469 34.45445312 -5.32617188 35.71484375 C-5.32294922 36.88144531 -5.31972656 38.04804688 -5.31640625 39.25 C-5.31116943 40.32878418 -5.30593262 41.40756836 -5.30053711 42.51904297 C-5.4140625 45.1328125 -5.4140625 45.1328125 -6.4140625 47.1328125 C-11.6940625 47.1328125 -16.9740625 47.1328125 -22.4140625 47.1328125 C-22.4140625 56.0428125 -22.4140625 64.9528125 -22.4140625 74.1328125 C-27.3640625 74.1328125 -32.3140625 74.1328125 -37.4140625 74.1328125 C-37.4140625 87.9928125 -37.4140625 101.8528125 -37.4140625 116.1328125 C-45.4140625 117.1328125 -45.4140625 117.1328125 -52.4140625 116.1328125 C-52.4140625 140.8828125 -52.4140625 165.6328125 -52.4140625 191.1328125 C-48.1240625 191.1328125 -43.8340625 191.1328125 -39.4140625 191.1328125 C-39.42566406 189.98941406 -39.43726563 188.84601563 -39.44921875 187.66796875 C-39.45859538 186.17708496 -39.46769571 184.68619941 -39.4765625 183.1953125 C-39.48494141 182.44056641 -39.49332031 181.68582031 -39.50195312 180.90820312 C-39.51058691 178.98286937 -39.46630583 177.05745669 -39.4140625 175.1328125 C-38.4140625 174.1328125 -38.4140625 174.1328125 -35.03515625 174.03515625 C-33.64058758 174.04089826 -32.24604653 174.05391022 -30.8515625 174.0703125 C-28.3971875 174.0909375 -25.9428125 174.1115625 -23.4140625 174.1328125 C-23.0840625 168.8528125 -22.7540625 163.5728125 -22.4140625 158.1328125 C-16.4740625 157.8028125 -10.5340625 157.4728125 -4.4140625 157.1328125 C-4.0840625 152.1828125 -3.7540625 147.2328125 -3.4140625 142.1328125 C8.1359375 142.1328125 19.6859375 142.1328125 31.5859375 142.1328125 C31.5859375 147.7428125 31.5859375 153.3528125 31.5859375 159.1328125 C20.3659375 159.4628125 9.1459375 159.7928125 -2.4140625 160.1328125 C-2.4140625 165.0828125 -2.4140625 170.0328125 -2.4140625 175.1328125 C-6.79408081 177.32282165 -9.50197069 177.19746164 -14.1640625 176.7578125 C-16.5565625 176.5515625 -18.9490625 176.3453125 -21.4140625 176.1328125 C-21.4140625 181.4128125 -21.4140625 186.6928125 -21.4140625 192.1328125 C-34.1640625 193.1328125 -34.1640625 193.1328125 -36.4140625 193.1328125 C-36.7440625 203.0328125 -37.0740625 212.9328125 -37.4140625 223.1328125 C-42.3640625 223.1328125 -47.3140625 223.1328125 -52.4140625 223.1328125 C-52.4140625 234.0228125 -52.4140625 244.9128125 -52.4140625 256.1328125 C-57.3640625 256.1328125 -62.3140625 256.1328125 -67.4140625 256.1328125 C-68.4140625 255.1328125 -68.4140625 255.1328125 -68.52758789 252.08178711 C-68.52742884 250.73289979 -68.52173862 249.38400636 -68.51171875 248.03515625 C-68.50959633 246.97186852 -68.50959633 246.97186852 -68.50743103 245.88710022 C-68.50181693 243.61479538 -68.48926213 241.34258775 -68.4765625 239.0703125 C-68.47154931 237.53320454 -68.46698609 235.99609505 -68.46289062 234.45898438 C-68.4526922 230.68352583 -68.43311982 226.90827846 -68.4140625 223.1328125 C-74.6840625 223.1328125 -80.9540625 223.1328125 -87.4140625 223.1328125 C-87.7440625 213.2328125 -88.0740625 203.3328125 -88.4140625 193.1328125 C-92.0440625 193.1328125 -95.6740625 193.1328125 -99.4140625 193.1328125 C-100.7340625 192.8028125 -102.0540625 192.4728125 -103.4140625 192.1328125 C-103.4140625 187.1828125 -103.4140625 182.2328125 -103.4140625 177.1328125 C-120.5740625 177.1328125 -137.7340625 177.1328125 -155.4140625 177.1328125 C-154.9190625 184.5578125 -154.9190625 184.5578125 -154.4140625 192.1328125 C-161.4140625 193.1328125 -161.4140625 193.1328125 -169.4140625 193.1328125 C-169.0840625 208.9728125 -168.7540625 224.8128125 -168.4140625 241.1328125 C-164.4540625 241.4628125 -160.4940625 241.7928125 -156.4140625 242.1328125 C-154.30879934 265.81702303 -154.30879934 265.81702303 -156.4140625 272.1328125 C-160.7040625 272.1328125 -164.9940625 272.1328125 -169.4140625 272.1328125 C-169.4140625 277.7428125 -169.4140625 283.3528125 -169.4140625 289.1328125 C-165.1240625 289.1328125 -160.8340625 289.1328125 -156.4140625 289.1328125 C-155.9190625 296.0628125 -155.9190625 296.0628125 -155.4140625 303.1328125 C-153.6196875 303.0709375 -153.6196875 303.0709375 -151.7890625 303.0078125 C-147.62716374 302.86429875 -145.78595632 303.67551456 -141.4140625 305.1328125 C-141.4140625 309.4228125 -141.4140625 313.7128125 -141.4140625 318.1328125 C-139.4546875 317.9471875 -137.4953125 317.7615625 -135.4765625 317.5703125 C-133.45950537 317.37922288 -131.43815005 317.22283648 -129.4140625 317.1328125 C-128.4140625 318.1328125 -128.4140625 318.1328125 -128.31640625 320.85546875 C-128.32800781 321.95761719 -128.33960938 323.05976563 -128.3515625 324.1953125 C-128.36058594 325.30003906 -128.36960937 326.40476562 -128.37890625 327.54296875 C-128.39050781 328.39761719 -128.40210938 329.25226563 -128.4140625 330.1328125 C-127.02380859 330.11541016 -127.02380859 330.11541016 -125.60546875 330.09765625 C-124.40792969 330.08863281 -123.21039063 330.07960938 -121.9765625 330.0703125 C-120.78160156 330.05871094 -119.58664062 330.04710937 -118.35546875 330.03515625 C-115.4140625 330.1328125 -115.4140625 330.1328125 -114.4140625 331.1328125 C-114.34134509 333.48594805 -114.33035382 335.84114918 -114.3515625 338.1953125 C-114.36058594 339.48566406 -114.36960937 340.77601563 -114.37890625 342.10546875 C-114.39050781 343.10449219 -114.40210938 344.10351562 -114.4140625 345.1328125 C-110.4540625 345.1328125 -106.4940625 345.1328125 -102.4140625 345.1328125 C-102.4140625 311.8028125 -102.4140625 278.4728125 -102.4140625 244.1328125 C-110.8290625 243.6378125 -110.8290625 243.6378125 -119.4140625 243.1328125 C-119.7440625 236.8628125 -120.0740625 230.5928125 -120.4140625 224.1328125 C-124.3740625 224.1328125 -128.3340625 224.1328125 -132.4140625 224.1328125 C-132.4140625 230.4028125 -132.4140625 236.6728125 -132.4140625 243.1328125 C-139.1640625 244.2578125 -139.1640625 244.2578125 -143.2890625 243.6953125 C-144.07023437 243.59347656 -144.85140625 243.49164063 -145.65625 243.38671875 C-146.23632812 243.30292969 -146.81640625 243.21914063 -147.4140625 243.1328125 C-147.58144828 237.18815025 -147.74203134 231.24335853 -147.89624023 225.29833984 C-147.94969516 223.27485171 -148.00502716 221.25141227 -148.06225586 219.22802734 C-148.14406946 216.32400007 -148.21918812 213.41986606 -148.29296875 210.515625 C-148.32000381 209.60724884 -148.34703888 208.69887268 -148.37489319 207.76296997 C-148.39498947 206.92224945 -148.41508575 206.08152893 -148.43579102 205.21533203 C-148.45577652 204.47364777 -148.47576202 203.7319635 -148.49635315 202.96780396 C-148.4140625 201.1328125 -148.4140625 201.1328125 -147.4140625 199.1328125 C-137.8440625 199.1328125 -128.2740625 199.1328125 -118.4140625 199.1328125 C-117.9190625 209.5278125 -117.9190625 209.5278125 -117.4140625 220.1328125 C-112.1340625 220.7928125 -106.8540625 221.4528125 -101.4140625 222.1328125 C-101.4140625 228.7328125 -101.4140625 235.3328125 -101.4140625 242.1328125 C-96.4640625 241.8028125 -91.5140625 241.4728125 -86.4140625 241.1328125 C-86.26038527 255.81431375 -86.11213523 270.49585894 -85.9710989 285.17748737 C-85.90547793 291.99425143 -85.83793154 298.81098629 -85.76586914 305.62768555 C-85.69637146 312.20228682 -85.63221727 318.77692605 -85.57136726 325.351614 C-85.54723311 327.86392174 -85.52128777 330.37621274 -85.49352837 332.88848305 C-85.45504716 336.39869187 -85.42292121 339.90890424 -85.39233398 343.41918945 C-85.37938797 344.46503708 -85.36644196 345.5108847 -85.35310364 346.58842468 C-85.3425444 348.02080978 -85.3425444 348.02080978 -85.33177185 349.48213196 C-85.32347571 350.31266744 -85.31517958 351.14320292 -85.30663204 351.99890614 C-85.4140625 354.1328125 -85.4140625 354.1328125 -86.4140625 357.1328125 C-91.0340625 357.4628125 -95.6540625 357.7928125 -100.4140625 358.1328125 C-100.4140625 369.6828125 -100.4140625 381.2328125 -100.4140625 393.1328125 C-105.0340625 393.1328125 -109.6540625 393.1328125 -114.4140625 393.1328125 C-114.40882568 394.57640137 -114.40358887 396.01999023 -114.39819336 397.50732422 C-114.38013279 402.84846378 -114.36862659 408.18960062 -114.35913086 413.53076172 C-114.35409307 415.84521946 -114.34726269 418.159674 -114.33862305 420.47412109 C-114.32653326 423.7952554 -114.32082875 427.11634775 -114.31640625 430.4375 C-114.31124496 431.47711884 -114.30608368 432.51673767 -114.30076599 433.58786011 C-114.30069046 434.54870514 -114.30061493 435.50955017 -114.30053711 436.49951172 C-114.2983165 437.34778534 -114.29609589 438.19605896 -114.29380798 439.07003784 C-114.4140625 441.1328125 -114.4140625 441.1328125 -115.4140625 443.1328125 C-117.37232123 443.15976101 -119.33068476 443.17918468 -121.2890625 443.1953125 C-122.92488281 443.21271484 -122.92488281 443.21271484 -124.59375 443.23046875 C-127.4140625 443.1328125 -127.4140625 443.1328125 -129.4140625 442.1328125 C-129.4140625 467.8728125 -129.4140625 493.6128125 -129.4140625 520.1328125 C-124.7940625 520.1328125 -120.1740625 520.1328125 -115.4140625 520.1328125 C-115.4140625 527.7228125 -115.4140625 535.3128125 -115.4140625 543.1328125 C-111.1240625 543.1328125 -106.8340625 543.1328125 -102.4140625 543.1328125 C-102.4140625 535.5428125 -102.4140625 527.9528125 -102.4140625 520.1328125 C-97.7940625 520.1328125 -93.1740625 520.1328125 -88.4140625 520.1328125 C-88.4140625 516.8328125 -88.4140625 513.5328125 -88.4140625 510.1328125 C-89.80431641 510.15021484 -89.80431641 510.15021484 -91.22265625 510.16796875 C-92.42019531 510.17699219 -93.61773437 510.18601562 -94.8515625 510.1953125 C-96.04652344 510.20691406 -97.24148438 510.21851563 -98.47265625 510.23046875 C-101.4140625 510.1328125 -101.4140625 510.1328125 -102.4140625 509.1328125 C-102.50189792 506.91425986 -102.52100859 504.69292754 -102.51171875 502.47265625 C-102.5103038 501.80818985 -102.50888885 501.14372345 -102.50743103 500.4591217 C-102.50181768 498.32947351 -102.48926304 496.19992911 -102.4765625 494.0703125 C-102.47154921 492.62955881 -102.46698601 491.18880347 -102.46289062 489.74804688 C-102.45184395 486.20960148 -102.43457042 482.67121711 -102.4140625 479.1328125 C-99.37740007 477.61448128 -96.704866 478.25537663 -93.3515625 478.5078125 C-92.08183594 478.59804688 -90.81210937 478.68828125 -89.50390625 478.78125 C-86.4140625 479.1328125 -86.4140625 479.1328125 -85.4140625 480.1328125 C-85.32658043 482.05948757 -85.30708916 483.98933111 -85.31640625 485.91796875 C-85.32124023 487.67270508 -85.32124023 487.67270508 -85.32617188 489.46289062 C-85.33874023 491.31043945 -85.33874023 491.31043945 -85.3515625 493.1953125 C-85.35607422 494.43087891 -85.36058594 495.66644531 -85.36523438 496.93945312 C-85.37706642 500.00395367 -85.39355077 503.06835971 -85.4140625 506.1328125 C-82.7740625 506.1328125 -80.1340625 506.1328125 -77.4140625 506.1328125 C-77.41929932 505.50189697 -77.42453613 504.87098145 -77.42993164 504.22094727 C-77.45064076 501.37907903 -77.46370316 498.53722662 -77.4765625 495.6953125 C-77.48494141 494.70208984 -77.49332031 493.70886719 -77.50195312 492.68554688 C-77.50517578 491.74130859 -77.50839844 490.79707031 -77.51171875 489.82421875 C-77.51695557 488.94967041 -77.52219238 488.07512207 -77.52758789 487.17407227 C-77.4140625 485.1328125 -77.4140625 485.1328125 -76.4140625 484.1328125 C-73.74347399 483.99166089 -71.08974012 484.09034143 -68.4140625 484.1328125 C-68.4140625 479.5128125 -68.4140625 474.8928125 -68.4140625 470.1328125 C-73.3640625 470.1328125 -78.3140625 470.1328125 -83.4140625 470.1328125 C-84.51251652 466.83745045 -84.54100813 464.40294582 -84.54345703 460.93310547 C-84.54660919 459.65523163 -84.54976135 458.37735779 -84.55300903 457.0607605 C-84.55121952 455.66550665 -84.54916864 454.27025311 -84.546875 452.875 C-84.54754849 451.44678735 -84.5485189 450.01857481 -84.54977417 448.59036255 C-84.55124805 445.59945584 -84.54910589 442.60857902 -84.54443359 439.61767578 C-84.53872615 435.77615937 -84.54202366 431.93471266 -84.54800606 428.09319878 C-84.55161123 425.14563466 -84.55047347 422.19808722 -84.54787827 419.25052261 C-84.54720941 417.83347694 -84.54803599 416.41642977 -84.55035782 414.99938583 C-84.55288469 413.02416766 -84.54835349 411.04894419 -84.54345703 409.07373047 C-84.54266144 407.94804657 -84.54186584 406.82236267 -84.54104614 405.66256714 C-84.4140625 403.1328125 -84.4140625 403.1328125 -83.4140625 402.1328125 C-80.881286 402.05961087 -78.38302332 402.04053681 -75.8515625 402.0703125 C-73.3971875 402.0909375 -70.9428125 402.1115625 -68.4140625 402.1328125 C-68.4140625 396.1928125 -68.4140625 390.2528125 -68.4140625 384.1328125 C-71.0540625 384.1328125 -73.6940625 384.1328125 -76.4140625 384.1328125 C-78.04498736 382.50188764 -77.54009252 380.67695615 -77.54104614 378.42565918 C-77.54527588 376.89859596 -77.54527588 376.89859596 -77.54959106 375.34068298 C-77.54655472 373.65127342 -77.54655472 373.65127342 -77.54345703 371.92773438 C-77.54608551 370.15965172 -77.54608551 370.15965172 -77.54876709 368.35585022 C-77.55242517 365.11419642 -77.55155224 361.87258317 -77.548388 358.63092995 C-77.54586394 355.24544817 -77.54820207 351.85996918 -77.54977417 348.4744873 C-77.55159573 342.78816234 -77.54918991 337.10185034 -77.54443359 331.41552734 C-77.538991 324.83253232 -77.54075366 318.24956827 -77.54626 311.666574 C-77.55079151 306.02411937 -77.55144149 300.38167409 -77.54882133 294.73921824 C-77.54725877 291.36503498 -77.54706422 287.99086629 -77.55035782 284.61668396 C-77.55288262 280.85706454 -77.54904618 277.09750552 -77.54345703 273.33789062 C-77.54548126 272.21161758 -77.54750549 271.08534454 -77.54959106 269.92494202 C-77.54677124 268.90689987 -77.54395142 267.88885773 -77.54104614 266.83996582 C-77.5404806 265.50485332 -77.5404806 265.50485332 -77.53990364 264.14276886 C-77.4140625 262.1328125 -77.4140625 262.1328125 -76.4140625 261.1328125 C-72.7840625 261.1328125 -69.1540625 261.1328125 -65.4140625 261.1328125 C-65.4140625 301.0628125 -65.4140625 340.9928125 -65.4140625 382.1328125 C-61.4540625 382.1328125 -57.4940625 382.1328125 -53.4140625 382.1328125 C-52.4140625 383.1328125 -52.4140625 383.1328125 -52.30053711 385.26586914 C-52.30577393 386.18231201 -52.31101074 387.09875488 -52.31640625 388.04296875 C-52.31962891 389.03232422 -52.32285156 390.02167969 -52.32617188 391.04101562 C-52.33455078 392.08193359 -52.34292969 393.12285156 -52.3515625 394.1953125 C-52.35607422 395.24009766 -52.36058594 396.28488281 -52.36523438 397.36132812 C-52.37706323 399.95184704 -52.39499931 402.54233672 -52.4140625 405.1328125 C-47.7940625 405.1328125 -43.1740625 405.1328125 -38.4140625 405.1328125 C-38.35347656 406.39738281 -38.29289063 407.66195313 -38.23046875 408.96484375 C-38.14605346 410.62501121 -38.06140595 412.28516687 -37.9765625 413.9453125 C-37.93724609 414.77869141 -37.89792969 415.61207031 -37.85742188 416.47070312 C-37.79458008 417.67436523 -37.79458008 417.67436523 -37.73046875 418.90234375 C-37.69381104 419.64073486 -37.65715332 420.37912598 -37.61938477 421.13989258 C-37.46564109 423.3403075 -37.46564109 423.3403075 -36.4140625 426.1328125 C-35.14961304 426.12495728 -35.14961304 426.12495728 -33.85961914 426.11694336 C-30.74178314 426.09993424 -27.62397073 426.08737844 -24.50610352 426.07788086 C-23.15485864 426.07284193 -21.80361924 426.06601073 -20.45239258 426.05737305 C-18.51385816 426.04528831 -16.5752845 426.04011422 -14.63671875 426.03515625 C-12.88500366 426.02730103 -12.88500366 426.02730103 -11.09790039 426.01928711 C-8.4140625 426.1328125 -8.4140625 426.1328125 -7.4140625 427.1328125 C-7.31431218 429.64417354 -7.27524067 432.12184665 -7.2890625 434.6328125 C-7.28519531 435.33535156 -7.28132812 436.03789063 -7.27734375 436.76171875 C-7.28744872 442.00619872 -7.28744872 442.00619872 -8.4140625 443.1328125 C-10.63261514 443.22064792 -12.85394746 443.23975859 -15.07421875 443.23046875 C-16.07091835 443.22834633 -16.07091835 443.22834633 -17.0877533 443.22618103 C-19.21740149 443.22056768 -21.34694589 443.20801304 -23.4765625 443.1953125 C-24.91731619 443.19029921 -26.35807153 443.18573601 -27.79882812 443.18164062 C-31.33731208 443.17144326 -34.87557063 443.1518708 -38.4140625 443.1328125 C-38.4140625 451.7128125 -38.4140625 460.2928125 -38.4140625 469.1328125 C-34.4540625 469.1328125 -30.4940625 469.1328125 -26.4140625 469.1328125 C-25.4140625 470.1328125 -25.4140625 470.1328125 -25.28125 472.1640625 C-25.28382813 472.97875 -25.28640625 473.7934375 -25.2890625 474.6328125 C-25.28648437 475.4475 -25.28390625 476.2621875 -25.28125 477.1015625 C-25.4140625 479.1328125 -25.4140625 479.1328125 -26.4140625 480.1328125 C-28.48668326 480.22048362 -30.56226544 480.23977123 -32.63671875 480.23046875 C-33.89677734 480.22724609 -35.15683594 480.22402344 -36.45507812 480.22070312 C-37.79557359 480.21234653 -39.13606838 480.20388157 -40.4765625 480.1953125 C-41.82096192 480.1902991 -43.1653631 480.18573592 -44.50976562 480.18164062 C-47.81124191 480.16980738 -51.11263053 480.15332221 -54.4140625 480.1328125 C-54.33027344 480.75929688 -54.24648438 481.38578125 -54.16015625 482.03125 C-54.00740234 483.25714844 -54.00740234 483.25714844 -53.8515625 484.5078125 C-53.74714844 485.31992187 -53.64273438 486.13203125 -53.53515625 486.96875 C-53.4140625 489.1328125 -53.4140625 489.1328125 -54.4140625 491.1328125 C-57.7140625 491.1328125 -61.0140625 491.1328125 -64.4140625 491.1328125 C-64.40246094 492.42058594 -64.39085937 493.70835937 -64.37890625 495.03515625 C-64.3695298 496.71354022 -64.36042945 498.39192576 -64.3515625 500.0703125 C-64.34318359 500.92044922 -64.33480469 501.77058594 -64.32617188 502.64648438 C-64.32294922 503.45537109 -64.31972656 504.26425781 -64.31640625 505.09765625 C-64.31116943 505.846521 -64.30593262 506.59538574 -64.30053711 507.36694336 C-64.4140625 509.1328125 -64.4140625 509.1328125 -65.4140625 510.1328125 C-68.41737268 510.27474587 -71.40623384 510.17517628 -74.4140625 510.1328125 C-74.4140625 513.7628125 -74.4140625 517.3928125 -74.4140625 521.1328125 C-78.4140625 522.1328125 -78.4140625 522.1328125 -86.4140625 521.1328125 C-86.4140625 528.7228125 -86.4140625 536.3128125 -86.4140625 544.1328125 C-91.0340625 544.4628125 -95.6540625 544.7928125 -100.4140625 545.1328125 C-100.7440625 553.7128125 -101.0740625 562.2928125 -101.4140625 571.1328125 C-106.4140625 572.1328125 -106.4140625 572.1328125 -114.4140625 572.1328125 C-114.9090625 590.9428125 -114.9090625 590.9428125 -115.4140625 610.1328125 C-120.6940625 610.1328125 -125.9740625 610.1328125 -131.4140625 610.1328125 C-131.4140625 595.9428125 -131.4140625 581.7528125 -131.4140625 567.1328125 C-126.7940625 567.1328125 -122.1740625 567.1328125 -117.4140625 567.1328125 C-117.4140625 560.5328125 -117.4140625 553.9328125 -117.4140625 547.1328125 C-122.0340625 547.1328125 -126.6540625 547.1328125 -131.4140625 547.1328125 C-131.4140625 538.8828125 -131.4140625 530.6328125 -131.4140625 522.1328125 C-136.0340625 522.1328125 -140.6540625 522.1328125 -145.4140625 522.1328125 C-145.43718578 511.45861552 -145.45497751 500.78442444 -145.46587467 490.11020756 C-145.47110353 485.15427328 -145.47820124 480.19835608 -145.48950195 475.24243164 C-145.50033072 470.46382414 -145.50633931 465.68523312 -145.50893974 460.9066143 C-145.51079401 459.07927631 -145.51441466 457.25193926 -145.51979256 455.42460823 C-145.52700286 452.87427921 -145.52805345 450.32401913 -145.52758789 447.77368164 C-145.53118317 447.01051636 -145.53477844 446.24735107 -145.53848267 445.46105957 C-145.52811466 440.24686466 -145.52811466 440.24686466 -144.4140625 439.1328125 C-142.22766797 439.06022304 -140.03905861 439.04907467 -137.8515625 439.0703125 C-136.05525391 439.08384766 -136.05525391 439.08384766 -134.22265625 439.09765625 C-133.29582031 439.10925781 -132.36898437 439.12085938 -131.4140625 439.1328125 C-131.44435547 438.54491943 -131.47464844 437.95702637 -131.50585938 437.35131836 C-133.0790625 406.3259375 -133.0790625 406.3259375 -131.4140625 391.1328125 C-126.4640625 391.1328125 -121.5140625 391.1328125 -116.4140625 391.1328125 C-116.4140625 376.6128125 -116.4140625 362.0928125 -116.4140625 347.1328125 C-121.3640625 347.1328125 -126.3140625 347.1328125 -131.4140625 347.1328125 C-131.0840625 342.1828125 -130.7540625 337.2328125 -130.4140625 332.1328125 C-134.7040625 332.4628125 -138.9940625 332.7928125 -143.4140625 333.1328125 C-144.46383214 329.98350357 -144.51537845 327.74466794 -144.4765625 324.4453125 C-144.46753906 323.45144531 -144.45851563 322.45757812 -144.44921875 321.43359375 C-144.43761719 320.67433594 -144.42601562 319.91507812 -144.4140625 319.1328125 C-145.4040625 319.4628125 -146.3940625 319.7928125 -147.4140625 320.1328125 C-149.14201602 320.20084217 -150.87241615 320.21776895 -152.6015625 320.1953125 C-154.1896875 320.1746875 -155.7778125 320.1540625 -157.4140625 320.1328125 C-157.4140625 315.5128125 -157.4140625 310.8928125 -157.4140625 306.1328125 C-160.600625 306.16375 -160.600625 306.16375 -163.8515625 306.1953125 C-166.03905861 306.21655033 -168.22766797 306.20540196 -170.4140625 306.1328125 C-171.4140625 305.1328125 -171.4140625 305.1328125 -171.51171875 301.97265625 C-171.47916667 298.359375 -171.44661458 294.74609375 -171.4140625 291.1328125 C-176.3640625 291.1328125 -181.3140625 291.1328125 -186.4140625 291.1328125 C-186.4140625 284.8628125 -186.4140625 278.5928125 -186.4140625 272.1328125 C-191.30559721 272.1723804 -191.30559721 272.1723804 -196.19702148 272.22290039 C-197.93627967 272.23006163 -199.67551554 272.18305952 -201.4140625 272.1328125 C-202.4140625 271.1328125 -202.4140625 271.1328125 -202.51171875 267.31640625 C-202.50597388 265.73434203 -202.49295843 264.15230219 -202.4765625 262.5703125 C-202.4559375 259.7859375 -202.4353125 257.0015625 -202.4140625 254.1328125 C-192.1840625 254.1328125 -181.9540625 254.1328125 -171.4140625 254.1328125 C-171.4140625 250.8328125 -171.4140625 247.5328125 -171.4140625 244.1328125 C-172.41308594 244.14441406 -173.41210938 244.15601563 -174.44140625 244.16796875 C-175.73175781 244.17699219 -177.02210938 244.18601562 -178.3515625 244.1953125 C-179.63933594 244.20691406 -180.92710937 244.21851563 -182.25390625 244.23046875 C-185.4140625 244.1328125 -185.4140625 244.1328125 -186.4140625 243.1328125 C-186.50746684 241.50606472 -186.53151421 239.87527199 -186.52758789 238.24584961 C-186.52751236 237.20484604 -186.52743683 236.16384247 -186.52735901 235.09129333 C-186.52219772 233.9590181 -186.51703644 232.82674286 -186.51171875 231.66015625 C-186.5103038 230.50737686 -186.50888885 229.35459747 -186.50743103 228.16688538 C-186.50181255 224.46800186 -186.48925692 220.76917786 -186.4765625 217.0703125 C-186.47154988 214.56966233 -186.46698656 212.06901121 -186.46289062 209.56835938 C-186.45183712 203.42315399 -186.4345601 197.27799335 -186.4140625 191.1328125 C-181.4640625 190.8028125 -176.5140625 190.4728125 -171.4140625 190.1328125 C-171.4346875 187.8434375 -171.4553125 185.5540625 -171.4765625 183.1953125 C-171.49777118 180.84114918 -171.48677991 178.48594805 -171.4140625 176.1328125 C-169.53581359 174.25456359 -166.37470974 174.74178853 -163.8515625 174.5703125 C-162.65402344 174.48652344 -161.45648438 174.40273438 -160.22265625 174.31640625 C-159.29582031 174.25582031 -158.36898437 174.19523438 -157.4140625 174.1328125 C-157.42566406 173.37355469 -157.43726563 172.61429688 -157.44921875 171.83203125 C-157.45824219 170.83816406 -157.46726562 169.84429687 -157.4765625 168.8203125 C-157.48816406 167.83417969 -157.49976563 166.84804688 -157.51171875 165.83203125 C-157.4140625 163.1328125 -157.4140625 163.1328125 -156.4140625 160.1328125 C-138.5940625 160.1328125 -120.7740625 160.1328125 -102.4140625 160.1328125 C-102.4140625 165.0828125 -102.4140625 170.0328125 -102.4140625 175.1328125 C-101.0940625 174.8028125 -99.7740625 174.4728125 -98.4140625 174.1328125 C-96.32731296 174.21660685 -94.24257184 174.36698006 -92.1640625 174.5703125 C-90.2665625 174.7559375 -88.3690625 174.9415625 -86.4140625 175.1328125 C-86.4140625 180.4128125 -86.4140625 185.6928125 -86.4140625 191.1328125 C-80.4740625 191.1328125 -74.5340625 191.1328125 -68.4140625 191.1328125 C-68.4140625 166.0528125 -68.4140625 140.9728125 -68.4140625 115.1328125 C-63.7940625 115.1328125 -59.1740625 115.1328125 -54.4140625 115.1328125 C-54.4140625 101.2728125 -54.4140625 87.4128125 -54.4140625 73.1328125 C-49.4640625 72.8028125 -44.5140625 72.4728125 -39.4140625 72.1328125 C-39.4140625 63.2228125 -39.4140625 54.3128125 -39.4140625 45.1328125 C-36.60178628 44.19538709 -34.82659406 43.99810406 -31.9140625 44.0078125 C-31.140625 44.00523437 -30.3671875 44.00265625 -29.5703125 44 C-27.4140625 44.1328125 -27.4140625 44.1328125 -24.4140625 45.1328125 C-24.4140625 35.8928125 -24.4140625 26.6528125 -24.4140625 17.1328125 C-18.8040625 17.1328125 -13.1940625 17.1328125 -7.4140625 17.1328125 C-7.4140625 11.8528125 -7.4140625 6.5728125 -7.4140625 1.1328125 C-4.61533644 0.19990381 -2.89417305 0.00421803 0 0 Z M-68.4140625 192.1328125 C-68.438761 196.08381178 -68.45692173 200.03478124 -68.46899414 203.98583984 C-68.47650286 205.99187801 -68.4892072 207.99789452 -68.50195312 210.00390625 C-68.50517578 211.26074219 -68.50839844 212.51757812 -68.51171875 213.8125 C-68.51957397 215.55635986 -68.51957397 215.55635986 -68.52758789 217.33544922 C-68.60762533 220.08783442 -68.60762533 220.08783442 -67.4140625 222.1328125 C-63.1240625 222.1328125 -58.8340625 222.1328125 -54.4140625 222.1328125 C-54.4140625 212.5628125 -54.4140625 202.9928125 -54.4140625 193.1328125 C-59.33883163 192.42927405 -63.51891287 192.03291149 -68.4140625 192.1328125 Z M-67.4140625 406.1328125 C-67.4140625 426.9228125 -67.4140625 447.7128125 -67.4140625 469.1328125 C-63.4540625 469.1328125 -59.4940625 469.1328125 -55.4140625 469.1328125 C-55.4140625 459.8928125 -55.4140625 450.6528125 -55.4140625 441.1328125 C-50.1340625 441.1328125 -44.8540625 441.1328125 -39.4140625 441.1328125 C-39.4140625 436.8428125 -39.4140625 432.5528125 -39.4140625 428.1328125 C-46.3440625 427.6378125 -46.3440625 427.6378125 -53.4140625 427.1328125 C-53.40246094 425.78445313 -53.39085937 424.43609375 -53.37890625 423.046875 C-53.36952849 421.28385555 -53.36042827 419.5208346 -53.3515625 417.7578125 C-53.33899414 416.42363281 -53.33899414 416.42363281 -53.32617188 415.0625 C-53.32294922 414.21171875 -53.31972656 413.3609375 -53.31640625 412.484375 C-53.31116943 411.69885254 -53.30593262 410.91333008 -53.30053711 410.10400391 C-53.28832297 408.05508582 -53.28832297 408.05508582 -54.4140625 406.1328125 C-58.7040625 406.1328125 -62.9940625 406.1328125 -67.4140625 406.1328125 Z " fill="#FFFFFF" transform="translate(460.4140625,166.8671875)"/>
<path d="M0 0 C4.95 0 9.9 0 15 0 C15 6.93 15 13.86 15 21 C18.63 21 22.26 21 26 21 C26 28.92 26 36.84 26 45 C35.57 45 45.14 45 55 45 C55 49.62 55 54.24 55 59 C51.16432171 59.95891957 48.17718859 60.10177189 44.25 60.0625 C43.07953125 60.05347656 41.9090625 60.04445313 40.703125 60.03515625 C39.81109375 60.02355469 38.9190625 60.01195312 38 60 C38.24556641 60.85851562 38.24556641 60.85851562 38.49609375 61.734375 C39.26382871 65.18620661 39.05883914 68.46965161 39 72 C35.84493858 72.93619813 33.03413498 73.1057123 29.75 73.0625 C28.41195312 73.04896484 28.41195312 73.04896484 27.046875 73.03515625 C26.37140625 73.02355469 25.6959375 73.01195312 25 73 C25.00523682 73.96413818 25.01047363 74.92827637 25.01586914 75.92163086 C25.03392118 79.48672564 25.04543274 83.05181636 25.05493164 86.61694336 C25.0599714 88.16219766 25.0668032 89.70744716 25.07543945 91.25268555 C25.08752076 93.46925029 25.09323173 95.68575218 25.09765625 97.90234375 C25.10281754 98.5971434 25.10797882 99.29194305 25.11329651 100.00779724 C25.11349277 101.6722933 25.06189129 103.33665499 25 105 C24 106 24 106 21.27734375 106.09765625 C18.18489583 106.06510417 15.09244792 106.03255208 12 106 C12 98.74 12 91.48 12 84 C7.50439453 84.12568359 7.50439453 84.12568359 2.91796875 84.25390625 C0.01883077 84.33128641 -2.8803498 84.40682191 -5.77954102 84.48217773 C-7.79619465 84.53558505 -9.81279835 84.59091343 -11.8293457 84.64819336 C-14.72596469 84.73013953 -17.62269231 84.80520145 -20.51953125 84.87890625 C-21.42274612 84.90594131 -22.325961 84.93297638 -23.25654602 84.96083069 C-24.09719101 84.98092697 -24.937836 85.00102325 -25.80395508 85.02172852 C-26.54341873 85.04171402 -27.28288239 85.06169952 -28.04475403 85.08229065 C-30 85 -30 85 -33 84 C-33 80.7 -33 77.4 -33 74 C-38.94 74 -44.88 74 -51 74 C-51 69.05 -51 64.1 -51 59 C-39.78 59 -28.56 59 -17 59 C-17 57.02 -17 55.04 -17 53 C-16.505 52.01 -16.505 52.01 -16 51 C-6.76 51 2.48 51 12 51 C12 41.76 12 32.52 12 23 C8.37 23 4.74 23 1 23 C0 22 0 22 -0.11352539 19.86694336 C-0.10828857 18.95050049 -0.10305176 18.03405762 -0.09765625 17.08984375 C-0.09443359 16.10048828 -0.09121094 15.11113281 -0.08789062 14.09179688 C-0.07532227 12.53041992 -0.07532227 12.53041992 -0.0625 10.9375 C-0.05798828 9.89271484 -0.05347656 8.84792969 -0.04882812 7.77148438 C-0.03699927 5.18096546 -0.01906319 2.59047578 0 0 Z " fill="#FFFFFF" transform="translate(580,440)"/>
<path d="M0 0 C4.62 0 9.24 0 14 0 C14.495 11.385 14.495 11.385 15 23 C9 25 9 25 4 25 C4.33 34.24 4.66 43.48 5 53 C12.52432774 52.96041166 12.52432774 52.96041166 20.04858398 52.90991211 C21.44572632 52.90616577 21.44572632 52.90616577 22.87109375 52.90234375 C23.82943115 52.89710693 24.78776855 52.89187012 25.77514648 52.88647461 C28 53 28 53 29 54 C29 56.31 29 58.62 29 61 C36.26 61 43.52 61 51 61 C52.125 71.5 52.125 71.5 51 76 C45.72 76 40.44 76 35 76 C35.020625 77.629375 35.04125 79.25875 35.0625 80.9375 C35.08386068 82.62499341 35.07205511 84.31391034 35 86 C34 87 34 87 30.94897461 87.11352539 C29.60008729 87.11336634 28.25119386 87.10767612 26.90234375 87.09765625 C25.83905602 87.09553383 25.83905602 87.09553383 24.75428772 87.09336853 C22.48198288 87.08775443 20.20977525 87.07519963 17.9375 87.0625 C16.40039204 87.05748681 14.86328255 87.05292359 13.32617188 87.04882812 C9.55074358 87.03778042 5.77538829 87.02050641 2 87 C0.84700779 82.64425167 1.19441943 80.83348343 2 76 C-2.29 76 -6.58 76 -11 76 C-11.495 69.565 -11.495 69.565 -12 63 C-16.95 62.67 -21.9 62.34 -27 62 C-27.87890625 51.16015625 -27.87890625 51.16015625 -28 48 C-27 47 -27 47 -23.40234375 46.90234375 C-21.91402745 46.90808728 -20.42573704 46.92110109 -18.9375 46.9375 C-16.318125 46.958125 -13.69875 46.97875 -11 47 C-11 39.08 -11 31.16 -11 23 C-7.37 23 -3.74 23 0 23 C0 15.41 0 7.82 0 0 Z " fill="#FFFFFF" transform="translate(431,438)"/>
<path d="M0 0 C4.62 0 9.24 0 14 0 C14 8.25 14 16.5 14 25 C10 26 10 26 4 26 C3.67 40.52 3.34 55.04 3 70 C-0.96 70 -4.92 70 -9 70 C-8.98839844 71.50433594 -8.97679687 73.00867188 -8.96484375 74.55859375 C-8.95546751 76.51822793 -8.94636713 78.47786345 -8.9375 80.4375 C-8.92912109 81.43072266 -8.92074219 82.42394531 -8.91210938 83.44726562 C-8.90727539 84.86362305 -8.90727539 84.86362305 -8.90234375 86.30859375 C-8.89448853 87.62041626 -8.89448853 87.62041626 -8.88647461 88.95874023 C-9 91 -9 91 -10 92 C-12.51136104 92.09975032 -14.98903415 92.13882183 -17.5 92.125 C-18.20253906 92.12886719 -18.90507812 92.13273438 -19.62890625 92.13671875 C-24.87338622 92.12661378 -24.87338622 92.12661378 -26 91 C-26.09902107 89.46218409 -26.13079567 87.91990556 -26.1328125 86.37890625 C-26.13410156 85.44369141 -26.13539063 84.50847656 -26.13671875 83.54492188 C-26.13285156 82.56072266 -26.12898438 81.57652344 -26.125 80.5625 C-26.12886719 79.58216797 -26.13273437 78.60183594 -26.13671875 77.59179688 C-26.13542969 76.65529297 -26.13414062 75.71878906 -26.1328125 74.75390625 C-26.13168457 73.89095947 -26.13055664 73.0280127 -26.12939453 72.13891602 C-26 70 -26 70 -25 68 C-20.71 68 -16.42 68 -12 68 C-12 53.48 -12 38.96 -12 24 C-4 23 -4 23 0 23 C0 15.41 0 7.82 0 0 Z " fill="#FFFFFF" transform="translate(416,685)"/>
<path d="M0 0 C1.93166016 0.01740234 1.93166016 0.01740234 3.90234375 0.03515625 C5.19269531 0.04417969 6.48304688 0.05320312 7.8125 0.0625 C8.81152344 0.07410156 9.81054688 0.08570313 10.83984375 0.09765625 C11.91901601 3.33517303 11.95409976 5.67517396 11.9375 9.078125 C11.93427734 10.24150391 11.93105469 11.40488281 11.92773438 12.60351562 C11.91935547 13.81845703 11.91097656 15.03339844 11.90234375 16.28515625 C11.89783203 17.51169922 11.89332031 18.73824219 11.88867188 20.00195312 C11.87687451 23.0338749 11.85893889 26.06577165 11.83984375 29.09765625 C15.79984375 29.42765625 19.75984375 29.75765625 23.83984375 30.09765625 C24.16984375 41.64765625 24.49984375 53.19765625 24.83984375 65.09765625 C28.79984375 65.42765625 32.75984375 65.75765625 36.83984375 66.09765625 C36.83984375 74.01765625 36.83984375 81.93765625 36.83984375 90.09765625 C34.38546875 90.11828125 31.93109375 90.13890625 29.40234375 90.16015625 C28.62834229 90.16926025 27.85434082 90.17836426 27.05688477 90.18774414 C25.31762658 90.19490538 23.57839071 90.14790327 21.83984375 90.09765625 C20.83984375 89.09765625 20.83984375 89.09765625 20.72631836 87.05639648 C20.73155518 86.18184814 20.73679199 85.3072998 20.7421875 84.40625 C20.74541016 83.46201172 20.74863281 82.51777344 20.75195312 81.54492188 C20.76033203 80.55169922 20.76871094 79.55847656 20.77734375 78.53515625 C20.78185547 77.53806641 20.78636719 76.54097656 20.79101562 75.51367188 C20.80284368 73.04160776 20.81932526 70.56966107 20.83984375 68.09765625 C19.60234375 68.28328125 18.36484375 68.46890625 17.08984375 68.66015625 C13.74601256 69.16173093 12.31820705 68.96724707 8.83984375 68.09765625 C8.34484375 50.77265625 8.34484375 50.77265625 7.83984375 33.09765625 C4.20984375 32.76765625 0.57984375 32.43765625 -3.16015625 32.09765625 C-4.08212824 28.4097683 -4.28911833 25.60412388 -4.29296875 21.8359375 C-4.29425781 20.63517578 -4.29554688 19.43441406 -4.296875 18.19726562 C-4.29300781 16.94751953 -4.28914062 15.69777344 -4.28515625 14.41015625 C-4.28902344 13.14880859 -4.29289063 11.88746094 -4.296875 10.58789062 C-4.29558594 9.39099609 -4.29429687 8.19410156 -4.29296875 6.9609375 C-4.29184082 5.86048096 -4.29071289 4.76002441 -4.28955078 3.6262207 C-4.09709013 -0.13475091 -3.84681117 0.1188755 0 0 Z " fill="#FFFFFF" transform="translate(625.16015625,686.90234375)"/>
</svg>
